  0
SECTION
  2
HEADER
  9
$ACADVER
  1
AC1009
  9
$EXTMIN
 10
0.0
 20
0.0
 30
0.0
  9
$EXTMAX
 10
1000.0
 20
1000.0
 30
0.0
  9
$FILLMODE
 70
 0
  9
$SPLFRAME
 70
 1
  0
ENDSEC
  0
SECTION
  2
TABLES
  0
TABLE
  2
LAYER
 70
1
  0
LAYER
  2
0
 70
     0
 62
     7
  6
CONTINUOUS
  0
ENDTAB
  0
ENDSEC
  0
SECTION
  2
ENTITIES
  0
LINE
  8
0
 62
     0
 10
0.0950846
 20
90.5686
 30
0.0
 11
200.595
 21
90.5686
 31
0.0
  0
LINE
  8
0
 62
     0
 10
200.595
 20
90.5686
 30
0.0
 11
200.595
 21
0.367937
 31
0.0
  0
LINE
  8
0
 62
     0
 10
200.595
 20
0.367937
 30
0.0
 11
0.0950846
 21
0.367937
 31
0.0
  0
LINE
  8
0
 62
     0
 10
0.0950846
 20
0.367937
 30
0.0
 11
0.0950846
 21
90.5686
 31
0.0
  0
LINE
  8
0
 62
     0
 10
196.476
 20
5.77123
 30
0.0
 11
195.92
 21
5.48735
 31
0.0
  0
LINE
  8
0
 62
     0
 10
195.92
 20
5.48735
 30
0.0
 11
195.476
 21
5.045
 31
0.0
  0
LINE
  8
0
 62
     0
 10
195.476
 20
5.045
 30
0.0
 11
195.192
 21
4.48691
 31
0.0
  0
LINE
  8
0
 62
     0
 10
195.192
 20
4.48691
 30
0.0
 11
195.096
 21
3.86814
 31
0.0
  0
LINE
  8
0
 62
     0
 10
195.096
 20
3.86814
 30
0.0
 11
195.192
 21
3.25079
 31
0.0
  0
LINE
  8
0
 62
     0
 10
195.192
 20
3.25079
 30
0.0
 11
195.476
 21
2.69407
 31
0.0
  0
LINE
  8
0
 62
     0
 10
195.476
 20
2.69407
 30
0.0
 11
195.92
 21
2.25034
 31
0.0
  0
LINE
  8
0
 62
     0
 10
195.92
 20
2.25034
 30
0.0
 11
196.476
 21
1.96646
 31
0.0
  0
LINE
  8
0
 62
     0
 10
196.476
 20
1.96646
 30
0.0
 11
197.095
 21
1.86862
 31
0.0
  0
LINE
  8
0
 62
     0
 10
197.095
 20
1.86862
 30
0.0
 11
197.714
 21
1.96646
 31
0.0
  0
LINE
  8
0
 62
     0
 10
197.714
 20
1.96646
 30
0.0
 11
198.271
 21
2.25034
 31
0.0
  0
LINE
  8
0
 62
     0
 10
198.271
 20
2.25034
 30
0.0
 11
198.713
 21
2.69407
 31
0.0
  0
LINE
  8
0
 62
     0
 10
198.713
 20
2.69407
 30
0.0
 11
198.997
 21
3.25079
 31
0.0
  0
LINE
  8
0
 62
     0
 10
198.997
 20
3.25079
 30
0.0
 11
199.095
 21
3.86814
 31
0.0
  0
LINE
  8
0
 62
     0
 10
199.095
 20
3.86814
 30
0.0
 11
198.997
 21
4.48691
 31
0.0
  0
LINE
  8
0
 62
     0
 10
198.997
 20
4.48691
 30
0.0
 11
198.713
 21
5.045
 31
0.0
  0
LINE
  8
0
 62
     0
 10
198.713
 20
5.045
 30
0.0
 11
198.271
 21
5.48735
 31
0.0
  0
LINE
  8
0
 62
     0
 10
198.271
 20
5.48735
 30
0.0
 11
197.714
 21
5.77123
 31
0.0
  0
LINE
  8
0
 62
     0
 10
197.714
 20
5.77123
 30
0.0
 11
197.095
 21
5.86906
 31
0.0
  0
LINE
  8
0
 62
     0
 10
197.095
 20
5.86906
 30
0.0
 11
196.476
 21
5.77123
 31
0.0
  0
LINE
  8
0
 62
     0
 10
99.726
 20
5.77123
 30
0.0
 11
99.169
 21
5.48735
 31
0.0
  0
LINE
  8
0
 62
     0
 10
99.169
 20
5.48735
 30
0.0
 11
98.7266
 21
5.045
 31
0.0
  0
LINE
  8
0
 62
     0
 10
98.7266
 20
5.045
 30
0.0
 11
98.443
 21
4.48691
 31
0.0
  0
LINE
  8
0
 62
     0
 10
98.443
 20
4.48691
 30
0.0
 11
98.3449
 21
3.86814
 31
0.0
  0
LINE
  8
0
 62
     0
 10
98.3449
 20
3.86814
 30
0.0
 11
98.443
 21
3.25079
 31
0.0
  0
LINE
  8
0
 62
     0
 10
98.443
 20
3.25079
 30
0.0
 11
98.7266
 21
2.69407
 31
0.0
  0
LINE
  8
0
 62
     0
 10
98.7266
 20
2.69407
 30
0.0
 11
99.169
 21
2.25034
 31
0.0
  0
LINE
  8
0
 62
     0
 10
99.169
 20
2.25034
 30
0.0
 11
99.726
 21
1.96646
 31
0.0
  0
LINE
  8
0
 62
     0
 10
99.726
 20
1.96646
 30
0.0
 11
100.344
 21
1.86862
 31
0.0
  0
LINE
  8
0
 62
     0
 10
100.344
 20
1.86862
 30
0.0
 11
100.962
 21
1.96646
 31
0.0
  0
LINE
  8
0
 62
     0
 10
100.962
 20
1.96646
 30
0.0
 11
101.52
 21
2.25034
 31
0.0
  0
LINE
  8
0
 62
     0
 10
101.52
 20
2.25034
 30
0.0
 11
101.962
 21
2.69407
 31
0.0
  0
LINE
  8
0
 62
     0
 10
101.962
 20
2.69407
 30
0.0
 11
102.246
 21
3.25079
 31
0.0
  0
LINE
  8
0
 62
     0
 10
102.246
 20
3.25079
 30
0.0
 11
102.344
 21
3.86814
 31
0.0
  0
LINE
  8
0
 62
     0
 10
102.344
 20
3.86814
 30
0.0
 11
102.246
 21
4.48691
 31
0.0
  0
LINE
  8
0
 62
     0
 10
102.246
 20
4.48691
 30
0.0
 11
101.962
 21
5.045
 31
0.0
  0
LINE
  8
0
 62
     0
 10
101.962
 20
5.045
 30
0.0
 11
101.52
 21
5.48735
 31
0.0
  0
LINE
  8
0
 62
     0
 10
101.52
 20
5.48735
 30
0.0
 11
100.962
 21
5.77123
 31
0.0
  0
LINE
  8
0
 62
     0
 10
100.962
 20
5.77123
 30
0.0
 11
100.344
 21
5.86906
 31
0.0
  0
LINE
  8
0
 62
     0
 10
100.344
 20
5.86906
 30
0.0
 11
99.726
 21
5.77123
 31
0.0
  0
LINE
  8
0
 62
     0
 10
2.97518
 20
5.77123
 30
0.0
 11
2.41846
 21
5.48735
 31
0.0
  0
LINE
  8
0
 62
     0
 10
2.41846
 20
5.48735
 30
0.0
 11
1.97611
 21
5.045
 31
0.0
  0
LINE
  8
0
 62
     0
 10
1.97611
 20
5.045
 30
0.0
 11
1.69085
 21
4.48691
 31
0.0
  0
LINE
  8
0
 62
     0
 10
1.69085
 20
4.48691
 30
0.0
 11
1.59301
 21
3.86814
 31
0.0
  0
LINE
  8
0
 62
     0
 10
1.59301
 20
3.86814
 30
0.0
 11
1.69085
 21
3.25079
 31
0.0
  0
LINE
  8
0
 62
     0
 10
1.69085
 20
3.25079
 30
0.0
 11
1.97611
 21
2.69407
 31
0.0
  0
LINE
  8
0
 62
     0
 10
1.97611
 20
2.69407
 30
0.0
 11
2.41846
 21
2.25034
 31
0.0
  0
LINE
  8
0
 62
     0
 10
2.41846
 20
2.25034
 30
0.0
 11
2.97518
 21
1.96646
 31
0.0
  0
LINE
  8
0
 62
     0
 10
2.97518
 20
1.96646
 30
0.0
 11
3.59392
 21
1.86862
 31
0.0
  0
LINE
  8
0
 62
     0
 10
3.59392
 20
1.86862
 30
0.0
 11
4.21266
 21
1.96646
 31
0.0
  0
LINE
  8
0
 62
     0
 10
4.21266
 20
1.96646
 30
0.0
 11
4.76938
 21
2.25034
 31
0.0
  0
LINE
  8
0
 62
     0
 10
4.76938
 20
2.25034
 30
0.0
 11
5.2131
 21
2.69407
 31
0.0
  0
LINE
  8
0
 62
     0
 10
5.2131
 20
2.69407
 30
0.0
 11
5.49698
 21
3.25079
 31
0.0
  0
LINE
  8
0
 62
     0
 10
5.49698
 20
3.25079
 30
0.0
 11
5.59484
 21
3.86814
 31
0.0
  0
LINE
  8
0
 62
     0
 10
5.59484
 20
3.86814
 30
0.0
 11
5.49698
 21
4.48691
 31
0.0
  0
LINE
  8
0
 62
     0
 10
5.49698
 20
4.48691
 30
0.0
 11
5.2131
 21
5.045
 31
0.0
  0
LINE
  8
0
 62
     0
 10
5.2131
 20
5.045
 30
0.0
 11
4.76938
 21
5.48735
 31
0.0
  0
LINE
  8
0
 62
     0
 10
4.76938
 20
5.48735
 30
0.0
 11
4.21266
 21
5.77123
 31
0.0
  0
LINE
  8
0
 62
     0
 10
4.21266
 20
5.77123
 30
0.0
 11
3.59392
 21
5.86906
 31
0.0
  0
LINE
  8
0
 62
     0
 10
3.59392
 20
5.86906
 30
0.0
 11
2.97518
 21
5.77123
 31
0.0
  0
LINE
  8
0
 62
     0
 10
5.0946
 20
83.5699
 30
0.0
 11
195.596
 21
83.5699
 31
0.0
  0
LINE
  8
0
 62
     0
 10
195.596
 20
83.5699
 30
0.0
 11
195.596
 21
7.36836
 31
0.0
  0
LINE
  8
0
 62
     0
 10
195.596
 20
7.36836
 30
0.0
 11
5.0946
 21
7.36836
 31
0.0
  0
LINE
  8
0
 62
     0
 10
5.0946
 20
7.36836
 30
0.0
 11
5.0946
 21
83.5699
 31
0.0
  0
LINE
  8
0
 62
     0
 10
196.476
 20
88.973
 30
0.0
 11
195.92
 21
88.6876
 31
0.0
  0
LINE
  8
0
 62
     0
 10
195.92
 20
88.6876
 30
0.0
 11
195.476
 21
88.2456
 31
0.0
  0
LINE
  8
0
 62
     0
 10
195.476
 20
88.2456
 30
0.0
 11
195.192
 21
87.6886
 31
0.0
  0
LINE
  8
0
 62
     0
 10
195.192
 20
87.6886
 30
0.0
 11
195.096
 21
87.0701
 31
0.0
  0
LINE
  8
0
 62
     0
 10
195.096
 20
87.0701
 30
0.0
 11
195.192
 21
86.4514
 31
0.0
  0
LINE
  8
0
 62
     0
 10
195.192
 20
86.4514
 30
0.0
 11
195.476
 21
85.8943
 31
0.0
  0
LINE
  8
0
 62
     0
 10
195.476
 20
85.8943
 30
0.0
 11
195.92
 21
85.4509
 31
0.0
  0
LINE
  8
0
 62
     0
 10
195.92
 20
85.4509
 30
0.0
 11
196.476
 21
85.1669
 31
0.0
  0
LINE
  8
0
 62
     0
 10
196.476
 20
85.1669
 30
0.0
 11
197.095
 21
85.0692
 31
0.0
  0
LINE
  8
0
 62
     0
 10
197.095
 20
85.0692
 30
0.0
 11
197.714
 21
85.1669
 31
0.0
  0
LINE
  8
0
 62
     0
 10
197.714
 20
85.1669
 30
0.0
 11
198.271
 21
85.4509
 31
0.0
  0
LINE
  8
0
 62
     0
 10
198.271
 20
85.4509
 30
0.0
 11
198.713
 21
85.8943
 31
0.0
  0
LINE
  8
0
 62
     0
 10
198.713
 20
85.8943
 30
0.0
 11
198.997
 21
86.4514
 31
0.0
  0
LINE
  8
0
 62
     0
 10
198.997
 20
86.4514
 30
0.0
 11
199.095
 21
87.0701
 31
0.0
  0
LINE
  8
0
 62
     0
 10
199.095
 20
87.0701
 30
0.0
 11
198.997
 21
87.6886
 31
0.0
  0
LINE
  8
0
 62
     0
 10
198.997
 20
87.6886
 30
0.0
 11
198.713
 21
88.2456
 31
0.0
  0
LINE
  8
0
 62
     0
 10
198.713
 20
88.2456
 30
0.0
 11
198.271
 21
88.6876
 31
0.0
  0
LINE
  8
0
 62
     0
 10
198.271
 20
88.6876
 30
0.0
 11
197.714
 21
88.973
 31
0.0
  0
LINE
  8
0
 62
     0
 10
197.714
 20
88.973
 30
0.0
 11
197.095
 21
89.0693
 31
0.0
  0
LINE
  8
0
 62
     0
 10
197.095
 20
89.0693
 30
0.0
 11
196.476
 21
88.973
 31
0.0
  0
LINE
  8
0
 62
     0
 10
99.726
 20
88.973
 30
0.0
 11
99.169
 21
88.6876
 31
0.0
  0
LINE
  8
0
 62
     0
 10
99.169
 20
88.6876
 30
0.0
 11
98.7266
 21
88.2456
 31
0.0
  0
LINE
  8
0
 62
     0
 10
98.7266
 20
88.2456
 30
0.0
 11
98.443
 21
87.6886
 31
0.0
  0
LINE
  8
0
 62
     0
 10
98.443
 20
87.6886
 30
0.0
 11
98.3449
 21
87.0701
 31
0.0
  0
LINE
  8
0
 62
     0
 10
98.3449
 20
87.0701
 30
0.0
 11
98.443
 21
86.4514
 31
0.0
  0
LINE
  8
0
 62
     0
 10
98.443
 20
86.4514
 30
0.0
 11
98.7266
 21
85.8943
 31
0.0
  0
LINE
  8
0
 62
     0
 10
98.7266
 20
85.8943
 30
0.0
 11
99.169
 21
85.4509
 31
0.0
  0
LINE
  8
0
 62
     0
 10
99.169
 20
85.4509
 30
0.0
 11
99.726
 21
85.1669
 31
0.0
  0
LINE
  8
0
 62
     0
 10
99.726
 20
85.1669
 30
0.0
 11
100.344
 21
85.0692
 31
0.0
  0
LINE
  8
0
 62
     0
 10
100.344
 20
85.0692
 30
0.0
 11
100.962
 21
85.1669
 31
0.0
  0
LINE
  8
0
 62
     0
 10
100.962
 20
85.1669
 30
0.0
 11
101.52
 21
85.4509
 31
0.0
  0
LINE
  8
0
 62
     0
 10
101.52
 20
85.4509
 30
0.0
 11
101.962
 21
85.8943
 31
0.0
  0
LINE
  8
0
 62
     0
 10
101.962
 20
85.8943
 30
0.0
 11
102.246
 21
86.4514
 31
0.0
  0
LINE
  8
0
 62
     0
 10
102.246
 20
86.4514
 30
0.0
 11
102.344
 21
87.0701
 31
0.0
  0
LINE
  8
0
 62
     0
 10
102.344
 20
87.0701
 30
0.0
 11
102.246
 21
87.6886
 31
0.0
  0
LINE
  8
0
 62
     0
 10
102.246
 20
87.6886
 30
0.0
 11
101.962
 21
88.2456
 31
0.0
  0
LINE
  8
0
 62
     0
 10
101.962
 20
88.2456
 30
0.0
 11
101.52
 21
88.6876
 31
0.0
  0
LINE
  8
0
 62
     0
 10
101.52
 20
88.6876
 30
0.0
 11
100.962
 21
88.973
 31
0.0
  0
LINE
  8
0
 62
     0
 10
100.962
 20
88.973
 30
0.0
 11
100.344
 21
89.0693
 31
0.0
  0
LINE
  8
0
 62
     0
 10
100.344
 20
89.0693
 30
0.0
 11
99.726
 21
88.973
 31
0.0
  0
LINE
  8
0
 62
     0
 10
2.97518
 20
88.973
 30
0.0
 11
2.41846
 21
88.6876
 31
0.0
  0
LINE
  8
0
 62
     0
 10
2.41846
 20
88.6876
 30
0.0
 11
1.97611
 21
88.2456
 31
0.0
  0
LINE
  8
0
 62
     0
 10
1.97611
 20
88.2456
 30
0.0
 11
1.69085
 21
87.6886
 31
0.0
  0
LINE
  8
0
 62
     0
 10
1.69085
 20
87.6886
 30
0.0
 11
1.59301
 21
87.0701
 31
0.0
  0
LINE
  8
0
 62
     0
 10
1.59301
 20
87.0701
 30
0.0
 11
1.69085
 21
86.4514
 31
0.0
  0
LINE
  8
0
 62
     0
 10
1.69085
 20
86.4514
 30
0.0
 11
1.97611
 21
85.8943
 31
0.0
  0
LINE
  8
0
 62
     0
 10
1.97611
 20
85.8943
 30
0.0
 11
2.41846
 21
85.4509
 31
0.0
  0
LINE
  8
0
 62
     0
 10
2.41846
 20
85.4509
 30
0.0
 11
2.97518
 21
85.1669
 31
0.0
  0
LINE
  8
0
 62
     0
 10
2.97518
 20
85.1669
 30
0.0
 11
3.59392
 21
85.0692
 31
0.0
  0
LINE
  8
0
 62
     0
 10
3.59392
 20
85.0692
 30
0.0
 11
4.21266
 21
85.1669
 31
0.0
  0
LINE
  8
0
 62
     0
 10
4.21266
 20
85.1669
 30
0.0
 11
4.76938
 21
85.4509
 31
0.0
  0
LINE
  8
0
 62
     0
 10
4.76938
 20
85.4509
 30
0.0
 11
5.2131
 21
85.8943
 31
0.0
  0
LINE
  8
0
 62
     0
 10
5.2131
 20
85.8943
 30
0.0
 11
5.49698
 21
86.4514
 31
0.0
  0
LINE
  8
0
 62
     0
 10
5.49698
 20
86.4514
 30
0.0
 11
5.59484
 21
87.0701
 31
0.0
  0
LINE
  8
0
 62
     0
 10
5.59484
 20
87.0701
 30
0.0
 11
5.49698
 21
87.6886
 31
0.0
  0
LINE
  8
0
 62
     0
 10
5.49698
 20
87.6886
 30
0.0
 11
5.2131
 21
88.2456
 31
0.0
  0
LINE
  8
0
 62
     0
 10
5.2131
 20
88.2456
 30
0.0
 11
4.76938
 21
88.6876
 31
0.0
  0
LINE
  8
0
 62
     0
 10
4.76938
 20
88.6876
 30
0.0
 11
4.21266
 21
88.973
 31
0.0
  0
LINE
  8
0
 62
     0
 10
4.21266
 20
88.973
 30
0.0
 11
3.59392
 21
89.0693
 31
0.0
  0
LINE
  8
0
 62
     0
 10
3.59392
 20
89.0693
 30
0.0
 11
2.97518
 21
88.973
 31
0.0
  0
ENDSEC
  0
EOF
