  0
SECTION
  2
HEADER
  9
$ACADVER
  1
AC1009
  9
$EXTMIN
 10
0.0
 20
0.0
 30
0.0
  9
$EXTMAX
 10
1000.0
 20
1000.0
 30
0.0
  9
$FILLMODE
 70
 0
  9
$SPLFRAME
 70
 1
  0
ENDSEC
  0
SECTION
  2
TABLES
  0
TABLE
  2
LAYER
 70
1
  0
LAYER
  2
0
 70
     0
 62
     7
  6
CONTINUOUS
  0
ENDTAB
  0
ENDSEC
  0
SECTION
  2
ENTITIES
  0
LINE
  8
0
 62
     0
 10
0.0950846
 20
90.5686
 30
0.0
 11
200.595
 21
90.5686
 31
0.0
  0
LINE
  8
0
 62
     0
 10
200.595
 20
90.5686
 30
0.0
 11
200.595
 21
0.367937
 31
0.0
  0
LINE
  8
0
 62
     0
 10
200.595
 20
0.367937
 30
0.0
 11
0.0950846
 21
0.367937
 31
0.0
  0
LINE
  8
0
 62
     0
 10
0.0950846
 20
0.367937
 30
0.0
 11
0.0950846
 21
90.5686
 31
0.0
  0
LINE
  8
0
 62
     0
 10
196.476
 20
5.77123
 30
0.0
 11
195.92
 21
5.48735
 31
0.0
  0
LINE
  8
0
 62
     0
 10
195.92
 20
5.48735
 30
0.0
 11
195.476
 21
5.045
 31
0.0
  0
LINE
  8
0
 62
     0
 10
195.476
 20
5.045
 30
0.0
 11
195.192
 21
4.48691
 31
0.0
  0
LINE
  8
0
 62
     0
 10
195.192
 20
4.48691
 30
0.0
 11
195.096
 21
3.86814
 31
0.0
  0
LINE
  8
0
 62
     0
 10
195.096
 20
3.86814
 30
0.0
 11
195.192
 21
3.25079
 31
0.0
  0
LINE
  8
0
 62
     0
 10
195.192
 20
3.25079
 30
0.0
 11
195.476
 21
2.69407
 31
0.0
  0
LINE
  8
0
 62
     0
 10
195.476
 20
2.69407
 30
0.0
 11
195.92
 21
2.25034
 31
0.0
  0
LINE
  8
0
 62
     0
 10
195.92
 20
2.25034
 30
0.0
 11
196.476
 21
1.96646
 31
0.0
  0
LINE
  8
0
 62
     0
 10
196.476
 20
1.96646
 30
0.0
 11
197.095
 21
1.86862
 31
0.0
  0
LINE
  8
0
 62
     0
 10
197.095
 20
1.86862
 30
0.0
 11
197.714
 21
1.96646
 31
0.0
  0
LINE
  8
0
 62
     0
 10
197.714
 20
1.96646
 30
0.0
 11
198.271
 21
2.25034
 31
0.0
  0
LINE
  8
0
 62
     0
 10
198.271
 20
2.25034
 30
0.0
 11
198.713
 21
2.69407
 31
0.0
  0
LINE
  8
0
 62
     0
 10
198.713
 20
2.69407
 30
0.0
 11
198.997
 21
3.25079
 31
0.0
  0
LINE
  8
0
 62
     0
 10
198.997
 20
3.25079
 30
0.0
 11
199.095
 21
3.86814
 31
0.0
  0
LINE
  8
0
 62
     0
 10
199.095
 20
3.86814
 30
0.0
 11
198.997
 21
4.48691
 31
0.0
  0
LINE
  8
0
 62
     0
 10
198.997
 20
4.48691
 30
0.0
 11
198.713
 21
5.045
 31
0.0
  0
LINE
  8
0
 62
     0
 10
198.713
 20
5.045
 30
0.0
 11
198.271
 21
5.48735
 31
0.0
  0
LINE
  8
0
 62
     0
 10
198.271
 20
5.48735
 30
0.0
 11
197.714
 21
5.77123
 31
0.0
  0
LINE
  8
0
 62
     0
 10
197.714
 20
5.77123
 30
0.0
 11
197.095
 21
5.86906
 31
0.0
  0
LINE
  8
0
 62
     0
 10
197.095
 20
5.86906
 30
0.0
 11
196.476
 21
5.77123
 31
0.0
  0
LINE
  8
0
 62
     0
 10
99.726
 20
5.77123
 30
0.0
 11
99.169
 21
5.48735
 31
0.0
  0
LINE
  8
0
 62
     0
 10
99.169
 20
5.48735
 30
0.0
 11
98.7266
 21
5.045
 31
0.0
  0
LINE
  8
0
 62
     0
 10
98.7266
 20
5.045
 30
0.0
 11
98.443
 21
4.48691
 31
0.0
  0
LINE
  8
0
 62
     0
 10
98.443
 20
4.48691
 30
0.0
 11
98.3449
 21
3.86814
 31
0.0
  0
LINE
  8
0
 62
     0
 10
98.3449
 20
3.86814
 30
0.0
 11
98.443
 21
3.25079
 31
0.0
  0
LINE
  8
0
 62
     0
 10
98.443
 20
3.25079
 30
0.0
 11
98.7266
 21
2.69407
 31
0.0
  0
LINE
  8
0
 62
     0
 10
98.7266
 20
2.69407
 30
0.0
 11
99.169
 21
2.25034
 31
0.0
  0
LINE
  8
0
 62
     0
 10
99.169
 20
2.25034
 30
0.0
 11
99.726
 21
1.96646
 31
0.0
  0
LINE
  8
0
 62
     0
 10
99.726
 20
1.96646
 30
0.0
 11
100.344
 21
1.86862
 31
0.0
  0
LINE
  8
0
 62
     0
 10
100.344
 20
1.86862
 30
0.0
 11
100.962
 21
1.96646
 31
0.0
  0
LINE
  8
0
 62
     0
 10
100.962
 20
1.96646
 30
0.0
 11
101.52
 21
2.25034
 31
0.0
  0
LINE
  8
0
 62
     0
 10
101.52
 20
2.25034
 30
0.0
 11
101.962
 21
2.69407
 31
0.0
  0
LINE
  8
0
 62
     0
 10
101.962
 20
2.69407
 30
0.0
 11
102.246
 21
3.25079
 31
0.0
  0
LINE
  8
0
 62
     0
 10
102.246
 20
3.25079
 30
0.0
 11
102.344
 21
3.86814
 31
0.0
  0
LINE
  8
0
 62
     0
 10
102.344
 20
3.86814
 30
0.0
 11
102.246
 21
4.48691
 31
0.0
  0
LINE
  8
0
 62
     0
 10
102.246
 20
4.48691
 30
0.0
 11
101.962
 21
5.045
 31
0.0
  0
LINE
  8
0
 62
     0
 10
101.962
 20
5.045
 30
0.0
 11
101.52
 21
5.48735
 31
0.0
  0
LINE
  8
0
 62
     0
 10
101.52
 20
5.48735
 30
0.0
 11
100.962
 21
5.77123
 31
0.0
  0
LINE
  8
0
 62
     0
 10
100.962
 20
5.77123
 30
0.0
 11
100.344
 21
5.86906
 31
0.0
  0
LINE
  8
0
 62
     0
 10
100.344
 20
5.86906
 30
0.0
 11
99.726
 21
5.77123
 31
0.0
  0
LINE
  8
0
 62
     0
 10
2.97518
 20
5.77123
 30
0.0
 11
2.41846
 21
5.48735
 31
0.0
  0
LINE
  8
0
 62
     0
 10
2.41846
 20
5.48735
 30
0.0
 11
1.97611
 21
5.045
 31
0.0
  0
LINE
  8
0
 62
     0
 10
1.97611
 20
5.045
 30
0.0
 11
1.69085
 21
4.48691
 31
0.0
  0
LINE
  8
0
 62
     0
 10
1.69085
 20
4.48691
 30
0.0
 11
1.59301
 21
3.86814
 31
0.0
  0
LINE
  8
0
 62
     0
 10
1.59301
 20
3.86814
 30
0.0
 11
1.69085
 21
3.25079
 31
0.0
  0
LINE
  8
0
 62
     0
 10
1.69085
 20
3.25079
 30
0.0
 11
1.97611
 21
2.69407
 31
0.0
  0
LINE
  8
0
 62
     0
 10
1.97611
 20
2.69407
 30
0.0
 11
2.41846
 21
2.25034
 31
0.0
  0
LINE
  8
0
 62
     0
 10
2.41846
 20
2.25034
 30
0.0
 11
2.97518
 21
1.96646
 31
0.0
  0
LINE
  8
0
 62
     0
 10
2.97518
 20
1.96646
 30
0.0
 11
3.59392
 21
1.86862
 31
0.0
  0
LINE
  8
0
 62
     0
 10
3.59392
 20
1.86862
 30
0.0
 11
4.21266
 21
1.96646
 31
0.0
  0
LINE
  8
0
 62
     0
 10
4.21266
 20
1.96646
 30
0.0
 11
4.76938
 21
2.25034
 31
0.0
  0
LINE
  8
0
 62
     0
 10
4.76938
 20
2.25034
 30
0.0
 11
5.2131
 21
2.69407
 31
0.0
  0
LINE
  8
0
 62
     0
 10
5.2131
 20
2.69407
 30
0.0
 11
5.49698
 21
3.25079
 31
0.0
  0
LINE
  8
0
 62
     0
 10
5.49698
 20
3.25079
 30
0.0
 11
5.59484
 21
3.86814
 31
0.0
  0
LINE
  8
0
 62
     0
 10
5.59484
 20
3.86814
 30
0.0
 11
5.49698
 21
4.48691
 31
0.0
  0
LINE
  8
0
 62
     0
 10
5.49698
 20
4.48691
 30
0.0
 11
5.2131
 21
5.045
 31
0.0
  0
LINE
  8
0
 62
     0
 10
5.2131
 20
5.045
 30
0.0
 11
4.76938
 21
5.48735
 31
0.0
  0
LINE
  8
0
 62
     0
 10
4.76938
 20
5.48735
 30
0.0
 11
4.21266
 21
5.77123
 31
0.0
  0
LINE
  8
0
 62
     0
 10
4.21266
 20
5.77123
 30
0.0
 11
3.59392
 21
5.86906
 31
0.0
  0
LINE
  8
0
 62
     0
 10
3.59392
 20
5.86906
 30
0.0
 11
2.97518
 21
5.77123
 31
0.0
  0
LINE
  8
0
 62
     0
 10
179.069
 20
23.8938
 30
0.0
 11
179.069
 21
22.8947
 31
0.0
  0
LINE
  8
0
 62
     0
 10
179.069
 20
22.8947
 30
0.0
 11
178.27
 21
22.8947
 31
0.0
  0
LINE
  8
0
 62
     0
 10
178.27
 20
22.8947
 30
0.0
 11
178.27
 21
19.7955
 31
0.0
  0
LINE
  8
0
 62
     0
 10
178.27
 20
19.7955
 30
0.0
 11
179.069
 21
19.7955
 31
0.0
  0
LINE
  8
0
 62
     0
 10
179.069
 20
19.7955
 30
0.0
 11
179.069
 21
13.994
 31
0.0
  0
LINE
  8
0
 62
     0
 10
179.069
 20
13.994
 30
0.0
 11
178.27
 21
13.994
 31
0.0
  0
LINE
  8
0
 62
     0
 10
178.27
 20
13.994
 30
0.0
 11
178.27
 21
10.8948
 31
0.0
  0
LINE
  8
0
 62
     0
 10
178.27
 20
10.8948
 30
0.0
 11
179.069
 21
10.8948
 31
0.0
  0
LINE
  8
0
 62
     0
 10
179.069
 20
10.8948
 30
0.0
 11
179.069
 21
9.89432
 31
0.0
  0
LINE
  8
0
 62
     0
 10
179.069
 20
9.89432
 30
0.0
 11
193.07
 21
9.89432
 31
0.0
  0
LINE
  8
0
 62
     0
 10
193.07
 20
9.89432
 30
0.0
 11
193.07
 21
10.8948
 31
0.0
  0
LINE
  8
0
 62
     0
 10
193.07
 20
10.8948
 30
0.0
 11
193.869
 21
10.8948
 31
0.0
  0
LINE
  8
0
 62
     0
 10
193.869
 20
10.8948
 30
0.0
 11
193.869
 21
13.994
 31
0.0
  0
LINE
  8
0
 62
     0
 10
193.869
 20
13.994
 30
0.0
 11
193.07
 21
13.994
 31
0.0
  0
LINE
  8
0
 62
     0
 10
193.07
 20
13.994
 30
0.0
 11
193.07
 21
19.7955
 31
0.0
  0
LINE
  8
0
 62
     0
 10
193.07
 20
19.7955
 30
0.0
 11
193.869
 21
19.7955
 31
0.0
  0
LINE
  8
0
 62
     0
 10
193.869
 20
19.7955
 30
0.0
 11
193.869
 21
22.8947
 31
0.0
  0
LINE
  8
0
 62
     0
 10
193.869
 20
22.8947
 30
0.0
 11
193.07
 21
22.8947
 31
0.0
  0
LINE
  8
0
 62
     0
 10
193.07
 20
22.8947
 30
0.0
 11
193.07
 21
23.8938
 31
0.0
  0
LINE
  8
0
 62
     0
 10
193.07
 20
23.8938
 30
0.0
 11
179.069
 21
23.8938
 31
0.0
  0
LINE
  8
0
 62
     0
 10
160.019
 20
23.8938
 30
0.0
 11
160.019
 21
22.8947
 31
0.0
  0
LINE
  8
0
 62
     0
 10
160.019
 20
22.8947
 30
0.0
 11
159.22
 21
22.8947
 31
0.0
  0
LINE
  8
0
 62
     0
 10
159.22
 20
22.8947
 30
0.0
 11
159.22
 21
19.7955
 31
0.0
  0
LINE
  8
0
 62
     0
 10
159.22
 20
19.7955
 30
0.0
 11
160.019
 21
19.7955
 31
0.0
  0
LINE
  8
0
 62
     0
 10
160.019
 20
19.7955
 30
0.0
 11
160.019
 21
13.994
 31
0.0
  0
LINE
  8
0
 62
     0
 10
160.019
 20
13.994
 30
0.0
 11
159.22
 21
13.994
 31
0.0
  0
LINE
  8
0
 62
     0
 10
159.22
 20
13.994
 30
0.0
 11
159.22
 21
10.8948
 31
0.0
  0
LINE
  8
0
 62
     0
 10
159.22
 20
10.8948
 30
0.0
 11
160.019
 21
10.8948
 31
0.0
  0
LINE
  8
0
 62
     0
 10
160.019
 20
10.8948
 30
0.0
 11
160.019
 21
9.89432
 31
0.0
  0
LINE
  8
0
 62
     0
 10
160.019
 20
9.89432
 30
0.0
 11
174.02
 21
9.89432
 31
0.0
  0
LINE
  8
0
 62
     0
 10
174.02
 20
9.89432
 30
0.0
 11
174.02
 21
10.8948
 31
0.0
  0
LINE
  8
0
 62
     0
 10
174.02
 20
10.8948
 30
0.0
 11
174.819
 21
10.8948
 31
0.0
  0
LINE
  8
0
 62
     0
 10
174.819
 20
10.8948
 30
0.0
 11
174.819
 21
13.994
 31
0.0
  0
LINE
  8
0
 62
     0
 10
174.819
 20
13.994
 30
0.0
 11
174.02
 21
13.994
 31
0.0
  0
LINE
  8
0
 62
     0
 10
174.02
 20
13.994
 30
0.0
 11
174.02
 21
19.7955
 31
0.0
  0
LINE
  8
0
 62
     0
 10
174.02
 20
19.7955
 30
0.0
 11
174.819
 21
19.7955
 31
0.0
  0
LINE
  8
0
 62
     0
 10
174.819
 20
19.7955
 30
0.0
 11
174.819
 21
22.8947
 31
0.0
  0
LINE
  8
0
 62
     0
 10
174.819
 20
22.8947
 30
0.0
 11
174.02
 21
22.8947
 31
0.0
  0
LINE
  8
0
 62
     0
 10
174.02
 20
22.8947
 30
0.0
 11
174.02
 21
23.8938
 31
0.0
  0
LINE
  8
0
 62
     0
 10
174.02
 20
23.8938
 30
0.0
 11
160.019
 21
23.8938
 31
0.0
  0
LINE
  8
0
 62
     0
 10
140.969
 20
23.8938
 30
0.0
 11
140.969
 21
22.8947
 31
0.0
  0
LINE
  8
0
 62
     0
 10
140.969
 20
22.8947
 30
0.0
 11
140.17
 21
22.8947
 31
0.0
  0
LINE
  8
0
 62
     0
 10
140.17
 20
22.8947
 30
0.0
 11
140.17
 21
19.7955
 31
0.0
  0
LINE
  8
0
 62
     0
 10
140.17
 20
19.7955
 30
0.0
 11
140.969
 21
19.7955
 31
0.0
  0
LINE
  8
0
 62
     0
 10
140.969
 20
19.7955
 30
0.0
 11
140.969
 21
13.994
 31
0.0
  0
LINE
  8
0
 62
     0
 10
140.969
 20
13.994
 30
0.0
 11
140.17
 21
13.994
 31
0.0
  0
LINE
  8
0
 62
     0
 10
140.17
 20
13.994
 30
0.0
 11
140.17
 21
10.8948
 31
0.0
  0
LINE
  8
0
 62
     0
 10
140.17
 20
10.8948
 30
0.0
 11
140.969
 21
10.8948
 31
0.0
  0
LINE
  8
0
 62
     0
 10
140.969
 20
10.8948
 30
0.0
 11
140.969
 21
9.89432
 31
0.0
  0
LINE
  8
0
 62
     0
 10
140.969
 20
9.89432
 30
0.0
 11
154.97
 21
9.89432
 31
0.0
  0
LINE
  8
0
 62
     0
 10
154.97
 20
9.89432
 30
0.0
 11
154.97
 21
10.8948
 31
0.0
  0
LINE
  8
0
 62
     0
 10
154.97
 20
10.8948
 30
0.0
 11
155.769
 21
10.8948
 31
0.0
  0
LINE
  8
0
 62
     0
 10
155.769
 20
10.8948
 30
0.0
 11
155.769
 21
13.994
 31
0.0
  0
LINE
  8
0
 62
     0
 10
155.769
 20
13.994
 30
0.0
 11
154.97
 21
13.994
 31
0.0
  0
LINE
  8
0
 62
     0
 10
154.97
 20
13.994
 30
0.0
 11
154.97
 21
19.7955
 31
0.0
  0
LINE
  8
0
 62
     0
 10
154.97
 20
19.7955
 30
0.0
 11
155.769
 21
19.7955
 31
0.0
  0
LINE
  8
0
 62
     0
 10
155.769
 20
19.7955
 30
0.0
 11
155.769
 21
22.8947
 31
0.0
  0
LINE
  8
0
 62
     0
 10
155.769
 20
22.8947
 30
0.0
 11
154.97
 21
22.8947
 31
0.0
  0
LINE
  8
0
 62
     0
 10
154.97
 20
22.8947
 30
0.0
 11
154.97
 21
23.8938
 31
0.0
  0
LINE
  8
0
 62
     0
 10
154.97
 20
23.8938
 30
0.0
 11
140.969
 21
23.8938
 31
0.0
  0
LINE
  8
0
 62
     0
 10
121.919
 20
23.8938
 30
0.0
 11
121.919
 21
22.8947
 31
0.0
  0
LINE
  8
0
 62
     0
 10
121.919
 20
22.8947
 30
0.0
 11
121.118
 21
22.8947
 31
0.0
  0
LINE
  8
0
 62
     0
 10
121.118
 20
22.8947
 30
0.0
 11
121.118
 21
19.7955
 31
0.0
  0
LINE
  8
0
 62
     0
 10
121.118
 20
19.7955
 30
0.0
 11
121.919
 21
19.7955
 31
0.0
  0
LINE
  8
0
 62
     0
 10
121.919
 20
19.7955
 30
0.0
 11
121.919
 21
13.994
 31
0.0
  0
LINE
  8
0
 62
     0
 10
121.919
 20
13.994
 30
0.0
 11
121.118
 21
13.994
 31
0.0
  0
LINE
  8
0
 62
     0
 10
121.118
 20
13.994
 30
0.0
 11
121.118
 21
10.8948
 31
0.0
  0
LINE
  8
0
 62
     0
 10
121.118
 20
10.8948
 30
0.0
 11
121.919
 21
10.8948
 31
0.0
  0
LINE
  8
0
 62
     0
 10
121.919
 20
10.8948
 30
0.0
 11
121.919
 21
9.89432
 31
0.0
  0
LINE
  8
0
 62
     0
 10
121.919
 20
9.89432
 30
0.0
 11
135.92
 21
9.89432
 31
0.0
  0
LINE
  8
0
 62
     0
 10
135.92
 20
9.89432
 30
0.0
 11
135.92
 21
10.8948
 31
0.0
  0
LINE
  8
0
 62
     0
 10
135.92
 20
10.8948
 30
0.0
 11
136.719
 21
10.8948
 31
0.0
  0
LINE
  8
0
 62
     0
 10
136.719
 20
10.8948
 30
0.0
 11
136.719
 21
13.994
 31
0.0
  0
LINE
  8
0
 62
     0
 10
136.719
 20
13.994
 30
0.0
 11
135.92
 21
13.994
 31
0.0
  0
LINE
  8
0
 62
     0
 10
135.92
 20
13.994
 30
0.0
 11
135.92
 21
19.7955
 31
0.0
  0
LINE
  8
0
 62
     0
 10
135.92
 20
19.7955
 30
0.0
 11
136.719
 21
19.7955
 31
0.0
  0
LINE
  8
0
 62
     0
 10
136.719
 20
19.7955
 30
0.0
 11
136.719
 21
22.8947
 31
0.0
  0
LINE
  8
0
 62
     0
 10
136.719
 20
22.8947
 30
0.0
 11
135.92
 21
22.8947
 31
0.0
  0
LINE
  8
0
 62
     0
 10
135.92
 20
22.8947
 30
0.0
 11
135.92
 21
23.8938
 31
0.0
  0
LINE
  8
0
 62
     0
 10
135.92
 20
23.8938
 30
0.0
 11
121.919
 21
23.8938
 31
0.0
  0
LINE
  8
0
 62
     0
 10
102.869
 20
23.8938
 30
0.0
 11
102.869
 21
22.8947
 31
0.0
  0
LINE
  8
0
 62
     0
 10
102.869
 20
22.8947
 30
0.0
 11
102.07
 21
22.8947
 31
0.0
  0
LINE
  8
0
 62
     0
 10
102.07
 20
22.8947
 30
0.0
 11
102.07
 21
19.7955
 31
0.0
  0
LINE
  8
0
 62
     0
 10
102.07
 20
19.7955
 30
0.0
 11
102.869
 21
19.7955
 31
0.0
  0
LINE
  8
0
 62
     0
 10
102.869
 20
19.7955
 30
0.0
 11
102.869
 21
13.994
 31
0.0
  0
LINE
  8
0
 62
     0
 10
102.869
 20
13.994
 30
0.0
 11
102.07
 21
13.994
 31
0.0
  0
LINE
  8
0
 62
     0
 10
102.07
 20
13.994
 30
0.0
 11
102.07
 21
10.8948
 31
0.0
  0
LINE
  8
0
 62
     0
 10
102.07
 20
10.8948
 30
0.0
 11
102.869
 21
10.8948
 31
0.0
  0
LINE
  8
0
 62
     0
 10
102.869
 20
10.8948
 30
0.0
 11
102.869
 21
9.89432
 31
0.0
  0
LINE
  8
0
 62
     0
 10
102.869
 20
9.89432
 30
0.0
 11
116.869
 21
9.89432
 31
0.0
  0
LINE
  8
0
 62
     0
 10
116.869
 20
9.89432
 30
0.0
 11
116.869
 21
10.8948
 31
0.0
  0
LINE
  8
0
 62
     0
 10
116.869
 20
10.8948
 30
0.0
 11
117.668
 21
10.8948
 31
0.0
  0
LINE
  8
0
 62
     0
 10
117.668
 20
10.8948
 30
0.0
 11
117.668
 21
13.994
 31
0.0
  0
LINE
  8
0
 62
     0
 10
117.668
 20
13.994
 30
0.0
 11
116.869
 21
13.994
 31
0.0
  0
LINE
  8
0
 62
     0
 10
116.869
 20
13.994
 30
0.0
 11
116.869
 21
19.7955
 31
0.0
  0
LINE
  8
0
 62
     0
 10
116.869
 20
19.7955
 30
0.0
 11
117.668
 21
19.7955
 31
0.0
  0
LINE
  8
0
 62
     0
 10
117.668
 20
19.7955
 30
0.0
 11
117.668
 21
22.8947
 31
0.0
  0
LINE
  8
0
 62
     0
 10
117.668
 20
22.8947
 30
0.0
 11
116.869
 21
22.8947
 31
0.0
  0
LINE
  8
0
 62
     0
 10
116.869
 20
22.8947
 30
0.0
 11
116.869
 21
23.8938
 31
0.0
  0
LINE
  8
0
 62
     0
 10
116.869
 20
23.8938
 30
0.0
 11
102.869
 21
23.8938
 31
0.0
  0
LINE
  8
0
 62
     0
 10
83.8193
 20
23.8938
 30
0.0
 11
83.8193
 21
22.8947
 31
0.0
  0
LINE
  8
0
 62
     0
 10
83.8193
 20
22.8947
 30
0.0
 11
83.0199
 21
22.8947
 31
0.0
  0
LINE
  8
0
 62
     0
 10
83.0199
 20
22.8947
 30
0.0
 11
83.0199
 21
19.7955
 31
0.0
  0
LINE
  8
0
 62
     0
 10
83.0199
 20
19.7955
 30
0.0
 11
83.8193
 21
19.7955
 31
0.0
  0
LINE
  8
0
 62
     0
 10
83.8193
 20
19.7955
 30
0.0
 11
83.8193
 21
13.994
 31
0.0
  0
LINE
  8
0
 62
     0
 10
83.8193
 20
13.994
 30
0.0
 11
83.0199
 21
13.994
 31
0.0
  0
LINE
  8
0
 62
     0
 10
83.0199
 20
13.994
 30
0.0
 11
83.0199
 21
10.8948
 31
0.0
  0
LINE
  8
0
 62
     0
 10
83.0199
 20
10.8948
 30
0.0
 11
83.8193
 21
10.8948
 31
0.0
  0
LINE
  8
0
 62
     0
 10
83.8193
 20
10.8948
 30
0.0
 11
83.8193
 21
9.89432
 31
0.0
  0
LINE
  8
0
 62
     0
 10
83.8193
 20
9.89432
 30
0.0
 11
97.82
 21
9.89432
 31
0.0
  0
LINE
  8
0
 62
     0
 10
97.82
 20
9.89432
 30
0.0
 11
97.82
 21
10.8948
 31
0.0
  0
LINE
  8
0
 62
     0
 10
97.82
 20
10.8948
 30
0.0
 11
98.618
 21
10.8948
 31
0.0
  0
LINE
  8
0
 62
     0
 10
98.618
 20
10.8948
 30
0.0
 11
98.618
 21
13.994
 31
0.0
  0
LINE
  8
0
 62
     0
 10
98.618
 20
13.994
 30
0.0
 11
97.82
 21
13.994
 31
0.0
  0
LINE
  8
0
 62
     0
 10
97.82
 20
13.994
 30
0.0
 11
97.82
 21
19.7955
 31
0.0
  0
LINE
  8
0
 62
     0
 10
97.82
 20
19.7955
 30
0.0
 11
98.618
 21
19.7955
 31
0.0
  0
LINE
  8
0
 62
     0
 10
98.618
 20
19.7955
 30
0.0
 11
98.618
 21
22.8947
 31
0.0
  0
LINE
  8
0
 62
     0
 10
98.618
 20
22.8947
 30
0.0
 11
97.82
 21
22.8947
 31
0.0
  0
LINE
  8
0
 62
     0
 10
97.82
 20
22.8947
 30
0.0
 11
97.82
 21
23.8938
 31
0.0
  0
LINE
  8
0
 62
     0
 10
97.82
 20
23.8938
 30
0.0
 11
83.8193
 21
23.8938
 31
0.0
  0
LINE
  8
0
 62
     0
 10
64.7693
 20
23.8938
 30
0.0
 11
64.7693
 21
22.8947
 31
0.0
  0
LINE
  8
0
 62
     0
 10
64.7693
 20
22.8947
 30
0.0
 11
63.9699
 21
22.8947
 31
0.0
  0
LINE
  8
0
 62
     0
 10
63.9699
 20
22.8947
 30
0.0
 11
63.9699
 21
19.7955
 31
0.0
  0
LINE
  8
0
 62
     0
 10
63.9699
 20
19.7955
 30
0.0
 11
64.7693
 21
19.7955
 31
0.0
  0
LINE
  8
0
 62
     0
 10
64.7693
 20
19.7955
 30
0.0
 11
64.7693
 21
13.994
 31
0.0
  0
LINE
  8
0
 62
     0
 10
64.7693
 20
13.994
 30
0.0
 11
63.9699
 21
13.994
 31
0.0
  0
LINE
  8
0
 62
     0
 10
63.9699
 20
13.994
 30
0.0
 11
63.9699
 21
10.8948
 31
0.0
  0
LINE
  8
0
 62
     0
 10
63.9699
 20
10.8948
 30
0.0
 11
64.7693
 21
10.8948
 31
0.0
  0
LINE
  8
0
 62
     0
 10
64.7693
 20
10.8948
 30
0.0
 11
64.7693
 21
9.89432
 31
0.0
  0
LINE
  8
0
 62
     0
 10
64.7693
 20
9.89432
 30
0.0
 11
78.77
 21
9.89432
 31
0.0
  0
LINE
  8
0
 62
     0
 10
78.77
 20
9.89432
 30
0.0
 11
78.77
 21
10.8948
 31
0.0
  0
LINE
  8
0
 62
     0
 10
78.77
 20
10.8948
 30
0.0
 11
79.5694
 21
10.8948
 31
0.0
  0
LINE
  8
0
 62
     0
 10
79.5694
 20
10.8948
 30
0.0
 11
79.5694
 21
13.994
 31
0.0
  0
LINE
  8
0
 62
     0
 10
79.5694
 20
13.994
 30
0.0
 11
78.77
 21
13.994
 31
0.0
  0
LINE
  8
0
 62
     0
 10
78.77
 20
13.994
 30
0.0
 11
78.77
 21
19.7955
 31
0.0
  0
LINE
  8
0
 62
     0
 10
78.77
 20
19.7955
 30
0.0
 11
79.5694
 21
19.7955
 31
0.0
  0
LINE
  8
0
 62
     0
 10
79.5694
 20
19.7955
 30
0.0
 11
79.5694
 21
22.8947
 31
0.0
  0
LINE
  8
0
 62
     0
 10
79.5694
 20
22.8947
 30
0.0
 11
78.77
 21
22.8947
 31
0.0
  0
LINE
  8
0
 62
     0
 10
78.77
 20
22.8947
 30
0.0
 11
78.77
 21
23.8938
 31
0.0
  0
LINE
  8
0
 62
     0
 10
78.77
 20
23.8938
 30
0.0
 11
64.7693
 21
23.8938
 31
0.0
  0
LINE
  8
0
 62
     0
 10
45.7193
 20
23.8938
 30
0.0
 11
45.7193
 21
22.8947
 31
0.0
  0
LINE
  8
0
 62
     0
 10
45.7193
 20
22.8947
 30
0.0
 11
44.9199
 21
22.8947
 31
0.0
  0
LINE
  8
0
 62
     0
 10
44.9199
 20
22.8947
 30
0.0
 11
44.9199
 21
19.7955
 31
0.0
  0
LINE
  8
0
 62
     0
 10
44.9199
 20
19.7955
 30
0.0
 11
45.7193
 21
19.7955
 31
0.0
  0
LINE
  8
0
 62
     0
 10
45.7193
 20
19.7955
 30
0.0
 11
45.7193
 21
13.994
 31
0.0
  0
LINE
  8
0
 62
     0
 10
45.7193
 20
13.994
 30
0.0
 11
44.9199
 21
13.994
 31
0.0
  0
LINE
  8
0
 62
     0
 10
44.9199
 20
13.994
 30
0.0
 11
44.9199
 21
10.8948
 31
0.0
  0
LINE
  8
0
 62
     0
 10
44.9199
 20
10.8948
 30
0.0
 11
45.7193
 21
10.8948
 31
0.0
  0
LINE
  8
0
 62
     0
 10
45.7193
 20
10.8948
 30
0.0
 11
45.7193
 21
9.89432
 31
0.0
  0
LINE
  8
0
 62
     0
 10
45.7193
 20
9.89432
 30
0.0
 11
59.72
 21
9.89432
 31
0.0
  0
LINE
  8
0
 62
     0
 10
59.72
 20
9.89432
 30
0.0
 11
59.72
 21
10.8948
 31
0.0
  0
LINE
  8
0
 62
     0
 10
59.72
 20
10.8948
 30
0.0
 11
60.5194
 21
10.8948
 31
0.0
  0
LINE
  8
0
 62
     0
 10
60.5194
 20
10.8948
 30
0.0
 11
60.5194
 21
13.994
 31
0.0
  0
LINE
  8
0
 62
     0
 10
60.5194
 20
13.994
 30
0.0
 11
59.72
 21
13.994
 31
0.0
  0
LINE
  8
0
 62
     0
 10
59.72
 20
13.994
 30
0.0
 11
59.72
 21
19.7955
 31
0.0
  0
LINE
  8
0
 62
     0
 10
59.72
 20
19.7955
 30
0.0
 11
60.5194
 21
19.7955
 31
0.0
  0
LINE
  8
0
 62
     0
 10
60.5194
 20
19.7955
 30
0.0
 11
60.5194
 21
22.8947
 31
0.0
  0
LINE
  8
0
 62
     0
 10
60.5194
 20
22.8947
 30
0.0
 11
59.72
 21
22.8947
 31
0.0
  0
LINE
  8
0
 62
     0
 10
59.72
 20
22.8947
 30
0.0
 11
59.72
 21
23.8938
 31
0.0
  0
LINE
  8
0
 62
     0
 10
59.72
 20
23.8938
 30
0.0
 11
45.7193
 21
23.8938
 31
0.0
  0
LINE
  8
0
 62
     0
 10
26.6692
 20
23.8938
 30
0.0
 11
26.6692
 21
22.8947
 31
0.0
  0
LINE
  8
0
 62
     0
 10
26.6692
 20
22.8947
 30
0.0
 11
25.8699
 21
22.8947
 31
0.0
  0
LINE
  8
0
 62
     0
 10
25.8699
 20
22.8947
 30
0.0
 11
25.8699
 21
19.7955
 31
0.0
  0
LINE
  8
0
 62
     0
 10
25.8699
 20
19.7955
 30
0.0
 11
26.6692
 21
19.7955
 31
0.0
  0
LINE
  8
0
 62
     0
 10
26.6692
 20
19.7955
 30
0.0
 11
26.6692
 21
13.994
 31
0.0
  0
LINE
  8
0
 62
     0
 10
26.6692
 20
13.994
 30
0.0
 11
25.8699
 21
13.994
 31
0.0
  0
LINE
  8
0
 62
     0
 10
25.8699
 20
13.994
 30
0.0
 11
25.8699
 21
10.8948
 31
0.0
  0
LINE
  8
0
 62
     0
 10
25.8699
 20
10.8948
 30
0.0
 11
26.6692
 21
10.8948
 31
0.0
  0
LINE
  8
0
 62
     0
 10
26.6692
 20
10.8948
 30
0.0
 11
26.6692
 21
9.89432
 31
0.0
  0
LINE
  8
0
 62
     0
 10
26.6692
 20
9.89432
 30
0.0
 11
40.67
 21
9.89432
 31
0.0
  0
LINE
  8
0
 62
     0
 10
40.67
 20
9.89432
 30
0.0
 11
40.67
 21
10.8948
 31
0.0
  0
LINE
  8
0
 62
     0
 10
40.67
 20
10.8948
 30
0.0
 11
41.4694
 21
10.8948
 31
0.0
  0
LINE
  8
0
 62
     0
 10
41.4694
 20
10.8948
 30
0.0
 11
41.4694
 21
13.994
 31
0.0
  0
LINE
  8
0
 62
     0
 10
41.4694
 20
13.994
 30
0.0
 11
40.67
 21
13.994
 31
0.0
  0
LINE
  8
0
 62
     0
 10
40.67
 20
13.994
 30
0.0
 11
40.67
 21
19.7955
 31
0.0
  0
LINE
  8
0
 62
     0
 10
40.67
 20
19.7955
 30
0.0
 11
41.4694
 21
19.7955
 31
0.0
  0
LINE
  8
0
 62
     0
 10
41.4694
 20
19.7955
 30
0.0
 11
41.4694
 21
22.8947
 31
0.0
  0
LINE
  8
0
 62
     0
 10
41.4694
 20
22.8947
 30
0.0
 11
40.67
 21
22.8947
 31
0.0
  0
LINE
  8
0
 62
     0
 10
40.67
 20
22.8947
 30
0.0
 11
40.67
 21
23.8938
 31
0.0
  0
LINE
  8
0
 62
     0
 10
40.67
 20
23.8938
 30
0.0
 11
26.6692
 21
23.8938
 31
0.0
  0
LINE
  8
0
 62
     0
 10
7.61919
 20
23.8938
 30
0.0
 11
7.61919
 21
22.8947
 31
0.0
  0
LINE
  8
0
 62
     0
 10
7.61919
 20
22.8947
 30
0.0
 11
6.81852
 21
22.8947
 31
0.0
  0
LINE
  8
0
 62
     0
 10
6.81852
 20
22.8947
 30
0.0
 11
6.81852
 21
19.7955
 31
0.0
  0
LINE
  8
0
 62
     0
 10
6.81852
 20
19.7955
 30
0.0
 11
7.61919
 21
19.7955
 31
0.0
  0
LINE
  8
0
 62
     0
 10
7.61919
 20
19.7955
 30
0.0
 11
7.61919
 21
13.994
 31
0.0
  0
LINE
  8
0
 62
     0
 10
7.61919
 20
13.994
 30
0.0
 11
6.81852
 21
13.994
 31
0.0
  0
LINE
  8
0
 62
     0
 10
6.81852
 20
13.994
 30
0.0
 11
6.81852
 21
10.8948
 31
0.0
  0
LINE
  8
0
 62
     0
 10
6.81852
 20
10.8948
 30
0.0
 11
7.61919
 21
10.8948
 31
0.0
  0
LINE
  8
0
 62
     0
 10
7.61919
 20
10.8948
 30
0.0
 11
7.61919
 21
9.89432
 31
0.0
  0
LINE
  8
0
 62
     0
 10
7.61919
 20
9.89432
 30
0.0
 11
21.6201
 21
9.89432
 31
0.0
  0
LINE
  8
0
 62
     0
 10
21.6201
 20
9.89432
 30
0.0
 11
21.6201
 21
10.8948
 31
0.0
  0
LINE
  8
0
 62
     0
 10
21.6201
 20
10.8948
 30
0.0
 11
22.4193
 21
10.8948
 31
0.0
  0
LINE
  8
0
 62
     0
 10
22.4193
 20
10.8948
 30
0.0
 11
22.4193
 21
13.994
 31
0.0
  0
LINE
  8
0
 62
     0
 10
22.4193
 20
13.994
 30
0.0
 11
21.6201
 21
13.994
 31
0.0
  0
LINE
  8
0
 62
     0
 10
21.6201
 20
13.994
 30
0.0
 11
21.6201
 21
19.7955
 31
0.0
  0
LINE
  8
0
 62
     0
 10
21.6201
 20
19.7955
 30
0.0
 11
22.4193
 21
19.7955
 31
0.0
  0
LINE
  8
0
 62
     0
 10
22.4193
 20
19.7955
 30
0.0
 11
22.4193
 21
22.8947
 31
0.0
  0
LINE
  8
0
 62
     0
 10
22.4193
 20
22.8947
 30
0.0
 11
21.6201
 21
22.8947
 31
0.0
  0
LINE
  8
0
 62
     0
 10
21.6201
 20
22.8947
 30
0.0
 11
21.6201
 21
23.8938
 31
0.0
  0
LINE
  8
0
 62
     0
 10
21.6201
 20
23.8938
 30
0.0
 11
7.61919
 21
23.8938
 31
0.0
  0
LINE
  8
0
 62
     0
 10
179.069
 20
42.9436
 30
0.0
 11
179.069
 21
41.9446
 31
0.0
  0
LINE
  8
0
 62
     0
 10
179.069
 20
41.9446
 30
0.0
 11
178.27
 21
41.9446
 31
0.0
  0
LINE
  8
0
 62
     0
 10
178.27
 20
41.9446
 30
0.0
 11
178.27
 21
38.844
 31
0.0
  0
LINE
  8
0
 62
     0
 10
178.27
 20
38.844
 30
0.0
 11
179.069
 21
38.844
 31
0.0
  0
LINE
  8
0
 62
     0
 10
179.069
 20
38.844
 30
0.0
 11
179.069
 21
33.044
 31
0.0
  0
LINE
  8
0
 62
     0
 10
179.069
 20
33.044
 30
0.0
 11
178.27
 21
33.044
 31
0.0
  0
LINE
  8
0
 62
     0
 10
178.27
 20
33.044
 30
0.0
 11
178.27
 21
29.9448
 31
0.0
  0
LINE
  8
0
 62
     0
 10
178.27
 20
29.9448
 30
0.0
 11
179.069
 21
29.9448
 31
0.0
  0
LINE
  8
0
 62
     0
 10
179.069
 20
29.9448
 30
0.0
 11
179.069
 21
28.9443
 31
0.0
  0
LINE
  8
0
 62
     0
 10
179.069
 20
28.9443
 30
0.0
 11
193.07
 21
28.9443
 31
0.0
  0
LINE
  8
0
 62
     0
 10
193.07
 20
28.9443
 30
0.0
 11
193.07
 21
29.9448
 31
0.0
  0
LINE
  8
0
 62
     0
 10
193.07
 20
29.9448
 30
0.0
 11
193.869
 21
29.9448
 31
0.0
  0
LINE
  8
0
 62
     0
 10
193.869
 20
29.9448
 30
0.0
 11
193.869
 21
33.044
 31
0.0
  0
LINE
  8
0
 62
     0
 10
193.869
 20
33.044
 30
0.0
 11
193.07
 21
33.044
 31
0.0
  0
LINE
  8
0
 62
     0
 10
193.07
 20
33.044
 30
0.0
 11
193.07
 21
38.844
 31
0.0
  0
LINE
  8
0
 62
     0
 10
193.07
 20
38.844
 30
0.0
 11
193.869
 21
38.844
 31
0.0
  0
LINE
  8
0
 62
     0
 10
193.869
 20
38.844
 30
0.0
 11
193.869
 21
41.9446
 31
0.0
  0
LINE
  8
0
 62
     0
 10
193.869
 20
41.9446
 30
0.0
 11
193.07
 21
41.9446
 31
0.0
  0
LINE
  8
0
 62
     0
 10
193.07
 20
41.9446
 30
0.0
 11
193.07
 21
42.9436
 31
0.0
  0
LINE
  8
0
 62
     0
 10
193.07
 20
42.9436
 30
0.0
 11
179.069
 21
42.9436
 31
0.0
  0
LINE
  8
0
 62
     0
 10
160.019
 20
42.9436
 30
0.0
 11
160.019
 21
41.9446
 31
0.0
  0
LINE
  8
0
 62
     0
 10
160.019
 20
41.9446
 30
0.0
 11
159.22
 21
41.9446
 31
0.0
  0
LINE
  8
0
 62
     0
 10
159.22
 20
41.9446
 30
0.0
 11
159.22
 21
38.844
 31
0.0
  0
LINE
  8
0
 62
     0
 10
159.22
 20
38.844
 30
0.0
 11
160.019
 21
38.844
 31
0.0
  0
LINE
  8
0
 62
     0
 10
160.019
 20
38.844
 30
0.0
 11
160.019
 21
33.044
 31
0.0
  0
LINE
  8
0
 62
     0
 10
160.019
 20
33.044
 30
0.0
 11
159.22
 21
33.044
 31
0.0
  0
LINE
  8
0
 62
     0
 10
159.22
 20
33.044
 30
0.0
 11
159.22
 21
29.9448
 31
0.0
  0
LINE
  8
0
 62
     0
 10
159.22
 20
29.9448
 30
0.0
 11
160.019
 21
29.9448
 31
0.0
  0
LINE
  8
0
 62
     0
 10
160.019
 20
29.9448
 30
0.0
 11
160.019
 21
28.9443
 31
0.0
  0
LINE
  8
0
 62
     0
 10
160.019
 20
28.9443
 30
0.0
 11
174.02
 21
28.9443
 31
0.0
  0
LINE
  8
0
 62
     0
 10
174.02
 20
28.9443
 30
0.0
 11
174.02
 21
29.9448
 31
0.0
  0
LINE
  8
0
 62
     0
 10
174.02
 20
29.9448
 30
0.0
 11
174.819
 21
29.9448
 31
0.0
  0
LINE
  8
0
 62
     0
 10
174.819
 20
29.9448
 30
0.0
 11
174.819
 21
33.044
 31
0.0
  0
LINE
  8
0
 62
     0
 10
174.819
 20
33.044
 30
0.0
 11
174.02
 21
33.044
 31
0.0
  0
LINE
  8
0
 62
     0
 10
174.02
 20
33.044
 30
0.0
 11
174.02
 21
38.844
 31
0.0
  0
LINE
  8
0
 62
     0
 10
174.02
 20
38.844
 30
0.0
 11
174.819
 21
38.844
 31
0.0
  0
LINE
  8
0
 62
     0
 10
174.819
 20
38.844
 30
0.0
 11
174.819
 21
41.9446
 31
0.0
  0
LINE
  8
0
 62
     0
 10
174.819
 20
41.9446
 30
0.0
 11
174.02
 21
41.9446
 31
0.0
  0
LINE
  8
0
 62
     0
 10
174.02
 20
41.9446
 30
0.0
 11
174.02
 21
42.9436
 31
0.0
  0
LINE
  8
0
 62
     0
 10
174.02
 20
42.9436
 30
0.0
 11
160.019
 21
42.9436
 31
0.0
  0
LINE
  8
0
 62
     0
 10
140.969
 20
42.9436
 30
0.0
 11
140.969
 21
41.9446
 31
0.0
  0
LINE
  8
0
 62
     0
 10
140.969
 20
41.9446
 30
0.0
 11
140.17
 21
41.9446
 31
0.0
  0
LINE
  8
0
 62
     0
 10
140.17
 20
41.9446
 30
0.0
 11
140.17
 21
38.844
 31
0.0
  0
LINE
  8
0
 62
     0
 10
140.17
 20
38.844
 30
0.0
 11
140.969
 21
38.844
 31
0.0
  0
LINE
  8
0
 62
     0
 10
140.969
 20
38.844
 30
0.0
 11
140.969
 21
33.044
 31
0.0
  0
LINE
  8
0
 62
     0
 10
140.969
 20
33.044
 30
0.0
 11
140.17
 21
33.044
 31
0.0
  0
LINE
  8
0
 62
     0
 10
140.17
 20
33.044
 30
0.0
 11
140.17
 21
29.9448
 31
0.0
  0
LINE
  8
0
 62
     0
 10
140.17
 20
29.9448
 30
0.0
 11
140.969
 21
29.9448
 31
0.0
  0
LINE
  8
0
 62
     0
 10
140.969
 20
29.9448
 30
0.0
 11
140.969
 21
28.9443
 31
0.0
  0
LINE
  8
0
 62
     0
 10
140.969
 20
28.9443
 30
0.0
 11
154.97
 21
28.9443
 31
0.0
  0
LINE
  8
0
 62
     0
 10
154.97
 20
28.9443
 30
0.0
 11
154.97
 21
29.9448
 31
0.0
  0
LINE
  8
0
 62
     0
 10
154.97
 20
29.9448
 30
0.0
 11
155.769
 21
29.9448
 31
0.0
  0
LINE
  8
0
 62
     0
 10
155.769
 20
29.9448
 30
0.0
 11
155.769
 21
33.044
 31
0.0
  0
LINE
  8
0
 62
     0
 10
155.769
 20
33.044
 30
0.0
 11
154.97
 21
33.044
 31
0.0
  0
LINE
  8
0
 62
     0
 10
154.97
 20
33.044
 30
0.0
 11
154.97
 21
38.844
 31
0.0
  0
LINE
  8
0
 62
     0
 10
154.97
 20
38.844
 30
0.0
 11
155.769
 21
38.844
 31
0.0
  0
LINE
  8
0
 62
     0
 10
155.769
 20
38.844
 30
0.0
 11
155.769
 21
41.9446
 31
0.0
  0
LINE
  8
0
 62
     0
 10
155.769
 20
41.9446
 30
0.0
 11
154.97
 21
41.9446
 31
0.0
  0
LINE
  8
0
 62
     0
 10
154.97
 20
41.9446
 30
0.0
 11
154.97
 21
42.9436
 31
0.0
  0
LINE
  8
0
 62
     0
 10
154.97
 20
42.9436
 30
0.0
 11
140.969
 21
42.9436
 31
0.0
  0
LINE
  8
0
 62
     0
 10
121.919
 20
42.9436
 30
0.0
 11
121.919
 21
41.9446
 31
0.0
  0
LINE
  8
0
 62
     0
 10
121.919
 20
41.9446
 30
0.0
 11
121.118
 21
41.9446
 31
0.0
  0
LINE
  8
0
 62
     0
 10
121.118
 20
41.9446
 30
0.0
 11
121.118
 21
38.844
 31
0.0
  0
LINE
  8
0
 62
     0
 10
121.118
 20
38.844
 30
0.0
 11
121.919
 21
38.844
 31
0.0
  0
LINE
  8
0
 62
     0
 10
121.919
 20
38.844
 30
0.0
 11
121.919
 21
33.044
 31
0.0
  0
LINE
  8
0
 62
     0
 10
121.919
 20
33.044
 30
0.0
 11
121.118
 21
33.044
 31
0.0
  0
LINE
  8
0
 62
     0
 10
121.118
 20
33.044
 30
0.0
 11
121.118
 21
29.9448
 31
0.0
  0
LINE
  8
0
 62
     0
 10
121.118
 20
29.9448
 30
0.0
 11
121.919
 21
29.9448
 31
0.0
  0
LINE
  8
0
 62
     0
 10
121.919
 20
29.9448
 30
0.0
 11
121.919
 21
28.9443
 31
0.0
  0
LINE
  8
0
 62
     0
 10
121.919
 20
28.9443
 30
0.0
 11
135.92
 21
28.9443
 31
0.0
  0
LINE
  8
0
 62
     0
 10
135.92
 20
28.9443
 30
0.0
 11
135.92
 21
29.9448
 31
0.0
  0
LINE
  8
0
 62
     0
 10
135.92
 20
29.9448
 30
0.0
 11
136.719
 21
29.9448
 31
0.0
  0
LINE
  8
0
 62
     0
 10
136.719
 20
29.9448
 30
0.0
 11
136.719
 21
33.044
 31
0.0
  0
LINE
  8
0
 62
     0
 10
136.719
 20
33.044
 30
0.0
 11
135.92
 21
33.044
 31
0.0
  0
LINE
  8
0
 62
     0
 10
135.92
 20
33.044
 30
0.0
 11
135.92
 21
38.844
 31
0.0
  0
LINE
  8
0
 62
     0
 10
135.92
 20
38.844
 30
0.0
 11
136.719
 21
38.844
 31
0.0
  0
LINE
  8
0
 62
     0
 10
136.719
 20
38.844
 30
0.0
 11
136.719
 21
41.9446
 31
0.0
  0
LINE
  8
0
 62
     0
 10
136.719
 20
41.9446
 30
0.0
 11
135.92
 21
41.9446
 31
0.0
  0
LINE
  8
0
 62
     0
 10
135.92
 20
41.9446
 30
0.0
 11
135.92
 21
42.9436
 31
0.0
  0
LINE
  8
0
 62
     0
 10
135.92
 20
42.9436
 30
0.0
 11
121.919
 21
42.9436
 31
0.0
  0
LINE
  8
0
 62
     0
 10
102.869
 20
42.9436
 30
0.0
 11
102.869
 21
41.9446
 31
0.0
  0
LINE
  8
0
 62
     0
 10
102.869
 20
41.9446
 30
0.0
 11
102.07
 21
41.9446
 31
0.0
  0
LINE
  8
0
 62
     0
 10
102.07
 20
41.9446
 30
0.0
 11
102.07
 21
38.844
 31
0.0
  0
LINE
  8
0
 62
     0
 10
102.07
 20
38.844
 30
0.0
 11
102.869
 21
38.844
 31
0.0
  0
LINE
  8
0
 62
     0
 10
102.869
 20
38.844
 30
0.0
 11
102.869
 21
33.044
 31
0.0
  0
LINE
  8
0
 62
     0
 10
102.869
 20
33.044
 30
0.0
 11
102.07
 21
33.044
 31
0.0
  0
LINE
  8
0
 62
     0
 10
102.07
 20
33.044
 30
0.0
 11
102.07
 21
29.9448
 31
0.0
  0
LINE
  8
0
 62
     0
 10
102.07
 20
29.9448
 30
0.0
 11
102.869
 21
29.9448
 31
0.0
  0
LINE
  8
0
 62
     0
 10
102.869
 20
29.9448
 30
0.0
 11
102.869
 21
28.9443
 31
0.0
  0
LINE
  8
0
 62
     0
 10
102.869
 20
28.9443
 30
0.0
 11
116.869
 21
28.9443
 31
0.0
  0
LINE
  8
0
 62
     0
 10
116.869
 20
28.9443
 30
0.0
 11
116.869
 21
29.9448
 31
0.0
  0
LINE
  8
0
 62
     0
 10
116.869
 20
29.9448
 30
0.0
 11
117.668
 21
29.9448
 31
0.0
  0
LINE
  8
0
 62
     0
 10
117.668
 20
29.9448
 30
0.0
 11
117.668
 21
33.044
 31
0.0
  0
LINE
  8
0
 62
     0
 10
117.668
 20
33.044
 30
0.0
 11
116.869
 21
33.044
 31
0.0
  0
LINE
  8
0
 62
     0
 10
116.869
 20
33.044
 30
0.0
 11
116.869
 21
38.844
 31
0.0
  0
LINE
  8
0
 62
     0
 10
116.869
 20
38.844
 30
0.0
 11
117.668
 21
38.844
 31
0.0
  0
LINE
  8
0
 62
     0
 10
117.668
 20
38.844
 30
0.0
 11
117.668
 21
41.9446
 31
0.0
  0
LINE
  8
0
 62
     0
 10
117.668
 20
41.9446
 30
0.0
 11
116.869
 21
41.9446
 31
0.0
  0
LINE
  8
0
 62
     0
 10
116.869
 20
41.9446
 30
0.0
 11
116.869
 21
42.9436
 31
0.0
  0
LINE
  8
0
 62
     0
 10
116.869
 20
42.9436
 30
0.0
 11
102.869
 21
42.9436
 31
0.0
  0
LINE
  8
0
 62
     0
 10
83.8193
 20
42.9436
 30
0.0
 11
83.8193
 21
41.9446
 31
0.0
  0
LINE
  8
0
 62
     0
 10
83.8193
 20
41.9446
 30
0.0
 11
83.0199
 21
41.9446
 31
0.0
  0
LINE
  8
0
 62
     0
 10
83.0199
 20
41.9446
 30
0.0
 11
83.0199
 21
38.844
 31
0.0
  0
LINE
  8
0
 62
     0
 10
83.0199
 20
38.844
 30
0.0
 11
83.8193
 21
38.844
 31
0.0
  0
LINE
  8
0
 62
     0
 10
83.8193
 20
38.844
 30
0.0
 11
83.8193
 21
33.044
 31
0.0
  0
LINE
  8
0
 62
     0
 10
83.8193
 20
33.044
 30
0.0
 11
83.0199
 21
33.044
 31
0.0
  0
LINE
  8
0
 62
     0
 10
83.0199
 20
33.044
 30
0.0
 11
83.0199
 21
29.9448
 31
0.0
  0
LINE
  8
0
 62
     0
 10
83.0199
 20
29.9448
 30
0.0
 11
83.8193
 21
29.9448
 31
0.0
  0
LINE
  8
0
 62
     0
 10
83.8193
 20
29.9448
 30
0.0
 11
83.8193
 21
28.9443
 31
0.0
  0
LINE
  8
0
 62
     0
 10
83.8193
 20
28.9443
 30
0.0
 11
97.82
 21
28.9443
 31
0.0
  0
LINE
  8
0
 62
     0
 10
97.82
 20
28.9443
 30
0.0
 11
97.82
 21
29.9448
 31
0.0
  0
LINE
  8
0
 62
     0
 10
97.82
 20
29.9448
 30
0.0
 11
98.618
 21
29.9448
 31
0.0
  0
LINE
  8
0
 62
     0
 10
98.618
 20
29.9448
 30
0.0
 11
98.618
 21
33.044
 31
0.0
  0
LINE
  8
0
 62
     0
 10
98.618
 20
33.044
 30
0.0
 11
97.82
 21
33.044
 31
0.0
  0
LINE
  8
0
 62
     0
 10
97.82
 20
33.044
 30
0.0
 11
97.82
 21
38.844
 31
0.0
  0
LINE
  8
0
 62
     0
 10
97.82
 20
38.844
 30
0.0
 11
98.618
 21
38.844
 31
0.0
  0
LINE
  8
0
 62
     0
 10
98.618
 20
38.844
 30
0.0
 11
98.618
 21
41.9446
 31
0.0
  0
LINE
  8
0
 62
     0
 10
98.618
 20
41.9446
 30
0.0
 11
97.82
 21
41.9446
 31
0.0
  0
LINE
  8
0
 62
     0
 10
97.82
 20
41.9446
 30
0.0
 11
97.82
 21
42.9436
 31
0.0
  0
LINE
  8
0
 62
     0
 10
97.82
 20
42.9436
 30
0.0
 11
83.8193
 21
42.9436
 31
0.0
  0
LINE
  8
0
 62
     0
 10
64.7693
 20
42.9436
 30
0.0
 11
64.7693
 21
41.9446
 31
0.0
  0
LINE
  8
0
 62
     0
 10
64.7693
 20
41.9446
 30
0.0
 11
63.9699
 21
41.9446
 31
0.0
  0
LINE
  8
0
 62
     0
 10
63.9699
 20
41.9446
 30
0.0
 11
63.9699
 21
38.844
 31
0.0
  0
LINE
  8
0
 62
     0
 10
63.9699
 20
38.844
 30
0.0
 11
64.7693
 21
38.844
 31
0.0
  0
LINE
  8
0
 62
     0
 10
64.7693
 20
38.844
 30
0.0
 11
64.7693
 21
33.044
 31
0.0
  0
LINE
  8
0
 62
     0
 10
64.7693
 20
33.044
 30
0.0
 11
63.9699
 21
33.044
 31
0.0
  0
LINE
  8
0
 62
     0
 10
63.9699
 20
33.044
 30
0.0
 11
63.9699
 21
29.9448
 31
0.0
  0
LINE
  8
0
 62
     0
 10
63.9699
 20
29.9448
 30
0.0
 11
64.7693
 21
29.9448
 31
0.0
  0
LINE
  8
0
 62
     0
 10
64.7693
 20
29.9448
 30
0.0
 11
64.7693
 21
28.9443
 31
0.0
  0
LINE
  8
0
 62
     0
 10
64.7693
 20
28.9443
 30
0.0
 11
78.77
 21
28.9443
 31
0.0
  0
LINE
  8
0
 62
     0
 10
78.77
 20
28.9443
 30
0.0
 11
78.77
 21
29.9448
 31
0.0
  0
LINE
  8
0
 62
     0
 10
78.77
 20
29.9448
 30
0.0
 11
79.5694
 21
29.9448
 31
0.0
  0
LINE
  8
0
 62
     0
 10
79.5694
 20
29.9448
 30
0.0
 11
79.5694
 21
33.044
 31
0.0
  0
LINE
  8
0
 62
     0
 10
79.5694
 20
33.044
 30
0.0
 11
78.77
 21
33.044
 31
0.0
  0
LINE
  8
0
 62
     0
 10
78.77
 20
33.044
 30
0.0
 11
78.77
 21
38.844
 31
0.0
  0
LINE
  8
0
 62
     0
 10
78.77
 20
38.844
 30
0.0
 11
79.5694
 21
38.844
 31
0.0
  0
LINE
  8
0
 62
     0
 10
79.5694
 20
38.844
 30
0.0
 11
79.5694
 21
41.9446
 31
0.0
  0
LINE
  8
0
 62
     0
 10
79.5694
 20
41.9446
 30
0.0
 11
78.77
 21
41.9446
 31
0.0
  0
LINE
  8
0
 62
     0
 10
78.77
 20
41.9446
 30
0.0
 11
78.77
 21
42.9436
 31
0.0
  0
LINE
  8
0
 62
     0
 10
78.77
 20
42.9436
 30
0.0
 11
64.7693
 21
42.9436
 31
0.0
  0
LINE
  8
0
 62
     0
 10
45.7193
 20
42.9436
 30
0.0
 11
45.7193
 21
41.9446
 31
0.0
  0
LINE
  8
0
 62
     0
 10
45.7193
 20
41.9446
 30
0.0
 11
44.9199
 21
41.9446
 31
0.0
  0
LINE
  8
0
 62
     0
 10
44.9199
 20
41.9446
 30
0.0
 11
44.9199
 21
38.844
 31
0.0
  0
LINE
  8
0
 62
     0
 10
44.9199
 20
38.844
 30
0.0
 11
45.7193
 21
38.844
 31
0.0
  0
LINE
  8
0
 62
     0
 10
45.7193
 20
38.844
 30
0.0
 11
45.7193
 21
33.044
 31
0.0
  0
LINE
  8
0
 62
     0
 10
45.7193
 20
33.044
 30
0.0
 11
44.9199
 21
33.044
 31
0.0
  0
LINE
  8
0
 62
     0
 10
44.9199
 20
33.044
 30
0.0
 11
44.9199
 21
29.9448
 31
0.0
  0
LINE
  8
0
 62
     0
 10
44.9199
 20
29.9448
 30
0.0
 11
45.7193
 21
29.9448
 31
0.0
  0
LINE
  8
0
 62
     0
 10
45.7193
 20
29.9448
 30
0.0
 11
45.7193
 21
28.9443
 31
0.0
  0
LINE
  8
0
 62
     0
 10
45.7193
 20
28.9443
 30
0.0
 11
59.72
 21
28.9443
 31
0.0
  0
LINE
  8
0
 62
     0
 10
59.72
 20
28.9443
 30
0.0
 11
59.72
 21
29.9448
 31
0.0
  0
LINE
  8
0
 62
     0
 10
59.72
 20
29.9448
 30
0.0
 11
60.5194
 21
29.9448
 31
0.0
  0
LINE
  8
0
 62
     0
 10
60.5194
 20
29.9448
 30
0.0
 11
60.5194
 21
33.044
 31
0.0
  0
LINE
  8
0
 62
     0
 10
60.5194
 20
33.044
 30
0.0
 11
59.72
 21
33.044
 31
0.0
  0
LINE
  8
0
 62
     0
 10
59.72
 20
33.044
 30
0.0
 11
59.72
 21
38.844
 31
0.0
  0
LINE
  8
0
 62
     0
 10
59.72
 20
38.844
 30
0.0
 11
60.5194
 21
38.844
 31
0.0
  0
LINE
  8
0
 62
     0
 10
60.5194
 20
38.844
 30
0.0
 11
60.5194
 21
41.9446
 31
0.0
  0
LINE
  8
0
 62
     0
 10
60.5194
 20
41.9446
 30
0.0
 11
59.72
 21
41.9446
 31
0.0
  0
LINE
  8
0
 62
     0
 10
59.72
 20
41.9446
 30
0.0
 11
59.72
 21
42.9436
 31
0.0
  0
LINE
  8
0
 62
     0
 10
59.72
 20
42.9436
 30
0.0
 11
45.7193
 21
42.9436
 31
0.0
  0
LINE
  8
0
 62
     0
 10
26.6692
 20
42.9436
 30
0.0
 11
26.6692
 21
41.9446
 31
0.0
  0
LINE
  8
0
 62
     0
 10
26.6692
 20
41.9446
 30
0.0
 11
25.8699
 21
41.9446
 31
0.0
  0
LINE
  8
0
 62
     0
 10
25.8699
 20
41.9446
 30
0.0
 11
25.8699
 21
38.844
 31
0.0
  0
LINE
  8
0
 62
     0
 10
25.8699
 20
38.844
 30
0.0
 11
26.6692
 21
38.844
 31
0.0
  0
LINE
  8
0
 62
     0
 10
26.6692
 20
38.844
 30
0.0
 11
26.6692
 21
33.044
 31
0.0
  0
LINE
  8
0
 62
     0
 10
26.6692
 20
33.044
 30
0.0
 11
25.8699
 21
33.044
 31
0.0
  0
LINE
  8
0
 62
     0
 10
25.8699
 20
33.044
 30
0.0
 11
25.8699
 21
29.9448
 31
0.0
  0
LINE
  8
0
 62
     0
 10
25.8699
 20
29.9448
 30
0.0
 11
26.6692
 21
29.9448
 31
0.0
  0
LINE
  8
0
 62
     0
 10
26.6692
 20
29.9448
 30
0.0
 11
26.6692
 21
28.9443
 31
0.0
  0
LINE
  8
0
 62
     0
 10
26.6692
 20
28.9443
 30
0.0
 11
40.67
 21
28.9443
 31
0.0
  0
LINE
  8
0
 62
     0
 10
40.67
 20
28.9443
 30
0.0
 11
40.67
 21
29.9448
 31
0.0
  0
LINE
  8
0
 62
     0
 10
40.67
 20
29.9448
 30
0.0
 11
41.4694
 21
29.9448
 31
0.0
  0
LINE
  8
0
 62
     0
 10
41.4694
 20
29.9448
 30
0.0
 11
41.4694
 21
33.044
 31
0.0
  0
LINE
  8
0
 62
     0
 10
41.4694
 20
33.044
 30
0.0
 11
40.67
 21
33.044
 31
0.0
  0
LINE
  8
0
 62
     0
 10
40.67
 20
33.044
 30
0.0
 11
40.67
 21
38.844
 31
0.0
  0
LINE
  8
0
 62
     0
 10
40.67
 20
38.844
 30
0.0
 11
41.4694
 21
38.844
 31
0.0
  0
LINE
  8
0
 62
     0
 10
41.4694
 20
38.844
 30
0.0
 11
41.4694
 21
41.9446
 31
0.0
  0
LINE
  8
0
 62
     0
 10
41.4694
 20
41.9446
 30
0.0
 11
40.67
 21
41.9446
 31
0.0
  0
LINE
  8
0
 62
     0
 10
40.67
 20
41.9446
 30
0.0
 11
40.67
 21
42.9436
 31
0.0
  0
LINE
  8
0
 62
     0
 10
40.67
 20
42.9436
 30
0.0
 11
26.6692
 21
42.9436
 31
0.0
  0
LINE
  8
0
 62
     0
 10
7.61919
 20
42.9436
 30
0.0
 11
7.61919
 21
41.9446
 31
0.0
  0
LINE
  8
0
 62
     0
 10
7.61919
 20
41.9446
 30
0.0
 11
6.81852
 21
41.9446
 31
0.0
  0
LINE
  8
0
 62
     0
 10
6.81852
 20
41.9446
 30
0.0
 11
6.81852
 21
38.844
 31
0.0
  0
LINE
  8
0
 62
     0
 10
6.81852
 20
38.844
 30
0.0
 11
7.61919
 21
38.844
 31
0.0
  0
LINE
  8
0
 62
     0
 10
7.61919
 20
38.844
 30
0.0
 11
7.61919
 21
33.044
 31
0.0
  0
LINE
  8
0
 62
     0
 10
7.61919
 20
33.044
 30
0.0
 11
6.81852
 21
33.044
 31
0.0
  0
LINE
  8
0
 62
     0
 10
6.81852
 20
33.044
 30
0.0
 11
6.81852
 21
29.9448
 31
0.0
  0
LINE
  8
0
 62
     0
 10
6.81852
 20
29.9448
 30
0.0
 11
7.61919
 21
29.9448
 31
0.0
  0
LINE
  8
0
 62
     0
 10
7.61919
 20
29.9448
 30
0.0
 11
7.61919
 21
28.9443
 31
0.0
  0
LINE
  8
0
 62
     0
 10
7.61919
 20
28.9443
 30
0.0
 11
21.6201
 21
28.9443
 31
0.0
  0
LINE
  8
0
 62
     0
 10
21.6201
 20
28.9443
 30
0.0
 11
21.6201
 21
29.9448
 31
0.0
  0
LINE
  8
0
 62
     0
 10
21.6201
 20
29.9448
 30
0.0
 11
22.4193
 21
29.9448
 31
0.0
  0
LINE
  8
0
 62
     0
 10
22.4193
 20
29.9448
 30
0.0
 11
22.4193
 21
33.044
 31
0.0
  0
LINE
  8
0
 62
     0
 10
22.4193
 20
33.044
 30
0.0
 11
21.6201
 21
33.044
 31
0.0
  0
LINE
  8
0
 62
     0
 10
21.6201
 20
33.044
 30
0.0
 11
21.6201
 21
38.844
 31
0.0
  0
LINE
  8
0
 62
     0
 10
21.6201
 20
38.844
 30
0.0
 11
22.4193
 21
38.844
 31
0.0
  0
LINE
  8
0
 62
     0
 10
22.4193
 20
38.844
 30
0.0
 11
22.4193
 21
41.9446
 31
0.0
  0
LINE
  8
0
 62
     0
 10
22.4193
 20
41.9446
 30
0.0
 11
21.6201
 21
41.9446
 31
0.0
  0
LINE
  8
0
 62
     0
 10
21.6201
 20
41.9446
 30
0.0
 11
21.6201
 21
42.9436
 31
0.0
  0
LINE
  8
0
 62
     0
 10
21.6201
 20
42.9436
 30
0.0
 11
7.61919
 21
42.9436
 31
0.0
  0
LINE
  8
0
 62
     0
 10
179.069
 20
61.9936
 30
0.0
 11
179.069
 21
60.9946
 31
0.0
  0
LINE
  8
0
 62
     0
 10
179.069
 20
60.9946
 30
0.0
 11
178.27
 21
60.9946
 31
0.0
  0
LINE
  8
0
 62
     0
 10
178.27
 20
60.9946
 30
0.0
 11
178.27
 21
57.894
 31
0.0
  0
LINE
  8
0
 62
     0
 10
178.27
 20
57.894
 30
0.0
 11
179.069
 21
57.894
 31
0.0
  0
LINE
  8
0
 62
     0
 10
179.069
 20
57.894
 30
0.0
 11
179.069
 21
52.094
 31
0.0
  0
LINE
  8
0
 62
     0
 10
179.069
 20
52.094
 30
0.0
 11
178.27
 21
52.094
 31
0.0
  0
LINE
  8
0
 62
     0
 10
178.27
 20
52.094
 30
0.0
 11
178.27
 21
48.9948
 31
0.0
  0
LINE
  8
0
 62
     0
 10
178.27
 20
48.9948
 30
0.0
 11
179.069
 21
48.9948
 31
0.0
  0
LINE
  8
0
 62
     0
 10
179.069
 20
48.9948
 30
0.0
 11
179.069
 21
47.9944
 31
0.0
  0
LINE
  8
0
 62
     0
 10
179.069
 20
47.9944
 30
0.0
 11
193.07
 21
47.9944
 31
0.0
  0
LINE
  8
0
 62
     0
 10
193.07
 20
47.9944
 30
0.0
 11
193.07
 21
48.9948
 31
0.0
  0
LINE
  8
0
 62
     0
 10
193.07
 20
48.9948
 30
0.0
 11
193.869
 21
48.9948
 31
0.0
  0
LINE
  8
0
 62
     0
 10
193.869
 20
48.9948
 30
0.0
 11
193.869
 21
52.094
 31
0.0
  0
LINE
  8
0
 62
     0
 10
193.869
 20
52.094
 30
0.0
 11
193.07
 21
52.094
 31
0.0
  0
LINE
  8
0
 62
     0
 10
193.07
 20
52.094
 30
0.0
 11
193.07
 21
57.894
 31
0.0
  0
LINE
  8
0
 62
     0
 10
193.07
 20
57.894
 30
0.0
 11
193.869
 21
57.894
 31
0.0
  0
LINE
  8
0
 62
     0
 10
193.869
 20
57.894
 30
0.0
 11
193.869
 21
60.9946
 31
0.0
  0
LINE
  8
0
 62
     0
 10
193.869
 20
60.9946
 30
0.0
 11
193.07
 21
60.9946
 31
0.0
  0
LINE
  8
0
 62
     0
 10
193.07
 20
60.9946
 30
0.0
 11
193.07
 21
61.9936
 31
0.0
  0
LINE
  8
0
 62
     0
 10
193.07
 20
61.9936
 30
0.0
 11
179.069
 21
61.9936
 31
0.0
  0
LINE
  8
0
 62
     0
 10
160.019
 20
61.9936
 30
0.0
 11
160.019
 21
60.9946
 31
0.0
  0
LINE
  8
0
 62
     0
 10
160.019
 20
60.9946
 30
0.0
 11
159.22
 21
60.9946
 31
0.0
  0
LINE
  8
0
 62
     0
 10
159.22
 20
60.9946
 30
0.0
 11
159.22
 21
57.894
 31
0.0
  0
LINE
  8
0
 62
     0
 10
159.22
 20
57.894
 30
0.0
 11
160.019
 21
57.894
 31
0.0
  0
LINE
  8
0
 62
     0
 10
160.019
 20
57.894
 30
0.0
 11
160.019
 21
52.094
 31
0.0
  0
LINE
  8
0
 62
     0
 10
160.019
 20
52.094
 30
0.0
 11
159.22
 21
52.094
 31
0.0
  0
LINE
  8
0
 62
     0
 10
159.22
 20
52.094
 30
0.0
 11
159.22
 21
48.9948
 31
0.0
  0
LINE
  8
0
 62
     0
 10
159.22
 20
48.9948
 30
0.0
 11
160.019
 21
48.9948
 31
0.0
  0
LINE
  8
0
 62
     0
 10
160.019
 20
48.9948
 30
0.0
 11
160.019
 21
47.9944
 31
0.0
  0
LINE
  8
0
 62
     0
 10
160.019
 20
47.9944
 30
0.0
 11
174.02
 21
47.9944
 31
0.0
  0
LINE
  8
0
 62
     0
 10
174.02
 20
47.9944
 30
0.0
 11
174.02
 21
48.9948
 31
0.0
  0
LINE
  8
0
 62
     0
 10
174.02
 20
48.9948
 30
0.0
 11
174.819
 21
48.9948
 31
0.0
  0
LINE
  8
0
 62
     0
 10
174.819
 20
48.9948
 30
0.0
 11
174.819
 21
52.094
 31
0.0
  0
LINE
  8
0
 62
     0
 10
174.819
 20
52.094
 30
0.0
 11
174.02
 21
52.094
 31
0.0
  0
LINE
  8
0
 62
     0
 10
174.02
 20
52.094
 30
0.0
 11
174.02
 21
57.894
 31
0.0
  0
LINE
  8
0
 62
     0
 10
174.02
 20
57.894
 30
0.0
 11
174.819
 21
57.894
 31
0.0
  0
LINE
  8
0
 62
     0
 10
174.819
 20
57.894
 30
0.0
 11
174.819
 21
60.9946
 31
0.0
  0
LINE
  8
0
 62
     0
 10
174.819
 20
60.9946
 30
0.0
 11
174.02
 21
60.9946
 31
0.0
  0
LINE
  8
0
 62
     0
 10
174.02
 20
60.9946
 30
0.0
 11
174.02
 21
61.9936
 31
0.0
  0
LINE
  8
0
 62
     0
 10
174.02
 20
61.9936
 30
0.0
 11
160.019
 21
61.9936
 31
0.0
  0
LINE
  8
0
 62
     0
 10
140.969
 20
61.9936
 30
0.0
 11
140.969
 21
60.9946
 31
0.0
  0
LINE
  8
0
 62
     0
 10
140.969
 20
60.9946
 30
0.0
 11
140.17
 21
60.9946
 31
0.0
  0
LINE
  8
0
 62
     0
 10
140.17
 20
60.9946
 30
0.0
 11
140.17
 21
57.894
 31
0.0
  0
LINE
  8
0
 62
     0
 10
140.17
 20
57.894
 30
0.0
 11
140.969
 21
57.894
 31
0.0
  0
LINE
  8
0
 62
     0
 10
140.969
 20
57.894
 30
0.0
 11
140.969
 21
52.094
 31
0.0
  0
LINE
  8
0
 62
     0
 10
140.969
 20
52.094
 30
0.0
 11
140.17
 21
52.094
 31
0.0
  0
LINE
  8
0
 62
     0
 10
140.17
 20
52.094
 30
0.0
 11
140.17
 21
48.9948
 31
0.0
  0
LINE
  8
0
 62
     0
 10
140.17
 20
48.9948
 30
0.0
 11
140.969
 21
48.9948
 31
0.0
  0
LINE
  8
0
 62
     0
 10
140.969
 20
48.9948
 30
0.0
 11
140.969
 21
47.9944
 31
0.0
  0
LINE
  8
0
 62
     0
 10
140.969
 20
47.9944
 30
0.0
 11
154.97
 21
47.9944
 31
0.0
  0
LINE
  8
0
 62
     0
 10
154.97
 20
47.9944
 30
0.0
 11
154.97
 21
48.9948
 31
0.0
  0
LINE
  8
0
 62
     0
 10
154.97
 20
48.9948
 30
0.0
 11
155.769
 21
48.9948
 31
0.0
  0
LINE
  8
0
 62
     0
 10
155.769
 20
48.9948
 30
0.0
 11
155.769
 21
52.094
 31
0.0
  0
LINE
  8
0
 62
     0
 10
155.769
 20
52.094
 30
0.0
 11
154.97
 21
52.094
 31
0.0
  0
LINE
  8
0
 62
     0
 10
154.97
 20
52.094
 30
0.0
 11
154.97
 21
57.894
 31
0.0
  0
LINE
  8
0
 62
     0
 10
154.97
 20
57.894
 30
0.0
 11
155.769
 21
57.894
 31
0.0
  0
LINE
  8
0
 62
     0
 10
155.769
 20
57.894
 30
0.0
 11
155.769
 21
60.9946
 31
0.0
  0
LINE
  8
0
 62
     0
 10
155.769
 20
60.9946
 30
0.0
 11
154.97
 21
60.9946
 31
0.0
  0
LINE
  8
0
 62
     0
 10
154.97
 20
60.9946
 30
0.0
 11
154.97
 21
61.9936
 31
0.0
  0
LINE
  8
0
 62
     0
 10
154.97
 20
61.9936
 30
0.0
 11
140.969
 21
61.9936
 31
0.0
  0
LINE
  8
0
 62
     0
 10
121.919
 20
61.9936
 30
0.0
 11
121.919
 21
60.9946
 31
0.0
  0
LINE
  8
0
 62
     0
 10
121.919
 20
60.9946
 30
0.0
 11
121.118
 21
60.9946
 31
0.0
  0
LINE
  8
0
 62
     0
 10
121.118
 20
60.9946
 30
0.0
 11
121.118
 21
57.894
 31
0.0
  0
LINE
  8
0
 62
     0
 10
121.118
 20
57.894
 30
0.0
 11
121.919
 21
57.894
 31
0.0
  0
LINE
  8
0
 62
     0
 10
121.919
 20
57.894
 30
0.0
 11
121.919
 21
52.094
 31
0.0
  0
LINE
  8
0
 62
     0
 10
121.919
 20
52.094
 30
0.0
 11
121.118
 21
52.094
 31
0.0
  0
LINE
  8
0
 62
     0
 10
121.118
 20
52.094
 30
0.0
 11
121.118
 21
48.9948
 31
0.0
  0
LINE
  8
0
 62
     0
 10
121.118
 20
48.9948
 30
0.0
 11
121.919
 21
48.9948
 31
0.0
  0
LINE
  8
0
 62
     0
 10
121.919
 20
48.9948
 30
0.0
 11
121.919
 21
47.9944
 31
0.0
  0
LINE
  8
0
 62
     0
 10
121.919
 20
47.9944
 30
0.0
 11
135.92
 21
47.9944
 31
0.0
  0
LINE
  8
0
 62
     0
 10
135.92
 20
47.9944
 30
0.0
 11
135.92
 21
48.9948
 31
0.0
  0
LINE
  8
0
 62
     0
 10
135.92
 20
48.9948
 30
0.0
 11
136.719
 21
48.9948
 31
0.0
  0
LINE
  8
0
 62
     0
 10
136.719
 20
48.9948
 30
0.0
 11
136.719
 21
52.094
 31
0.0
  0
LINE
  8
0
 62
     0
 10
136.719
 20
52.094
 30
0.0
 11
135.92
 21
52.094
 31
0.0
  0
LINE
  8
0
 62
     0
 10
135.92
 20
52.094
 30
0.0
 11
135.92
 21
57.894
 31
0.0
  0
LINE
  8
0
 62
     0
 10
135.92
 20
57.894
 30
0.0
 11
136.719
 21
57.894
 31
0.0
  0
LINE
  8
0
 62
     0
 10
136.719
 20
57.894
 30
0.0
 11
136.719
 21
60.9946
 31
0.0
  0
LINE
  8
0
 62
     0
 10
136.719
 20
60.9946
 30
0.0
 11
135.92
 21
60.9946
 31
0.0
  0
LINE
  8
0
 62
     0
 10
135.92
 20
60.9946
 30
0.0
 11
135.92
 21
61.9936
 31
0.0
  0
LINE
  8
0
 62
     0
 10
135.92
 20
61.9936
 30
0.0
 11
121.919
 21
61.9936
 31
0.0
  0
LINE
  8
0
 62
     0
 10
102.869
 20
61.9936
 30
0.0
 11
102.869
 21
60.9946
 31
0.0
  0
LINE
  8
0
 62
     0
 10
102.869
 20
60.9946
 30
0.0
 11
102.07
 21
60.9946
 31
0.0
  0
LINE
  8
0
 62
     0
 10
102.07
 20
60.9946
 30
0.0
 11
102.07
 21
57.894
 31
0.0
  0
LINE
  8
0
 62
     0
 10
102.07
 20
57.894
 30
0.0
 11
102.869
 21
57.894
 31
0.0
  0
LINE
  8
0
 62
     0
 10
102.869
 20
57.894
 30
0.0
 11
102.869
 21
52.094
 31
0.0
  0
LINE
  8
0
 62
     0
 10
102.869
 20
52.094
 30
0.0
 11
102.07
 21
52.094
 31
0.0
  0
LINE
  8
0
 62
     0
 10
102.07
 20
52.094
 30
0.0
 11
102.07
 21
48.9948
 31
0.0
  0
LINE
  8
0
 62
     0
 10
102.07
 20
48.9948
 30
0.0
 11
102.869
 21
48.9948
 31
0.0
  0
LINE
  8
0
 62
     0
 10
102.869
 20
48.9948
 30
0.0
 11
102.869
 21
47.9944
 31
0.0
  0
LINE
  8
0
 62
     0
 10
102.869
 20
47.9944
 30
0.0
 11
116.869
 21
47.9944
 31
0.0
  0
LINE
  8
0
 62
     0
 10
116.869
 20
47.9944
 30
0.0
 11
116.869
 21
48.9948
 31
0.0
  0
LINE
  8
0
 62
     0
 10
116.869
 20
48.9948
 30
0.0
 11
117.668
 21
48.9948
 31
0.0
  0
LINE
  8
0
 62
     0
 10
117.668
 20
48.9948
 30
0.0
 11
117.668
 21
52.094
 31
0.0
  0
LINE
  8
0
 62
     0
 10
117.668
 20
52.094
 30
0.0
 11
116.869
 21
52.094
 31
0.0
  0
LINE
  8
0
 62
     0
 10
116.869
 20
52.094
 30
0.0
 11
116.869
 21
57.894
 31
0.0
  0
LINE
  8
0
 62
     0
 10
116.869
 20
57.894
 30
0.0
 11
117.668
 21
57.894
 31
0.0
  0
LINE
  8
0
 62
     0
 10
117.668
 20
57.894
 30
0.0
 11
117.668
 21
60.9946
 31
0.0
  0
LINE
  8
0
 62
     0
 10
117.668
 20
60.9946
 30
0.0
 11
116.869
 21
60.9946
 31
0.0
  0
LINE
  8
0
 62
     0
 10
116.869
 20
60.9946
 30
0.0
 11
116.869
 21
61.9936
 31
0.0
  0
LINE
  8
0
 62
     0
 10
116.869
 20
61.9936
 30
0.0
 11
102.869
 21
61.9936
 31
0.0
  0
LINE
  8
0
 62
     0
 10
83.8193
 20
61.9936
 30
0.0
 11
83.8193
 21
60.9946
 31
0.0
  0
LINE
  8
0
 62
     0
 10
83.8193
 20
60.9946
 30
0.0
 11
83.0199
 21
60.9946
 31
0.0
  0
LINE
  8
0
 62
     0
 10
83.0199
 20
60.9946
 30
0.0
 11
83.0199
 21
57.894
 31
0.0
  0
LINE
  8
0
 62
     0
 10
83.0199
 20
57.894
 30
0.0
 11
83.8193
 21
57.894
 31
0.0
  0
LINE
  8
0
 62
     0
 10
83.8193
 20
57.894
 30
0.0
 11
83.8193
 21
52.094
 31
0.0
  0
LINE
  8
0
 62
     0
 10
83.8193
 20
52.094
 30
0.0
 11
83.0199
 21
52.094
 31
0.0
  0
LINE
  8
0
 62
     0
 10
83.0199
 20
52.094
 30
0.0
 11
83.0199
 21
48.9948
 31
0.0
  0
LINE
  8
0
 62
     0
 10
83.0199
 20
48.9948
 30
0.0
 11
83.8193
 21
48.9948
 31
0.0
  0
LINE
  8
0
 62
     0
 10
83.8193
 20
48.9948
 30
0.0
 11
83.8193
 21
47.9944
 31
0.0
  0
LINE
  8
0
 62
     0
 10
83.8193
 20
47.9944
 30
0.0
 11
97.82
 21
47.9944
 31
0.0
  0
LINE
  8
0
 62
     0
 10
97.82
 20
47.9944
 30
0.0
 11
97.82
 21
48.9948
 31
0.0
  0
LINE
  8
0
 62
     0
 10
97.82
 20
48.9948
 30
0.0
 11
98.618
 21
48.9948
 31
0.0
  0
LINE
  8
0
 62
     0
 10
98.618
 20
48.9948
 30
0.0
 11
98.618
 21
52.094
 31
0.0
  0
LINE
  8
0
 62
     0
 10
98.618
 20
52.094
 30
0.0
 11
97.82
 21
52.094
 31
0.0
  0
LINE
  8
0
 62
     0
 10
97.82
 20
52.094
 30
0.0
 11
97.82
 21
57.894
 31
0.0
  0
LINE
  8
0
 62
     0
 10
97.82
 20
57.894
 30
0.0
 11
98.618
 21
57.894
 31
0.0
  0
LINE
  8
0
 62
     0
 10
98.618
 20
57.894
 30
0.0
 11
98.618
 21
60.9946
 31
0.0
  0
LINE
  8
0
 62
     0
 10
98.618
 20
60.9946
 30
0.0
 11
97.82
 21
60.9946
 31
0.0
  0
LINE
  8
0
 62
     0
 10
97.82
 20
60.9946
 30
0.0
 11
97.82
 21
61.9936
 31
0.0
  0
LINE
  8
0
 62
     0
 10
97.82
 20
61.9936
 30
0.0
 11
83.8193
 21
61.9936
 31
0.0
  0
LINE
  8
0
 62
     0
 10
64.7693
 20
61.9936
 30
0.0
 11
64.7693
 21
60.9946
 31
0.0
  0
LINE
  8
0
 62
     0
 10
64.7693
 20
60.9946
 30
0.0
 11
63.9699
 21
60.9946
 31
0.0
  0
LINE
  8
0
 62
     0
 10
63.9699
 20
60.9946
 30
0.0
 11
63.9699
 21
57.894
 31
0.0
  0
LINE
  8
0
 62
     0
 10
63.9699
 20
57.894
 30
0.0
 11
64.7693
 21
57.894
 31
0.0
  0
LINE
  8
0
 62
     0
 10
64.7693
 20
57.894
 30
0.0
 11
64.7693
 21
52.094
 31
0.0
  0
LINE
  8
0
 62
     0
 10
64.7693
 20
52.094
 30
0.0
 11
63.9699
 21
52.094
 31
0.0
  0
LINE
  8
0
 62
     0
 10
63.9699
 20
52.094
 30
0.0
 11
63.9699
 21
48.9948
 31
0.0
  0
LINE
  8
0
 62
     0
 10
63.9699
 20
48.9948
 30
0.0
 11
64.7693
 21
48.9948
 31
0.0
  0
LINE
  8
0
 62
     0
 10
64.7693
 20
48.9948
 30
0.0
 11
64.7693
 21
47.9944
 31
0.0
  0
LINE
  8
0
 62
     0
 10
64.7693
 20
47.9944
 30
0.0
 11
78.77
 21
47.9944
 31
0.0
  0
LINE
  8
0
 62
     0
 10
78.77
 20
47.9944
 30
0.0
 11
78.77
 21
48.9948
 31
0.0
  0
LINE
  8
0
 62
     0
 10
78.77
 20
48.9948
 30
0.0
 11
79.5694
 21
48.9948
 31
0.0
  0
LINE
  8
0
 62
     0
 10
79.5694
 20
48.9948
 30
0.0
 11
79.5694
 21
52.094
 31
0.0
  0
LINE
  8
0
 62
     0
 10
79.5694
 20
52.094
 30
0.0
 11
78.77
 21
52.094
 31
0.0
  0
LINE
  8
0
 62
     0
 10
78.77
 20
52.094
 30
0.0
 11
78.77
 21
57.894
 31
0.0
  0
LINE
  8
0
 62
     0
 10
78.77
 20
57.894
 30
0.0
 11
79.5694
 21
57.894
 31
0.0
  0
LINE
  8
0
 62
     0
 10
79.5694
 20
57.894
 30
0.0
 11
79.5694
 21
60.9946
 31
0.0
  0
LINE
  8
0
 62
     0
 10
79.5694
 20
60.9946
 30
0.0
 11
78.77
 21
60.9946
 31
0.0
  0
LINE
  8
0
 62
     0
 10
78.77
 20
60.9946
 30
0.0
 11
78.77
 21
61.9936
 31
0.0
  0
LINE
  8
0
 62
     0
 10
78.77
 20
61.9936
 30
0.0
 11
64.7693
 21
61.9936
 31
0.0
  0
LINE
  8
0
 62
     0
 10
45.7193
 20
61.9936
 30
0.0
 11
45.7193
 21
60.9946
 31
0.0
  0
LINE
  8
0
 62
     0
 10
45.7193
 20
60.9946
 30
0.0
 11
44.9199
 21
60.9946
 31
0.0
  0
LINE
  8
0
 62
     0
 10
44.9199
 20
60.9946
 30
0.0
 11
44.9199
 21
57.894
 31
0.0
  0
LINE
  8
0
 62
     0
 10
44.9199
 20
57.894
 30
0.0
 11
45.7193
 21
57.894
 31
0.0
  0
LINE
  8
0
 62
     0
 10
45.7193
 20
57.894
 30
0.0
 11
45.7193
 21
52.094
 31
0.0
  0
LINE
  8
0
 62
     0
 10
45.7193
 20
52.094
 30
0.0
 11
44.9199
 21
52.094
 31
0.0
  0
LINE
  8
0
 62
     0
 10
44.9199
 20
52.094
 30
0.0
 11
44.9199
 21
48.9948
 31
0.0
  0
LINE
  8
0
 62
     0
 10
44.9199
 20
48.9948
 30
0.0
 11
45.7193
 21
48.9948
 31
0.0
  0
LINE
  8
0
 62
     0
 10
45.7193
 20
48.9948
 30
0.0
 11
45.7193
 21
47.9944
 31
0.0
  0
LINE
  8
0
 62
     0
 10
45.7193
 20
47.9944
 30
0.0
 11
59.72
 21
47.9944
 31
0.0
  0
LINE
  8
0
 62
     0
 10
59.72
 20
47.9944
 30
0.0
 11
59.72
 21
48.9948
 31
0.0
  0
LINE
  8
0
 62
     0
 10
59.72
 20
48.9948
 30
0.0
 11
60.5194
 21
48.9948
 31
0.0
  0
LINE
  8
0
 62
     0
 10
60.5194
 20
48.9948
 30
0.0
 11
60.5194
 21
52.094
 31
0.0
  0
LINE
  8
0
 62
     0
 10
60.5194
 20
52.094
 30
0.0
 11
59.72
 21
52.094
 31
0.0
  0
LINE
  8
0
 62
     0
 10
59.72
 20
52.094
 30
0.0
 11
59.72
 21
57.894
 31
0.0
  0
LINE
  8
0
 62
     0
 10
59.72
 20
57.894
 30
0.0
 11
60.5194
 21
57.894
 31
0.0
  0
LINE
  8
0
 62
     0
 10
60.5194
 20
57.894
 30
0.0
 11
60.5194
 21
60.9946
 31
0.0
  0
LINE
  8
0
 62
     0
 10
60.5194
 20
60.9946
 30
0.0
 11
59.72
 21
60.9946
 31
0.0
  0
LINE
  8
0
 62
     0
 10
59.72
 20
60.9946
 30
0.0
 11
59.72
 21
61.9936
 31
0.0
  0
LINE
  8
0
 62
     0
 10
59.72
 20
61.9936
 30
0.0
 11
45.7193
 21
61.9936
 31
0.0
  0
LINE
  8
0
 62
     0
 10
26.6692
 20
61.9936
 30
0.0
 11
26.6692
 21
60.9946
 31
0.0
  0
LINE
  8
0
 62
     0
 10
26.6692
 20
60.9946
 30
0.0
 11
25.8699
 21
60.9946
 31
0.0
  0
LINE
  8
0
 62
     0
 10
25.8699
 20
60.9946
 30
0.0
 11
25.8699
 21
57.894
 31
0.0
  0
LINE
  8
0
 62
     0
 10
25.8699
 20
57.894
 30
0.0
 11
26.6692
 21
57.894
 31
0.0
  0
LINE
  8
0
 62
     0
 10
26.6692
 20
57.894
 30
0.0
 11
26.6692
 21
52.094
 31
0.0
  0
LINE
  8
0
 62
     0
 10
26.6692
 20
52.094
 30
0.0
 11
25.8699
 21
52.094
 31
0.0
  0
LINE
  8
0
 62
     0
 10
25.8699
 20
52.094
 30
0.0
 11
25.8699
 21
48.9948
 31
0.0
  0
LINE
  8
0
 62
     0
 10
25.8699
 20
48.9948
 30
0.0
 11
26.6692
 21
48.9948
 31
0.0
  0
LINE
  8
0
 62
     0
 10
26.6692
 20
48.9948
 30
0.0
 11
26.6692
 21
47.9944
 31
0.0
  0
LINE
  8
0
 62
     0
 10
26.6692
 20
47.9944
 30
0.0
 11
40.67
 21
47.9944
 31
0.0
  0
LINE
  8
0
 62
     0
 10
40.67
 20
47.9944
 30
0.0
 11
40.67
 21
48.9948
 31
0.0
  0
LINE
  8
0
 62
     0
 10
40.67
 20
48.9948
 30
0.0
 11
41.4694
 21
48.9948
 31
0.0
  0
LINE
  8
0
 62
     0
 10
41.4694
 20
48.9948
 30
0.0
 11
41.4694
 21
52.094
 31
0.0
  0
LINE
  8
0
 62
     0
 10
41.4694
 20
52.094
 30
0.0
 11
40.67
 21
52.094
 31
0.0
  0
LINE
  8
0
 62
     0
 10
40.67
 20
52.094
 30
0.0
 11
40.67
 21
57.894
 31
0.0
  0
LINE
  8
0
 62
     0
 10
40.67
 20
57.894
 30
0.0
 11
41.4694
 21
57.894
 31
0.0
  0
LINE
  8
0
 62
     0
 10
41.4694
 20
57.894
 30
0.0
 11
41.4694
 21
60.9946
 31
0.0
  0
LINE
  8
0
 62
     0
 10
41.4694
 20
60.9946
 30
0.0
 11
40.67
 21
60.9946
 31
0.0
  0
LINE
  8
0
 62
     0
 10
40.67
 20
60.9946
 30
0.0
 11
40.67
 21
61.9936
 31
0.0
  0
LINE
  8
0
 62
     0
 10
40.67
 20
61.9936
 30
0.0
 11
26.6692
 21
61.9936
 31
0.0
  0
LINE
  8
0
 62
     0
 10
7.61919
 20
61.9936
 30
0.0
 11
7.61919
 21
60.9946
 31
0.0
  0
LINE
  8
0
 62
     0
 10
7.61919
 20
60.9946
 30
0.0
 11
6.81852
 21
60.9946
 31
0.0
  0
LINE
  8
0
 62
     0
 10
6.81852
 20
60.9946
 30
0.0
 11
6.81852
 21
57.894
 31
0.0
  0
LINE
  8
0
 62
     0
 10
6.81852
 20
57.894
 30
0.0
 11
7.61919
 21
57.894
 31
0.0
  0
LINE
  8
0
 62
     0
 10
7.61919
 20
57.894
 30
0.0
 11
7.61919
 21
52.094
 31
0.0
  0
LINE
  8
0
 62
     0
 10
7.61919
 20
52.094
 30
0.0
 11
6.81852
 21
52.094
 31
0.0
  0
LINE
  8
0
 62
     0
 10
6.81852
 20
52.094
 30
0.0
 11
6.81852
 21
48.9948
 31
0.0
  0
LINE
  8
0
 62
     0
 10
6.81852
 20
48.9948
 30
0.0
 11
7.61919
 21
48.9948
 31
0.0
  0
LINE
  8
0
 62
     0
 10
7.61919
 20
48.9948
 30
0.0
 11
7.61919
 21
47.9944
 31
0.0
  0
LINE
  8
0
 62
     0
 10
7.61919
 20
47.9944
 30
0.0
 11
21.6201
 21
47.9944
 31
0.0
  0
LINE
  8
0
 62
     0
 10
21.6201
 20
47.9944
 30
0.0
 11
21.6201
 21
48.9948
 31
0.0
  0
LINE
  8
0
 62
     0
 10
21.6201
 20
48.9948
 30
0.0
 11
22.4193
 21
48.9948
 31
0.0
  0
LINE
  8
0
 62
     0
 10
22.4193
 20
48.9948
 30
0.0
 11
22.4193
 21
52.094
 31
0.0
  0
LINE
  8
0
 62
     0
 10
22.4193
 20
52.094
 30
0.0
 11
21.6201
 21
52.094
 31
0.0
  0
LINE
  8
0
 62
     0
 10
21.6201
 20
52.094
 30
0.0
 11
21.6201
 21
57.894
 31
0.0
  0
LINE
  8
0
 62
     0
 10
21.6201
 20
57.894
 30
0.0
 11
22.4193
 21
57.894
 31
0.0
  0
LINE
  8
0
 62
     0
 10
22.4193
 20
57.894
 30
0.0
 11
22.4193
 21
60.9946
 31
0.0
  0
LINE
  8
0
 62
     0
 10
22.4193
 20
60.9946
 30
0.0
 11
21.6201
 21
60.9946
 31
0.0
  0
LINE
  8
0
 62
     0
 10
21.6201
 20
60.9946
 30
0.0
 11
21.6201
 21
61.9936
 31
0.0
  0
LINE
  8
0
 62
     0
 10
21.6201
 20
61.9936
 30
0.0
 11
7.61919
 21
61.9936
 31
0.0
  0
LINE
  8
0
 62
     0
 10
179.069
 20
81.045
 30
0.0
 11
179.069
 21
80.0446
 31
0.0
  0
LINE
  8
0
 62
     0
 10
179.069
 20
80.0446
 30
0.0
 11
178.27
 21
80.0446
 31
0.0
  0
LINE
  8
0
 62
     0
 10
178.27
 20
80.0446
 30
0.0
 11
178.27
 21
76.944
 31
0.0
  0
LINE
  8
0
 62
     0
 10
178.27
 20
76.944
 30
0.0
 11
179.069
 21
76.944
 31
0.0
  0
LINE
  8
0
 62
     0
 10
179.069
 20
76.944
 30
0.0
 11
179.069
 21
71.1454
 31
0.0
  0
LINE
  8
0
 62
     0
 10
179.069
 20
71.1454
 30
0.0
 11
178.27
 21
71.1454
 31
0.0
  0
LINE
  8
0
 62
     0
 10
178.27
 20
71.1454
 30
0.0
 11
178.27
 21
68.0448
 31
0.0
  0
LINE
  8
0
 62
     0
 10
178.27
 20
68.0448
 30
0.0
 11
179.069
 21
68.0448
 31
0.0
  0
LINE
  8
0
 62
     0
 10
179.069
 20
68.0448
 30
0.0
 11
179.069
 21
67.0444
 31
0.0
  0
LINE
  8
0
 62
     0
 10
179.069
 20
67.0444
 30
0.0
 11
193.07
 21
67.0444
 31
0.0
  0
LINE
  8
0
 62
     0
 10
193.07
 20
67.0444
 30
0.0
 11
193.07
 21
68.0448
 31
0.0
  0
LINE
  8
0
 62
     0
 10
193.07
 20
68.0448
 30
0.0
 11
193.869
 21
68.0448
 31
0.0
  0
LINE
  8
0
 62
     0
 10
193.869
 20
68.0448
 30
0.0
 11
193.869
 21
71.1454
 31
0.0
  0
LINE
  8
0
 62
     0
 10
193.869
 20
71.1454
 30
0.0
 11
193.07
 21
71.1454
 31
0.0
  0
LINE
  8
0
 62
     0
 10
193.07
 20
71.1454
 30
0.0
 11
193.07
 21
76.944
 31
0.0
  0
LINE
  8
0
 62
     0
 10
193.07
 20
76.944
 30
0.0
 11
193.869
 21
76.944
 31
0.0
  0
LINE
  8
0
 62
     0
 10
193.869
 20
76.944
 30
0.0
 11
193.869
 21
80.0446
 31
0.0
  0
LINE
  8
0
 62
     0
 10
193.869
 20
80.0446
 30
0.0
 11
193.07
 21
80.0446
 31
0.0
  0
LINE
  8
0
 62
     0
 10
193.07
 20
80.0446
 30
0.0
 11
193.07
 21
81.045
 31
0.0
  0
LINE
  8
0
 62
     0
 10
193.07
 20
81.045
 30
0.0
 11
179.069
 21
81.045
 31
0.0
  0
LINE
  8
0
 62
     0
 10
160.019
 20
81.045
 30
0.0
 11
160.019
 21
80.0446
 31
0.0
  0
LINE
  8
0
 62
     0
 10
160.019
 20
80.0446
 30
0.0
 11
159.22
 21
80.0446
 31
0.0
  0
LINE
  8
0
 62
     0
 10
159.22
 20
80.0446
 30
0.0
 11
159.22
 21
76.944
 31
0.0
  0
LINE
  8
0
 62
     0
 10
159.22
 20
76.944
 30
0.0
 11
160.019
 21
76.944
 31
0.0
  0
LINE
  8
0
 62
     0
 10
160.019
 20
76.944
 30
0.0
 11
160.019
 21
71.1454
 31
0.0
  0
LINE
  8
0
 62
     0
 10
160.019
 20
71.1454
 30
0.0
 11
159.22
 21
71.1454
 31
0.0
  0
LINE
  8
0
 62
     0
 10
159.22
 20
71.1454
 30
0.0
 11
159.22
 21
68.0448
 31
0.0
  0
LINE
  8
0
 62
     0
 10
159.22
 20
68.0448
 30
0.0
 11
160.019
 21
68.0448
 31
0.0
  0
LINE
  8
0
 62
     0
 10
160.019
 20
68.0448
 30
0.0
 11
160.019
 21
67.0444
 31
0.0
  0
LINE
  8
0
 62
     0
 10
160.019
 20
67.0444
 30
0.0
 11
174.02
 21
67.0444
 31
0.0
  0
LINE
  8
0
 62
     0
 10
174.02
 20
67.0444
 30
0.0
 11
174.02
 21
68.0448
 31
0.0
  0
LINE
  8
0
 62
     0
 10
174.02
 20
68.0448
 30
0.0
 11
174.819
 21
68.0448
 31
0.0
  0
LINE
  8
0
 62
     0
 10
174.819
 20
68.0448
 30
0.0
 11
174.819
 21
71.1454
 31
0.0
  0
LINE
  8
0
 62
     0
 10
174.819
 20
71.1454
 30
0.0
 11
174.02
 21
71.1454
 31
0.0
  0
LINE
  8
0
 62
     0
 10
174.02
 20
71.1454
 30
0.0
 11
174.02
 21
76.944
 31
0.0
  0
LINE
  8
0
 62
     0
 10
174.02
 20
76.944
 30
0.0
 11
174.819
 21
76.944
 31
0.0
  0
LINE
  8
0
 62
     0
 10
174.819
 20
76.944
 30
0.0
 11
174.819
 21
80.0446
 31
0.0
  0
LINE
  8
0
 62
     0
 10
174.819
 20
80.0446
 30
0.0
 11
174.02
 21
80.0446
 31
0.0
  0
LINE
  8
0
 62
     0
 10
174.02
 20
80.0446
 30
0.0
 11
174.02
 21
81.045
 31
0.0
  0
LINE
  8
0
 62
     0
 10
174.02
 20
81.045
 30
0.0
 11
160.019
 21
81.045
 31
0.0
  0
LINE
  8
0
 62
     0
 10
140.969
 20
81.045
 30
0.0
 11
140.969
 21
80.0446
 31
0.0
  0
LINE
  8
0
 62
     0
 10
140.969
 20
80.0446
 30
0.0
 11
140.17
 21
80.0446
 31
0.0
  0
LINE
  8
0
 62
     0
 10
140.17
 20
80.0446
 30
0.0
 11
140.17
 21
76.944
 31
0.0
  0
LINE
  8
0
 62
     0
 10
140.17
 20
76.944
 30
0.0
 11
140.969
 21
76.944
 31
0.0
  0
LINE
  8
0
 62
     0
 10
140.969
 20
76.944
 30
0.0
 11
140.969
 21
71.1454
 31
0.0
  0
LINE
  8
0
 62
     0
 10
140.969
 20
71.1454
 30
0.0
 11
140.17
 21
71.1454
 31
0.0
  0
LINE
  8
0
 62
     0
 10
140.17
 20
71.1454
 30
0.0
 11
140.17
 21
68.0448
 31
0.0
  0
LINE
  8
0
 62
     0
 10
140.17
 20
68.0448
 30
0.0
 11
140.969
 21
68.0448
 31
0.0
  0
LINE
  8
0
 62
     0
 10
140.969
 20
68.0448
 30
0.0
 11
140.969
 21
67.0444
 31
0.0
  0
LINE
  8
0
 62
     0
 10
140.969
 20
67.0444
 30
0.0
 11
154.97
 21
67.0444
 31
0.0
  0
LINE
  8
0
 62
     0
 10
154.97
 20
67.0444
 30
0.0
 11
154.97
 21
68.0448
 31
0.0
  0
LINE
  8
0
 62
     0
 10
154.97
 20
68.0448
 30
0.0
 11
155.769
 21
68.0448
 31
0.0
  0
LINE
  8
0
 62
     0
 10
155.769
 20
68.0448
 30
0.0
 11
155.769
 21
71.1454
 31
0.0
  0
LINE
  8
0
 62
     0
 10
155.769
 20
71.1454
 30
0.0
 11
154.97
 21
71.1454
 31
0.0
  0
LINE
  8
0
 62
     0
 10
154.97
 20
71.1454
 30
0.0
 11
154.97
 21
76.944
 31
0.0
  0
LINE
  8
0
 62
     0
 10
154.97
 20
76.944
 30
0.0
 11
155.769
 21
76.944
 31
0.0
  0
LINE
  8
0
 62
     0
 10
155.769
 20
76.944
 30
0.0
 11
155.769
 21
80.0446
 31
0.0
  0
LINE
  8
0
 62
     0
 10
155.769
 20
80.0446
 30
0.0
 11
154.97
 21
80.0446
 31
0.0
  0
LINE
  8
0
 62
     0
 10
154.97
 20
80.0446
 30
0.0
 11
154.97
 21
81.045
 31
0.0
  0
LINE
  8
0
 62
     0
 10
154.97
 20
81.045
 30
0.0
 11
140.969
 21
81.045
 31
0.0
  0
LINE
  8
0
 62
     0
 10
121.919
 20
81.045
 30
0.0
 11
121.919
 21
80.0446
 31
0.0
  0
LINE
  8
0
 62
     0
 10
121.919
 20
80.0446
 30
0.0
 11
121.118
 21
80.0446
 31
0.0
  0
LINE
  8
0
 62
     0
 10
121.118
 20
80.0446
 30
0.0
 11
121.118
 21
76.944
 31
0.0
  0
LINE
  8
0
 62
     0
 10
121.118
 20
76.944
 30
0.0
 11
121.919
 21
76.944
 31
0.0
  0
LINE
  8
0
 62
     0
 10
121.919
 20
76.944
 30
0.0
 11
121.919
 21
71.1454
 31
0.0
  0
LINE
  8
0
 62
     0
 10
121.919
 20
71.1454
 30
0.0
 11
121.118
 21
71.1454
 31
0.0
  0
LINE
  8
0
 62
     0
 10
121.118
 20
71.1454
 30
0.0
 11
121.118
 21
68.0448
 31
0.0
  0
LINE
  8
0
 62
     0
 10
121.118
 20
68.0448
 30
0.0
 11
121.919
 21
68.0448
 31
0.0
  0
LINE
  8
0
 62
     0
 10
121.919
 20
68.0448
 30
0.0
 11
121.919
 21
67.0444
 31
0.0
  0
LINE
  8
0
 62
     0
 10
121.919
 20
67.0444
 30
0.0
 11
135.92
 21
67.0444
 31
0.0
  0
LINE
  8
0
 62
     0
 10
135.92
 20
67.0444
 30
0.0
 11
135.92
 21
68.0448
 31
0.0
  0
LINE
  8
0
 62
     0
 10
135.92
 20
68.0448
 30
0.0
 11
136.719
 21
68.0448
 31
0.0
  0
LINE
  8
0
 62
     0
 10
136.719
 20
68.0448
 30
0.0
 11
136.719
 21
71.1454
 31
0.0
  0
LINE
  8
0
 62
     0
 10
136.719
 20
71.1454
 30
0.0
 11
135.92
 21
71.1454
 31
0.0
  0
LINE
  8
0
 62
     0
 10
135.92
 20
71.1454
 30
0.0
 11
135.92
 21
76.944
 31
0.0
  0
LINE
  8
0
 62
     0
 10
135.92
 20
76.944
 30
0.0
 11
136.719
 21
76.944
 31
0.0
  0
LINE
  8
0
 62
     0
 10
136.719
 20
76.944
 30
0.0
 11
136.719
 21
80.0446
 31
0.0
  0
LINE
  8
0
 62
     0
 10
136.719
 20
80.0446
 30
0.0
 11
135.92
 21
80.0446
 31
0.0
  0
LINE
  8
0
 62
     0
 10
135.92
 20
80.0446
 30
0.0
 11
135.92
 21
81.045
 31
0.0
  0
LINE
  8
0
 62
     0
 10
135.92
 20
81.045
 30
0.0
 11
121.919
 21
81.045
 31
0.0
  0
LINE
  8
0
 62
     0
 10
102.869
 20
81.045
 30
0.0
 11
102.869
 21
80.0446
 31
0.0
  0
LINE
  8
0
 62
     0
 10
102.869
 20
80.0446
 30
0.0
 11
102.07
 21
80.0446
 31
0.0
  0
LINE
  8
0
 62
     0
 10
102.07
 20
80.0446
 30
0.0
 11
102.07
 21
76.944
 31
0.0
  0
LINE
  8
0
 62
     0
 10
102.07
 20
76.944
 30
0.0
 11
102.869
 21
76.944
 31
0.0
  0
LINE
  8
0
 62
     0
 10
102.869
 20
76.944
 30
0.0
 11
102.869
 21
71.1454
 31
0.0
  0
LINE
  8
0
 62
     0
 10
102.869
 20
71.1454
 30
0.0
 11
102.07
 21
71.1454
 31
0.0
  0
LINE
  8
0
 62
     0
 10
102.07
 20
71.1454
 30
0.0
 11
102.07
 21
68.0448
 31
0.0
  0
LINE
  8
0
 62
     0
 10
102.07
 20
68.0448
 30
0.0
 11
102.869
 21
68.0448
 31
0.0
  0
LINE
  8
0
 62
     0
 10
102.869
 20
68.0448
 30
0.0
 11
102.869
 21
67.0444
 31
0.0
  0
LINE
  8
0
 62
     0
 10
102.869
 20
67.0444
 30
0.0
 11
116.869
 21
67.0444
 31
0.0
  0
LINE
  8
0
 62
     0
 10
116.869
 20
67.0444
 30
0.0
 11
116.869
 21
68.0448
 31
0.0
  0
LINE
  8
0
 62
     0
 10
116.869
 20
68.0448
 30
0.0
 11
117.668
 21
68.0448
 31
0.0
  0
LINE
  8
0
 62
     0
 10
117.668
 20
68.0448
 30
0.0
 11
117.668
 21
71.1454
 31
0.0
  0
LINE
  8
0
 62
     0
 10
117.668
 20
71.1454
 30
0.0
 11
116.869
 21
71.1454
 31
0.0
  0
LINE
  8
0
 62
     0
 10
116.869
 20
71.1454
 30
0.0
 11
116.869
 21
76.944
 31
0.0
  0
LINE
  8
0
 62
     0
 10
116.869
 20
76.944
 30
0.0
 11
117.668
 21
76.944
 31
0.0
  0
LINE
  8
0
 62
     0
 10
117.668
 20
76.944
 30
0.0
 11
117.668
 21
80.0446
 31
0.0
  0
LINE
  8
0
 62
     0
 10
117.668
 20
80.0446
 30
0.0
 11
116.869
 21
80.0446
 31
0.0
  0
LINE
  8
0
 62
     0
 10
116.869
 20
80.0446
 30
0.0
 11
116.869
 21
81.045
 31
0.0
  0
LINE
  8
0
 62
     0
 10
116.869
 20
81.045
 30
0.0
 11
102.869
 21
81.045
 31
0.0
  0
LINE
  8
0
 62
     0
 10
83.8193
 20
81.045
 30
0.0
 11
83.8193
 21
80.0446
 31
0.0
  0
LINE
  8
0
 62
     0
 10
83.8193
 20
80.0446
 30
0.0
 11
83.0199
 21
80.0446
 31
0.0
  0
LINE
  8
0
 62
     0
 10
83.0199
 20
80.0446
 30
0.0
 11
83.0199
 21
76.944
 31
0.0
  0
LINE
  8
0
 62
     0
 10
83.0199
 20
76.944
 30
0.0
 11
83.8193
 21
76.944
 31
0.0
  0
LINE
  8
0
 62
     0
 10
83.8193
 20
76.944
 30
0.0
 11
83.8193
 21
71.1454
 31
0.0
  0
LINE
  8
0
 62
     0
 10
83.8193
 20
71.1454
 30
0.0
 11
83.0199
 21
71.1454
 31
0.0
  0
LINE
  8
0
 62
     0
 10
83.0199
 20
71.1454
 30
0.0
 11
83.0199
 21
68.0448
 31
0.0
  0
LINE
  8
0
 62
     0
 10
83.0199
 20
68.0448
 30
0.0
 11
83.8193
 21
68.0448
 31
0.0
  0
LINE
  8
0
 62
     0
 10
83.8193
 20
68.0448
 30
0.0
 11
83.8193
 21
67.0444
 31
0.0
  0
LINE
  8
0
 62
     0
 10
83.8193
 20
67.0444
 30
0.0
 11
97.82
 21
67.0444
 31
0.0
  0
LINE
  8
0
 62
     0
 10
97.82
 20
67.0444
 30
0.0
 11
97.82
 21
68.0448
 31
0.0
  0
LINE
  8
0
 62
     0
 10
97.82
 20
68.0448
 30
0.0
 11
98.618
 21
68.0448
 31
0.0
  0
LINE
  8
0
 62
     0
 10
98.618
 20
68.0448
 30
0.0
 11
98.618
 21
71.1454
 31
0.0
  0
LINE
  8
0
 62
     0
 10
98.618
 20
71.1454
 30
0.0
 11
97.82
 21
71.1454
 31
0.0
  0
LINE
  8
0
 62
     0
 10
97.82
 20
71.1454
 30
0.0
 11
97.82
 21
76.944
 31
0.0
  0
LINE
  8
0
 62
     0
 10
97.82
 20
76.944
 30
0.0
 11
98.618
 21
76.944
 31
0.0
  0
LINE
  8
0
 62
     0
 10
98.618
 20
76.944
 30
0.0
 11
98.618
 21
80.0446
 31
0.0
  0
LINE
  8
0
 62
     0
 10
98.618
 20
80.0446
 30
0.0
 11
97.82
 21
80.0446
 31
0.0
  0
LINE
  8
0
 62
     0
 10
97.82
 20
80.0446
 30
0.0
 11
97.82
 21
81.045
 31
0.0
  0
LINE
  8
0
 62
     0
 10
97.82
 20
81.045
 30
0.0
 11
83.8193
 21
81.045
 31
0.0
  0
LINE
  8
0
 62
     0
 10
64.7693
 20
81.045
 30
0.0
 11
64.7693
 21
80.0446
 31
0.0
  0
LINE
  8
0
 62
     0
 10
64.7693
 20
80.0446
 30
0.0
 11
63.9699
 21
80.0446
 31
0.0
  0
LINE
  8
0
 62
     0
 10
63.9699
 20
80.0446
 30
0.0
 11
63.9699
 21
76.944
 31
0.0
  0
LINE
  8
0
 62
     0
 10
63.9699
 20
76.944
 30
0.0
 11
64.7693
 21
76.944
 31
0.0
  0
LINE
  8
0
 62
     0
 10
64.7693
 20
76.944
 30
0.0
 11
64.7693
 21
71.1454
 31
0.0
  0
LINE
  8
0
 62
     0
 10
64.7693
 20
71.1454
 30
0.0
 11
63.9699
 21
71.1454
 31
0.0
  0
LINE
  8
0
 62
     0
 10
63.9699
 20
71.1454
 30
0.0
 11
63.9699
 21
68.0448
 31
0.0
  0
LINE
  8
0
 62
     0
 10
63.9699
 20
68.0448
 30
0.0
 11
64.7693
 21
68.0448
 31
0.0
  0
LINE
  8
0
 62
     0
 10
64.7693
 20
68.0448
 30
0.0
 11
64.7693
 21
67.0444
 31
0.0
  0
LINE
  8
0
 62
     0
 10
64.7693
 20
67.0444
 30
0.0
 11
78.77
 21
67.0444
 31
0.0
  0
LINE
  8
0
 62
     0
 10
78.77
 20
67.0444
 30
0.0
 11
78.77
 21
68.0448
 31
0.0
  0
LINE
  8
0
 62
     0
 10
78.77
 20
68.0448
 30
0.0
 11
79.5694
 21
68.0448
 31
0.0
  0
LINE
  8
0
 62
     0
 10
79.5694
 20
68.0448
 30
0.0
 11
79.5694
 21
71.1454
 31
0.0
  0
LINE
  8
0
 62
     0
 10
79.5694
 20
71.1454
 30
0.0
 11
78.77
 21
71.1454
 31
0.0
  0
LINE
  8
0
 62
     0
 10
78.77
 20
71.1454
 30
0.0
 11
78.77
 21
76.944
 31
0.0
  0
LINE
  8
0
 62
     0
 10
78.77
 20
76.944
 30
0.0
 11
79.5694
 21
76.944
 31
0.0
  0
LINE
  8
0
 62
     0
 10
79.5694
 20
76.944
 30
0.0
 11
79.5694
 21
80.0446
 31
0.0
  0
LINE
  8
0
 62
     0
 10
79.5694
 20
80.0446
 30
0.0
 11
78.77
 21
80.0446
 31
0.0
  0
LINE
  8
0
 62
     0
 10
78.77
 20
80.0446
 30
0.0
 11
78.77
 21
81.045
 31
0.0
  0
LINE
  8
0
 62
     0
 10
78.77
 20
81.045
 30
0.0
 11
64.7693
 21
81.045
 31
0.0
  0
LINE
  8
0
 62
     0
 10
45.7193
 20
81.045
 30
0.0
 11
45.7193
 21
80.0446
 31
0.0
  0
LINE
  8
0
 62
     0
 10
45.7193
 20
80.0446
 30
0.0
 11
44.9199
 21
80.0446
 31
0.0
  0
LINE
  8
0
 62
     0
 10
44.9199
 20
80.0446
 30
0.0
 11
44.9199
 21
76.944
 31
0.0
  0
LINE
  8
0
 62
     0
 10
44.9199
 20
76.944
 30
0.0
 11
45.7193
 21
76.944
 31
0.0
  0
LINE
  8
0
 62
     0
 10
45.7193
 20
76.944
 30
0.0
 11
45.7193
 21
71.1454
 31
0.0
  0
LINE
  8
0
 62
     0
 10
45.7193
 20
71.1454
 30
0.0
 11
44.9199
 21
71.1454
 31
0.0
  0
LINE
  8
0
 62
     0
 10
44.9199
 20
71.1454
 30
0.0
 11
44.9199
 21
68.0448
 31
0.0
  0
LINE
  8
0
 62
     0
 10
44.9199
 20
68.0448
 30
0.0
 11
45.7193
 21
68.0448
 31
0.0
  0
LINE
  8
0
 62
     0
 10
45.7193
 20
68.0448
 30
0.0
 11
45.7193
 21
67.0444
 31
0.0
  0
LINE
  8
0
 62
     0
 10
45.7193
 20
67.0444
 30
0.0
 11
59.72
 21
67.0444
 31
0.0
  0
LINE
  8
0
 62
     0
 10
59.72
 20
67.0444
 30
0.0
 11
59.72
 21
68.0448
 31
0.0
  0
LINE
  8
0
 62
     0
 10
59.72
 20
68.0448
 30
0.0
 11
60.5194
 21
68.0448
 31
0.0
  0
LINE
  8
0
 62
     0
 10
60.5194
 20
68.0448
 30
0.0
 11
60.5194
 21
71.1454
 31
0.0
  0
LINE
  8
0
 62
     0
 10
60.5194
 20
71.1454
 30
0.0
 11
59.72
 21
71.1454
 31
0.0
  0
LINE
  8
0
 62
     0
 10
59.72
 20
71.1454
 30
0.0
 11
59.72
 21
76.944
 31
0.0
  0
LINE
  8
0
 62
     0
 10
59.72
 20
76.944
 30
0.0
 11
60.5194
 21
76.944
 31
0.0
  0
LINE
  8
0
 62
     0
 10
60.5194
 20
76.944
 30
0.0
 11
60.5194
 21
80.0446
 31
0.0
  0
LINE
  8
0
 62
     0
 10
60.5194
 20
80.0446
 30
0.0
 11
59.72
 21
80.0446
 31
0.0
  0
LINE
  8
0
 62
     0
 10
59.72
 20
80.0446
 30
0.0
 11
59.72
 21
81.045
 31
0.0
  0
LINE
  8
0
 62
     0
 10
59.72
 20
81.045
 30
0.0
 11
45.7193
 21
81.045
 31
0.0
  0
LINE
  8
0
 62
     0
 10
26.6692
 20
81.045
 30
0.0
 11
26.6692
 21
80.0446
 31
0.0
  0
LINE
  8
0
 62
     0
 10
26.6692
 20
80.0446
 30
0.0
 11
25.8699
 21
80.0446
 31
0.0
  0
LINE
  8
0
 62
     0
 10
25.8699
 20
80.0446
 30
0.0
 11
25.8699
 21
76.944
 31
0.0
  0
LINE
  8
0
 62
     0
 10
25.8699
 20
76.944
 30
0.0
 11
26.6692
 21
76.944
 31
0.0
  0
LINE
  8
0
 62
     0
 10
26.6692
 20
76.944
 30
0.0
 11
26.6692
 21
71.1454
 31
0.0
  0
LINE
  8
0
 62
     0
 10
26.6692
 20
71.1454
 30
0.0
 11
25.8699
 21
71.1454
 31
0.0
  0
LINE
  8
0
 62
     0
 10
25.8699
 20
71.1454
 30
0.0
 11
25.8699
 21
68.0448
 31
0.0
  0
LINE
  8
0
 62
     0
 10
25.8699
 20
68.0448
 30
0.0
 11
26.6692
 21
68.0448
 31
0.0
  0
LINE
  8
0
 62
     0
 10
26.6692
 20
68.0448
 30
0.0
 11
26.6692
 21
67.0444
 31
0.0
  0
LINE
  8
0
 62
     0
 10
26.6692
 20
67.0444
 30
0.0
 11
40.67
 21
67.0444
 31
0.0
  0
LINE
  8
0
 62
     0
 10
40.67
 20
67.0444
 30
0.0
 11
40.67
 21
68.0448
 31
0.0
  0
LINE
  8
0
 62
     0
 10
40.67
 20
68.0448
 30
0.0
 11
41.4694
 21
68.0448
 31
0.0
  0
LINE
  8
0
 62
     0
 10
41.4694
 20
68.0448
 30
0.0
 11
41.4694
 21
71.1454
 31
0.0
  0
LINE
  8
0
 62
     0
 10
41.4694
 20
71.1454
 30
0.0
 11
40.67
 21
71.1454
 31
0.0
  0
LINE
  8
0
 62
     0
 10
40.67
 20
71.1454
 30
0.0
 11
40.67
 21
76.944
 31
0.0
  0
LINE
  8
0
 62
     0
 10
40.67
 20
76.944
 30
0.0
 11
41.4694
 21
76.944
 31
0.0
  0
LINE
  8
0
 62
     0
 10
41.4694
 20
76.944
 30
0.0
 11
41.4694
 21
80.0446
 31
0.0
  0
LINE
  8
0
 62
     0
 10
41.4694
 20
80.0446
 30
0.0
 11
40.67
 21
80.0446
 31
0.0
  0
LINE
  8
0
 62
     0
 10
40.67
 20
80.0446
 30
0.0
 11
40.67
 21
81.045
 31
0.0
  0
LINE
  8
0
 62
     0
 10
40.67
 20
81.045
 30
0.0
 11
26.6692
 21
81.045
 31
0.0
  0
LINE
  8
0
 62
     0
 10
7.61919
 20
81.045
 30
0.0
 11
7.61919
 21
80.0446
 31
0.0
  0
LINE
  8
0
 62
     0
 10
7.61919
 20
80.0446
 30
0.0
 11
6.81852
 21
80.0446
 31
0.0
  0
LINE
  8
0
 62
     0
 10
6.81852
 20
80.0446
 30
0.0
 11
6.81852
 21
76.944
 31
0.0
  0
LINE
  8
0
 62
     0
 10
6.81852
 20
76.944
 30
0.0
 11
7.61919
 21
76.944
 31
0.0
  0
LINE
  8
0
 62
     0
 10
7.61919
 20
76.944
 30
0.0
 11
7.61919
 21
71.1454
 31
0.0
  0
LINE
  8
0
 62
     0
 10
7.61919
 20
71.1454
 30
0.0
 11
6.81852
 21
71.1454
 31
0.0
  0
LINE
  8
0
 62
     0
 10
6.81852
 20
71.1454
 30
0.0
 11
6.81852
 21
68.0448
 31
0.0
  0
LINE
  8
0
 62
     0
 10
6.81852
 20
68.0448
 30
0.0
 11
7.61919
 21
68.0448
 31
0.0
  0
LINE
  8
0
 62
     0
 10
7.61919
 20
68.0448
 30
0.0
 11
7.61919
 21
67.0444
 31
0.0
  0
LINE
  8
0
 62
     0
 10
7.61919
 20
67.0444
 30
0.0
 11
21.6201
 21
67.0444
 31
0.0
  0
LINE
  8
0
 62
     0
 10
21.6201
 20
67.0444
 30
0.0
 11
21.6201
 21
68.0448
 31
0.0
  0
LINE
  8
0
 62
     0
 10
21.6201
 20
68.0448
 30
0.0
 11
22.4193
 21
68.0448
 31
0.0
  0
LINE
  8
0
 62
     0
 10
22.4193
 20
68.0448
 30
0.0
 11
22.4193
 21
71.1454
 31
0.0
  0
LINE
  8
0
 62
     0
 10
22.4193
 20
71.1454
 30
0.0
 11
21.6201
 21
71.1454
 31
0.0
  0
LINE
  8
0
 62
     0
 10
21.6201
 20
71.1454
 30
0.0
 11
21.6201
 21
76.944
 31
0.0
  0
LINE
  8
0
 62
     0
 10
21.6201
 20
76.944
 30
0.0
 11
22.4193
 21
76.944
 31
0.0
  0
LINE
  8
0
 62
     0
 10
22.4193
 20
76.944
 30
0.0
 11
22.4193
 21
80.0446
 31
0.0
  0
LINE
  8
0
 62
     0
 10
22.4193
 20
80.0446
 30
0.0
 11
21.6201
 21
80.0446
 31
0.0
  0
LINE
  8
0
 62
     0
 10
21.6201
 20
80.0446
 30
0.0
 11
21.6201
 21
81.045
 31
0.0
  0
LINE
  8
0
 62
     0
 10
21.6201
 20
81.045
 30
0.0
 11
7.61919
 21
81.045
 31
0.0
  0
LINE
  8
0
 62
     0
 10
196.476
 20
88.973
 30
0.0
 11
195.92
 21
88.6876
 31
0.0
  0
LINE
  8
0
 62
     0
 10
195.92
 20
88.6876
 30
0.0
 11
195.476
 21
88.2456
 31
0.0
  0
LINE
  8
0
 62
     0
 10
195.476
 20
88.2456
 30
0.0
 11
195.192
 21
87.6886
 31
0.0
  0
LINE
  8
0
 62
     0
 10
195.192
 20
87.6886
 30
0.0
 11
195.096
 21
87.0701
 31
0.0
  0
LINE
  8
0
 62
     0
 10
195.096
 20
87.0701
 30
0.0
 11
195.192
 21
86.4514
 31
0.0
  0
LINE
  8
0
 62
     0
 10
195.192
 20
86.4514
 30
0.0
 11
195.476
 21
85.8943
 31
0.0
  0
LINE
  8
0
 62
     0
 10
195.476
 20
85.8943
 30
0.0
 11
195.92
 21
85.4509
 31
0.0
  0
LINE
  8
0
 62
     0
 10
195.92
 20
85.4509
 30
0.0
 11
196.476
 21
85.1669
 31
0.0
  0
LINE
  8
0
 62
     0
 10
196.476
 20
85.1669
 30
0.0
 11
197.095
 21
85.0692
 31
0.0
  0
LINE
  8
0
 62
     0
 10
197.095
 20
85.0692
 30
0.0
 11
197.714
 21
85.1669
 31
0.0
  0
LINE
  8
0
 62
     0
 10
197.714
 20
85.1669
 30
0.0
 11
198.271
 21
85.4509
 31
0.0
  0
LINE
  8
0
 62
     0
 10
198.271
 20
85.4509
 30
0.0
 11
198.713
 21
85.8943
 31
0.0
  0
LINE
  8
0
 62
     0
 10
198.713
 20
85.8943
 30
0.0
 11
198.997
 21
86.4514
 31
0.0
  0
LINE
  8
0
 62
     0
 10
198.997
 20
86.4514
 30
0.0
 11
199.095
 21
87.0701
 31
0.0
  0
LINE
  8
0
 62
     0
 10
199.095
 20
87.0701
 30
0.0
 11
198.997
 21
87.6886
 31
0.0
  0
LINE
  8
0
 62
     0
 10
198.997
 20
87.6886
 30
0.0
 11
198.713
 21
88.2456
 31
0.0
  0
LINE
  8
0
 62
     0
 10
198.713
 20
88.2456
 30
0.0
 11
198.271
 21
88.6876
 31
0.0
  0
LINE
  8
0
 62
     0
 10
198.271
 20
88.6876
 30
0.0
 11
197.714
 21
88.973
 31
0.0
  0
LINE
  8
0
 62
     0
 10
197.714
 20
88.973
 30
0.0
 11
197.095
 21
89.0693
 31
0.0
  0
LINE
  8
0
 62
     0
 10
197.095
 20
89.0693
 30
0.0
 11
196.476
 21
88.973
 31
0.0
  0
LINE
  8
0
 62
     0
 10
99.726
 20
88.973
 30
0.0
 11
99.169
 21
88.6876
 31
0.0
  0
LINE
  8
0
 62
     0
 10
99.169
 20
88.6876
 30
0.0
 11
98.7266
 21
88.2456
 31
0.0
  0
LINE
  8
0
 62
     0
 10
98.7266
 20
88.2456
 30
0.0
 11
98.443
 21
87.6886
 31
0.0
  0
LINE
  8
0
 62
     0
 10
98.443
 20
87.6886
 30
0.0
 11
98.3449
 21
87.0701
 31
0.0
  0
LINE
  8
0
 62
     0
 10
98.3449
 20
87.0701
 30
0.0
 11
98.443
 21
86.4514
 31
0.0
  0
LINE
  8
0
 62
     0
 10
98.443
 20
86.4514
 30
0.0
 11
98.7266
 21
85.8943
 31
0.0
  0
LINE
  8
0
 62
     0
 10
98.7266
 20
85.8943
 30
0.0
 11
99.169
 21
85.4509
 31
0.0
  0
LINE
  8
0
 62
     0
 10
99.169
 20
85.4509
 30
0.0
 11
99.726
 21
85.1669
 31
0.0
  0
LINE
  8
0
 62
     0
 10
99.726
 20
85.1669
 30
0.0
 11
100.344
 21
85.0692
 31
0.0
  0
LINE
  8
0
 62
     0
 10
100.344
 20
85.0692
 30
0.0
 11
100.962
 21
85.1669
 31
0.0
  0
LINE
  8
0
 62
     0
 10
100.962
 20
85.1669
 30
0.0
 11
101.52
 21
85.4509
 31
0.0
  0
LINE
  8
0
 62
     0
 10
101.52
 20
85.4509
 30
0.0
 11
101.962
 21
85.8943
 31
0.0
  0
LINE
  8
0
 62
     0
 10
101.962
 20
85.8943
 30
0.0
 11
102.246
 21
86.4514
 31
0.0
  0
LINE
  8
0
 62
     0
 10
102.246
 20
86.4514
 30
0.0
 11
102.344
 21
87.0701
 31
0.0
  0
LINE
  8
0
 62
     0
 10
102.344
 20
87.0701
 30
0.0
 11
102.246
 21
87.6886
 31
0.0
  0
LINE
  8
0
 62
     0
 10
102.246
 20
87.6886
 30
0.0
 11
101.962
 21
88.2456
 31
0.0
  0
LINE
  8
0
 62
     0
 10
101.962
 20
88.2456
 30
0.0
 11
101.52
 21
88.6876
 31
0.0
  0
LINE
  8
0
 62
     0
 10
101.52
 20
88.6876
 30
0.0
 11
100.962
 21
88.973
 31
0.0
  0
LINE
  8
0
 62
     0
 10
100.962
 20
88.973
 30
0.0
 11
100.344
 21
89.0693
 31
0.0
  0
LINE
  8
0
 62
     0
 10
100.344
 20
89.0693
 30
0.0
 11
99.726
 21
88.973
 31
0.0
  0
LINE
  8
0
 62
     0
 10
2.97518
 20
88.973
 30
0.0
 11
2.41846
 21
88.6876
 31
0.0
  0
LINE
  8
0
 62
     0
 10
2.41846
 20
88.6876
 30
0.0
 11
1.97611
 21
88.2456
 31
0.0
  0
LINE
  8
0
 62
     0
 10
1.97611
 20
88.2456
 30
0.0
 11
1.69085
 21
87.6886
 31
0.0
  0
LINE
  8
0
 62
     0
 10
1.69085
 20
87.6886
 30
0.0
 11
1.59301
 21
87.0701
 31
0.0
  0
LINE
  8
0
 62
     0
 10
1.59301
 20
87.0701
 30
0.0
 11
1.69085
 21
86.4514
 31
0.0
  0
LINE
  8
0
 62
     0
 10
1.69085
 20
86.4514
 30
0.0
 11
1.97611
 21
85.8943
 31
0.0
  0
LINE
  8
0
 62
     0
 10
1.97611
 20
85.8943
 30
0.0
 11
2.41846
 21
85.4509
 31
0.0
  0
LINE
  8
0
 62
     0
 10
2.41846
 20
85.4509
 30
0.0
 11
2.97518
 21
85.1669
 31
0.0
  0
LINE
  8
0
 62
     0
 10
2.97518
 20
85.1669
 30
0.0
 11
3.59392
 21
85.0692
 31
0.0
  0
LINE
  8
0
 62
     0
 10
3.59392
 20
85.0692
 30
0.0
 11
4.21266
 21
85.1669
 31
0.0
  0
LINE
  8
0
 62
     0
 10
4.21266
 20
85.1669
 30
0.0
 11
4.76938
 21
85.4509
 31
0.0
  0
LINE
  8
0
 62
     0
 10
4.76938
 20
85.4509
 30
0.0
 11
5.2131
 21
85.8943
 31
0.0
  0
LINE
  8
0
 62
     0
 10
5.2131
 20
85.8943
 30
0.0
 11
5.49698
 21
86.4514
 31
0.0
  0
LINE
  8
0
 62
     0
 10
5.49698
 20
86.4514
 30
0.0
 11
5.59484
 21
87.0701
 31
0.0
  0
LINE
  8
0
 62
     0
 10
5.59484
 20
87.0701
 30
0.0
 11
5.49698
 21
87.6886
 31
0.0
  0
LINE
  8
0
 62
     0
 10
5.49698
 20
87.6886
 30
0.0
 11
5.2131
 21
88.2456
 31
0.0
  0
LINE
  8
0
 62
     0
 10
5.2131
 20
88.2456
 30
0.0
 11
4.76938
 21
88.6876
 31
0.0
  0
LINE
  8
0
 62
     0
 10
4.76938
 20
88.6876
 30
0.0
 11
4.21266
 21
88.973
 31
0.0
  0
LINE
  8
0
 62
     0
 10
4.21266
 20
88.973
 30
0.0
 11
3.59392
 21
89.0693
 31
0.0
  0
LINE
  8
0
 62
     0
 10
3.59392
 20
89.0693
 30
0.0
 11
2.97518
 21
88.973
 31
0.0
  0
ENDSEC
  0
EOF
