%FSLAX45Y45*%
G04 Gerber Fmt 4.5, Leading zero omitted, Abs format (unit mm)*
G04 Created by KiCad (PCBNEW (5.1.12-1-10_14)) date 2022-02-28 21:29:09*
%MOMM*%
%LPD*%
G01*
G04 APERTURE LIST*
%TA.AperFunction,Profile*%
%ADD10C,0.050000*%
%TD*%
%ADD11C,0.200000*%
%ADD12C,0.300000*%
G04 APERTURE END LIST*
D10*
X4445000Y-4841875D02*
G75*
G03*
X4286250Y-5000625I0J-158750D01*
G01*
X4286250Y-12303125D02*
G75*
G03*
X4445000Y-12461875I158750J0D01*
G01*
X23177500Y-12461875D02*
G75*
G03*
X23336250Y-12303125I0J158750D01*
G01*
X23177500Y-4841875D02*
X4445000Y-4841875D01*
X23336250Y-12303125D02*
X23336250Y-5000625D01*
X4445000Y-12461875D02*
X23177500Y-12461875D01*
X4286250Y-5000625D02*
X4286250Y-12303125D01*
X23336250Y-5000625D02*
G75*
G03*
X23177500Y-4841875I-158750J0D01*
G01*
D11*
X4462750Y-6526500D02*
X4502750Y-6566500D01*
X4502750Y-6526500D02*
X4462750Y-6566500D01*
X6091875Y-10273125D02*
X6131875Y-10313125D01*
X6131875Y-10273125D02*
X6091875Y-10313125D01*
X6171250Y-7123750D02*
X6211250Y-7163750D01*
X6211250Y-7123750D02*
X6171250Y-7163750D01*
X6171250Y-12045000D02*
X6211250Y-12085000D01*
X6211250Y-12045000D02*
X6171250Y-12085000D01*
X6250625Y-9145375D02*
X6290625Y-9185375D01*
X6290625Y-9145375D02*
X6250625Y-9185375D01*
X6250625Y-9515375D02*
X6290625Y-9555375D01*
X6290625Y-9515375D02*
X6250625Y-9555375D01*
X6250625Y-9981250D02*
X6290625Y-10021250D01*
X6290625Y-9981250D02*
X6250625Y-10021250D01*
X6409375Y-7044375D02*
X6449375Y-7084375D01*
X6449375Y-7044375D02*
X6409375Y-7084375D01*
X6439370Y-9145375D02*
X6479370Y-9185375D01*
X6479370Y-9145375D02*
X6439370Y-9185375D01*
X6439370Y-9584375D02*
X6479370Y-9624375D01*
X6479370Y-9584375D02*
X6439370Y-9624375D01*
X6439370Y-9901875D02*
X6479370Y-9941875D01*
X6479370Y-9901875D02*
X6439370Y-9941875D01*
X6487750Y-7123750D02*
X6527750Y-7163750D01*
X6527750Y-7123750D02*
X6487750Y-7163750D01*
X6488750Y-10140000D02*
X6528750Y-10180000D01*
X6528750Y-10140000D02*
X6488750Y-10180000D01*
X6885625Y-8235000D02*
X6925625Y-8275000D01*
X6925625Y-8235000D02*
X6885625Y-8275000D01*
X7282500Y-6330000D02*
X7322500Y-6370000D01*
X7322500Y-6330000D02*
X7282500Y-6370000D01*
X7282500Y-8790625D02*
X7322500Y-8830625D01*
X7322500Y-8790625D02*
X7282500Y-8830625D01*
X7361875Y-9871000D02*
X7401875Y-9911000D01*
X7401875Y-9871000D02*
X7361875Y-9911000D01*
X7447207Y-9798500D02*
X7487207Y-9838500D01*
X7487207Y-9798500D02*
X7447207Y-9838500D01*
X7520625Y-8711250D02*
X7560625Y-8751250D01*
X7560625Y-8711250D02*
X7520625Y-8751250D01*
X7758750Y-8631875D02*
X7798750Y-8671875D01*
X7798750Y-8631875D02*
X7758750Y-8671875D01*
X8235000Y-8631875D02*
X8275000Y-8671875D01*
X8275000Y-8631875D02*
X8235000Y-8671875D01*
X10140000Y-8711250D02*
X10180000Y-8751250D01*
X10180000Y-8711250D02*
X10140000Y-8751250D01*
X12045000Y-8790625D02*
X12085000Y-8830625D01*
X12085000Y-8790625D02*
X12045000Y-8830625D01*
X13791250Y-9798500D02*
X13831250Y-9838500D01*
X13831250Y-9798500D02*
X13791250Y-9838500D01*
X14743750Y-11748765D02*
X14783750Y-11788765D01*
X14783750Y-11748765D02*
X14743750Y-11788765D01*
X15696250Y-9871000D02*
X15736250Y-9911000D01*
X15736250Y-9871000D02*
X15696250Y-9911000D01*
X16274607Y-11815141D02*
X16314607Y-11855141D01*
X16314607Y-11815141D02*
X16274607Y-11855141D01*
X17797750Y-9943500D02*
X17837750Y-9983500D01*
X17837750Y-9943500D02*
X17797750Y-9983500D01*
X19702750Y-10019000D02*
X19742750Y-10059000D01*
X19742750Y-10019000D02*
X19702750Y-10059000D01*
X21607750Y-10657875D02*
X21647750Y-10697875D01*
X21647750Y-10657875D02*
X21607750Y-10697875D01*
X4978125Y-6667500D02*
G75*
G03*
X4978125Y-6667500I-50000J0D01*
G01*
X5758125Y-6667500D02*
G75*
G03*
X5758125Y-6667500I-50000J0D01*
G01*
X6082500Y-5563125D02*
G75*
G03*
X6082500Y-5563125I-50000J0D01*
G01*
X6082500Y-6343125D02*
G75*
G03*
X6082500Y-6343125I-50000J0D01*
G01*
X6082500Y-9373125D02*
G75*
G03*
X6082500Y-9373125I-50000J0D01*
G01*
X6082500Y-10153125D02*
G75*
G03*
X6082500Y-10153125I-50000J0D01*
G01*
X6082500Y-11278125D02*
G75*
G03*
X6082500Y-11278125I-50000J0D01*
G01*
X6082500Y-12058125D02*
G75*
G03*
X6082500Y-12058125I-50000J0D01*
G01*
X7987500Y-5563125D02*
G75*
G03*
X7987500Y-5563125I-50000J0D01*
G01*
X7987500Y-6343125D02*
G75*
G03*
X7987500Y-6343125I-50000J0D01*
G01*
X7987500Y-7468125D02*
G75*
G03*
X7987500Y-7468125I-50000J0D01*
G01*
X7987500Y-8248125D02*
G75*
G03*
X7987500Y-8248125I-50000J0D01*
G01*
X7987500Y-9373125D02*
G75*
G03*
X7987500Y-9373125I-50000J0D01*
G01*
X7987500Y-10153125D02*
G75*
G03*
X7987500Y-10153125I-50000J0D01*
G01*
X7987500Y-11278125D02*
G75*
G03*
X7987500Y-11278125I-50000J0D01*
G01*
X7987500Y-12058125D02*
G75*
G03*
X7987500Y-12058125I-50000J0D01*
G01*
X9892500Y-5563125D02*
G75*
G03*
X9892500Y-5563125I-50000J0D01*
G01*
X9892500Y-6343125D02*
G75*
G03*
X9892500Y-6343125I-50000J0D01*
G01*
X9892500Y-7468125D02*
G75*
G03*
X9892500Y-7468125I-50000J0D01*
G01*
X9892500Y-8248125D02*
G75*
G03*
X9892500Y-8248125I-50000J0D01*
G01*
X9892500Y-9373125D02*
G75*
G03*
X9892500Y-9373125I-50000J0D01*
G01*
X9892500Y-10153125D02*
G75*
G03*
X9892500Y-10153125I-50000J0D01*
G01*
X9892500Y-11278125D02*
G75*
G03*
X9892500Y-11278125I-50000J0D01*
G01*
X9892500Y-12058125D02*
G75*
G03*
X9892500Y-12058125I-50000J0D01*
G01*
X11566250Y-10398125D02*
G75*
G03*
X11566250Y-10398125I-50000J0D01*
G01*
X11797500Y-5563125D02*
G75*
G03*
X11797500Y-5563125I-50000J0D01*
G01*
X11797500Y-6343125D02*
G75*
G03*
X11797500Y-6343125I-50000J0D01*
G01*
X11797500Y-7468125D02*
G75*
G03*
X11797500Y-7468125I-50000J0D01*
G01*
X11797500Y-8248125D02*
G75*
G03*
X11797500Y-8248125I-50000J0D01*
G01*
X11797500Y-9373125D02*
G75*
G03*
X11797500Y-9373125I-50000J0D01*
G01*
X11797500Y-10153125D02*
G75*
G03*
X11797500Y-10153125I-50000J0D01*
G01*
X12346250Y-10398125D02*
G75*
G03*
X12346250Y-10398125I-50000J0D01*
G01*
X13471250Y-10398125D02*
G75*
G03*
X13471250Y-10398125I-50000J0D01*
G01*
X13702500Y-5563125D02*
G75*
G03*
X13702500Y-5563125I-50000J0D01*
G01*
X13702500Y-6343125D02*
G75*
G03*
X13702500Y-6343125I-50000J0D01*
G01*
X13702500Y-7468125D02*
G75*
G03*
X13702500Y-7468125I-50000J0D01*
G01*
X13702500Y-8248125D02*
G75*
G03*
X13702500Y-8248125I-50000J0D01*
G01*
X13702500Y-9373125D02*
G75*
G03*
X13702500Y-9373125I-50000J0D01*
G01*
X13702500Y-10153125D02*
G75*
G03*
X13702500Y-10153125I-50000J0D01*
G01*
X14251250Y-10398125D02*
G75*
G03*
X14251250Y-10398125I-50000J0D01*
G01*
X15376250Y-10398125D02*
G75*
G03*
X15376250Y-10398125I-50000J0D01*
G01*
X15607500Y-5563125D02*
G75*
G03*
X15607500Y-5563125I-50000J0D01*
G01*
X15607500Y-6343125D02*
G75*
G03*
X15607500Y-6343125I-50000J0D01*
G01*
X15607500Y-7468125D02*
G75*
G03*
X15607500Y-7468125I-50000J0D01*
G01*
X15607500Y-8248125D02*
G75*
G03*
X15607500Y-8248125I-50000J0D01*
G01*
X15607500Y-9373125D02*
G75*
G03*
X15607500Y-9373125I-50000J0D01*
G01*
X15607500Y-10153125D02*
G75*
G03*
X15607500Y-10153125I-50000J0D01*
G01*
X16156250Y-10398125D02*
G75*
G03*
X16156250Y-10398125I-50000J0D01*
G01*
X17512500Y-5563125D02*
G75*
G03*
X17512500Y-5563125I-50000J0D01*
G01*
X17512500Y-6343125D02*
G75*
G03*
X17512500Y-6343125I-50000J0D01*
G01*
X17512500Y-7468125D02*
G75*
G03*
X17512500Y-7468125I-50000J0D01*
G01*
X17512500Y-8248125D02*
G75*
G03*
X17512500Y-8248125I-50000J0D01*
G01*
X17512500Y-9373125D02*
G75*
G03*
X17512500Y-9373125I-50000J0D01*
G01*
X17512500Y-10153125D02*
G75*
G03*
X17512500Y-10153125I-50000J0D01*
G01*
X17512500Y-11278125D02*
G75*
G03*
X17512500Y-11278125I-50000J0D01*
G01*
X17512500Y-12058125D02*
G75*
G03*
X17512500Y-12058125I-50000J0D01*
G01*
X19417500Y-5563125D02*
G75*
G03*
X19417500Y-5563125I-50000J0D01*
G01*
X19417500Y-6343125D02*
G75*
G03*
X19417500Y-6343125I-50000J0D01*
G01*
X19417500Y-7468125D02*
G75*
G03*
X19417500Y-7468125I-50000J0D01*
G01*
X19417500Y-8248125D02*
G75*
G03*
X19417500Y-8248125I-50000J0D01*
G01*
X19417500Y-9373125D02*
G75*
G03*
X19417500Y-9373125I-50000J0D01*
G01*
X19417500Y-10153125D02*
G75*
G03*
X19417500Y-10153125I-50000J0D01*
G01*
X19417500Y-11278125D02*
G75*
G03*
X19417500Y-11278125I-50000J0D01*
G01*
X19417500Y-12058125D02*
G75*
G03*
X19417500Y-12058125I-50000J0D01*
G01*
X21322500Y-5563125D02*
G75*
G03*
X21322500Y-5563125I-50000J0D01*
G01*
X21322500Y-6343125D02*
G75*
G03*
X21322500Y-6343125I-50000J0D01*
G01*
X21322500Y-7456250D02*
G75*
G03*
X21322500Y-7456250I-50000J0D01*
G01*
X21322500Y-8236250D02*
G75*
G03*
X21322500Y-8236250I-50000J0D01*
G01*
X21322500Y-9373125D02*
G75*
G03*
X21322500Y-9373125I-50000J0D01*
G01*
X21322500Y-10153125D02*
G75*
G03*
X21322500Y-10153125I-50000J0D01*
G01*
X21322500Y-11278125D02*
G75*
G03*
X21322500Y-11278125I-50000J0D01*
G01*
X21322500Y-12058125D02*
G75*
G03*
X21322500Y-12058125I-50000J0D01*
G01*
X23227500Y-5563125D02*
G75*
G03*
X23227500Y-5563125I-50000J0D01*
G01*
X23227500Y-6343125D02*
G75*
G03*
X23227500Y-6343125I-50000J0D01*
G01*
X23227500Y-7456250D02*
G75*
G03*
X23227500Y-7456250I-50000J0D01*
G01*
X23227500Y-8236250D02*
G75*
G03*
X23227500Y-8236250I-50000J0D01*
G01*
X23227500Y-9373125D02*
G75*
G03*
X23227500Y-9373125I-50000J0D01*
G01*
X23227500Y-10153125D02*
G75*
G03*
X23227500Y-10153125I-50000J0D01*
G01*
X23227500Y-11278125D02*
G75*
G03*
X23227500Y-11278125I-50000J0D01*
G01*
X23227500Y-12058125D02*
G75*
G03*
X23227500Y-12058125I-50000J0D01*
G01*
X4983000Y-6858390D02*
X4983000Y-6967610D01*
X4928390Y-6913000D02*
X5037610Y-6913000D01*
X4983000Y-8382390D02*
X4983000Y-8491610D01*
X4928390Y-8437000D02*
X5037610Y-8437000D01*
X5237000Y-6858390D02*
X5237000Y-6967610D01*
X5182390Y-6913000D02*
X5291610Y-6913000D01*
X5237000Y-8382390D02*
X5237000Y-8491610D01*
X5182390Y-8437000D02*
X5291610Y-8437000D01*
X5491000Y-6858390D02*
X5491000Y-6967610D01*
X5436390Y-6913000D02*
X5545610Y-6913000D01*
X5491000Y-8382390D02*
X5491000Y-8491610D01*
X5436390Y-8437000D02*
X5545610Y-8437000D01*
X5745000Y-6858390D02*
X5745000Y-6967610D01*
X5690390Y-6913000D02*
X5799610Y-6913000D01*
X5745000Y-8382390D02*
X5745000Y-8491610D01*
X5690390Y-8437000D02*
X5799610Y-8437000D01*
X5999000Y-6858390D02*
X5999000Y-6967610D01*
X5944390Y-6913000D02*
X6053610Y-6913000D01*
X5999000Y-8382390D02*
X5999000Y-8491610D01*
X5944390Y-8437000D02*
X6053610Y-8437000D01*
X6253000Y-6858390D02*
X6253000Y-6967610D01*
X6198390Y-6913000D02*
X6307610Y-6913000D01*
X6253000Y-8382390D02*
X6253000Y-8491610D01*
X6198390Y-8437000D02*
X6307610Y-8437000D01*
X6507000Y-6858390D02*
X6507000Y-6967610D01*
X6452390Y-6913000D02*
X6561610Y-6913000D01*
X6507000Y-8382390D02*
X6507000Y-8491610D01*
X6452390Y-8437000D02*
X6561610Y-8437000D01*
X6761000Y-6858390D02*
X6761000Y-6967610D01*
X6706390Y-6913000D02*
X6815610Y-6913000D01*
X6761000Y-8382390D02*
X6761000Y-8491610D01*
X6706390Y-8437000D02*
X6815610Y-8437000D01*
X7015000Y-6858390D02*
X7015000Y-6967610D01*
X6960390Y-6913000D02*
X7069610Y-6913000D01*
X7015000Y-8382390D02*
X7015000Y-8491610D01*
X6960390Y-8437000D02*
X7069610Y-8437000D01*
X7269000Y-6858390D02*
X7269000Y-6967610D01*
X7214390Y-6913000D02*
X7323610Y-6913000D01*
X7269000Y-8382390D02*
X7269000Y-8491610D01*
X7214390Y-8437000D02*
X7323610Y-8437000D01*
X7523000Y-6858390D02*
X7523000Y-6967610D01*
X7468390Y-6913000D02*
X7577610Y-6913000D01*
X7523000Y-8382390D02*
X7523000Y-8491610D01*
X7468390Y-8437000D02*
X7577610Y-8437000D01*
X7777000Y-6858390D02*
X7777000Y-6967610D01*
X7722390Y-6913000D02*
X7831610Y-6913000D01*
X7777000Y-8382390D02*
X7777000Y-8491610D01*
X7722390Y-8437000D02*
X7831610Y-8437000D01*
D12*
X4570178Y-12930089D02*
X4570178Y-12630089D01*
X4641607Y-12630089D01*
X4684464Y-12644375D01*
X4713036Y-12672946D01*
X4727321Y-12701518D01*
X4741607Y-12758661D01*
X4741607Y-12801518D01*
X4727321Y-12858661D01*
X4713036Y-12887232D01*
X4684464Y-12915804D01*
X4641607Y-12930089D01*
X4570178Y-12930089D01*
X4870178Y-12930089D02*
X4870178Y-12730089D01*
X4870178Y-12787232D02*
X4884464Y-12758661D01*
X4898750Y-12744375D01*
X4927321Y-12730089D01*
X4955893Y-12730089D01*
X5055893Y-12930089D02*
X5055893Y-12730089D01*
X5055893Y-12630089D02*
X5041607Y-12644375D01*
X5055893Y-12658661D01*
X5070178Y-12644375D01*
X5055893Y-12630089D01*
X5055893Y-12658661D01*
X5241607Y-12930089D02*
X5213036Y-12915804D01*
X5198750Y-12887232D01*
X5198750Y-12630089D01*
X5398750Y-12930089D02*
X5370178Y-12915804D01*
X5355893Y-12887232D01*
X5355893Y-12630089D01*
X5741607Y-12930089D02*
X5741607Y-12630089D01*
X5841607Y-12844375D01*
X5941607Y-12630089D01*
X5941607Y-12930089D01*
X6213036Y-12930089D02*
X6213036Y-12772946D01*
X6198750Y-12744375D01*
X6170178Y-12730089D01*
X6113036Y-12730089D01*
X6084464Y-12744375D01*
X6213036Y-12915804D02*
X6184464Y-12930089D01*
X6113036Y-12930089D01*
X6084464Y-12915804D01*
X6070178Y-12887232D01*
X6070178Y-12858661D01*
X6084464Y-12830089D01*
X6113036Y-12815804D01*
X6184464Y-12815804D01*
X6213036Y-12801518D01*
X6355893Y-12730089D02*
X6355893Y-13030089D01*
X6355893Y-12744375D02*
X6384464Y-12730089D01*
X6441607Y-12730089D01*
X6470178Y-12744375D01*
X6484464Y-12758661D01*
X6498750Y-12787232D01*
X6498750Y-12872946D01*
X6484464Y-12901518D01*
X6470178Y-12915804D01*
X6441607Y-12930089D01*
X6384464Y-12930089D01*
X6355893Y-12915804D01*
X6627321Y-12901518D02*
X6641607Y-12915804D01*
X6627321Y-12930089D01*
X6613036Y-12915804D01*
X6627321Y-12901518D01*
X6627321Y-12930089D01*
X6627321Y-12744375D02*
X6641607Y-12758661D01*
X6627321Y-12772946D01*
X6613036Y-12758661D01*
X6627321Y-12744375D01*
X6627321Y-12772946D01*
X4243750Y-13404375D02*
X4283750Y-13444375D01*
X4283750Y-13404375D02*
X4243750Y-13444375D01*
X4627321Y-13260089D02*
X4655893Y-13260089D01*
X4684464Y-13274375D01*
X4698750Y-13288661D01*
X4713036Y-13317232D01*
X4727321Y-13374375D01*
X4727321Y-13445804D01*
X4713036Y-13502946D01*
X4698750Y-13531518D01*
X4684464Y-13545804D01*
X4655893Y-13560089D01*
X4627321Y-13560089D01*
X4598750Y-13545804D01*
X4584464Y-13531518D01*
X4570178Y-13502946D01*
X4555893Y-13445804D01*
X4555893Y-13374375D01*
X4570178Y-13317232D01*
X4584464Y-13288661D01*
X4598750Y-13274375D01*
X4627321Y-13260089D01*
X4855893Y-13531518D02*
X4870178Y-13545804D01*
X4855893Y-13560089D01*
X4841607Y-13545804D01*
X4855893Y-13531518D01*
X4855893Y-13560089D01*
X5127321Y-13360089D02*
X5127321Y-13560089D01*
X5055893Y-13245804D02*
X4984464Y-13460089D01*
X5170178Y-13460089D01*
X5341607Y-13260089D02*
X5370178Y-13260089D01*
X5398750Y-13274375D01*
X5413036Y-13288661D01*
X5427321Y-13317232D01*
X5441607Y-13374375D01*
X5441607Y-13445804D01*
X5427321Y-13502946D01*
X5413036Y-13531518D01*
X5398750Y-13545804D01*
X5370178Y-13560089D01*
X5341607Y-13560089D01*
X5313036Y-13545804D01*
X5298750Y-13531518D01*
X5284464Y-13502946D01*
X5270178Y-13445804D01*
X5270178Y-13374375D01*
X5284464Y-13317232D01*
X5298750Y-13288661D01*
X5313036Y-13274375D01*
X5341607Y-13260089D01*
X5627321Y-13260089D02*
X5655893Y-13260089D01*
X5684464Y-13274375D01*
X5698750Y-13288661D01*
X5713036Y-13317232D01*
X5727321Y-13374375D01*
X5727321Y-13445804D01*
X5713036Y-13502946D01*
X5698750Y-13531518D01*
X5684464Y-13545804D01*
X5655893Y-13560089D01*
X5627321Y-13560089D01*
X5598750Y-13545804D01*
X5584464Y-13531518D01*
X5570178Y-13502946D01*
X5555893Y-13445804D01*
X5555893Y-13374375D01*
X5570178Y-13317232D01*
X5584464Y-13288661D01*
X5598750Y-13274375D01*
X5627321Y-13260089D01*
X5855893Y-13560089D02*
X5855893Y-13360089D01*
X5855893Y-13388661D02*
X5870178Y-13374375D01*
X5898750Y-13360089D01*
X5941607Y-13360089D01*
X5970178Y-13374375D01*
X5984464Y-13402946D01*
X5984464Y-13560089D01*
X5984464Y-13402946D02*
X5998750Y-13374375D01*
X6027321Y-13360089D01*
X6070178Y-13360089D01*
X6098750Y-13374375D01*
X6113036Y-13402946D01*
X6113036Y-13560089D01*
X6255893Y-13560089D02*
X6255893Y-13360089D01*
X6255893Y-13388661D02*
X6270178Y-13374375D01*
X6298750Y-13360089D01*
X6341607Y-13360089D01*
X6370178Y-13374375D01*
X6384464Y-13402946D01*
X6384464Y-13560089D01*
X6384464Y-13402946D02*
X6398750Y-13374375D01*
X6427321Y-13360089D01*
X6470178Y-13360089D01*
X6498750Y-13374375D01*
X6513036Y-13402946D01*
X6513036Y-13560089D01*
X7098750Y-13245804D02*
X6841607Y-13631518D01*
X7484464Y-13260089D02*
X7513036Y-13260089D01*
X7541607Y-13274375D01*
X7555893Y-13288661D01*
X7570178Y-13317232D01*
X7584464Y-13374375D01*
X7584464Y-13445804D01*
X7570178Y-13502946D01*
X7555893Y-13531518D01*
X7541607Y-13545804D01*
X7513036Y-13560089D01*
X7484464Y-13560089D01*
X7455893Y-13545804D01*
X7441607Y-13531518D01*
X7427321Y-13502946D01*
X7413036Y-13445804D01*
X7413036Y-13374375D01*
X7427321Y-13317232D01*
X7441607Y-13288661D01*
X7455893Y-13274375D01*
X7484464Y-13260089D01*
X7713036Y-13531518D02*
X7727321Y-13545804D01*
X7713036Y-13560089D01*
X7698750Y-13545804D01*
X7713036Y-13531518D01*
X7713036Y-13560089D01*
X7913036Y-13260089D02*
X7941607Y-13260089D01*
X7970178Y-13274375D01*
X7984464Y-13288661D01*
X7998750Y-13317232D01*
X8013036Y-13374375D01*
X8013036Y-13445804D01*
X7998750Y-13502946D01*
X7984464Y-13531518D01*
X7970178Y-13545804D01*
X7941607Y-13560089D01*
X7913036Y-13560089D01*
X7884464Y-13545804D01*
X7870178Y-13531518D01*
X7855893Y-13502946D01*
X7841607Y-13445804D01*
X7841607Y-13374375D01*
X7855893Y-13317232D01*
X7870178Y-13288661D01*
X7884464Y-13274375D01*
X7913036Y-13260089D01*
X8298750Y-13560089D02*
X8127321Y-13560089D01*
X8213036Y-13560089D02*
X8213036Y-13260089D01*
X8184464Y-13302946D01*
X8155893Y-13331518D01*
X8127321Y-13345804D01*
X8570178Y-13260089D02*
X8427321Y-13260089D01*
X8413036Y-13402946D01*
X8427321Y-13388661D01*
X8455893Y-13374375D01*
X8527321Y-13374375D01*
X8555893Y-13388661D01*
X8570178Y-13402946D01*
X8584464Y-13431518D01*
X8584464Y-13502946D01*
X8570178Y-13531518D01*
X8555893Y-13545804D01*
X8527321Y-13560089D01*
X8455893Y-13560089D01*
X8427321Y-13545804D01*
X8413036Y-13531518D01*
X8684464Y-13260089D02*
X8884464Y-13260089D01*
X8755893Y-13560089D01*
X8984464Y-13260089D02*
X8984464Y-13317232D01*
X9098750Y-13260089D02*
X9098750Y-13317232D01*
X9541607Y-13674375D02*
X9527321Y-13660089D01*
X9498750Y-13617232D01*
X9484464Y-13588661D01*
X9470178Y-13545804D01*
X9455893Y-13474375D01*
X9455893Y-13417232D01*
X9470178Y-13345804D01*
X9484464Y-13302946D01*
X9498750Y-13274375D01*
X9527321Y-13231518D01*
X9541607Y-13217232D01*
X9627321Y-13260089D02*
X9813036Y-13260089D01*
X9713036Y-13374375D01*
X9755893Y-13374375D01*
X9784464Y-13388661D01*
X9798750Y-13402946D01*
X9813036Y-13431518D01*
X9813036Y-13502946D01*
X9798750Y-13531518D01*
X9784464Y-13545804D01*
X9755893Y-13560089D01*
X9670178Y-13560089D01*
X9641607Y-13545804D01*
X9627321Y-13531518D01*
X9998750Y-13260089D02*
X10027321Y-13260089D01*
X10055893Y-13274375D01*
X10070178Y-13288661D01*
X10084464Y-13317232D01*
X10098750Y-13374375D01*
X10098750Y-13445804D01*
X10084464Y-13502946D01*
X10070178Y-13531518D01*
X10055893Y-13545804D01*
X10027321Y-13560089D01*
X9998750Y-13560089D01*
X9970178Y-13545804D01*
X9955893Y-13531518D01*
X9941607Y-13502946D01*
X9927321Y-13445804D01*
X9927321Y-13374375D01*
X9941607Y-13317232D01*
X9955893Y-13288661D01*
X9970178Y-13274375D01*
X9998750Y-13260089D01*
X10455893Y-13560089D02*
X10455893Y-13260089D01*
X10584464Y-13560089D02*
X10584464Y-13402946D01*
X10570178Y-13374375D01*
X10541607Y-13360089D01*
X10498750Y-13360089D01*
X10470178Y-13374375D01*
X10455893Y-13388661D01*
X10770178Y-13560089D02*
X10741607Y-13545804D01*
X10727321Y-13531518D01*
X10713036Y-13502946D01*
X10713036Y-13417232D01*
X10727321Y-13388661D01*
X10741607Y-13374375D01*
X10770178Y-13360089D01*
X10813036Y-13360089D01*
X10841607Y-13374375D01*
X10855893Y-13388661D01*
X10870178Y-13417232D01*
X10870178Y-13502946D01*
X10855893Y-13531518D01*
X10841607Y-13545804D01*
X10813036Y-13560089D01*
X10770178Y-13560089D01*
X11041607Y-13560089D02*
X11013036Y-13545804D01*
X10998750Y-13517232D01*
X10998750Y-13260089D01*
X11270178Y-13545804D02*
X11241607Y-13560089D01*
X11184464Y-13560089D01*
X11155893Y-13545804D01*
X11141607Y-13517232D01*
X11141607Y-13402946D01*
X11155893Y-13374375D01*
X11184464Y-13360089D01*
X11241607Y-13360089D01*
X11270178Y-13374375D01*
X11284464Y-13402946D01*
X11284464Y-13431518D01*
X11141607Y-13460089D01*
X11398750Y-13545804D02*
X11427321Y-13560089D01*
X11484464Y-13560089D01*
X11513036Y-13545804D01*
X11527321Y-13517232D01*
X11527321Y-13502946D01*
X11513036Y-13474375D01*
X11484464Y-13460089D01*
X11441607Y-13460089D01*
X11413036Y-13445804D01*
X11398750Y-13417232D01*
X11398750Y-13402946D01*
X11413036Y-13374375D01*
X11441607Y-13360089D01*
X11484464Y-13360089D01*
X11513036Y-13374375D01*
X11627321Y-13674375D02*
X11641607Y-13660089D01*
X11670178Y-13617232D01*
X11684464Y-13588661D01*
X11698750Y-13545804D01*
X11713036Y-13474375D01*
X11713036Y-13417232D01*
X11698750Y-13345804D01*
X11684464Y-13302946D01*
X11670178Y-13274375D01*
X11641607Y-13231518D01*
X11627321Y-13217232D01*
X4283750Y-13820375D02*
G75*
G03*
X4283750Y-13820375I-50000J0D01*
G01*
X4727321Y-13956089D02*
X4555893Y-13956089D01*
X4641607Y-13956089D02*
X4641607Y-13656089D01*
X4613036Y-13698946D01*
X4584464Y-13727518D01*
X4555893Y-13741804D01*
X4855893Y-13927518D02*
X4870178Y-13941804D01*
X4855893Y-13956089D01*
X4841607Y-13941804D01*
X4855893Y-13927518D01*
X4855893Y-13956089D01*
X5055893Y-13656089D02*
X5084464Y-13656089D01*
X5113036Y-13670375D01*
X5127321Y-13684661D01*
X5141607Y-13713232D01*
X5155893Y-13770375D01*
X5155893Y-13841804D01*
X5141607Y-13898946D01*
X5127321Y-13927518D01*
X5113036Y-13941804D01*
X5084464Y-13956089D01*
X5055893Y-13956089D01*
X5027321Y-13941804D01*
X5013036Y-13927518D01*
X4998750Y-13898946D01*
X4984464Y-13841804D01*
X4984464Y-13770375D01*
X4998750Y-13713232D01*
X5013036Y-13684661D01*
X5027321Y-13670375D01*
X5055893Y-13656089D01*
X5341607Y-13656089D02*
X5370178Y-13656089D01*
X5398750Y-13670375D01*
X5413036Y-13684661D01*
X5427321Y-13713232D01*
X5441607Y-13770375D01*
X5441607Y-13841804D01*
X5427321Y-13898946D01*
X5413036Y-13927518D01*
X5398750Y-13941804D01*
X5370178Y-13956089D01*
X5341607Y-13956089D01*
X5313036Y-13941804D01*
X5298750Y-13927518D01*
X5284464Y-13898946D01*
X5270178Y-13841804D01*
X5270178Y-13770375D01*
X5284464Y-13713232D01*
X5298750Y-13684661D01*
X5313036Y-13670375D01*
X5341607Y-13656089D01*
X5627321Y-13656089D02*
X5655893Y-13656089D01*
X5684464Y-13670375D01*
X5698750Y-13684661D01*
X5713036Y-13713232D01*
X5727321Y-13770375D01*
X5727321Y-13841804D01*
X5713036Y-13898946D01*
X5698750Y-13927518D01*
X5684464Y-13941804D01*
X5655893Y-13956089D01*
X5627321Y-13956089D01*
X5598750Y-13941804D01*
X5584464Y-13927518D01*
X5570178Y-13898946D01*
X5555893Y-13841804D01*
X5555893Y-13770375D01*
X5570178Y-13713232D01*
X5584464Y-13684661D01*
X5598750Y-13670375D01*
X5627321Y-13656089D01*
X5855893Y-13956089D02*
X5855893Y-13756089D01*
X5855893Y-13784661D02*
X5870178Y-13770375D01*
X5898750Y-13756089D01*
X5941607Y-13756089D01*
X5970178Y-13770375D01*
X5984464Y-13798946D01*
X5984464Y-13956089D01*
X5984464Y-13798946D02*
X5998750Y-13770375D01*
X6027321Y-13756089D01*
X6070178Y-13756089D01*
X6098750Y-13770375D01*
X6113036Y-13798946D01*
X6113036Y-13956089D01*
X6255893Y-13956089D02*
X6255893Y-13756089D01*
X6255893Y-13784661D02*
X6270178Y-13770375D01*
X6298750Y-13756089D01*
X6341607Y-13756089D01*
X6370178Y-13770375D01*
X6384464Y-13798946D01*
X6384464Y-13956089D01*
X6384464Y-13798946D02*
X6398750Y-13770375D01*
X6427321Y-13756089D01*
X6470178Y-13756089D01*
X6498750Y-13770375D01*
X6513036Y-13798946D01*
X6513036Y-13956089D01*
X7098750Y-13641804D02*
X6841607Y-14027518D01*
X7484464Y-13656089D02*
X7513036Y-13656089D01*
X7541607Y-13670375D01*
X7555893Y-13684661D01*
X7570178Y-13713232D01*
X7584464Y-13770375D01*
X7584464Y-13841804D01*
X7570178Y-13898946D01*
X7555893Y-13927518D01*
X7541607Y-13941804D01*
X7513036Y-13956089D01*
X7484464Y-13956089D01*
X7455893Y-13941804D01*
X7441607Y-13927518D01*
X7427321Y-13898946D01*
X7413036Y-13841804D01*
X7413036Y-13770375D01*
X7427321Y-13713232D01*
X7441607Y-13684661D01*
X7455893Y-13670375D01*
X7484464Y-13656089D01*
X7713036Y-13927518D02*
X7727321Y-13941804D01*
X7713036Y-13956089D01*
X7698750Y-13941804D01*
X7713036Y-13927518D01*
X7713036Y-13956089D01*
X7913036Y-13656089D02*
X7941607Y-13656089D01*
X7970178Y-13670375D01*
X7984464Y-13684661D01*
X7998750Y-13713232D01*
X8013036Y-13770375D01*
X8013036Y-13841804D01*
X7998750Y-13898946D01*
X7984464Y-13927518D01*
X7970178Y-13941804D01*
X7941607Y-13956089D01*
X7913036Y-13956089D01*
X7884464Y-13941804D01*
X7870178Y-13927518D01*
X7855893Y-13898946D01*
X7841607Y-13841804D01*
X7841607Y-13770375D01*
X7855893Y-13713232D01*
X7870178Y-13684661D01*
X7884464Y-13670375D01*
X7913036Y-13656089D01*
X8113036Y-13656089D02*
X8298750Y-13656089D01*
X8198750Y-13770375D01*
X8241607Y-13770375D01*
X8270178Y-13784661D01*
X8284464Y-13798946D01*
X8298750Y-13827518D01*
X8298750Y-13898946D01*
X8284464Y-13927518D01*
X8270178Y-13941804D01*
X8241607Y-13956089D01*
X8155893Y-13956089D01*
X8127321Y-13941804D01*
X8113036Y-13927518D01*
X8441607Y-13956089D02*
X8498750Y-13956089D01*
X8527321Y-13941804D01*
X8541607Y-13927518D01*
X8570178Y-13884661D01*
X8584464Y-13827518D01*
X8584464Y-13713232D01*
X8570178Y-13684661D01*
X8555893Y-13670375D01*
X8527321Y-13656089D01*
X8470178Y-13656089D01*
X8441607Y-13670375D01*
X8427321Y-13684661D01*
X8413036Y-13713232D01*
X8413036Y-13784661D01*
X8427321Y-13813232D01*
X8441607Y-13827518D01*
X8470178Y-13841804D01*
X8527321Y-13841804D01*
X8555893Y-13827518D01*
X8570178Y-13813232D01*
X8584464Y-13784661D01*
X8841607Y-13756089D02*
X8841607Y-13956089D01*
X8770178Y-13641804D02*
X8698750Y-13856089D01*
X8884464Y-13856089D01*
X8984464Y-13656089D02*
X8984464Y-13713232D01*
X9098750Y-13656089D02*
X9098750Y-13713232D01*
X9541607Y-14070375D02*
X9527321Y-14056089D01*
X9498750Y-14013232D01*
X9484464Y-13984661D01*
X9470178Y-13941804D01*
X9455893Y-13870375D01*
X9455893Y-13813232D01*
X9470178Y-13741804D01*
X9484464Y-13698946D01*
X9498750Y-13670375D01*
X9527321Y-13627518D01*
X9541607Y-13613232D01*
X9698750Y-13784661D02*
X9670178Y-13770375D01*
X9655893Y-13756089D01*
X9641607Y-13727518D01*
X9641607Y-13713232D01*
X9655893Y-13684661D01*
X9670178Y-13670375D01*
X9698750Y-13656089D01*
X9755893Y-13656089D01*
X9784464Y-13670375D01*
X9798750Y-13684661D01*
X9813036Y-13713232D01*
X9813036Y-13727518D01*
X9798750Y-13756089D01*
X9784464Y-13770375D01*
X9755893Y-13784661D01*
X9698750Y-13784661D01*
X9670178Y-13798946D01*
X9655893Y-13813232D01*
X9641607Y-13841804D01*
X9641607Y-13898946D01*
X9655893Y-13927518D01*
X9670178Y-13941804D01*
X9698750Y-13956089D01*
X9755893Y-13956089D01*
X9784464Y-13941804D01*
X9798750Y-13927518D01*
X9813036Y-13898946D01*
X9813036Y-13841804D01*
X9798750Y-13813232D01*
X9784464Y-13798946D01*
X9755893Y-13784661D01*
X9998750Y-13656089D02*
X10027321Y-13656089D01*
X10055893Y-13670375D01*
X10070178Y-13684661D01*
X10084464Y-13713232D01*
X10098750Y-13770375D01*
X10098750Y-13841804D01*
X10084464Y-13898946D01*
X10070178Y-13927518D01*
X10055893Y-13941804D01*
X10027321Y-13956089D01*
X9998750Y-13956089D01*
X9970178Y-13941804D01*
X9955893Y-13927518D01*
X9941607Y-13898946D01*
X9927321Y-13841804D01*
X9927321Y-13770375D01*
X9941607Y-13713232D01*
X9955893Y-13684661D01*
X9970178Y-13670375D01*
X9998750Y-13656089D01*
X10455893Y-13956089D02*
X10455893Y-13656089D01*
X10584464Y-13956089D02*
X10584464Y-13798946D01*
X10570178Y-13770375D01*
X10541607Y-13756089D01*
X10498750Y-13756089D01*
X10470178Y-13770375D01*
X10455893Y-13784661D01*
X10770178Y-13956089D02*
X10741607Y-13941804D01*
X10727321Y-13927518D01*
X10713036Y-13898946D01*
X10713036Y-13813232D01*
X10727321Y-13784661D01*
X10741607Y-13770375D01*
X10770178Y-13756089D01*
X10813036Y-13756089D01*
X10841607Y-13770375D01*
X10855893Y-13784661D01*
X10870178Y-13813232D01*
X10870178Y-13898946D01*
X10855893Y-13927518D01*
X10841607Y-13941804D01*
X10813036Y-13956089D01*
X10770178Y-13956089D01*
X11041607Y-13956089D02*
X11013036Y-13941804D01*
X10998750Y-13913232D01*
X10998750Y-13656089D01*
X11270178Y-13941804D02*
X11241607Y-13956089D01*
X11184464Y-13956089D01*
X11155893Y-13941804D01*
X11141607Y-13913232D01*
X11141607Y-13798946D01*
X11155893Y-13770375D01*
X11184464Y-13756089D01*
X11241607Y-13756089D01*
X11270178Y-13770375D01*
X11284464Y-13798946D01*
X11284464Y-13827518D01*
X11141607Y-13856089D01*
X11398750Y-13941804D02*
X11427321Y-13956089D01*
X11484464Y-13956089D01*
X11513036Y-13941804D01*
X11527321Y-13913232D01*
X11527321Y-13898946D01*
X11513036Y-13870375D01*
X11484464Y-13856089D01*
X11441607Y-13856089D01*
X11413036Y-13841804D01*
X11398750Y-13813232D01*
X11398750Y-13798946D01*
X11413036Y-13770375D01*
X11441607Y-13756089D01*
X11484464Y-13756089D01*
X11513036Y-13770375D01*
X11627321Y-14070375D02*
X11641607Y-14056089D01*
X11670178Y-14013232D01*
X11684464Y-13984661D01*
X11698750Y-13941804D01*
X11713036Y-13870375D01*
X11713036Y-13813232D01*
X11698750Y-13741804D01*
X11684464Y-13698946D01*
X11670178Y-13670375D01*
X11641607Y-13627518D01*
X11627321Y-13613232D01*
X4229140Y-14161765D02*
X4229140Y-14270985D01*
X4174530Y-14216375D02*
X4283750Y-14216375D01*
X4727321Y-14352089D02*
X4555893Y-14352089D01*
X4641607Y-14352089D02*
X4641607Y-14052089D01*
X4613036Y-14094946D01*
X4584464Y-14123518D01*
X4555893Y-14137804D01*
X4855893Y-14323518D02*
X4870178Y-14337804D01*
X4855893Y-14352089D01*
X4841607Y-14337804D01*
X4855893Y-14323518D01*
X4855893Y-14352089D01*
X5055893Y-14052089D02*
X5084464Y-14052089D01*
X5113036Y-14066375D01*
X5127321Y-14080661D01*
X5141607Y-14109232D01*
X5155893Y-14166375D01*
X5155893Y-14237804D01*
X5141607Y-14294946D01*
X5127321Y-14323518D01*
X5113036Y-14337804D01*
X5084464Y-14352089D01*
X5055893Y-14352089D01*
X5027321Y-14337804D01*
X5013036Y-14323518D01*
X4998750Y-14294946D01*
X4984464Y-14237804D01*
X4984464Y-14166375D01*
X4998750Y-14109232D01*
X5013036Y-14080661D01*
X5027321Y-14066375D01*
X5055893Y-14052089D01*
X5298750Y-14352089D02*
X5355893Y-14352089D01*
X5384464Y-14337804D01*
X5398750Y-14323518D01*
X5427321Y-14280661D01*
X5441607Y-14223518D01*
X5441607Y-14109232D01*
X5427321Y-14080661D01*
X5413036Y-14066375D01*
X5384464Y-14052089D01*
X5327321Y-14052089D01*
X5298750Y-14066375D01*
X5284464Y-14080661D01*
X5270178Y-14109232D01*
X5270178Y-14180661D01*
X5284464Y-14209232D01*
X5298750Y-14223518D01*
X5327321Y-14237804D01*
X5384464Y-14237804D01*
X5413036Y-14223518D01*
X5427321Y-14209232D01*
X5441607Y-14180661D01*
X5555893Y-14080661D02*
X5570178Y-14066375D01*
X5598750Y-14052089D01*
X5670178Y-14052089D01*
X5698750Y-14066375D01*
X5713036Y-14080661D01*
X5727321Y-14109232D01*
X5727321Y-14137804D01*
X5713036Y-14180661D01*
X5541607Y-14352089D01*
X5727321Y-14352089D01*
X5855893Y-14352089D02*
X5855893Y-14152089D01*
X5855893Y-14180661D02*
X5870178Y-14166375D01*
X5898750Y-14152089D01*
X5941607Y-14152089D01*
X5970178Y-14166375D01*
X5984464Y-14194946D01*
X5984464Y-14352089D01*
X5984464Y-14194946D02*
X5998750Y-14166375D01*
X6027321Y-14152089D01*
X6070178Y-14152089D01*
X6098750Y-14166375D01*
X6113036Y-14194946D01*
X6113036Y-14352089D01*
X6255893Y-14352089D02*
X6255893Y-14152089D01*
X6255893Y-14180661D02*
X6270178Y-14166375D01*
X6298750Y-14152089D01*
X6341607Y-14152089D01*
X6370178Y-14166375D01*
X6384464Y-14194946D01*
X6384464Y-14352089D01*
X6384464Y-14194946D02*
X6398750Y-14166375D01*
X6427321Y-14152089D01*
X6470178Y-14152089D01*
X6498750Y-14166375D01*
X6513036Y-14194946D01*
X6513036Y-14352089D01*
X7098750Y-14037804D02*
X6841607Y-14423518D01*
X7484464Y-14052089D02*
X7513036Y-14052089D01*
X7541607Y-14066375D01*
X7555893Y-14080661D01*
X7570178Y-14109232D01*
X7584464Y-14166375D01*
X7584464Y-14237804D01*
X7570178Y-14294946D01*
X7555893Y-14323518D01*
X7541607Y-14337804D01*
X7513036Y-14352089D01*
X7484464Y-14352089D01*
X7455893Y-14337804D01*
X7441607Y-14323518D01*
X7427321Y-14294946D01*
X7413036Y-14237804D01*
X7413036Y-14166375D01*
X7427321Y-14109232D01*
X7441607Y-14080661D01*
X7455893Y-14066375D01*
X7484464Y-14052089D01*
X7713036Y-14323518D02*
X7727321Y-14337804D01*
X7713036Y-14352089D01*
X7698750Y-14337804D01*
X7713036Y-14323518D01*
X7713036Y-14352089D01*
X7913036Y-14052089D02*
X7941607Y-14052089D01*
X7970178Y-14066375D01*
X7984464Y-14080661D01*
X7998750Y-14109232D01*
X8013036Y-14166375D01*
X8013036Y-14237804D01*
X7998750Y-14294946D01*
X7984464Y-14323518D01*
X7970178Y-14337804D01*
X7941607Y-14352089D01*
X7913036Y-14352089D01*
X7884464Y-14337804D01*
X7870178Y-14323518D01*
X7855893Y-14294946D01*
X7841607Y-14237804D01*
X7841607Y-14166375D01*
X7855893Y-14109232D01*
X7870178Y-14080661D01*
X7884464Y-14066375D01*
X7913036Y-14052089D01*
X8270178Y-14152089D02*
X8270178Y-14352089D01*
X8198750Y-14037804D02*
X8127321Y-14252089D01*
X8313036Y-14252089D01*
X8398750Y-14052089D02*
X8584464Y-14052089D01*
X8484464Y-14166375D01*
X8527321Y-14166375D01*
X8555893Y-14180661D01*
X8570178Y-14194946D01*
X8584464Y-14223518D01*
X8584464Y-14294946D01*
X8570178Y-14323518D01*
X8555893Y-14337804D01*
X8527321Y-14352089D01*
X8441607Y-14352089D01*
X8413036Y-14337804D01*
X8398750Y-14323518D01*
X8770178Y-14052089D02*
X8798750Y-14052089D01*
X8827321Y-14066375D01*
X8841607Y-14080661D01*
X8855893Y-14109232D01*
X8870178Y-14166375D01*
X8870178Y-14237804D01*
X8855893Y-14294946D01*
X8841607Y-14323518D01*
X8827321Y-14337804D01*
X8798750Y-14352089D01*
X8770178Y-14352089D01*
X8741607Y-14337804D01*
X8727321Y-14323518D01*
X8713036Y-14294946D01*
X8698750Y-14237804D01*
X8698750Y-14166375D01*
X8713036Y-14109232D01*
X8727321Y-14080661D01*
X8741607Y-14066375D01*
X8770178Y-14052089D01*
X8984464Y-14052089D02*
X8984464Y-14109232D01*
X9098750Y-14052089D02*
X9098750Y-14109232D01*
X9541607Y-14466375D02*
X9527321Y-14452089D01*
X9498750Y-14409232D01*
X9484464Y-14380661D01*
X9470178Y-14337804D01*
X9455893Y-14266375D01*
X9455893Y-14209232D01*
X9470178Y-14137804D01*
X9484464Y-14094946D01*
X9498750Y-14066375D01*
X9527321Y-14023518D01*
X9541607Y-14009232D01*
X9641607Y-14080661D02*
X9655893Y-14066375D01*
X9684464Y-14052089D01*
X9755893Y-14052089D01*
X9784464Y-14066375D01*
X9798750Y-14080661D01*
X9813036Y-14109232D01*
X9813036Y-14137804D01*
X9798750Y-14180661D01*
X9627321Y-14352089D01*
X9813036Y-14352089D01*
X10070178Y-14152089D02*
X10070178Y-14352089D01*
X9998750Y-14037804D02*
X9927321Y-14252089D01*
X10113036Y-14252089D01*
X10455893Y-14352089D02*
X10455893Y-14052089D01*
X10584464Y-14352089D02*
X10584464Y-14194946D01*
X10570178Y-14166375D01*
X10541607Y-14152089D01*
X10498750Y-14152089D01*
X10470178Y-14166375D01*
X10455893Y-14180661D01*
X10770178Y-14352089D02*
X10741607Y-14337804D01*
X10727321Y-14323518D01*
X10713036Y-14294946D01*
X10713036Y-14209232D01*
X10727321Y-14180661D01*
X10741607Y-14166375D01*
X10770178Y-14152089D01*
X10813036Y-14152089D01*
X10841607Y-14166375D01*
X10855893Y-14180661D01*
X10870178Y-14209232D01*
X10870178Y-14294946D01*
X10855893Y-14323518D01*
X10841607Y-14337804D01*
X10813036Y-14352089D01*
X10770178Y-14352089D01*
X11041607Y-14352089D02*
X11013036Y-14337804D01*
X10998750Y-14309232D01*
X10998750Y-14052089D01*
X11270178Y-14337804D02*
X11241607Y-14352089D01*
X11184464Y-14352089D01*
X11155893Y-14337804D01*
X11141607Y-14309232D01*
X11141607Y-14194946D01*
X11155893Y-14166375D01*
X11184464Y-14152089D01*
X11241607Y-14152089D01*
X11270178Y-14166375D01*
X11284464Y-14194946D01*
X11284464Y-14223518D01*
X11141607Y-14252089D01*
X11398750Y-14337804D02*
X11427321Y-14352089D01*
X11484464Y-14352089D01*
X11513036Y-14337804D01*
X11527321Y-14309232D01*
X11527321Y-14294946D01*
X11513036Y-14266375D01*
X11484464Y-14252089D01*
X11441607Y-14252089D01*
X11413036Y-14237804D01*
X11398750Y-14209232D01*
X11398750Y-14194946D01*
X11413036Y-14166375D01*
X11441607Y-14152089D01*
X11484464Y-14152089D01*
X11513036Y-14166375D01*
X11627321Y-14466375D02*
X11641607Y-14452089D01*
X11670178Y-14409232D01*
X11684464Y-14380661D01*
X11698750Y-14337804D01*
X11713036Y-14266375D01*
X11713036Y-14209232D01*
X11698750Y-14137804D01*
X11684464Y-14094946D01*
X11670178Y-14066375D01*
X11641607Y-14023518D01*
X11627321Y-14009232D01*
M02*
