G04 #@! TF.GenerationSoftware,KiCad,Pcbnew,(5.1.12-1-10_14)*
G04 #@! TF.CreationDate,2022-04-14T21:34:18-06:00*
G04 #@! TF.ProjectId,banime40,62616e69-6d65-4343-902e-6b696361645f,rev?*
G04 #@! TF.SameCoordinates,Original*
G04 #@! TF.FileFunction,Legend,Top*
G04 #@! TF.FilePolarity,Positive*
%FSLAX46Y46*%
G04 Gerber Fmt 4.6, Leading zero omitted, Abs format (unit mm)*
G04 Created by KiCad (PCBNEW (5.1.12-1-10_14)) date 2022-04-14 21:34:18*
%MOMM*%
%LPD*%
G01*
G04 APERTURE LIST*
%ADD10C,1.102500*%
%ADD11C,0.381000*%
%ADD12C,0.150000*%
%ADD13C,1.752600*%
%ADD14R,1.752600X1.752600*%
%ADD15C,1.701800*%
%ADD16C,3.987800*%
%ADD17C,3.000000*%
%ADD18C,3.048000*%
%ADD19C,2.200000*%
%ADD20R,1.600000X1.600000*%
%ADD21C,1.600000*%
G04 APERTURE END LIST*
D10*
X162337970Y-99256120D02*
X162645620Y-98498545D01*
X109040495Y-105835840D02*
X119402526Y-100389910D01*
X112401545Y-98498545D02*
X112703421Y-99256120D01*
X110812055Y-91919035D02*
X112401545Y-98498545D01*
X110812055Y-89475160D02*
X110812055Y-91919035D01*
X114788406Y-53671840D02*
X110812055Y-89475160D01*
X126791060Y-65378500D02*
X114788406Y-53671840D01*
X127571525Y-65048065D02*
X126791060Y-65378500D01*
X131695820Y-63857470D02*
X127571525Y-65048065D01*
X135643715Y-63333310D02*
X131695820Y-63857470D01*
X136953905Y-63333310D02*
X135643715Y-63333310D01*
X138093155Y-63333310D02*
X136953905Y-63333310D01*
X139409120Y-63333310D02*
X138093155Y-63333310D01*
X143356805Y-63857470D02*
X139409120Y-63333310D01*
X147475430Y-65048065D02*
X143356805Y-63857470D01*
X148256000Y-65378500D02*
X147475430Y-65048065D01*
X160253090Y-53671840D02*
X148256000Y-65378500D01*
X164235005Y-89475160D02*
X160253090Y-53671840D01*
X164235005Y-91730980D02*
X164235005Y-89475160D01*
X128027225Y-78184405D02*
X130175000Y-79375000D01*
X125526545Y-78811045D02*
X128027225Y-78184405D01*
X123959840Y-80406205D02*
X125526545Y-78811045D01*
X123714980Y-81049855D02*
X123959840Y-80406205D01*
X150739670Y-80434660D02*
X150938960Y-81049855D01*
X149292665Y-78868060D02*
X150739670Y-80434660D01*
X146894465Y-78167395D02*
X149292665Y-78868060D01*
X144712670Y-79141480D02*
X146894465Y-78167395D01*
X143732810Y-81277705D02*
X144712670Y-79141480D01*
X143715696Y-81995485D02*
X143732810Y-81277705D01*
X143715696Y-82263235D02*
X143715696Y-81995485D01*
X144615860Y-84724120D02*
X143715696Y-82263235D01*
X144786695Y-84929185D02*
X144615860Y-84724120D01*
X150938960Y-92317720D02*
X144786695Y-84929185D01*
X157211030Y-84741235D02*
X150938960Y-92317720D01*
X157319180Y-84581635D02*
X157211030Y-84741235D01*
X157957265Y-82793065D02*
X157319180Y-84581635D01*
X157968710Y-82605010D02*
X157957265Y-82793065D01*
X158019950Y-81813205D02*
X157968710Y-82605010D01*
X157216700Y-79375000D02*
X158019950Y-81813205D01*
X155069135Y-78184405D02*
X157216700Y-79375000D01*
X152568245Y-78811045D02*
X155069135Y-78184405D01*
X151001750Y-80406205D02*
X152568245Y-78811045D01*
X150756680Y-81049855D02*
X151001750Y-80406205D01*
X161392340Y-111640660D02*
X151161245Y-105955435D01*
X165938210Y-105955435D02*
X155707115Y-100270315D01*
X124125006Y-112290086D02*
X123122466Y-111663446D01*
X129639500Y-114580135D02*
X124125006Y-112290086D01*
X135125225Y-115616905D02*
X129639500Y-114580135D01*
X136953905Y-115616905D02*
X135125225Y-115616905D01*
X138093155Y-115616905D02*
X136953905Y-115616905D01*
X139921835Y-115616905D02*
X138093155Y-115616905D01*
X145407665Y-114580135D02*
X139921835Y-115616905D01*
X150916280Y-112290086D02*
X145407665Y-114580135D01*
X151918820Y-111663446D02*
X150916280Y-112290086D01*
X113654615Y-111640660D02*
X123880250Y-105955435D01*
X149099045Y-99848635D02*
X149099045Y-99848635D01*
X149099045Y-99848635D02*
X149099045Y-99848635D01*
X148552100Y-100617655D02*
X149099045Y-99848635D01*
X147270365Y-102395095D02*
X148552100Y-100617655D01*
X145795010Y-104343265D02*
X147270365Y-102395095D01*
X144929075Y-105408595D02*
X145795010Y-104343265D01*
X144672875Y-105647890D02*
X144929075Y-105408595D01*
X143869625Y-106388455D02*
X144672875Y-105647890D01*
X140987060Y-108103105D02*
X143869625Y-106388455D01*
X137096390Y-108968935D02*
X140987060Y-108103105D01*
X133256750Y-108137230D02*
X137096390Y-108968935D01*
X130459760Y-106308655D02*
X133256750Y-108137230D01*
X129719195Y-105522520D02*
X130459760Y-106308655D01*
X129502685Y-105289000D02*
X129719195Y-105522520D01*
X128756450Y-104229340D02*
X129502685Y-105289000D01*
X127486055Y-102309625D02*
X128756450Y-104229340D01*
X126380930Y-100555075D02*
X127486055Y-102309625D01*
X125902445Y-99797290D02*
X126380930Y-100555075D01*
X125902445Y-99797290D02*
X125902445Y-99797290D01*
X125902445Y-99797290D02*
X125902445Y-99797290D01*
X126295460Y-99973900D02*
X125902445Y-99797290D01*
X127355120Y-100389910D02*
X126295460Y-99973900D01*
X128893265Y-100828495D02*
X127355120Y-100389910D01*
X130750295Y-101101915D02*
X128893265Y-100828495D01*
X132738365Y-100999435D02*
X130750295Y-101101915D01*
X134680865Y-100315780D02*
X132738365Y-100999435D01*
X136401290Y-98863106D02*
X134680865Y-100315780D01*
X137495075Y-97074536D02*
X136401290Y-98863106D01*
X137722820Y-96436451D02*
X137495075Y-97074536D01*
X137956445Y-97074536D02*
X137722820Y-96436451D01*
X139033115Y-98868776D02*
X137956445Y-97074536D01*
X140702195Y-100327120D02*
X139033115Y-98868776D01*
X142576445Y-101010775D02*
X140702195Y-100327120D01*
X144479150Y-101124700D02*
X142576445Y-101010775D01*
X146250710Y-100868290D02*
X144479150Y-101124700D01*
X147726170Y-100435375D02*
X146250710Y-100868290D01*
X148728710Y-100025245D02*
X147726170Y-100435375D01*
X149099045Y-99848635D02*
X148728710Y-100025245D01*
X149099045Y-99848635D02*
X149099045Y-99848635D01*
X142274465Y-96436451D02*
X133171280Y-96436451D01*
X123703640Y-80434660D02*
X123902930Y-81049855D01*
X122256635Y-78868060D02*
X123703640Y-80434660D01*
X119852556Y-78167395D02*
X122256635Y-78868060D01*
X117670760Y-79141480D02*
X119852556Y-78167395D01*
X116691005Y-81277705D02*
X117670760Y-79141480D01*
X116673890Y-81995485D02*
X116691005Y-81277705D01*
X116673890Y-82263235D02*
X116673890Y-81995485D01*
X117573950Y-84724120D02*
X116673890Y-82263235D01*
X117744891Y-84929185D02*
X117573950Y-84724120D01*
X123902930Y-92317720D02*
X117744891Y-84929185D01*
X130169225Y-84741235D02*
X123902930Y-92317720D01*
X130277480Y-84581635D02*
X130169225Y-84741235D01*
X130915460Y-82793065D02*
X130277480Y-84581635D01*
X162645620Y-98498545D02*
X164235005Y-91730980D01*
X130926905Y-82605010D02*
X130915460Y-82793065D01*
X130978040Y-81813205D02*
X130926905Y-82605010D01*
X130175000Y-79375000D02*
X130978040Y-81813205D01*
D11*
G04 #@! TO.C,U1*
X51100000Y-70400000D02*
X51100000Y-67860000D01*
X48560000Y-70400000D02*
X51100000Y-70400000D01*
D12*
G36*
X54849030Y-82794635D02*
G01*
X54949030Y-82794635D01*
X54949030Y-82894635D01*
X54849030Y-82894635D01*
X54849030Y-82794635D01*
G37*
X54849030Y-82794635D02*
X54949030Y-82794635D01*
X54949030Y-82894635D01*
X54849030Y-82894635D01*
X54849030Y-82794635D01*
G36*
X54449030Y-82994635D02*
G01*
X55249030Y-82994635D01*
X55249030Y-83094635D01*
X54449030Y-83094635D01*
X54449030Y-82994635D01*
G37*
X54449030Y-82994635D02*
X55249030Y-82994635D01*
X55249030Y-83094635D01*
X54449030Y-83094635D01*
X54449030Y-82994635D01*
G36*
X55049030Y-82594635D02*
G01*
X55249030Y-82594635D01*
X55249030Y-82694635D01*
X55049030Y-82694635D01*
X55049030Y-82594635D01*
G37*
X55049030Y-82594635D02*
X55249030Y-82594635D01*
X55249030Y-82694635D01*
X55049030Y-82694635D01*
X55049030Y-82594635D01*
G36*
X54449030Y-82594635D02*
G01*
X54749030Y-82594635D01*
X54749030Y-82694635D01*
X54449030Y-82694635D01*
X54449030Y-82594635D01*
G37*
X54449030Y-82594635D02*
X54749030Y-82594635D01*
X54749030Y-82694635D01*
X54449030Y-82694635D01*
X54449030Y-82594635D01*
G36*
X54449030Y-82594635D02*
G01*
X54549030Y-82594635D01*
X54549030Y-83094635D01*
X54449030Y-83094635D01*
X54449030Y-82594635D01*
G37*
X54449030Y-82594635D02*
X54549030Y-82594635D01*
X54549030Y-83094635D01*
X54449030Y-83094635D01*
X54449030Y-82594635D01*
D11*
X79040000Y-85640000D02*
X46020000Y-85640000D01*
X79040000Y-67860000D02*
X79040000Y-85640000D01*
X46020000Y-67860000D02*
X79040000Y-67860000D01*
X46020000Y-85640000D02*
X46020000Y-67860000D01*
X48560000Y-70400000D02*
X48560000Y-67860000D01*
D12*
G04 #@! TO.C,SW2*
X197787500Y-51943750D02*
X197787500Y-50943750D01*
X197787500Y-64943750D02*
X198787500Y-64943750D01*
X198787500Y-50943750D02*
X197787500Y-50943750D01*
X197787500Y-64943750D02*
X197787500Y-63943750D01*
X211787500Y-63943750D02*
X211787500Y-64943750D01*
X211787500Y-50943750D02*
X210787500Y-50943750D01*
X210787500Y-64943750D02*
X211787500Y-64943750D01*
X211787500Y-50943750D02*
X211787500Y-51943750D01*
G04 #@! TO.C,SW3*
X178737500Y-51943750D02*
X178737500Y-50943750D01*
X178737500Y-64943750D02*
X179737500Y-64943750D01*
X179737500Y-50943750D02*
X178737500Y-50943750D01*
X178737500Y-64943750D02*
X178737500Y-63943750D01*
X192737500Y-63943750D02*
X192737500Y-64943750D01*
X192737500Y-50943750D02*
X191737500Y-50943750D01*
X191737500Y-64943750D02*
X192737500Y-64943750D01*
X192737500Y-50943750D02*
X192737500Y-51943750D01*
G04 #@! TO.C,SW11*
X216837500Y-70993750D02*
X216837500Y-69993750D01*
X216837500Y-83993750D02*
X217837500Y-83993750D01*
X217837500Y-69993750D02*
X216837500Y-69993750D01*
X216837500Y-83993750D02*
X216837500Y-82993750D01*
X230837500Y-82993750D02*
X230837500Y-83993750D01*
X230837500Y-69993750D02*
X229837500Y-69993750D01*
X229837500Y-83993750D02*
X230837500Y-83993750D01*
X230837500Y-69993750D02*
X230837500Y-70993750D01*
G04 #@! TO.C,SW43*
X145112500Y-121093750D02*
X145112500Y-122093750D01*
X145112500Y-108093750D02*
X144112500Y-108093750D01*
X144112500Y-122093750D02*
X145112500Y-122093750D01*
X145112500Y-108093750D02*
X145112500Y-109093750D01*
X131112500Y-109093750D02*
X131112500Y-108093750D01*
X131112500Y-122093750D02*
X132112500Y-122093750D01*
X132112500Y-108093750D02*
X131112500Y-108093750D01*
X131112500Y-122093750D02*
X131112500Y-121093750D01*
G04 #@! TO.C,SW42*
X126062500Y-121093750D02*
X126062500Y-122093750D01*
X126062500Y-108093750D02*
X125062500Y-108093750D01*
X125062500Y-122093750D02*
X126062500Y-122093750D01*
X126062500Y-108093750D02*
X126062500Y-109093750D01*
X112062500Y-109093750D02*
X112062500Y-108093750D01*
X112062500Y-122093750D02*
X113062500Y-122093750D01*
X113062500Y-108093750D02*
X112062500Y-108093750D01*
X112062500Y-122093750D02*
X112062500Y-121093750D01*
G04 #@! TO.C,SW41*
X164162500Y-121093750D02*
X164162500Y-122093750D01*
X164162500Y-108093750D02*
X163162500Y-108093750D01*
X163162500Y-122093750D02*
X164162500Y-122093750D01*
X164162500Y-108093750D02*
X164162500Y-109093750D01*
X150162500Y-109093750D02*
X150162500Y-108093750D01*
X150162500Y-122093750D02*
X151162500Y-122093750D01*
X151162500Y-108093750D02*
X150162500Y-108093750D01*
X150162500Y-122093750D02*
X150162500Y-121093750D01*
G04 #@! TO.C,SW40*
X45387500Y-109093750D02*
X45387500Y-108093750D01*
X45387500Y-122093750D02*
X46387500Y-122093750D01*
X46387500Y-108093750D02*
X45387500Y-108093750D01*
X45387500Y-122093750D02*
X45387500Y-121093750D01*
X59387500Y-121093750D02*
X59387500Y-122093750D01*
X59387500Y-108093750D02*
X58387500Y-108093750D01*
X58387500Y-122093750D02*
X59387500Y-122093750D01*
X59387500Y-108093750D02*
X59387500Y-109093750D01*
G04 #@! TO.C,SW39*
X64437500Y-109093750D02*
X64437500Y-108093750D01*
X64437500Y-122093750D02*
X65437500Y-122093750D01*
X65437500Y-108093750D02*
X64437500Y-108093750D01*
X64437500Y-122093750D02*
X64437500Y-121093750D01*
X78437500Y-121093750D02*
X78437500Y-122093750D01*
X78437500Y-108093750D02*
X77437500Y-108093750D01*
X77437500Y-122093750D02*
X78437500Y-122093750D01*
X78437500Y-108093750D02*
X78437500Y-109093750D01*
G04 #@! TO.C,SW38*
X83487500Y-109093750D02*
X83487500Y-108093750D01*
X83487500Y-122093750D02*
X84487500Y-122093750D01*
X84487500Y-108093750D02*
X83487500Y-108093750D01*
X83487500Y-122093750D02*
X83487500Y-121093750D01*
X97487500Y-121093750D02*
X97487500Y-122093750D01*
X97487500Y-108093750D02*
X96487500Y-108093750D01*
X96487500Y-122093750D02*
X97487500Y-122093750D01*
X97487500Y-108093750D02*
X97487500Y-109093750D01*
G04 #@! TO.C,SW37*
X102537500Y-109093750D02*
X102537500Y-108093750D01*
X102537500Y-122093750D02*
X103537500Y-122093750D01*
X103537500Y-108093750D02*
X102537500Y-108093750D01*
X102537500Y-122093750D02*
X102537500Y-121093750D01*
X116537500Y-121093750D02*
X116537500Y-122093750D01*
X116537500Y-108093750D02*
X115537500Y-108093750D01*
X115537500Y-122093750D02*
X116537500Y-122093750D01*
X116537500Y-108093750D02*
X116537500Y-109093750D01*
G04 #@! TO.C,SW36*
X121587500Y-109093750D02*
X121587500Y-108093750D01*
X121587500Y-122093750D02*
X122587500Y-122093750D01*
X122587500Y-108093750D02*
X121587500Y-108093750D01*
X121587500Y-122093750D02*
X121587500Y-121093750D01*
X135587500Y-121093750D02*
X135587500Y-122093750D01*
X135587500Y-108093750D02*
X134587500Y-108093750D01*
X134587500Y-122093750D02*
X135587500Y-122093750D01*
X135587500Y-108093750D02*
X135587500Y-109093750D01*
G04 #@! TO.C,SW35*
X140637500Y-109093750D02*
X140637500Y-108093750D01*
X140637500Y-122093750D02*
X141637500Y-122093750D01*
X141637500Y-108093750D02*
X140637500Y-108093750D01*
X140637500Y-122093750D02*
X140637500Y-121093750D01*
X154637500Y-121093750D02*
X154637500Y-122093750D01*
X154637500Y-108093750D02*
X153637500Y-108093750D01*
X153637500Y-122093750D02*
X154637500Y-122093750D01*
X154637500Y-108093750D02*
X154637500Y-109093750D01*
G04 #@! TO.C,SW34*
X159687500Y-109093750D02*
X159687500Y-108093750D01*
X159687500Y-122093750D02*
X160687500Y-122093750D01*
X160687500Y-108093750D02*
X159687500Y-108093750D01*
X159687500Y-122093750D02*
X159687500Y-121093750D01*
X173687500Y-121093750D02*
X173687500Y-122093750D01*
X173687500Y-108093750D02*
X172687500Y-108093750D01*
X172687500Y-122093750D02*
X173687500Y-122093750D01*
X173687500Y-108093750D02*
X173687500Y-109093750D01*
G04 #@! TO.C,SW33*
X178737500Y-109093750D02*
X178737500Y-108093750D01*
X178737500Y-122093750D02*
X179737500Y-122093750D01*
X179737500Y-108093750D02*
X178737500Y-108093750D01*
X178737500Y-122093750D02*
X178737500Y-121093750D01*
X192737500Y-121093750D02*
X192737500Y-122093750D01*
X192737500Y-108093750D02*
X191737500Y-108093750D01*
X191737500Y-122093750D02*
X192737500Y-122093750D01*
X192737500Y-108093750D02*
X192737500Y-109093750D01*
G04 #@! TO.C,SW32*
X197787500Y-109093750D02*
X197787500Y-108093750D01*
X197787500Y-122093750D02*
X198787500Y-122093750D01*
X198787500Y-108093750D02*
X197787500Y-108093750D01*
X197787500Y-122093750D02*
X197787500Y-121093750D01*
X211787500Y-121093750D02*
X211787500Y-122093750D01*
X211787500Y-108093750D02*
X210787500Y-108093750D01*
X210787500Y-122093750D02*
X211787500Y-122093750D01*
X211787500Y-108093750D02*
X211787500Y-109093750D01*
G04 #@! TO.C,SW31*
X216837500Y-109093750D02*
X216837500Y-108093750D01*
X216837500Y-122093750D02*
X217837500Y-122093750D01*
X217837500Y-108093750D02*
X216837500Y-108093750D01*
X216837500Y-122093750D02*
X216837500Y-121093750D01*
X230837500Y-121093750D02*
X230837500Y-122093750D01*
X230837500Y-108093750D02*
X229837500Y-108093750D01*
X229837500Y-122093750D02*
X230837500Y-122093750D01*
X230837500Y-108093750D02*
X230837500Y-109093750D01*
G04 #@! TO.C,SW30*
X45387500Y-90043750D02*
X45387500Y-89043750D01*
X45387500Y-103043750D02*
X46387500Y-103043750D01*
X46387500Y-89043750D02*
X45387500Y-89043750D01*
X45387500Y-103043750D02*
X45387500Y-102043750D01*
X59387500Y-102043750D02*
X59387500Y-103043750D01*
X59387500Y-89043750D02*
X58387500Y-89043750D01*
X58387500Y-103043750D02*
X59387500Y-103043750D01*
X59387500Y-89043750D02*
X59387500Y-90043750D01*
G04 #@! TO.C,SW29*
X64437500Y-90043750D02*
X64437500Y-89043750D01*
X64437500Y-103043750D02*
X65437500Y-103043750D01*
X65437500Y-89043750D02*
X64437500Y-89043750D01*
X64437500Y-103043750D02*
X64437500Y-102043750D01*
X78437500Y-102043750D02*
X78437500Y-103043750D01*
X78437500Y-89043750D02*
X77437500Y-89043750D01*
X77437500Y-103043750D02*
X78437500Y-103043750D01*
X78437500Y-89043750D02*
X78437500Y-90043750D01*
G04 #@! TO.C,SW28*
X83487500Y-90043750D02*
X83487500Y-89043750D01*
X83487500Y-103043750D02*
X84487500Y-103043750D01*
X84487500Y-89043750D02*
X83487500Y-89043750D01*
X83487500Y-103043750D02*
X83487500Y-102043750D01*
X97487500Y-102043750D02*
X97487500Y-103043750D01*
X97487500Y-89043750D02*
X96487500Y-89043750D01*
X96487500Y-103043750D02*
X97487500Y-103043750D01*
X97487500Y-89043750D02*
X97487500Y-90043750D01*
G04 #@! TO.C,SW27*
X102537500Y-90043750D02*
X102537500Y-89043750D01*
X102537500Y-103043750D02*
X103537500Y-103043750D01*
X103537500Y-89043750D02*
X102537500Y-89043750D01*
X102537500Y-103043750D02*
X102537500Y-102043750D01*
X116537500Y-102043750D02*
X116537500Y-103043750D01*
X116537500Y-89043750D02*
X115537500Y-89043750D01*
X115537500Y-103043750D02*
X116537500Y-103043750D01*
X116537500Y-89043750D02*
X116537500Y-90043750D01*
G04 #@! TO.C,SW26*
X121587500Y-90043750D02*
X121587500Y-89043750D01*
X121587500Y-103043750D02*
X122587500Y-103043750D01*
X122587500Y-89043750D02*
X121587500Y-89043750D01*
X121587500Y-103043750D02*
X121587500Y-102043750D01*
X135587500Y-102043750D02*
X135587500Y-103043750D01*
X135587500Y-89043750D02*
X134587500Y-89043750D01*
X134587500Y-103043750D02*
X135587500Y-103043750D01*
X135587500Y-89043750D02*
X135587500Y-90043750D01*
G04 #@! TO.C,SW25*
X140637500Y-90043750D02*
X140637500Y-89043750D01*
X140637500Y-103043750D02*
X141637500Y-103043750D01*
X141637500Y-89043750D02*
X140637500Y-89043750D01*
X140637500Y-103043750D02*
X140637500Y-102043750D01*
X154637500Y-102043750D02*
X154637500Y-103043750D01*
X154637500Y-89043750D02*
X153637500Y-89043750D01*
X153637500Y-103043750D02*
X154637500Y-103043750D01*
X154637500Y-89043750D02*
X154637500Y-90043750D01*
G04 #@! TO.C,SW24*
X159687500Y-90043750D02*
X159687500Y-89043750D01*
X159687500Y-103043750D02*
X160687500Y-103043750D01*
X160687500Y-89043750D02*
X159687500Y-89043750D01*
X159687500Y-103043750D02*
X159687500Y-102043750D01*
X173687500Y-102043750D02*
X173687500Y-103043750D01*
X173687500Y-89043750D02*
X172687500Y-89043750D01*
X172687500Y-103043750D02*
X173687500Y-103043750D01*
X173687500Y-89043750D02*
X173687500Y-90043750D01*
G04 #@! TO.C,SW23*
X178737500Y-90043750D02*
X178737500Y-89043750D01*
X178737500Y-103043750D02*
X179737500Y-103043750D01*
X179737500Y-89043750D02*
X178737500Y-89043750D01*
X178737500Y-103043750D02*
X178737500Y-102043750D01*
X192737500Y-102043750D02*
X192737500Y-103043750D01*
X192737500Y-89043750D02*
X191737500Y-89043750D01*
X191737500Y-103043750D02*
X192737500Y-103043750D01*
X192737500Y-89043750D02*
X192737500Y-90043750D01*
G04 #@! TO.C,SW22*
X197787500Y-90043750D02*
X197787500Y-89043750D01*
X197787500Y-103043750D02*
X198787500Y-103043750D01*
X198787500Y-89043750D02*
X197787500Y-89043750D01*
X197787500Y-103043750D02*
X197787500Y-102043750D01*
X211787500Y-102043750D02*
X211787500Y-103043750D01*
X211787500Y-89043750D02*
X210787500Y-89043750D01*
X210787500Y-103043750D02*
X211787500Y-103043750D01*
X211787500Y-89043750D02*
X211787500Y-90043750D01*
G04 #@! TO.C,SW21*
X216837500Y-90043750D02*
X216837500Y-89043750D01*
X216837500Y-103043750D02*
X217837500Y-103043750D01*
X217837500Y-89043750D02*
X216837500Y-89043750D01*
X216837500Y-103043750D02*
X216837500Y-102043750D01*
X230837500Y-102043750D02*
X230837500Y-103043750D01*
X230837500Y-89043750D02*
X229837500Y-89043750D01*
X229837500Y-103043750D02*
X230837500Y-103043750D01*
X230837500Y-89043750D02*
X230837500Y-90043750D01*
G04 #@! TO.C,SW20*
X45387500Y-70993750D02*
X45387500Y-69993750D01*
X45387500Y-83993750D02*
X46387500Y-83993750D01*
X46387500Y-69993750D02*
X45387500Y-69993750D01*
X45387500Y-83993750D02*
X45387500Y-82993750D01*
X59387500Y-82993750D02*
X59387500Y-83993750D01*
X59387500Y-69993750D02*
X58387500Y-69993750D01*
X58387500Y-83993750D02*
X59387500Y-83993750D01*
X59387500Y-69993750D02*
X59387500Y-70993750D01*
G04 #@! TO.C,SW19*
X64437500Y-70993750D02*
X64437500Y-69993750D01*
X64437500Y-83993750D02*
X65437500Y-83993750D01*
X65437500Y-69993750D02*
X64437500Y-69993750D01*
X64437500Y-83993750D02*
X64437500Y-82993750D01*
X78437500Y-82993750D02*
X78437500Y-83993750D01*
X78437500Y-69993750D02*
X77437500Y-69993750D01*
X77437500Y-83993750D02*
X78437500Y-83993750D01*
X78437500Y-69993750D02*
X78437500Y-70993750D01*
G04 #@! TO.C,SW18*
X83487500Y-70993750D02*
X83487500Y-69993750D01*
X83487500Y-83993750D02*
X84487500Y-83993750D01*
X84487500Y-69993750D02*
X83487500Y-69993750D01*
X83487500Y-83993750D02*
X83487500Y-82993750D01*
X97487500Y-82993750D02*
X97487500Y-83993750D01*
X97487500Y-69993750D02*
X96487500Y-69993750D01*
X96487500Y-83993750D02*
X97487500Y-83993750D01*
X97487500Y-69993750D02*
X97487500Y-70993750D01*
G04 #@! TO.C,SW17*
X102537500Y-70993750D02*
X102537500Y-69993750D01*
X102537500Y-83993750D02*
X103537500Y-83993750D01*
X103537500Y-69993750D02*
X102537500Y-69993750D01*
X102537500Y-83993750D02*
X102537500Y-82993750D01*
X116537500Y-82993750D02*
X116537500Y-83993750D01*
X116537500Y-69993750D02*
X115537500Y-69993750D01*
X115537500Y-83993750D02*
X116537500Y-83993750D01*
X116537500Y-69993750D02*
X116537500Y-70993750D01*
G04 #@! TO.C,SW16*
X121587500Y-70993750D02*
X121587500Y-69993750D01*
X121587500Y-83993750D02*
X122587500Y-83993750D01*
X122587500Y-69993750D02*
X121587500Y-69993750D01*
X121587500Y-83993750D02*
X121587500Y-82993750D01*
X135587500Y-82993750D02*
X135587500Y-83993750D01*
X135587500Y-69993750D02*
X134587500Y-69993750D01*
X134587500Y-83993750D02*
X135587500Y-83993750D01*
X135587500Y-69993750D02*
X135587500Y-70993750D01*
G04 #@! TO.C,SW15*
X140637500Y-70993750D02*
X140637500Y-69993750D01*
X140637500Y-83993750D02*
X141637500Y-83993750D01*
X141637500Y-69993750D02*
X140637500Y-69993750D01*
X140637500Y-83993750D02*
X140637500Y-82993750D01*
X154637500Y-82993750D02*
X154637500Y-83993750D01*
X154637500Y-69993750D02*
X153637500Y-69993750D01*
X153637500Y-83993750D02*
X154637500Y-83993750D01*
X154637500Y-69993750D02*
X154637500Y-70993750D01*
G04 #@! TO.C,SW14*
X159687500Y-70993750D02*
X159687500Y-69993750D01*
X159687500Y-83993750D02*
X160687500Y-83993750D01*
X160687500Y-69993750D02*
X159687500Y-69993750D01*
X159687500Y-83993750D02*
X159687500Y-82993750D01*
X173687500Y-82993750D02*
X173687500Y-83993750D01*
X173687500Y-69993750D02*
X172687500Y-69993750D01*
X172687500Y-83993750D02*
X173687500Y-83993750D01*
X173687500Y-69993750D02*
X173687500Y-70993750D01*
G04 #@! TO.C,SW13*
X178737500Y-70993750D02*
X178737500Y-69993750D01*
X178737500Y-83993750D02*
X179737500Y-83993750D01*
X179737500Y-69993750D02*
X178737500Y-69993750D01*
X178737500Y-83993750D02*
X178737500Y-82993750D01*
X192737500Y-82993750D02*
X192737500Y-83993750D01*
X192737500Y-69993750D02*
X191737500Y-69993750D01*
X191737500Y-83993750D02*
X192737500Y-83993750D01*
X192737500Y-69993750D02*
X192737500Y-70993750D01*
G04 #@! TO.C,SW12*
X197787500Y-70993750D02*
X197787500Y-69993750D01*
X197787500Y-83993750D02*
X198787500Y-83993750D01*
X198787500Y-69993750D02*
X197787500Y-69993750D01*
X197787500Y-83993750D02*
X197787500Y-82993750D01*
X211787500Y-82993750D02*
X211787500Y-83993750D01*
X211787500Y-69993750D02*
X210787500Y-69993750D01*
X210787500Y-83993750D02*
X211787500Y-83993750D01*
X211787500Y-69993750D02*
X211787500Y-70993750D01*
G04 #@! TO.C,SW10*
X45387500Y-51943750D02*
X45387500Y-50943750D01*
X45387500Y-64943750D02*
X46387500Y-64943750D01*
X46387500Y-50943750D02*
X45387500Y-50943750D01*
X45387500Y-64943750D02*
X45387500Y-63943750D01*
X59387500Y-63943750D02*
X59387500Y-64943750D01*
X59387500Y-50943750D02*
X58387500Y-50943750D01*
X58387500Y-64943750D02*
X59387500Y-64943750D01*
X59387500Y-50943750D02*
X59387500Y-51943750D01*
G04 #@! TO.C,SW9*
X64437500Y-51943750D02*
X64437500Y-50943750D01*
X64437500Y-64943750D02*
X65437500Y-64943750D01*
X65437500Y-50943750D02*
X64437500Y-50943750D01*
X64437500Y-64943750D02*
X64437500Y-63943750D01*
X78437500Y-63943750D02*
X78437500Y-64943750D01*
X78437500Y-50943750D02*
X77437500Y-50943750D01*
X77437500Y-64943750D02*
X78437500Y-64943750D01*
X78437500Y-50943750D02*
X78437500Y-51943750D01*
G04 #@! TO.C,SW8*
X83487500Y-51943750D02*
X83487500Y-50943750D01*
X83487500Y-64943750D02*
X84487500Y-64943750D01*
X84487500Y-50943750D02*
X83487500Y-50943750D01*
X83487500Y-64943750D02*
X83487500Y-63943750D01*
X97487500Y-63943750D02*
X97487500Y-64943750D01*
X97487500Y-50943750D02*
X96487500Y-50943750D01*
X96487500Y-64943750D02*
X97487500Y-64943750D01*
X97487500Y-50943750D02*
X97487500Y-51943750D01*
G04 #@! TO.C,SW7*
X102537500Y-51943750D02*
X102537500Y-50943750D01*
X102537500Y-64943750D02*
X103537500Y-64943750D01*
X103537500Y-50943750D02*
X102537500Y-50943750D01*
X102537500Y-64943750D02*
X102537500Y-63943750D01*
X116537500Y-63943750D02*
X116537500Y-64943750D01*
X116537500Y-50943750D02*
X115537500Y-50943750D01*
X115537500Y-64943750D02*
X116537500Y-64943750D01*
X116537500Y-50943750D02*
X116537500Y-51943750D01*
G04 #@! TO.C,SW6*
X121587500Y-51943750D02*
X121587500Y-50943750D01*
X121587500Y-64943750D02*
X122587500Y-64943750D01*
X122587500Y-50943750D02*
X121587500Y-50943750D01*
X121587500Y-64943750D02*
X121587500Y-63943750D01*
X135587500Y-63943750D02*
X135587500Y-64943750D01*
X135587500Y-50943750D02*
X134587500Y-50943750D01*
X134587500Y-64943750D02*
X135587500Y-64943750D01*
X135587500Y-50943750D02*
X135587500Y-51943750D01*
G04 #@! TO.C,SW5*
X140637500Y-51943750D02*
X140637500Y-50943750D01*
X140637500Y-64943750D02*
X141637500Y-64943750D01*
X141637500Y-50943750D02*
X140637500Y-50943750D01*
X140637500Y-64943750D02*
X140637500Y-63943750D01*
X154637500Y-63943750D02*
X154637500Y-64943750D01*
X154637500Y-50943750D02*
X153637500Y-50943750D01*
X153637500Y-64943750D02*
X154637500Y-64943750D01*
X154637500Y-50943750D02*
X154637500Y-51943750D01*
G04 #@! TO.C,SW4*
X159687500Y-51943750D02*
X159687500Y-50943750D01*
X159687500Y-64943750D02*
X160687500Y-64943750D01*
X160687500Y-50943750D02*
X159687500Y-50943750D01*
X159687500Y-64943750D02*
X159687500Y-63943750D01*
X173687500Y-63943750D02*
X173687500Y-64943750D01*
X173687500Y-50943750D02*
X172687500Y-50943750D01*
X172687500Y-64943750D02*
X173687500Y-64943750D01*
X173687500Y-50943750D02*
X173687500Y-51943750D01*
G04 #@! TO.C,SW1*
X216837500Y-51943750D02*
X216837500Y-50943750D01*
X216837500Y-64943750D02*
X217837500Y-64943750D01*
X217837500Y-50943750D02*
X216837500Y-50943750D01*
X216837500Y-64943750D02*
X216837500Y-63943750D01*
X230837500Y-63943750D02*
X230837500Y-64943750D01*
X230837500Y-50943750D02*
X229837500Y-50943750D01*
X229837500Y-64943750D02*
X230837500Y-64943750D01*
X230837500Y-50943750D02*
X230837500Y-51943750D01*
G04 #@! TO.C,U1*
X54566190Y-81256666D02*
X54528095Y-81370952D01*
X54528095Y-81561428D01*
X54566190Y-81637619D01*
X54604285Y-81675714D01*
X54680476Y-81713809D01*
X54756666Y-81713809D01*
X54832857Y-81675714D01*
X54870952Y-81637619D01*
X54909047Y-81561428D01*
X54947142Y-81409047D01*
X54985238Y-81332857D01*
X55023333Y-81294761D01*
X55099523Y-81256666D01*
X55175714Y-81256666D01*
X55251904Y-81294761D01*
X55290000Y-81332857D01*
X55328095Y-81409047D01*
X55328095Y-81599523D01*
X55290000Y-81713809D01*
X55328095Y-81942380D02*
X55328095Y-82399523D01*
X54528095Y-82170952D02*
X55328095Y-82170952D01*
X50268095Y-70987651D02*
X50268095Y-71444794D01*
X49468095Y-71216223D02*
X50268095Y-71216223D01*
X50268095Y-71635270D02*
X49468095Y-72168604D01*
X50268095Y-72168604D02*
X49468095Y-71635270D01*
X50268095Y-72625747D02*
X50268095Y-72701937D01*
X50230000Y-72778128D01*
X50191904Y-72816223D01*
X50115714Y-72854318D01*
X49963333Y-72892413D01*
X49772857Y-72892413D01*
X49620476Y-72854318D01*
X49544285Y-72816223D01*
X49506190Y-72778128D01*
X49468095Y-72701937D01*
X49468095Y-72625747D01*
X49506190Y-72549556D01*
X49544285Y-72511461D01*
X49620476Y-72473366D01*
X49772857Y-72435270D01*
X49963333Y-72435270D01*
X50115714Y-72473366D01*
X50191904Y-72511461D01*
X50230000Y-72549556D01*
X50268095Y-72625747D01*
X50306190Y-73806699D02*
X49277619Y-73120985D01*
X49468095Y-74073366D02*
X50268095Y-74073366D01*
X50268095Y-74263842D01*
X50230000Y-74378128D01*
X50153809Y-74454318D01*
X50077619Y-74492413D01*
X49925238Y-74530508D01*
X49810952Y-74530508D01*
X49658571Y-74492413D01*
X49582380Y-74454318D01*
X49506190Y-74378128D01*
X49468095Y-74263842D01*
X49468095Y-74073366D01*
X50268095Y-74797175D02*
X50268095Y-75292413D01*
X49963333Y-75025747D01*
X49963333Y-75140032D01*
X49925238Y-75216223D01*
X49887142Y-75254318D01*
X49810952Y-75292413D01*
X49620476Y-75292413D01*
X49544285Y-75254318D01*
X49506190Y-75216223D01*
X49468095Y-75140032D01*
X49468095Y-74911461D01*
X49506190Y-74835270D01*
X49544285Y-74797175D01*
X75287142Y-81887190D02*
X75249047Y-82001476D01*
X75210952Y-82039571D01*
X75134761Y-82077666D01*
X75020476Y-82077666D01*
X74944285Y-82039571D01*
X74906190Y-82001476D01*
X74868095Y-81925285D01*
X74868095Y-81620523D01*
X75668095Y-81620523D01*
X75668095Y-81887190D01*
X75630000Y-81963380D01*
X75591904Y-82001476D01*
X75515714Y-82039571D01*
X75439523Y-82039571D01*
X75363333Y-82001476D01*
X75325238Y-81963380D01*
X75287142Y-81887190D01*
X75287142Y-81620523D01*
X75591904Y-82382428D02*
X75630000Y-82420523D01*
X75668095Y-82496714D01*
X75668095Y-82687190D01*
X75630000Y-82763380D01*
X75591904Y-82801476D01*
X75515714Y-82839571D01*
X75439523Y-82839571D01*
X75325238Y-82801476D01*
X74868095Y-82344333D01*
X74868095Y-82839571D01*
X67667142Y-81944333D02*
X67667142Y-81677666D01*
X67248095Y-81677666D02*
X68048095Y-81677666D01*
X68048095Y-82058619D01*
X68048095Y-82287190D02*
X68048095Y-82820523D01*
X67248095Y-82477666D01*
X65127142Y-81944333D02*
X65127142Y-81677666D01*
X64708095Y-81677666D02*
X65508095Y-81677666D01*
X65508095Y-82058619D01*
X65508095Y-82706238D02*
X65508095Y-82553857D01*
X65470000Y-82477666D01*
X65431904Y-82439571D01*
X65317619Y-82363380D01*
X65165238Y-82325285D01*
X64860476Y-82325285D01*
X64784285Y-82363380D01*
X64746190Y-82401476D01*
X64708095Y-82477666D01*
X64708095Y-82630047D01*
X64746190Y-82706238D01*
X64784285Y-82744333D01*
X64860476Y-82782428D01*
X65050952Y-82782428D01*
X65127142Y-82744333D01*
X65165238Y-82706238D01*
X65203333Y-82630047D01*
X65203333Y-82477666D01*
X65165238Y-82401476D01*
X65127142Y-82363380D01*
X65050952Y-82325285D01*
X62587142Y-81944333D02*
X62587142Y-81677666D01*
X62168095Y-81677666D02*
X62968095Y-81677666D01*
X62968095Y-82058619D01*
X62968095Y-82744333D02*
X62968095Y-82363380D01*
X62587142Y-82325285D01*
X62625238Y-82363380D01*
X62663333Y-82439571D01*
X62663333Y-82630047D01*
X62625238Y-82706238D01*
X62587142Y-82744333D01*
X62510952Y-82782428D01*
X62320476Y-82782428D01*
X62244285Y-82744333D01*
X62206190Y-82706238D01*
X62168095Y-82630047D01*
X62168095Y-82439571D01*
X62206190Y-82363380D01*
X62244285Y-82325285D01*
X49468095Y-81658619D02*
X49849047Y-81391952D01*
X49468095Y-81201476D02*
X50268095Y-81201476D01*
X50268095Y-81506238D01*
X50230000Y-81582428D01*
X50191904Y-81620523D01*
X50115714Y-81658619D01*
X50001428Y-81658619D01*
X49925238Y-81620523D01*
X49887142Y-81582428D01*
X49849047Y-81506238D01*
X49849047Y-81201476D01*
X49696666Y-81963380D02*
X49696666Y-82344333D01*
X49468095Y-81887190D02*
X50268095Y-82153857D01*
X49468095Y-82420523D01*
X50268095Y-82611000D02*
X49468095Y-82801476D01*
X50039523Y-82953857D01*
X49468095Y-83106238D01*
X50268095Y-83296714D01*
X52770000Y-81601476D02*
X52808095Y-81525285D01*
X52808095Y-81411000D01*
X52770000Y-81296714D01*
X52693809Y-81220523D01*
X52617619Y-81182428D01*
X52465238Y-81144333D01*
X52350952Y-81144333D01*
X52198571Y-81182428D01*
X52122380Y-81220523D01*
X52046190Y-81296714D01*
X52008095Y-81411000D01*
X52008095Y-81487190D01*
X52046190Y-81601476D01*
X52084285Y-81639571D01*
X52350952Y-81639571D01*
X52350952Y-81487190D01*
X52008095Y-81982428D02*
X52808095Y-81982428D01*
X52008095Y-82439571D01*
X52808095Y-82439571D01*
X52008095Y-82820523D02*
X52808095Y-82820523D01*
X52808095Y-83011000D01*
X52770000Y-83125285D01*
X52693809Y-83201476D01*
X52617619Y-83239571D01*
X52465238Y-83277666D01*
X52350952Y-83277666D01*
X52198571Y-83239571D01*
X52122380Y-83201476D01*
X52046190Y-83125285D01*
X52008095Y-83011000D01*
X52008095Y-82820523D01*
X57888095Y-81144333D02*
X57088095Y-81411000D01*
X57888095Y-81677666D01*
X57164285Y-82401476D02*
X57126190Y-82363380D01*
X57088095Y-82249095D01*
X57088095Y-82172904D01*
X57126190Y-82058619D01*
X57202380Y-81982428D01*
X57278571Y-81944333D01*
X57430952Y-81906238D01*
X57545238Y-81906238D01*
X57697619Y-81944333D01*
X57773809Y-81982428D01*
X57850000Y-82058619D01*
X57888095Y-82172904D01*
X57888095Y-82249095D01*
X57850000Y-82363380D01*
X57811904Y-82401476D01*
X57164285Y-83201476D02*
X57126190Y-83163380D01*
X57088095Y-83049095D01*
X57088095Y-82972904D01*
X57126190Y-82858619D01*
X57202380Y-82782428D01*
X57278571Y-82744333D01*
X57430952Y-82706238D01*
X57545238Y-82706238D01*
X57697619Y-82744333D01*
X57773809Y-82782428D01*
X57850000Y-82858619D01*
X57888095Y-82972904D01*
X57888095Y-83049095D01*
X57850000Y-83163380D01*
X57811904Y-83201476D01*
X60047142Y-81944333D02*
X60047142Y-81677666D01*
X59628095Y-81677666D02*
X60428095Y-81677666D01*
X60428095Y-82058619D01*
X60161428Y-82706238D02*
X59628095Y-82706238D01*
X60466190Y-82515761D02*
X59894761Y-82325285D01*
X59894761Y-82820523D01*
X70207142Y-81887190D02*
X70169047Y-82001476D01*
X70130952Y-82039571D01*
X70054761Y-82077666D01*
X69940476Y-82077666D01*
X69864285Y-82039571D01*
X69826190Y-82001476D01*
X69788095Y-81925285D01*
X69788095Y-81620523D01*
X70588095Y-81620523D01*
X70588095Y-81887190D01*
X70550000Y-81963380D01*
X70511904Y-82001476D01*
X70435714Y-82039571D01*
X70359523Y-82039571D01*
X70283333Y-82001476D01*
X70245238Y-81963380D01*
X70207142Y-81887190D01*
X70207142Y-81620523D01*
X69788095Y-82839571D02*
X69788095Y-82382428D01*
X69788095Y-82611000D02*
X70588095Y-82611000D01*
X70473809Y-82534809D01*
X70397619Y-82458619D01*
X70359523Y-82382428D01*
X72747142Y-81887190D02*
X72709047Y-82001476D01*
X72670952Y-82039571D01*
X72594761Y-82077666D01*
X72480476Y-82077666D01*
X72404285Y-82039571D01*
X72366190Y-82001476D01*
X72328095Y-81925285D01*
X72328095Y-81620523D01*
X73128095Y-81620523D01*
X73128095Y-81887190D01*
X73090000Y-81963380D01*
X73051904Y-82001476D01*
X72975714Y-82039571D01*
X72899523Y-82039571D01*
X72823333Y-82001476D01*
X72785238Y-81963380D01*
X72747142Y-81887190D01*
X72747142Y-81620523D01*
X73128095Y-82344333D02*
X73128095Y-82839571D01*
X72823333Y-82572904D01*
X72823333Y-82687190D01*
X72785238Y-82763380D01*
X72747142Y-82801476D01*
X72670952Y-82839571D01*
X72480476Y-82839571D01*
X72404285Y-82801476D01*
X72366190Y-82763380D01*
X72328095Y-82687190D01*
X72328095Y-82458619D01*
X72366190Y-82382428D01*
X72404285Y-82344333D01*
X77827142Y-81887190D02*
X77789047Y-82001476D01*
X77750952Y-82039571D01*
X77674761Y-82077666D01*
X77560476Y-82077666D01*
X77484285Y-82039571D01*
X77446190Y-82001476D01*
X77408095Y-81925285D01*
X77408095Y-81620523D01*
X78208095Y-81620523D01*
X78208095Y-81887190D01*
X78170000Y-81963380D01*
X78131904Y-82001476D01*
X78055714Y-82039571D01*
X77979523Y-82039571D01*
X77903333Y-82001476D01*
X77865238Y-81963380D01*
X77827142Y-81887190D01*
X77827142Y-81620523D01*
X78208095Y-82763380D02*
X78208095Y-82611000D01*
X78170000Y-82534809D01*
X78131904Y-82496714D01*
X78017619Y-82420523D01*
X77865238Y-82382428D01*
X77560476Y-82382428D01*
X77484285Y-82420523D01*
X77446190Y-82458619D01*
X77408095Y-82534809D01*
X77408095Y-82687190D01*
X77446190Y-82763380D01*
X77484285Y-82801476D01*
X77560476Y-82839571D01*
X77750952Y-82839571D01*
X77827142Y-82801476D01*
X77865238Y-82763380D01*
X77903333Y-82687190D01*
X77903333Y-82534809D01*
X77865238Y-82458619D01*
X77827142Y-82420523D01*
X77750952Y-82382428D01*
X77827142Y-70965190D02*
X77789047Y-71079476D01*
X77750952Y-71117571D01*
X77674761Y-71155666D01*
X77560476Y-71155666D01*
X77484285Y-71117571D01*
X77446190Y-71079476D01*
X77408095Y-71003285D01*
X77408095Y-70698523D01*
X78208095Y-70698523D01*
X78208095Y-70965190D01*
X78170000Y-71041380D01*
X78131904Y-71079476D01*
X78055714Y-71117571D01*
X77979523Y-71117571D01*
X77903333Y-71079476D01*
X77865238Y-71041380D01*
X77827142Y-70965190D01*
X77827142Y-70698523D01*
X78208095Y-71879476D02*
X78208095Y-71498523D01*
X77827142Y-71460428D01*
X77865238Y-71498523D01*
X77903333Y-71574714D01*
X77903333Y-71765190D01*
X77865238Y-71841380D01*
X77827142Y-71879476D01*
X77750952Y-71917571D01*
X77560476Y-71917571D01*
X77484285Y-71879476D01*
X77446190Y-71841380D01*
X77408095Y-71765190D01*
X77408095Y-71574714D01*
X77446190Y-71498523D01*
X77484285Y-71460428D01*
X75287142Y-70965190D02*
X75249047Y-71079476D01*
X75210952Y-71117571D01*
X75134761Y-71155666D01*
X75020476Y-71155666D01*
X74944285Y-71117571D01*
X74906190Y-71079476D01*
X74868095Y-71003285D01*
X74868095Y-70698523D01*
X75668095Y-70698523D01*
X75668095Y-70965190D01*
X75630000Y-71041380D01*
X75591904Y-71079476D01*
X75515714Y-71117571D01*
X75439523Y-71117571D01*
X75363333Y-71079476D01*
X75325238Y-71041380D01*
X75287142Y-70965190D01*
X75287142Y-70698523D01*
X75401428Y-71841380D02*
X74868095Y-71841380D01*
X75706190Y-71650904D02*
X75134761Y-71460428D01*
X75134761Y-71955666D01*
X72747142Y-70736619D02*
X72747142Y-71003285D01*
X72328095Y-71117571D02*
X72328095Y-70736619D01*
X73128095Y-70736619D01*
X73128095Y-71117571D01*
X73128095Y-71803285D02*
X73128095Y-71650904D01*
X73090000Y-71574714D01*
X73051904Y-71536619D01*
X72937619Y-71460428D01*
X72785238Y-71422333D01*
X72480476Y-71422333D01*
X72404285Y-71460428D01*
X72366190Y-71498523D01*
X72328095Y-71574714D01*
X72328095Y-71727095D01*
X72366190Y-71803285D01*
X72404285Y-71841380D01*
X72480476Y-71879476D01*
X72670952Y-71879476D01*
X72747142Y-71841380D01*
X72785238Y-71803285D01*
X72823333Y-71727095D01*
X72823333Y-71574714D01*
X72785238Y-71498523D01*
X72747142Y-71460428D01*
X72670952Y-71422333D01*
X69788095Y-70698523D02*
X70588095Y-70698523D01*
X70588095Y-70889000D01*
X70550000Y-71003285D01*
X70473809Y-71079476D01*
X70397619Y-71117571D01*
X70245238Y-71155666D01*
X70130952Y-71155666D01*
X69978571Y-71117571D01*
X69902380Y-71079476D01*
X69826190Y-71003285D01*
X69788095Y-70889000D01*
X69788095Y-70698523D01*
X70588095Y-71422333D02*
X70588095Y-71955666D01*
X69788095Y-71612809D01*
X67324285Y-71155666D02*
X67286190Y-71117571D01*
X67248095Y-71003285D01*
X67248095Y-70927095D01*
X67286190Y-70812809D01*
X67362380Y-70736619D01*
X67438571Y-70698523D01*
X67590952Y-70660428D01*
X67705238Y-70660428D01*
X67857619Y-70698523D01*
X67933809Y-70736619D01*
X68010000Y-70812809D01*
X68048095Y-70927095D01*
X68048095Y-71003285D01*
X68010000Y-71117571D01*
X67971904Y-71155666D01*
X68048095Y-71841380D02*
X68048095Y-71689000D01*
X68010000Y-71612809D01*
X67971904Y-71574714D01*
X67857619Y-71498523D01*
X67705238Y-71460428D01*
X67400476Y-71460428D01*
X67324285Y-71498523D01*
X67286190Y-71536619D01*
X67248095Y-71612809D01*
X67248095Y-71765190D01*
X67286190Y-71841380D01*
X67324285Y-71879476D01*
X67400476Y-71917571D01*
X67590952Y-71917571D01*
X67667142Y-71879476D01*
X67705238Y-71841380D01*
X67743333Y-71765190D01*
X67743333Y-71612809D01*
X67705238Y-71536619D01*
X67667142Y-71498523D01*
X67590952Y-71460428D01*
X64708095Y-70698523D02*
X65508095Y-70698523D01*
X65508095Y-70889000D01*
X65470000Y-71003285D01*
X65393809Y-71079476D01*
X65317619Y-71117571D01*
X65165238Y-71155666D01*
X65050952Y-71155666D01*
X64898571Y-71117571D01*
X64822380Y-71079476D01*
X64746190Y-71003285D01*
X64708095Y-70889000D01*
X64708095Y-70698523D01*
X65241428Y-71841380D02*
X64708095Y-71841380D01*
X65546190Y-71650904D02*
X64974761Y-71460428D01*
X64974761Y-71955666D01*
X55310000Y-70679476D02*
X55348095Y-70603285D01*
X55348095Y-70489000D01*
X55310000Y-70374714D01*
X55233809Y-70298523D01*
X55157619Y-70260428D01*
X55005238Y-70222333D01*
X54890952Y-70222333D01*
X54738571Y-70260428D01*
X54662380Y-70298523D01*
X54586190Y-70374714D01*
X54548095Y-70489000D01*
X54548095Y-70565190D01*
X54586190Y-70679476D01*
X54624285Y-70717571D01*
X54890952Y-70717571D01*
X54890952Y-70565190D01*
X54548095Y-71060428D02*
X55348095Y-71060428D01*
X54548095Y-71517571D01*
X55348095Y-71517571D01*
X54548095Y-71898523D02*
X55348095Y-71898523D01*
X55348095Y-72089000D01*
X55310000Y-72203285D01*
X55233809Y-72279476D01*
X55157619Y-72317571D01*
X55005238Y-72355666D01*
X54890952Y-72355666D01*
X54738571Y-72317571D01*
X54662380Y-72279476D01*
X54586190Y-72203285D01*
X54548095Y-72089000D01*
X54548095Y-71898523D01*
X57850000Y-70679476D02*
X57888095Y-70603285D01*
X57888095Y-70489000D01*
X57850000Y-70374714D01*
X57773809Y-70298523D01*
X57697619Y-70260428D01*
X57545238Y-70222333D01*
X57430952Y-70222333D01*
X57278571Y-70260428D01*
X57202380Y-70298523D01*
X57126190Y-70374714D01*
X57088095Y-70489000D01*
X57088095Y-70565190D01*
X57126190Y-70679476D01*
X57164285Y-70717571D01*
X57430952Y-70717571D01*
X57430952Y-70565190D01*
X57088095Y-71060428D02*
X57888095Y-71060428D01*
X57088095Y-71517571D01*
X57888095Y-71517571D01*
X57088095Y-71898523D02*
X57888095Y-71898523D01*
X57888095Y-72089000D01*
X57850000Y-72203285D01*
X57773809Y-72279476D01*
X57697619Y-72317571D01*
X57545238Y-72355666D01*
X57430952Y-72355666D01*
X57278571Y-72317571D01*
X57202380Y-72279476D01*
X57126190Y-72203285D01*
X57088095Y-72089000D01*
X57088095Y-71898523D01*
X59628095Y-70698523D02*
X60428095Y-70698523D01*
X60428095Y-70889000D01*
X60390000Y-71003285D01*
X60313809Y-71079476D01*
X60237619Y-71117571D01*
X60085238Y-71155666D01*
X59970952Y-71155666D01*
X59818571Y-71117571D01*
X59742380Y-71079476D01*
X59666190Y-71003285D01*
X59628095Y-70889000D01*
X59628095Y-70698523D01*
X59628095Y-71917571D02*
X59628095Y-71460428D01*
X59628095Y-71689000D02*
X60428095Y-71689000D01*
X60313809Y-71612809D01*
X60237619Y-71536619D01*
X60199523Y-71460428D01*
X62168095Y-70698523D02*
X62968095Y-70698523D01*
X62968095Y-70889000D01*
X62930000Y-71003285D01*
X62853809Y-71079476D01*
X62777619Y-71117571D01*
X62625238Y-71155666D01*
X62510952Y-71155666D01*
X62358571Y-71117571D01*
X62282380Y-71079476D01*
X62206190Y-71003285D01*
X62168095Y-70889000D01*
X62168095Y-70698523D01*
X62968095Y-71650904D02*
X62968095Y-71727095D01*
X62930000Y-71803285D01*
X62891904Y-71841380D01*
X62815714Y-71879476D01*
X62663333Y-71917571D01*
X62472857Y-71917571D01*
X62320476Y-71879476D01*
X62244285Y-71841380D01*
X62206190Y-71803285D01*
X62168095Y-71727095D01*
X62168095Y-71650904D01*
X62206190Y-71574714D01*
X62244285Y-71536619D01*
X62320476Y-71498523D01*
X62472857Y-71460428D01*
X62663333Y-71460428D01*
X62815714Y-71498523D01*
X62891904Y-71536619D01*
X62930000Y-71574714D01*
X62968095Y-71650904D01*
X52008095Y-70698523D02*
X52808095Y-70698523D01*
X52808095Y-70889000D01*
X52770000Y-71003285D01*
X52693809Y-71079476D01*
X52617619Y-71117571D01*
X52465238Y-71155666D01*
X52350952Y-71155666D01*
X52198571Y-71117571D01*
X52122380Y-71079476D01*
X52046190Y-71003285D01*
X52008095Y-70889000D01*
X52008095Y-70698523D01*
X52731904Y-71460428D02*
X52770000Y-71498523D01*
X52808095Y-71574714D01*
X52808095Y-71765190D01*
X52770000Y-71841380D01*
X52731904Y-71879476D01*
X52655714Y-71917571D01*
X52579523Y-71917571D01*
X52465238Y-71879476D01*
X52008095Y-71422333D01*
X52008095Y-71917571D01*
G04 #@! TD*
%LPC*%
D13*
G04 #@! TO.C,U1*
X49830000Y-84370000D03*
X77770000Y-69130000D03*
X52370000Y-84370000D03*
X54910000Y-84370000D03*
X57450000Y-84370000D03*
X59990000Y-84370000D03*
X62530000Y-84370000D03*
X65070000Y-84370000D03*
X67610000Y-84370000D03*
X70150000Y-84370000D03*
X72690000Y-84370000D03*
X75230000Y-84370000D03*
X77770000Y-84370000D03*
X75230000Y-69130000D03*
X72690000Y-69130000D03*
X70150000Y-69130000D03*
X67610000Y-69130000D03*
X65070000Y-69130000D03*
X62530000Y-69130000D03*
X59990000Y-69130000D03*
X57450000Y-69130000D03*
X54910000Y-69130000D03*
X52370000Y-69130000D03*
D14*
X49830000Y-69130000D03*
G04 #@! TD*
D15*
G04 #@! TO.C,SW2*
X199707500Y-57943750D03*
X209867500Y-57943750D03*
D16*
X204787500Y-57943750D03*
D17*
X200977500Y-55403750D03*
X207327500Y-52863750D03*
G04 #@! TD*
D16*
G04 #@! TO.C,REF\u002A\u002A*
X88112500Y-106868750D03*
X188112500Y-106868750D03*
D18*
X88112500Y-122078750D03*
X188112500Y-122078750D03*
G04 #@! TD*
D16*
G04 #@! TO.C,REF\u002A\u002A*
X90487500Y-106868750D03*
X185737500Y-106868750D03*
D18*
X90487500Y-122078750D03*
X185737500Y-122078750D03*
G04 #@! TD*
D15*
G04 #@! TO.C,SW3*
X180657500Y-57943750D03*
X190817500Y-57943750D03*
D16*
X185737500Y-57943750D03*
D17*
X181927500Y-55403750D03*
X188277500Y-52863750D03*
G04 #@! TD*
D19*
G04 #@! TO.C,REF\u002A\u002A*
X100012500Y-67468750D03*
G04 #@! TD*
G04 #@! TO.C,REF\u002A\u002A*
X61912500Y-86518750D03*
G04 #@! TD*
G04 #@! TO.C,REF\u002A\u002A*
X100012500Y-105568750D03*
G04 #@! TD*
G04 #@! TO.C,REF\u002A\u002A*
X176212500Y-67468750D03*
G04 #@! TD*
G04 #@! TO.C,REF\u002A\u002A*
X176212500Y-105568750D03*
G04 #@! TD*
G04 #@! TO.C,REF\u002A\u002A*
X214312500Y-86518750D03*
G04 #@! TD*
D15*
G04 #@! TO.C,SW11*
X218757500Y-76993750D03*
X228917500Y-76993750D03*
D16*
X223837500Y-76993750D03*
D17*
X220027500Y-74453750D03*
X226377500Y-71913750D03*
G04 #@! TD*
D20*
G04 #@! TO.C,D40*
X60325000Y-120581250D03*
D21*
X60325000Y-112781250D03*
G04 #@! TD*
D20*
G04 #@! TO.C,D39*
X79375000Y-120581250D03*
D21*
X79375000Y-112781250D03*
G04 #@! TD*
D20*
G04 #@! TO.C,D38*
X98425000Y-120581250D03*
D21*
X98425000Y-112781250D03*
G04 #@! TD*
D20*
G04 #@! TO.C,D37*
X122962500Y-103981250D03*
D21*
X115162500Y-103981250D03*
G04 #@! TD*
D20*
G04 #@! TO.C,D36*
X142012500Y-103981250D03*
D21*
X134212500Y-103981250D03*
G04 #@! TD*
D20*
G04 #@! TO.C,D35*
X161062500Y-103981250D03*
D21*
X153262500Y-103981250D03*
G04 #@! TD*
D20*
G04 #@! TO.C,D34*
X174625000Y-120581250D03*
D21*
X174625000Y-112781250D03*
G04 #@! TD*
D20*
G04 #@! TO.C,D33*
X193675000Y-120581250D03*
D21*
X193675000Y-112781250D03*
G04 #@! TD*
D20*
G04 #@! TO.C,D32*
X212725000Y-120581250D03*
D21*
X212725000Y-112781250D03*
G04 #@! TD*
D20*
G04 #@! TO.C,D31*
X231775000Y-120581250D03*
D21*
X231775000Y-112781250D03*
G04 #@! TD*
D20*
G04 #@! TO.C,D30*
X60325000Y-101531250D03*
D21*
X60325000Y-93731250D03*
G04 #@! TD*
D20*
G04 #@! TO.C,D29*
X79375000Y-101531250D03*
D21*
X79375000Y-93731250D03*
G04 #@! TD*
D20*
G04 #@! TO.C,D28*
X98425000Y-101531250D03*
D21*
X98425000Y-93731250D03*
G04 #@! TD*
D20*
G04 #@! TO.C,D27*
X117475000Y-101531250D03*
D21*
X117475000Y-93731250D03*
G04 #@! TD*
D20*
G04 #@! TO.C,D26*
X136525000Y-101531250D03*
D21*
X136525000Y-93731250D03*
G04 #@! TD*
D20*
G04 #@! TO.C,D25*
X155575000Y-101531250D03*
D21*
X155575000Y-93731250D03*
G04 #@! TD*
D20*
G04 #@! TO.C,D24*
X174625000Y-101531250D03*
D21*
X174625000Y-93731250D03*
G04 #@! TD*
D20*
G04 #@! TO.C,D23*
X193675000Y-101531250D03*
D21*
X193675000Y-93731250D03*
G04 #@! TD*
D20*
G04 #@! TO.C,D22*
X212725000Y-101531250D03*
D21*
X212725000Y-93731250D03*
G04 #@! TD*
D20*
G04 #@! TO.C,D21*
X231775000Y-101531250D03*
D21*
X231775000Y-93731250D03*
G04 #@! TD*
D20*
G04 #@! TO.C,D20*
X57081250Y-66675000D03*
D21*
X49281250Y-66675000D03*
G04 #@! TD*
D20*
G04 #@! TO.C,D19*
X79375000Y-82481250D03*
D21*
X79375000Y-74681250D03*
G04 #@! TD*
D20*
G04 #@! TO.C,D18*
X98425000Y-82481250D03*
D21*
X98425000Y-74681250D03*
G04 #@! TD*
D20*
G04 #@! TO.C,D17*
X117475000Y-82481250D03*
D21*
X117475000Y-74681250D03*
G04 #@! TD*
D20*
G04 #@! TO.C,D16*
X136525000Y-82481250D03*
D21*
X136525000Y-74681250D03*
G04 #@! TD*
D20*
G04 #@! TO.C,D15*
X155575000Y-82481250D03*
D21*
X155575000Y-74681250D03*
G04 #@! TD*
D20*
G04 #@! TO.C,D14*
X174625000Y-82481250D03*
D21*
X174625000Y-74681250D03*
G04 #@! TD*
D20*
G04 #@! TO.C,D13*
X193675000Y-82481250D03*
D21*
X193675000Y-74681250D03*
G04 #@! TD*
D20*
G04 #@! TO.C,D12*
X212725000Y-82362500D03*
D21*
X212725000Y-74562500D03*
G04 #@! TD*
D20*
G04 #@! TO.C,D11*
X231775000Y-82362500D03*
D21*
X231775000Y-74562500D03*
G04 #@! TD*
D20*
G04 #@! TO.C,D10*
X60325000Y-63431250D03*
D21*
X60325000Y-55631250D03*
G04 #@! TD*
D20*
G04 #@! TO.C,D9*
X79375000Y-63431250D03*
D21*
X79375000Y-55631250D03*
G04 #@! TD*
D20*
G04 #@! TO.C,D8*
X98425000Y-63431250D03*
D21*
X98425000Y-55631250D03*
G04 #@! TD*
D20*
G04 #@! TO.C,D7*
X117475000Y-63431250D03*
D21*
X117475000Y-55631250D03*
G04 #@! TD*
D20*
G04 #@! TO.C,D6*
X136525000Y-63431250D03*
D21*
X136525000Y-55631250D03*
G04 #@! TD*
D20*
G04 #@! TO.C,D5*
X155575000Y-63431250D03*
D21*
X155575000Y-55631250D03*
G04 #@! TD*
D20*
G04 #@! TO.C,D4*
X174625000Y-63431250D03*
D21*
X174625000Y-55631250D03*
G04 #@! TD*
D20*
G04 #@! TO.C,D3*
X193675000Y-63431250D03*
D21*
X193675000Y-55631250D03*
G04 #@! TD*
D20*
G04 #@! TO.C,D2*
X212725000Y-63431250D03*
D21*
X212725000Y-55631250D03*
G04 #@! TD*
D20*
G04 #@! TO.C,D1*
X231775000Y-63431250D03*
D21*
X231775000Y-55631250D03*
G04 #@! TD*
D18*
G04 #@! TO.C,REF\u002A\u002A*
X169062500Y-122078750D03*
X145262500Y-122078750D03*
D16*
X169062500Y-106838750D03*
X145262500Y-106838750D03*
G04 #@! TD*
D18*
G04 #@! TO.C,REF\u002A\u002A*
X130962500Y-122078750D03*
X107162500Y-122078750D03*
D16*
X130962500Y-106838750D03*
X107162500Y-106838750D03*
G04 #@! TD*
D18*
G04 #@! TO.C,REF\u002A\u002A*
X126212500Y-122078750D03*
X150012500Y-122078750D03*
D16*
X126212500Y-106838750D03*
X150012500Y-106838750D03*
G04 #@! TD*
D15*
G04 #@! TO.C,SW43*
X143192500Y-115093750D03*
X133032500Y-115093750D03*
D16*
X138112500Y-115093750D03*
D17*
X141922500Y-117633750D03*
X135572500Y-120173750D03*
G04 #@! TD*
D15*
G04 #@! TO.C,SW42*
X124142500Y-115093750D03*
X113982500Y-115093750D03*
D16*
X119062500Y-115093750D03*
D17*
X122872500Y-117633750D03*
X116522500Y-120173750D03*
G04 #@! TD*
D15*
G04 #@! TO.C,SW41*
X162242500Y-115093750D03*
X152082500Y-115093750D03*
D16*
X157162500Y-115093750D03*
D17*
X160972500Y-117633750D03*
X154622500Y-120173750D03*
G04 #@! TD*
D15*
G04 #@! TO.C,SW40*
X47307500Y-115093750D03*
X57467500Y-115093750D03*
D16*
X52387500Y-115093750D03*
D17*
X48577500Y-112553750D03*
X54927500Y-110013750D03*
G04 #@! TD*
D15*
G04 #@! TO.C,SW39*
X66357500Y-115093750D03*
X76517500Y-115093750D03*
D16*
X71437500Y-115093750D03*
D17*
X67627500Y-112553750D03*
X73977500Y-110013750D03*
G04 #@! TD*
D15*
G04 #@! TO.C,SW38*
X85407500Y-115093750D03*
X95567500Y-115093750D03*
D16*
X90487500Y-115093750D03*
D17*
X86677500Y-112553750D03*
X93027500Y-110013750D03*
G04 #@! TD*
D15*
G04 #@! TO.C,SW37*
X104457500Y-115093750D03*
X114617500Y-115093750D03*
D16*
X109537500Y-115093750D03*
D17*
X105727500Y-112553750D03*
X112077500Y-110013750D03*
G04 #@! TD*
D15*
G04 #@! TO.C,SW36*
X123507500Y-115093750D03*
X133667500Y-115093750D03*
D16*
X128587500Y-115093750D03*
D17*
X124777500Y-112553750D03*
X131127500Y-110013750D03*
G04 #@! TD*
D15*
G04 #@! TO.C,SW35*
X142557500Y-115093750D03*
X152717500Y-115093750D03*
D16*
X147637500Y-115093750D03*
D17*
X143827500Y-112553750D03*
X150177500Y-110013750D03*
G04 #@! TD*
D15*
G04 #@! TO.C,SW34*
X161607500Y-115093750D03*
X171767500Y-115093750D03*
D16*
X166687500Y-115093750D03*
D17*
X162877500Y-112553750D03*
X169227500Y-110013750D03*
G04 #@! TD*
D15*
G04 #@! TO.C,SW33*
X180657500Y-115093750D03*
X190817500Y-115093750D03*
D16*
X185737500Y-115093750D03*
D17*
X181927500Y-112553750D03*
X188277500Y-110013750D03*
G04 #@! TD*
D15*
G04 #@! TO.C,SW32*
X199707500Y-115093750D03*
X209867500Y-115093750D03*
D16*
X204787500Y-115093750D03*
D17*
X200977500Y-112553750D03*
X207327500Y-110013750D03*
G04 #@! TD*
D15*
G04 #@! TO.C,SW31*
X218757500Y-115093750D03*
X228917500Y-115093750D03*
D16*
X223837500Y-115093750D03*
D17*
X220027500Y-112553750D03*
X226377500Y-110013750D03*
G04 #@! TD*
D15*
G04 #@! TO.C,SW30*
X47307500Y-96043750D03*
X57467500Y-96043750D03*
D16*
X52387500Y-96043750D03*
D17*
X48577500Y-93503750D03*
X54927500Y-90963750D03*
G04 #@! TD*
D15*
G04 #@! TO.C,SW29*
X66357500Y-96043750D03*
X76517500Y-96043750D03*
D16*
X71437500Y-96043750D03*
D17*
X67627500Y-93503750D03*
X73977500Y-90963750D03*
G04 #@! TD*
D15*
G04 #@! TO.C,SW28*
X85407500Y-96043750D03*
X95567500Y-96043750D03*
D16*
X90487500Y-96043750D03*
D17*
X86677500Y-93503750D03*
X93027500Y-90963750D03*
G04 #@! TD*
D15*
G04 #@! TO.C,SW27*
X104457500Y-96043750D03*
X114617500Y-96043750D03*
D16*
X109537500Y-96043750D03*
D17*
X105727500Y-93503750D03*
X112077500Y-90963750D03*
G04 #@! TD*
D15*
G04 #@! TO.C,SW26*
X123507500Y-96043750D03*
X133667500Y-96043750D03*
D16*
X128587500Y-96043750D03*
D17*
X124777500Y-93503750D03*
X131127500Y-90963750D03*
G04 #@! TD*
D15*
G04 #@! TO.C,SW25*
X142557500Y-96043750D03*
X152717500Y-96043750D03*
D16*
X147637500Y-96043750D03*
D17*
X143827500Y-93503750D03*
X150177500Y-90963750D03*
G04 #@! TD*
D15*
G04 #@! TO.C,SW24*
X161607500Y-96043750D03*
X171767500Y-96043750D03*
D16*
X166687500Y-96043750D03*
D17*
X162877500Y-93503750D03*
X169227500Y-90963750D03*
G04 #@! TD*
D15*
G04 #@! TO.C,SW23*
X180657500Y-96043750D03*
X190817500Y-96043750D03*
D16*
X185737500Y-96043750D03*
D17*
X181927500Y-93503750D03*
X188277500Y-90963750D03*
G04 #@! TD*
D15*
G04 #@! TO.C,SW22*
X199707500Y-96043750D03*
X209867500Y-96043750D03*
D16*
X204787500Y-96043750D03*
D17*
X200977500Y-93503750D03*
X207327500Y-90963750D03*
G04 #@! TD*
D15*
G04 #@! TO.C,SW21*
X218757500Y-96043750D03*
X228917500Y-96043750D03*
D16*
X223837500Y-96043750D03*
D17*
X220027500Y-93503750D03*
X226377500Y-90963750D03*
G04 #@! TD*
D15*
G04 #@! TO.C,SW20*
X47307500Y-76993750D03*
X57467500Y-76993750D03*
D16*
X52387500Y-76993750D03*
D17*
X48577500Y-74453750D03*
X54927500Y-71913750D03*
G04 #@! TD*
D15*
G04 #@! TO.C,SW19*
X66357500Y-76993750D03*
X76517500Y-76993750D03*
D16*
X71437500Y-76993750D03*
D17*
X67627500Y-74453750D03*
X73977500Y-71913750D03*
G04 #@! TD*
D15*
G04 #@! TO.C,SW18*
X85407500Y-76993750D03*
X95567500Y-76993750D03*
D16*
X90487500Y-76993750D03*
D17*
X86677500Y-74453750D03*
X93027500Y-71913750D03*
G04 #@! TD*
D15*
G04 #@! TO.C,SW17*
X104457500Y-76993750D03*
X114617500Y-76993750D03*
D16*
X109537500Y-76993750D03*
D17*
X105727500Y-74453750D03*
X112077500Y-71913750D03*
G04 #@! TD*
D15*
G04 #@! TO.C,SW16*
X123507500Y-76993750D03*
X133667500Y-76993750D03*
D16*
X128587500Y-76993750D03*
D17*
X124777500Y-74453750D03*
X131127500Y-71913750D03*
G04 #@! TD*
D15*
G04 #@! TO.C,SW15*
X142557500Y-76993750D03*
X152717500Y-76993750D03*
D16*
X147637500Y-76993750D03*
D17*
X143827500Y-74453750D03*
X150177500Y-71913750D03*
G04 #@! TD*
D15*
G04 #@! TO.C,SW14*
X161607500Y-76993750D03*
X171767500Y-76993750D03*
D16*
X166687500Y-76993750D03*
D17*
X162877500Y-74453750D03*
X169227500Y-71913750D03*
G04 #@! TD*
D15*
G04 #@! TO.C,SW13*
X180657500Y-76993750D03*
X190817500Y-76993750D03*
D16*
X185737500Y-76993750D03*
D17*
X181927500Y-74453750D03*
X188277500Y-71913750D03*
G04 #@! TD*
D15*
G04 #@! TO.C,SW12*
X199707500Y-76993750D03*
X209867500Y-76993750D03*
D16*
X204787500Y-76993750D03*
D17*
X200977500Y-74453750D03*
X207327500Y-71913750D03*
G04 #@! TD*
D15*
G04 #@! TO.C,SW10*
X47307500Y-57943750D03*
X57467500Y-57943750D03*
D16*
X52387500Y-57943750D03*
D17*
X48577500Y-55403750D03*
X54927500Y-52863750D03*
G04 #@! TD*
D15*
G04 #@! TO.C,SW9*
X66357500Y-57943750D03*
X76517500Y-57943750D03*
D16*
X71437500Y-57943750D03*
D17*
X67627500Y-55403750D03*
X73977500Y-52863750D03*
G04 #@! TD*
D15*
G04 #@! TO.C,SW8*
X85407500Y-57943750D03*
X95567500Y-57943750D03*
D16*
X90487500Y-57943750D03*
D17*
X86677500Y-55403750D03*
X93027500Y-52863750D03*
G04 #@! TD*
D15*
G04 #@! TO.C,SW7*
X104457500Y-57943750D03*
X114617500Y-57943750D03*
D16*
X109537500Y-57943750D03*
D17*
X105727500Y-55403750D03*
X112077500Y-52863750D03*
G04 #@! TD*
D15*
G04 #@! TO.C,SW6*
X123507500Y-57943750D03*
X133667500Y-57943750D03*
D16*
X128587500Y-57943750D03*
D17*
X124777500Y-55403750D03*
X131127500Y-52863750D03*
G04 #@! TD*
D15*
G04 #@! TO.C,SW5*
X142557500Y-57943750D03*
X152717500Y-57943750D03*
D16*
X147637500Y-57943750D03*
D17*
X143827500Y-55403750D03*
X150177500Y-52863750D03*
G04 #@! TD*
D15*
G04 #@! TO.C,SW4*
X161607500Y-57943750D03*
X171767500Y-57943750D03*
D16*
X166687500Y-57943750D03*
D17*
X162877500Y-55403750D03*
X169227500Y-52863750D03*
G04 #@! TD*
D15*
G04 #@! TO.C,SW1*
X218757500Y-57943750D03*
X228917500Y-57943750D03*
D16*
X223837500Y-57943750D03*
D17*
X220027500Y-55403750D03*
X226377500Y-52863750D03*
G04 #@! TD*
M02*
