M48
METRIC,TZ
T1C1.702
T2C2.200
T3C3.000
T4C3.048
T5C3.988
%
G90
G05
T1
X47308Y-57944
X47308Y-76994
X47308Y-96044
X47308Y-115094
X57468Y-57944
X57468Y-76994
X57468Y-96044
X57468Y-115094
X66358Y-57944
X66358Y-76994
X66358Y-96044
X66358Y-115094
X76518Y-57944
X76518Y-76994
X76518Y-96044
X76518Y-115094
X85408Y-57944
X85408Y-76994
X85408Y-96044
X85408Y-115094
X95568Y-57944
X95568Y-76994
X95568Y-96044
X95568Y-115094
X104458Y-57944
X104458Y-76994
X104458Y-96044
X104458Y-115094
X113983Y-115094
X114618Y-57944
X114618Y-76994
X114618Y-96044
X114618Y-115094
X123507Y-57944
X123507Y-76994
X123507Y-96044
X123507Y-115094
X124143Y-115094
X133033Y-115094
X133668Y-57944
X133668Y-76994
X133668Y-96044
X133668Y-115094
X142558Y-57944
X142558Y-76994
X142558Y-96044
X142558Y-115094
X143193Y-115094
X152082Y-115094
X152718Y-57944
X152718Y-76994
X152718Y-96044
X152718Y-115094
X161607Y-57944
X161607Y-76994
X161607Y-96044
X161607Y-115094
X162243Y-115094
X171767Y-57944
X171767Y-76994
X171767Y-96044
X171767Y-115094
X180658Y-57944
X180658Y-76994
X180658Y-96044
X180658Y-115094
X190818Y-57944
X190818Y-76994
X190818Y-96044
X190818Y-115094
X199708Y-57944
X199708Y-76994
X199708Y-96044
X199708Y-115094
X209867Y-57944
X209867Y-76994
X209867Y-96044
X209867Y-115094
X218758Y-57944
X218758Y-76994
X218758Y-96044
X218758Y-115094
X228917Y-57944
X228917Y-76994
X228917Y-96044
X228917Y-115094
T2
X61913Y-86519
X100012Y-67469
X100012Y-105569
X176213Y-67469
X176213Y-105569
X214313Y-86519
T3
X48578Y-55404
X48578Y-74454
X48578Y-93504
X48578Y-112554
X54928Y-52864
X54928Y-71914
X54928Y-90964
X54928Y-110014
X67628Y-55404
X67628Y-74454
X67628Y-93504
X67628Y-112554
X73977Y-52864
X73977Y-71914
X73977Y-90964
X73977Y-110014
X86678Y-55404
X86678Y-74454
X86678Y-93504
X86678Y-112554
X93027Y-52864
X93027Y-71914
X93027Y-90964
X93027Y-110014
X105727Y-55404
X105727Y-74454
X105727Y-93504
X105727Y-112554
X112078Y-52864
X112078Y-71914
X112078Y-90964
X112078Y-110014
X116523Y-120174
X122873Y-117634
X124777Y-55404
X124777Y-74454
X124777Y-93504
X124777Y-112554
X131128Y-52864
X131128Y-71914
X131128Y-90964
X131128Y-110014
X135573Y-120174
X141923Y-117634
X143827Y-55404
X143827Y-74454
X143827Y-93504
X143827Y-112554
X150177Y-52864
X150177Y-71914
X150177Y-90964
X150177Y-110014
X154623Y-120174
X160973Y-117634
X162878Y-55404
X162878Y-74454
X162878Y-93504
X162878Y-112554
X169228Y-52864
X169228Y-71914
X169228Y-90964
X169228Y-110014
X181928Y-55404
X181928Y-74454
X181928Y-93504
X181928Y-112554
X188278Y-52864
X188278Y-71914
X188278Y-90964
X188278Y-110014
X200978Y-55404
X200978Y-74454
X200978Y-93504
X200978Y-112554
X207327Y-52864
X207327Y-71914
X207327Y-90964
X207327Y-110014
X220028Y-55404
X220028Y-74454
X220028Y-93504
X220028Y-112554
X226378Y-52864
X226378Y-71914
X226378Y-90964
X226378Y-110014
T4
X88113Y-122079
X90488Y-122079
X107163Y-122079
X126213Y-122079
X130963Y-122079
X145263Y-122079
X150013Y-122079
X169063Y-122079
X185737Y-122079
X188112Y-122079
T5
X52388Y-57944
X52388Y-76994
X52388Y-96044
X52388Y-115094
X71438Y-57944
X71438Y-76994
X71438Y-96044
X71438Y-115094
X88113Y-106869
X90488Y-57944
X90488Y-76994
X90488Y-96044
X90488Y-106869
X90488Y-115094
X107163Y-106839
X109538Y-57944
X109538Y-76994
X109538Y-96044
X109538Y-115094
X119063Y-115094
X126213Y-106839
X128588Y-57944
X128588Y-76994
X128588Y-96044
X128588Y-115094
X130963Y-106839
X138112Y-115094
X145263Y-106839
X147638Y-57944
X147638Y-76994
X147638Y-96044
X147638Y-115094
X150013Y-106839
X157163Y-115094
X166688Y-57944
X166688Y-76994
X166688Y-96044
X166688Y-115094
X169063Y-106839
X185737Y-57944
X185737Y-76994
X185737Y-96044
X185737Y-106869
X185737Y-115094
X188112Y-106869
X204788Y-57944
X204788Y-76994
X204788Y-96044
X204788Y-115094
X223838Y-57944
X223838Y-76994
X223838Y-96044
X223838Y-115094
T0
M30
