M48
; DRILL file {KiCad (5.1.12-1-10_14)} date Monday, February 28, 2022 at 09:29:07 PM
; FORMAT={-:-/ absolute / metric / decimal}
; #@! TF.CreationDate,2022-02-28T21:29:07-07:00
; #@! TF.GenerationSoftware,Kicad,Pcbnew,(5.1.12-1-10_14)
; #@! TF.FileFunction,Plated,1,2,PTH
FMAT,2
METRIC
T1C0.400
T2C1.000
T3C1.092
%
G90
G05
T1
X44.828Y-65.465
X61.119Y-102.931
X61.912Y-71.438
X61.912Y-120.65
X62.706Y-91.654
X62.706Y-95.354
X62.706Y-100.012
X64.294Y-70.644
X64.594Y-91.654
X64.594Y-96.044
X64.594Y-99.219
X65.077Y-71.438
X65.087Y-101.6
X69.056Y-82.55
X73.025Y-63.5
X73.025Y-88.106
X73.819Y-98.91
X74.672Y-98.185
X75.406Y-87.312
X77.787Y-86.519
X82.55Y-86.519
X101.6Y-87.312
X120.65Y-88.106
X138.112Y-98.185
X147.637Y-117.688
X157.162Y-98.91
X162.946Y-118.351
X178.177Y-99.635
X197.227Y-100.39
X216.278Y-106.779
T2
X49.281Y-66.675
X57.081Y-66.675
X60.325Y-55.631
X60.325Y-63.431
X60.325Y-93.731
X60.325Y-101.531
X60.325Y-112.781
X60.325Y-120.581
X79.375Y-55.631
X79.375Y-63.431
X79.375Y-74.681
X79.375Y-82.481
X79.375Y-93.731
X79.375Y-101.531
X79.375Y-112.781
X79.375Y-120.581
X98.425Y-55.631
X98.425Y-63.431
X98.425Y-74.681
X98.425Y-82.481
X98.425Y-93.731
X98.425Y-101.531
X98.425Y-112.781
X98.425Y-120.581
X115.162Y-103.981
X117.475Y-55.631
X117.475Y-63.431
X117.475Y-74.681
X117.475Y-82.481
X117.475Y-93.731
X117.475Y-101.531
X122.962Y-103.981
X134.213Y-103.981
X136.525Y-55.631
X136.525Y-63.431
X136.525Y-74.681
X136.525Y-82.481
X136.525Y-93.731
X136.525Y-101.531
X142.012Y-103.981
X153.262Y-103.981
X155.575Y-55.631
X155.575Y-63.431
X155.575Y-74.681
X155.575Y-82.481
X155.575Y-93.731
X155.575Y-101.531
X161.062Y-103.981
X174.625Y-55.631
X174.625Y-63.431
X174.625Y-74.681
X174.625Y-82.481
X174.625Y-93.731
X174.625Y-101.531
X174.625Y-112.781
X174.625Y-120.581
X193.675Y-55.631
X193.675Y-63.431
X193.675Y-74.681
X193.675Y-82.481
X193.675Y-93.731
X193.675Y-101.531
X193.675Y-112.781
X193.675Y-120.581
X212.725Y-55.631
X212.725Y-63.431
X212.725Y-74.562
X212.725Y-82.362
X212.725Y-93.731
X212.725Y-101.531
X212.725Y-112.781
X212.725Y-120.581
X231.775Y-55.631
X231.775Y-63.431
X231.775Y-74.562
X231.775Y-82.362
X231.775Y-93.731
X231.775Y-101.531
X231.775Y-112.781
X231.775Y-120.581
T3
X49.83Y-69.13
X49.83Y-84.37
X52.37Y-69.13
X52.37Y-84.37
X54.91Y-69.13
X54.91Y-84.37
X57.45Y-69.13
X57.45Y-84.37
X59.99Y-69.13
X59.99Y-84.37
X62.53Y-69.13
X62.53Y-84.37
X65.07Y-69.13
X65.07Y-84.37
X67.61Y-69.13
X67.61Y-84.37
X70.15Y-69.13
X70.15Y-84.37
X72.69Y-69.13
X72.69Y-84.37
X75.23Y-69.13
X75.23Y-84.37
X77.77Y-69.13
X77.77Y-84.37
T0
M30
