%TF.GenerationSoftware,KiCad,Pcbnew,(5.1.12-1-10_14)*%
%TF.CreationDate,2022-02-28T21:29:04-07:00*%
%TF.ProjectId,banime40,62616e69-6d65-4343-902e-6b696361645f,rev?*%
%TF.SameCoordinates,Original*%
%TF.FileFunction,Legend,Bot*%
%TF.FilePolarity,Positive*%
%FSLAX46Y46*%
G04 Gerber Fmt 4.6, Leading zero omitted, Abs format (unit mm)*
G04 Created by KiCad (PCBNEW (5.1.12-1-10_14)) date 2022-02-28 21:29:04*
%MOMM*%
%LPD*%
G01*
G04 APERTURE LIST*
%ADD10C,0.300000*%
%ADD11C,0.120000*%
%ADD12C,0.150000*%
%ADD13C,0.381000*%
%ADD14R,0.700000X0.500000*%
%ADD15R,2.550000X2.500000*%
%ADD16C,1.701800*%
%ADD17C,3.987800*%
%ADD18C,3.000000*%
%ADD19C,3.048000*%
%ADD20C,2.200000*%
%ADD21R,1.600000X1.600000*%
%ADD22C,1.600000*%
%ADD23R,1.200000X1.600000*%
%ADD24R,1.600000X1.200000*%
%ADD25C,1.752600*%
%ADD26R,1.752600X1.752600*%
G04 APERTURE END LIST*
D10*
X58522321Y-122209821D02*
X58522321Y-123281250D01*
X58593750Y-123495535D01*
X58736607Y-123638392D01*
X58950892Y-123709821D01*
X59093750Y-123709821D01*
X57093750Y-123709821D02*
X57808035Y-123709821D01*
X57808035Y-122209821D01*
X55736607Y-123566964D02*
X55808035Y-123638392D01*
X56022321Y-123709821D01*
X56165178Y-123709821D01*
X56379464Y-123638392D01*
X56522321Y-123495535D01*
X56593750Y-123352678D01*
X56665178Y-123066964D01*
X56665178Y-122852678D01*
X56593750Y-122566964D01*
X56522321Y-122424107D01*
X56379464Y-122281250D01*
X56165178Y-122209821D01*
X56022321Y-122209821D01*
X55808035Y-122281250D01*
X55736607Y-122352678D01*
X54665178Y-122209821D02*
X54665178Y-123281250D01*
X54736607Y-123495535D01*
X54879464Y-123638392D01*
X55093750Y-123709821D01*
X55236607Y-123709821D01*
X53236607Y-123709821D02*
X53950892Y-123709821D01*
X53950892Y-122209821D01*
X51879464Y-123566964D02*
X51950892Y-123638392D01*
X52165178Y-123709821D01*
X52308035Y-123709821D01*
X52522321Y-123638392D01*
X52665178Y-123495535D01*
X52736607Y-123352678D01*
X52808035Y-123066964D01*
X52808035Y-122852678D01*
X52736607Y-122566964D01*
X52665178Y-122424107D01*
X52522321Y-122281250D01*
X52308035Y-122209821D01*
X52165178Y-122209821D01*
X51950892Y-122281250D01*
X51879464Y-122352678D01*
X50808035Y-122209821D02*
X50808035Y-123281250D01*
X50879464Y-123495535D01*
X51022321Y-123638392D01*
X51236607Y-123709821D01*
X51379464Y-123709821D01*
X49379464Y-123709821D02*
X50093749Y-123709821D01*
X50093749Y-122209821D01*
X48022321Y-123566964D02*
X48093749Y-123638392D01*
X48308035Y-123709821D01*
X48450892Y-123709821D01*
X48665178Y-123638392D01*
X48808035Y-123495535D01*
X48879464Y-123352678D01*
X48950892Y-123066964D01*
X48950892Y-122852678D01*
X48879464Y-122566964D01*
X48808035Y-122424107D01*
X48665178Y-122281250D01*
X48450892Y-122209821D01*
X48308035Y-122209821D01*
X48093749Y-122281250D01*
X48022321Y-122352678D01*
X46950892Y-122209821D02*
X46950892Y-123281250D01*
X47022321Y-123495535D01*
X47165178Y-123638392D01*
X47379464Y-123709821D01*
X47522321Y-123709821D01*
X45522321Y-123709821D02*
X46236607Y-123709821D01*
X46236607Y-122209821D01*
X44165178Y-123566964D02*
X44236607Y-123638392D01*
X44450892Y-123709821D01*
X44593749Y-123709821D01*
X44808035Y-123638392D01*
X44950892Y-123495535D01*
X45022321Y-123352678D01*
X45093749Y-123066964D01*
X45093749Y-122852678D01*
X45022321Y-122566964D01*
X44950892Y-122424107D01*
X44808035Y-122281250D01*
X44593749Y-122209821D01*
X44450892Y-122209821D01*
X44236607Y-122281250D01*
X44165178Y-122352678D01*
X228928571Y-122122321D02*
X228928571Y-120622321D01*
X228928571Y-121193750D02*
X228785714Y-121122321D01*
X228500000Y-121122321D01*
X228357142Y-121193750D01*
X228285714Y-121265178D01*
X228214285Y-121408035D01*
X228214285Y-121836607D01*
X228285714Y-121979464D01*
X228357142Y-122050892D01*
X228500000Y-122122321D01*
X228785714Y-122122321D01*
X228928571Y-122050892D01*
X227714285Y-121122321D02*
X227357142Y-122122321D01*
X227000000Y-121122321D02*
X227357142Y-122122321D01*
X227500000Y-122479464D01*
X227571428Y-122550892D01*
X227714285Y-122622321D01*
X225357142Y-122050892D02*
X225214285Y-122122321D01*
X224928571Y-122122321D01*
X224785714Y-122050892D01*
X224714285Y-121908035D01*
X224714285Y-121836607D01*
X224785714Y-121693750D01*
X224928571Y-121622321D01*
X225142857Y-121622321D01*
X225285714Y-121550892D01*
X225357142Y-121408035D01*
X225357142Y-121336607D01*
X225285714Y-121193750D01*
X225142857Y-121122321D01*
X224928571Y-121122321D01*
X224785714Y-121193750D01*
X224071428Y-121122321D02*
X224071428Y-122622321D01*
X224071428Y-121193750D02*
X223928571Y-121122321D01*
X223642857Y-121122321D01*
X223500000Y-121193750D01*
X223428571Y-121265178D01*
X223357142Y-121408035D01*
X223357142Y-121836607D01*
X223428571Y-121979464D01*
X223500000Y-122050892D01*
X223642857Y-122122321D01*
X223928571Y-122122321D01*
X224071428Y-122050892D01*
X222500000Y-122122321D02*
X222642857Y-122050892D01*
X222714285Y-121979464D01*
X222785714Y-121836607D01*
X222785714Y-121408035D01*
X222714285Y-121265178D01*
X222642857Y-121193750D01*
X222500000Y-121122321D01*
X222285714Y-121122321D01*
X222142857Y-121193750D01*
X222071428Y-121265178D01*
X222000000Y-121408035D01*
X222000000Y-121836607D01*
X222071428Y-121979464D01*
X222142857Y-122050892D01*
X222285714Y-122122321D01*
X222500000Y-122122321D01*
X221357142Y-122122321D02*
X221357142Y-121122321D01*
X221357142Y-121408035D02*
X221285714Y-121265178D01*
X221214285Y-121193750D01*
X221071428Y-121122321D01*
X220928571Y-121122321D01*
X219857142Y-122050892D02*
X220000000Y-122122321D01*
X220285714Y-122122321D01*
X220428571Y-122050892D01*
X220500000Y-121908035D01*
X220500000Y-121336607D01*
X220428571Y-121193750D01*
X220285714Y-121122321D01*
X220000000Y-121122321D01*
X219857142Y-121193750D01*
X219785714Y-121336607D01*
X219785714Y-121479464D01*
X220500000Y-121622321D01*
X219285714Y-121122321D02*
X219000000Y-122122321D01*
X218714285Y-121408035D01*
X218428571Y-122122321D01*
X218142857Y-121122321D01*
X217357142Y-122122321D02*
X217500000Y-122050892D01*
X217571428Y-121979464D01*
X217642857Y-121836607D01*
X217642857Y-121408035D01*
X217571428Y-121265178D01*
X217500000Y-121193750D01*
X217357142Y-121122321D01*
X217142857Y-121122321D01*
X217000000Y-121193750D01*
X216928571Y-121265178D01*
X216857142Y-121408035D01*
X216857142Y-121836607D01*
X216928571Y-121979464D01*
X217000000Y-122050892D01*
X217142857Y-122122321D01*
X217357142Y-122122321D01*
X216214285Y-122122321D02*
X216214285Y-120622321D01*
X215571428Y-122122321D02*
X215571428Y-121336607D01*
X215642857Y-121193750D01*
X215785714Y-121122321D01*
X216000000Y-121122321D01*
X216142857Y-121193750D01*
X216214285Y-121265178D01*
X230285714Y-119741071D02*
X230285714Y-118241071D01*
X230285714Y-118812500D02*
X230142857Y-118741071D01*
X229857142Y-118741071D01*
X229714285Y-118812500D01*
X229642857Y-118883928D01*
X229571428Y-119026785D01*
X229571428Y-119455357D01*
X229642857Y-119598214D01*
X229714285Y-119669642D01*
X229857142Y-119741071D01*
X230142857Y-119741071D01*
X230285714Y-119669642D01*
X228285714Y-119741071D02*
X228285714Y-118955357D01*
X228357142Y-118812500D01*
X228500000Y-118741071D01*
X228785714Y-118741071D01*
X228928571Y-118812500D01*
X228285714Y-119669642D02*
X228428571Y-119741071D01*
X228785714Y-119741071D01*
X228928571Y-119669642D01*
X229000000Y-119526785D01*
X229000000Y-119383928D01*
X228928571Y-119241071D01*
X228785714Y-119169642D01*
X228428571Y-119169642D01*
X228285714Y-119098214D01*
X227571428Y-118741071D02*
X227571428Y-119741071D01*
X227571428Y-118883928D02*
X227500000Y-118812500D01*
X227357142Y-118741071D01*
X227142857Y-118741071D01*
X227000000Y-118812500D01*
X226928571Y-118955357D01*
X226928571Y-119741071D01*
X226214285Y-119741071D02*
X226214285Y-118741071D01*
X226214285Y-118241071D02*
X226285714Y-118312500D01*
X226214285Y-118383928D01*
X226142857Y-118312500D01*
X226214285Y-118241071D01*
X226214285Y-118383928D01*
X225500000Y-119741071D02*
X225500000Y-118741071D01*
X225500000Y-118883928D02*
X225428571Y-118812500D01*
X225285714Y-118741071D01*
X225071428Y-118741071D01*
X224928571Y-118812500D01*
X224857142Y-118955357D01*
X224857142Y-119741071D01*
X224857142Y-118955357D02*
X224785714Y-118812500D01*
X224642857Y-118741071D01*
X224428571Y-118741071D01*
X224285714Y-118812500D01*
X224214285Y-118955357D01*
X224214285Y-119741071D01*
X222928571Y-119669642D02*
X223071428Y-119741071D01*
X223357142Y-119741071D01*
X223500000Y-119669642D01*
X223571428Y-119526785D01*
X223571428Y-118955357D01*
X223500000Y-118812500D01*
X223357142Y-118741071D01*
X223071428Y-118741071D01*
X222928571Y-118812500D01*
X222857142Y-118955357D01*
X222857142Y-119098214D01*
X223571428Y-119241071D01*
X221571428Y-118741071D02*
X221571428Y-119741071D01*
X221928571Y-118169642D02*
X222285714Y-119241071D01*
X221357142Y-119241071D01*
X220500000Y-118241071D02*
X220357142Y-118241071D01*
X220214285Y-118312500D01*
X220142857Y-118383928D01*
X220071428Y-118526785D01*
X220000000Y-118812500D01*
X220000000Y-119169642D01*
X220071428Y-119455357D01*
X220142857Y-119598214D01*
X220214285Y-119669642D01*
X220357142Y-119741071D01*
X220500000Y-119741071D01*
X220642857Y-119669642D01*
X220714285Y-119598214D01*
X220785714Y-119455357D01*
X220857142Y-119169642D01*
X220857142Y-118812500D01*
X220785714Y-118526785D01*
X220714285Y-118383928D01*
X220642857Y-118312500D01*
X220500000Y-118241071D01*
X218357142Y-118741071D02*
X218000000Y-119741071D01*
X217642857Y-118741071D01*
X216785714Y-118241071D02*
X216642857Y-118241071D01*
X216500000Y-118312500D01*
X216428571Y-118383928D01*
X216357142Y-118526785D01*
X216285714Y-118812500D01*
X216285714Y-119169642D01*
X216357142Y-119455357D01*
X216428571Y-119598214D01*
X216500000Y-119669642D01*
X216642857Y-119741071D01*
X216785714Y-119741071D01*
X216928571Y-119669642D01*
X217000000Y-119598214D01*
X217071428Y-119455357D01*
X217142857Y-119169642D01*
X217142857Y-118812500D01*
X217071428Y-118526785D01*
X217000000Y-118383928D01*
X216928571Y-118312500D01*
X216785714Y-118241071D01*
X215642857Y-119598214D02*
X215571428Y-119669642D01*
X215642857Y-119741071D01*
X215714285Y-119669642D01*
X215642857Y-119598214D01*
X215642857Y-119741071D01*
X214142857Y-119741071D02*
X215000000Y-119741071D01*
X214571428Y-119741071D02*
X214571428Y-118241071D01*
X214714285Y-118455357D01*
X214857142Y-118598214D01*
X215000000Y-118669642D01*
D11*
%TO.C,SW44*%
X52475000Y-85812500D02*
X55475000Y-85812500D01*
X52475000Y-88812500D02*
X55475000Y-88812500D01*
X52475000Y-85812500D02*
X52475000Y-88812500D01*
X55475000Y-85812500D02*
X55475000Y-88812500D01*
D12*
%TO.C,SW2*%
X209867500Y-50958750D02*
X209867500Y-51339750D01*
X200977500Y-50958750D02*
X209867500Y-50958750D01*
X198437500Y-53498750D02*
X198437500Y-53879750D01*
X198818500Y-57308750D02*
X198437500Y-57308750D01*
X202323338Y-57308750D02*
X200596500Y-57308750D01*
X209867500Y-55403750D02*
X204787500Y-55403750D01*
X209867500Y-54387750D02*
X209867500Y-55403750D01*
X198437500Y-56927750D02*
X198437500Y-57308750D01*
X202323338Y-57327710D02*
G75*
G02*
X204787500Y-55403750I2464162J-616040D01*
G01*
X198437500Y-53498750D02*
G75*
G02*
X200977500Y-50958750I2540000J0D01*
G01*
%TO.C,SW3*%
X190817500Y-50958750D02*
X190817500Y-51339750D01*
X181927500Y-50958750D02*
X190817500Y-50958750D01*
X179387500Y-53498750D02*
X179387500Y-53879750D01*
X179768500Y-57308750D02*
X179387500Y-57308750D01*
X183273338Y-57308750D02*
X181546500Y-57308750D01*
X190817500Y-55403750D02*
X185737500Y-55403750D01*
X190817500Y-54387750D02*
X190817500Y-55403750D01*
X179387500Y-56927750D02*
X179387500Y-57308750D01*
X183273338Y-57327710D02*
G75*
G02*
X185737500Y-55403750I2464162J-616040D01*
G01*
X179387500Y-53498750D02*
G75*
G02*
X181927500Y-50958750I2540000J0D01*
G01*
%TO.C,SW11*%
X228917500Y-70008750D02*
X228917500Y-70389750D01*
X220027500Y-70008750D02*
X228917500Y-70008750D01*
X217487500Y-72548750D02*
X217487500Y-72929750D01*
X217868500Y-76358750D02*
X217487500Y-76358750D01*
X221373338Y-76358750D02*
X219646500Y-76358750D01*
X228917500Y-74453750D02*
X223837500Y-74453750D01*
X228917500Y-73437750D02*
X228917500Y-74453750D01*
X217487500Y-75977750D02*
X217487500Y-76358750D01*
X221373338Y-76377710D02*
G75*
G02*
X223837500Y-74453750I2464162J-616040D01*
G01*
X217487500Y-72548750D02*
G75*
G02*
X220027500Y-70008750I2540000J0D01*
G01*
%TO.C,D40*%
X59563000Y-114141250D02*
X59563000Y-119221250D01*
X59563000Y-119221250D02*
X61087000Y-119221250D01*
X61087000Y-119221250D02*
X61087000Y-114141250D01*
X61087000Y-114141250D02*
X59563000Y-114141250D01*
X59563000Y-118840250D02*
X61087000Y-118840250D01*
X61087000Y-118967250D02*
X59563000Y-118967250D01*
X59563000Y-119094250D02*
X61087000Y-119094250D01*
X61087000Y-118713250D02*
X59563000Y-118713250D01*
X59563000Y-118586250D02*
X61087000Y-118586250D01*
X59563000Y-118459250D02*
X61087000Y-118459250D01*
%TO.C,D39*%
X78613000Y-114141250D02*
X78613000Y-119221250D01*
X78613000Y-119221250D02*
X80137000Y-119221250D01*
X80137000Y-119221250D02*
X80137000Y-114141250D01*
X80137000Y-114141250D02*
X78613000Y-114141250D01*
X78613000Y-118840250D02*
X80137000Y-118840250D01*
X80137000Y-118967250D02*
X78613000Y-118967250D01*
X78613000Y-119094250D02*
X80137000Y-119094250D01*
X80137000Y-118713250D02*
X78613000Y-118713250D01*
X78613000Y-118586250D02*
X80137000Y-118586250D01*
X78613000Y-118459250D02*
X80137000Y-118459250D01*
%TO.C,D38*%
X97663000Y-114141250D02*
X97663000Y-119221250D01*
X97663000Y-119221250D02*
X99187000Y-119221250D01*
X99187000Y-119221250D02*
X99187000Y-114141250D01*
X99187000Y-114141250D02*
X97663000Y-114141250D01*
X97663000Y-118840250D02*
X99187000Y-118840250D01*
X99187000Y-118967250D02*
X97663000Y-118967250D01*
X97663000Y-119094250D02*
X99187000Y-119094250D01*
X99187000Y-118713250D02*
X97663000Y-118713250D01*
X97663000Y-118586250D02*
X99187000Y-118586250D01*
X97663000Y-118459250D02*
X99187000Y-118459250D01*
%TO.C,D37*%
X116522500Y-104743250D02*
X121602500Y-104743250D01*
X121602500Y-104743250D02*
X121602500Y-103219250D01*
X121602500Y-103219250D02*
X116522500Y-103219250D01*
X116522500Y-103219250D02*
X116522500Y-104743250D01*
X121221500Y-104743250D02*
X121221500Y-103219250D01*
X121348500Y-103219250D02*
X121348500Y-104743250D01*
X121475500Y-104743250D02*
X121475500Y-103219250D01*
X121094500Y-103219250D02*
X121094500Y-104743250D01*
X120967500Y-104743250D02*
X120967500Y-103219250D01*
X120840500Y-104743250D02*
X120840500Y-103219250D01*
%TO.C,D36*%
X135572500Y-104743250D02*
X140652500Y-104743250D01*
X140652500Y-104743250D02*
X140652500Y-103219250D01*
X140652500Y-103219250D02*
X135572500Y-103219250D01*
X135572500Y-103219250D02*
X135572500Y-104743250D01*
X140271500Y-104743250D02*
X140271500Y-103219250D01*
X140398500Y-103219250D02*
X140398500Y-104743250D01*
X140525500Y-104743250D02*
X140525500Y-103219250D01*
X140144500Y-103219250D02*
X140144500Y-104743250D01*
X140017500Y-104743250D02*
X140017500Y-103219250D01*
X139890500Y-104743250D02*
X139890500Y-103219250D01*
%TO.C,D35*%
X154622500Y-104743250D02*
X159702500Y-104743250D01*
X159702500Y-104743250D02*
X159702500Y-103219250D01*
X159702500Y-103219250D02*
X154622500Y-103219250D01*
X154622500Y-103219250D02*
X154622500Y-104743250D01*
X159321500Y-104743250D02*
X159321500Y-103219250D01*
X159448500Y-103219250D02*
X159448500Y-104743250D01*
X159575500Y-104743250D02*
X159575500Y-103219250D01*
X159194500Y-103219250D02*
X159194500Y-104743250D01*
X159067500Y-104743250D02*
X159067500Y-103219250D01*
X158940500Y-104743250D02*
X158940500Y-103219250D01*
%TO.C,D34*%
X173863000Y-114141250D02*
X173863000Y-119221250D01*
X173863000Y-119221250D02*
X175387000Y-119221250D01*
X175387000Y-119221250D02*
X175387000Y-114141250D01*
X175387000Y-114141250D02*
X173863000Y-114141250D01*
X173863000Y-118840250D02*
X175387000Y-118840250D01*
X175387000Y-118967250D02*
X173863000Y-118967250D01*
X173863000Y-119094250D02*
X175387000Y-119094250D01*
X175387000Y-118713250D02*
X173863000Y-118713250D01*
X173863000Y-118586250D02*
X175387000Y-118586250D01*
X173863000Y-118459250D02*
X175387000Y-118459250D01*
%TO.C,D33*%
X192913000Y-114141250D02*
X192913000Y-119221250D01*
X192913000Y-119221250D02*
X194437000Y-119221250D01*
X194437000Y-119221250D02*
X194437000Y-114141250D01*
X194437000Y-114141250D02*
X192913000Y-114141250D01*
X192913000Y-118840250D02*
X194437000Y-118840250D01*
X194437000Y-118967250D02*
X192913000Y-118967250D01*
X192913000Y-119094250D02*
X194437000Y-119094250D01*
X194437000Y-118713250D02*
X192913000Y-118713250D01*
X192913000Y-118586250D02*
X194437000Y-118586250D01*
X192913000Y-118459250D02*
X194437000Y-118459250D01*
%TO.C,D32*%
X211963000Y-114141250D02*
X211963000Y-119221250D01*
X211963000Y-119221250D02*
X213487000Y-119221250D01*
X213487000Y-119221250D02*
X213487000Y-114141250D01*
X213487000Y-114141250D02*
X211963000Y-114141250D01*
X211963000Y-118840250D02*
X213487000Y-118840250D01*
X213487000Y-118967250D02*
X211963000Y-118967250D01*
X211963000Y-119094250D02*
X213487000Y-119094250D01*
X213487000Y-118713250D02*
X211963000Y-118713250D01*
X211963000Y-118586250D02*
X213487000Y-118586250D01*
X211963000Y-118459250D02*
X213487000Y-118459250D01*
%TO.C,D31*%
X231013000Y-114141250D02*
X231013000Y-119221250D01*
X231013000Y-119221250D02*
X232537000Y-119221250D01*
X232537000Y-119221250D02*
X232537000Y-114141250D01*
X232537000Y-114141250D02*
X231013000Y-114141250D01*
X231013000Y-118840250D02*
X232537000Y-118840250D01*
X232537000Y-118967250D02*
X231013000Y-118967250D01*
X231013000Y-119094250D02*
X232537000Y-119094250D01*
X232537000Y-118713250D02*
X231013000Y-118713250D01*
X231013000Y-118586250D02*
X232537000Y-118586250D01*
X231013000Y-118459250D02*
X232537000Y-118459250D01*
%TO.C,D30*%
X59563000Y-95091250D02*
X59563000Y-100171250D01*
X59563000Y-100171250D02*
X61087000Y-100171250D01*
X61087000Y-100171250D02*
X61087000Y-95091250D01*
X61087000Y-95091250D02*
X59563000Y-95091250D01*
X59563000Y-99790250D02*
X61087000Y-99790250D01*
X61087000Y-99917250D02*
X59563000Y-99917250D01*
X59563000Y-100044250D02*
X61087000Y-100044250D01*
X61087000Y-99663250D02*
X59563000Y-99663250D01*
X59563000Y-99536250D02*
X61087000Y-99536250D01*
X59563000Y-99409250D02*
X61087000Y-99409250D01*
%TO.C,D29*%
X78613000Y-95091250D02*
X78613000Y-100171250D01*
X78613000Y-100171250D02*
X80137000Y-100171250D01*
X80137000Y-100171250D02*
X80137000Y-95091250D01*
X80137000Y-95091250D02*
X78613000Y-95091250D01*
X78613000Y-99790250D02*
X80137000Y-99790250D01*
X80137000Y-99917250D02*
X78613000Y-99917250D01*
X78613000Y-100044250D02*
X80137000Y-100044250D01*
X80137000Y-99663250D02*
X78613000Y-99663250D01*
X78613000Y-99536250D02*
X80137000Y-99536250D01*
X78613000Y-99409250D02*
X80137000Y-99409250D01*
%TO.C,D28*%
X97663000Y-95091250D02*
X97663000Y-100171250D01*
X97663000Y-100171250D02*
X99187000Y-100171250D01*
X99187000Y-100171250D02*
X99187000Y-95091250D01*
X99187000Y-95091250D02*
X97663000Y-95091250D01*
X97663000Y-99790250D02*
X99187000Y-99790250D01*
X99187000Y-99917250D02*
X97663000Y-99917250D01*
X97663000Y-100044250D02*
X99187000Y-100044250D01*
X99187000Y-99663250D02*
X97663000Y-99663250D01*
X97663000Y-99536250D02*
X99187000Y-99536250D01*
X97663000Y-99409250D02*
X99187000Y-99409250D01*
%TO.C,D27*%
X116713000Y-95091250D02*
X116713000Y-100171250D01*
X116713000Y-100171250D02*
X118237000Y-100171250D01*
X118237000Y-100171250D02*
X118237000Y-95091250D01*
X118237000Y-95091250D02*
X116713000Y-95091250D01*
X116713000Y-99790250D02*
X118237000Y-99790250D01*
X118237000Y-99917250D02*
X116713000Y-99917250D01*
X116713000Y-100044250D02*
X118237000Y-100044250D01*
X118237000Y-99663250D02*
X116713000Y-99663250D01*
X116713000Y-99536250D02*
X118237000Y-99536250D01*
X116713000Y-99409250D02*
X118237000Y-99409250D01*
%TO.C,D26*%
X135763000Y-95091250D02*
X135763000Y-100171250D01*
X135763000Y-100171250D02*
X137287000Y-100171250D01*
X137287000Y-100171250D02*
X137287000Y-95091250D01*
X137287000Y-95091250D02*
X135763000Y-95091250D01*
X135763000Y-99790250D02*
X137287000Y-99790250D01*
X137287000Y-99917250D02*
X135763000Y-99917250D01*
X135763000Y-100044250D02*
X137287000Y-100044250D01*
X137287000Y-99663250D02*
X135763000Y-99663250D01*
X135763000Y-99536250D02*
X137287000Y-99536250D01*
X135763000Y-99409250D02*
X137287000Y-99409250D01*
%TO.C,D25*%
X154813000Y-95091250D02*
X154813000Y-100171250D01*
X154813000Y-100171250D02*
X156337000Y-100171250D01*
X156337000Y-100171250D02*
X156337000Y-95091250D01*
X156337000Y-95091250D02*
X154813000Y-95091250D01*
X154813000Y-99790250D02*
X156337000Y-99790250D01*
X156337000Y-99917250D02*
X154813000Y-99917250D01*
X154813000Y-100044250D02*
X156337000Y-100044250D01*
X156337000Y-99663250D02*
X154813000Y-99663250D01*
X154813000Y-99536250D02*
X156337000Y-99536250D01*
X154813000Y-99409250D02*
X156337000Y-99409250D01*
%TO.C,D24*%
X173863000Y-95091250D02*
X173863000Y-100171250D01*
X173863000Y-100171250D02*
X175387000Y-100171250D01*
X175387000Y-100171250D02*
X175387000Y-95091250D01*
X175387000Y-95091250D02*
X173863000Y-95091250D01*
X173863000Y-99790250D02*
X175387000Y-99790250D01*
X175387000Y-99917250D02*
X173863000Y-99917250D01*
X173863000Y-100044250D02*
X175387000Y-100044250D01*
X175387000Y-99663250D02*
X173863000Y-99663250D01*
X173863000Y-99536250D02*
X175387000Y-99536250D01*
X173863000Y-99409250D02*
X175387000Y-99409250D01*
%TO.C,D23*%
X192913000Y-95091250D02*
X192913000Y-100171250D01*
X192913000Y-100171250D02*
X194437000Y-100171250D01*
X194437000Y-100171250D02*
X194437000Y-95091250D01*
X194437000Y-95091250D02*
X192913000Y-95091250D01*
X192913000Y-99790250D02*
X194437000Y-99790250D01*
X194437000Y-99917250D02*
X192913000Y-99917250D01*
X192913000Y-100044250D02*
X194437000Y-100044250D01*
X194437000Y-99663250D02*
X192913000Y-99663250D01*
X192913000Y-99536250D02*
X194437000Y-99536250D01*
X192913000Y-99409250D02*
X194437000Y-99409250D01*
%TO.C,D22*%
X211963000Y-95091250D02*
X211963000Y-100171250D01*
X211963000Y-100171250D02*
X213487000Y-100171250D01*
X213487000Y-100171250D02*
X213487000Y-95091250D01*
X213487000Y-95091250D02*
X211963000Y-95091250D01*
X211963000Y-99790250D02*
X213487000Y-99790250D01*
X213487000Y-99917250D02*
X211963000Y-99917250D01*
X211963000Y-100044250D02*
X213487000Y-100044250D01*
X213487000Y-99663250D02*
X211963000Y-99663250D01*
X211963000Y-99536250D02*
X213487000Y-99536250D01*
X211963000Y-99409250D02*
X213487000Y-99409250D01*
%TO.C,D21*%
X231013000Y-95091250D02*
X231013000Y-100171250D01*
X231013000Y-100171250D02*
X232537000Y-100171250D01*
X232537000Y-100171250D02*
X232537000Y-95091250D01*
X232537000Y-95091250D02*
X231013000Y-95091250D01*
X231013000Y-99790250D02*
X232537000Y-99790250D01*
X232537000Y-99917250D02*
X231013000Y-99917250D01*
X231013000Y-100044250D02*
X232537000Y-100044250D01*
X232537000Y-99663250D02*
X231013000Y-99663250D01*
X231013000Y-99536250D02*
X232537000Y-99536250D01*
X231013000Y-99409250D02*
X232537000Y-99409250D01*
%TO.C,D20*%
X50641250Y-67437000D02*
X55721250Y-67437000D01*
X55721250Y-67437000D02*
X55721250Y-65913000D01*
X55721250Y-65913000D02*
X50641250Y-65913000D01*
X50641250Y-65913000D02*
X50641250Y-67437000D01*
X55340250Y-67437000D02*
X55340250Y-65913000D01*
X55467250Y-65913000D02*
X55467250Y-67437000D01*
X55594250Y-67437000D02*
X55594250Y-65913000D01*
X55213250Y-65913000D02*
X55213250Y-67437000D01*
X55086250Y-67437000D02*
X55086250Y-65913000D01*
X54959250Y-67437000D02*
X54959250Y-65913000D01*
%TO.C,D19*%
X78613000Y-76041250D02*
X78613000Y-81121250D01*
X78613000Y-81121250D02*
X80137000Y-81121250D01*
X80137000Y-81121250D02*
X80137000Y-76041250D01*
X80137000Y-76041250D02*
X78613000Y-76041250D01*
X78613000Y-80740250D02*
X80137000Y-80740250D01*
X80137000Y-80867250D02*
X78613000Y-80867250D01*
X78613000Y-80994250D02*
X80137000Y-80994250D01*
X80137000Y-80613250D02*
X78613000Y-80613250D01*
X78613000Y-80486250D02*
X80137000Y-80486250D01*
X78613000Y-80359250D02*
X80137000Y-80359250D01*
%TO.C,D18*%
X97663000Y-76041250D02*
X97663000Y-81121250D01*
X97663000Y-81121250D02*
X99187000Y-81121250D01*
X99187000Y-81121250D02*
X99187000Y-76041250D01*
X99187000Y-76041250D02*
X97663000Y-76041250D01*
X97663000Y-80740250D02*
X99187000Y-80740250D01*
X99187000Y-80867250D02*
X97663000Y-80867250D01*
X97663000Y-80994250D02*
X99187000Y-80994250D01*
X99187000Y-80613250D02*
X97663000Y-80613250D01*
X97663000Y-80486250D02*
X99187000Y-80486250D01*
X97663000Y-80359250D02*
X99187000Y-80359250D01*
%TO.C,D17*%
X116713000Y-76041250D02*
X116713000Y-81121250D01*
X116713000Y-81121250D02*
X118237000Y-81121250D01*
X118237000Y-81121250D02*
X118237000Y-76041250D01*
X118237000Y-76041250D02*
X116713000Y-76041250D01*
X116713000Y-80740250D02*
X118237000Y-80740250D01*
X118237000Y-80867250D02*
X116713000Y-80867250D01*
X116713000Y-80994250D02*
X118237000Y-80994250D01*
X118237000Y-80613250D02*
X116713000Y-80613250D01*
X116713000Y-80486250D02*
X118237000Y-80486250D01*
X116713000Y-80359250D02*
X118237000Y-80359250D01*
%TO.C,D16*%
X135763000Y-76041250D02*
X135763000Y-81121250D01*
X135763000Y-81121250D02*
X137287000Y-81121250D01*
X137287000Y-81121250D02*
X137287000Y-76041250D01*
X137287000Y-76041250D02*
X135763000Y-76041250D01*
X135763000Y-80740250D02*
X137287000Y-80740250D01*
X137287000Y-80867250D02*
X135763000Y-80867250D01*
X135763000Y-80994250D02*
X137287000Y-80994250D01*
X137287000Y-80613250D02*
X135763000Y-80613250D01*
X135763000Y-80486250D02*
X137287000Y-80486250D01*
X135763000Y-80359250D02*
X137287000Y-80359250D01*
%TO.C,D15*%
X154813000Y-76041250D02*
X154813000Y-81121250D01*
X154813000Y-81121250D02*
X156337000Y-81121250D01*
X156337000Y-81121250D02*
X156337000Y-76041250D01*
X156337000Y-76041250D02*
X154813000Y-76041250D01*
X154813000Y-80740250D02*
X156337000Y-80740250D01*
X156337000Y-80867250D02*
X154813000Y-80867250D01*
X154813000Y-80994250D02*
X156337000Y-80994250D01*
X156337000Y-80613250D02*
X154813000Y-80613250D01*
X154813000Y-80486250D02*
X156337000Y-80486250D01*
X154813000Y-80359250D02*
X156337000Y-80359250D01*
%TO.C,D14*%
X173863000Y-76041250D02*
X173863000Y-81121250D01*
X173863000Y-81121250D02*
X175387000Y-81121250D01*
X175387000Y-81121250D02*
X175387000Y-76041250D01*
X175387000Y-76041250D02*
X173863000Y-76041250D01*
X173863000Y-80740250D02*
X175387000Y-80740250D01*
X175387000Y-80867250D02*
X173863000Y-80867250D01*
X173863000Y-80994250D02*
X175387000Y-80994250D01*
X175387000Y-80613250D02*
X173863000Y-80613250D01*
X173863000Y-80486250D02*
X175387000Y-80486250D01*
X173863000Y-80359250D02*
X175387000Y-80359250D01*
%TO.C,D13*%
X192913000Y-76041250D02*
X192913000Y-81121250D01*
X192913000Y-81121250D02*
X194437000Y-81121250D01*
X194437000Y-81121250D02*
X194437000Y-76041250D01*
X194437000Y-76041250D02*
X192913000Y-76041250D01*
X192913000Y-80740250D02*
X194437000Y-80740250D01*
X194437000Y-80867250D02*
X192913000Y-80867250D01*
X192913000Y-80994250D02*
X194437000Y-80994250D01*
X194437000Y-80613250D02*
X192913000Y-80613250D01*
X192913000Y-80486250D02*
X194437000Y-80486250D01*
X192913000Y-80359250D02*
X194437000Y-80359250D01*
%TO.C,D12*%
X211963000Y-75922500D02*
X211963000Y-81002500D01*
X211963000Y-81002500D02*
X213487000Y-81002500D01*
X213487000Y-81002500D02*
X213487000Y-75922500D01*
X213487000Y-75922500D02*
X211963000Y-75922500D01*
X211963000Y-80621500D02*
X213487000Y-80621500D01*
X213487000Y-80748500D02*
X211963000Y-80748500D01*
X211963000Y-80875500D02*
X213487000Y-80875500D01*
X213487000Y-80494500D02*
X211963000Y-80494500D01*
X211963000Y-80367500D02*
X213487000Y-80367500D01*
X211963000Y-80240500D02*
X213487000Y-80240500D01*
%TO.C,D11*%
X231013000Y-75922500D02*
X231013000Y-81002500D01*
X231013000Y-81002500D02*
X232537000Y-81002500D01*
X232537000Y-81002500D02*
X232537000Y-75922500D01*
X232537000Y-75922500D02*
X231013000Y-75922500D01*
X231013000Y-80621500D02*
X232537000Y-80621500D01*
X232537000Y-80748500D02*
X231013000Y-80748500D01*
X231013000Y-80875500D02*
X232537000Y-80875500D01*
X232537000Y-80494500D02*
X231013000Y-80494500D01*
X231013000Y-80367500D02*
X232537000Y-80367500D01*
X231013000Y-80240500D02*
X232537000Y-80240500D01*
%TO.C,D10*%
X59563000Y-56991250D02*
X59563000Y-62071250D01*
X59563000Y-62071250D02*
X61087000Y-62071250D01*
X61087000Y-62071250D02*
X61087000Y-56991250D01*
X61087000Y-56991250D02*
X59563000Y-56991250D01*
X59563000Y-61690250D02*
X61087000Y-61690250D01*
X61087000Y-61817250D02*
X59563000Y-61817250D01*
X59563000Y-61944250D02*
X61087000Y-61944250D01*
X61087000Y-61563250D02*
X59563000Y-61563250D01*
X59563000Y-61436250D02*
X61087000Y-61436250D01*
X59563000Y-61309250D02*
X61087000Y-61309250D01*
%TO.C,D9*%
X78613000Y-56991250D02*
X78613000Y-62071250D01*
X78613000Y-62071250D02*
X80137000Y-62071250D01*
X80137000Y-62071250D02*
X80137000Y-56991250D01*
X80137000Y-56991250D02*
X78613000Y-56991250D01*
X78613000Y-61690250D02*
X80137000Y-61690250D01*
X80137000Y-61817250D02*
X78613000Y-61817250D01*
X78613000Y-61944250D02*
X80137000Y-61944250D01*
X80137000Y-61563250D02*
X78613000Y-61563250D01*
X78613000Y-61436250D02*
X80137000Y-61436250D01*
X78613000Y-61309250D02*
X80137000Y-61309250D01*
%TO.C,D8*%
X97663000Y-56991250D02*
X97663000Y-62071250D01*
X97663000Y-62071250D02*
X99187000Y-62071250D01*
X99187000Y-62071250D02*
X99187000Y-56991250D01*
X99187000Y-56991250D02*
X97663000Y-56991250D01*
X97663000Y-61690250D02*
X99187000Y-61690250D01*
X99187000Y-61817250D02*
X97663000Y-61817250D01*
X97663000Y-61944250D02*
X99187000Y-61944250D01*
X99187000Y-61563250D02*
X97663000Y-61563250D01*
X97663000Y-61436250D02*
X99187000Y-61436250D01*
X97663000Y-61309250D02*
X99187000Y-61309250D01*
%TO.C,D7*%
X116713000Y-56991250D02*
X116713000Y-62071250D01*
X116713000Y-62071250D02*
X118237000Y-62071250D01*
X118237000Y-62071250D02*
X118237000Y-56991250D01*
X118237000Y-56991250D02*
X116713000Y-56991250D01*
X116713000Y-61690250D02*
X118237000Y-61690250D01*
X118237000Y-61817250D02*
X116713000Y-61817250D01*
X116713000Y-61944250D02*
X118237000Y-61944250D01*
X118237000Y-61563250D02*
X116713000Y-61563250D01*
X116713000Y-61436250D02*
X118237000Y-61436250D01*
X116713000Y-61309250D02*
X118237000Y-61309250D01*
%TO.C,D6*%
X135763000Y-56991250D02*
X135763000Y-62071250D01*
X135763000Y-62071250D02*
X137287000Y-62071250D01*
X137287000Y-62071250D02*
X137287000Y-56991250D01*
X137287000Y-56991250D02*
X135763000Y-56991250D01*
X135763000Y-61690250D02*
X137287000Y-61690250D01*
X137287000Y-61817250D02*
X135763000Y-61817250D01*
X135763000Y-61944250D02*
X137287000Y-61944250D01*
X137287000Y-61563250D02*
X135763000Y-61563250D01*
X135763000Y-61436250D02*
X137287000Y-61436250D01*
X135763000Y-61309250D02*
X137287000Y-61309250D01*
%TO.C,D5*%
X154813000Y-56991250D02*
X154813000Y-62071250D01*
X154813000Y-62071250D02*
X156337000Y-62071250D01*
X156337000Y-62071250D02*
X156337000Y-56991250D01*
X156337000Y-56991250D02*
X154813000Y-56991250D01*
X154813000Y-61690250D02*
X156337000Y-61690250D01*
X156337000Y-61817250D02*
X154813000Y-61817250D01*
X154813000Y-61944250D02*
X156337000Y-61944250D01*
X156337000Y-61563250D02*
X154813000Y-61563250D01*
X154813000Y-61436250D02*
X156337000Y-61436250D01*
X154813000Y-61309250D02*
X156337000Y-61309250D01*
%TO.C,D4*%
X173863000Y-56991250D02*
X173863000Y-62071250D01*
X173863000Y-62071250D02*
X175387000Y-62071250D01*
X175387000Y-62071250D02*
X175387000Y-56991250D01*
X175387000Y-56991250D02*
X173863000Y-56991250D01*
X173863000Y-61690250D02*
X175387000Y-61690250D01*
X175387000Y-61817250D02*
X173863000Y-61817250D01*
X173863000Y-61944250D02*
X175387000Y-61944250D01*
X175387000Y-61563250D02*
X173863000Y-61563250D01*
X173863000Y-61436250D02*
X175387000Y-61436250D01*
X173863000Y-61309250D02*
X175387000Y-61309250D01*
%TO.C,D3*%
X192913000Y-56991250D02*
X192913000Y-62071250D01*
X192913000Y-62071250D02*
X194437000Y-62071250D01*
X194437000Y-62071250D02*
X194437000Y-56991250D01*
X194437000Y-56991250D02*
X192913000Y-56991250D01*
X192913000Y-61690250D02*
X194437000Y-61690250D01*
X194437000Y-61817250D02*
X192913000Y-61817250D01*
X192913000Y-61944250D02*
X194437000Y-61944250D01*
X194437000Y-61563250D02*
X192913000Y-61563250D01*
X192913000Y-61436250D02*
X194437000Y-61436250D01*
X192913000Y-61309250D02*
X194437000Y-61309250D01*
%TO.C,D2*%
X211963000Y-56991250D02*
X211963000Y-62071250D01*
X211963000Y-62071250D02*
X213487000Y-62071250D01*
X213487000Y-62071250D02*
X213487000Y-56991250D01*
X213487000Y-56991250D02*
X211963000Y-56991250D01*
X211963000Y-61690250D02*
X213487000Y-61690250D01*
X213487000Y-61817250D02*
X211963000Y-61817250D01*
X211963000Y-61944250D02*
X213487000Y-61944250D01*
X213487000Y-61563250D02*
X211963000Y-61563250D01*
X211963000Y-61436250D02*
X213487000Y-61436250D01*
X211963000Y-61309250D02*
X213487000Y-61309250D01*
%TO.C,D1*%
X231013000Y-56991250D02*
X231013000Y-62071250D01*
X231013000Y-62071250D02*
X232537000Y-62071250D01*
X232537000Y-62071250D02*
X232537000Y-56991250D01*
X232537000Y-56991250D02*
X231013000Y-56991250D01*
X231013000Y-61690250D02*
X232537000Y-61690250D01*
X232537000Y-61817250D02*
X231013000Y-61817250D01*
X231013000Y-61944250D02*
X232537000Y-61944250D01*
X232537000Y-61563250D02*
X231013000Y-61563250D01*
X231013000Y-61436250D02*
X232537000Y-61436250D01*
X231013000Y-61309250D02*
X232537000Y-61309250D01*
D13*
%TO.C,U1*%
X48560000Y-70400000D02*
X48560000Y-67860000D01*
X46020000Y-67860000D02*
X48560000Y-67860000D01*
X46020000Y-85640000D02*
X46020000Y-67860000D01*
X48560000Y-85640000D02*
X46020000Y-85640000D01*
D12*
G36*
X55039360Y-81681568D02*
G01*
X55239360Y-81681568D01*
X55239360Y-81581568D01*
X55039360Y-81581568D01*
X55039360Y-81681568D01*
G37*
X55039360Y-81681568D02*
X55239360Y-81681568D01*
X55239360Y-81581568D01*
X55039360Y-81581568D01*
X55039360Y-81681568D01*
G36*
X54439360Y-81281568D02*
G01*
X55239360Y-81281568D01*
X55239360Y-81181568D01*
X54439360Y-81181568D01*
X54439360Y-81281568D01*
G37*
X54439360Y-81281568D02*
X55239360Y-81281568D01*
X55239360Y-81181568D01*
X54439360Y-81181568D01*
X54439360Y-81281568D01*
G36*
X54439360Y-81681568D02*
G01*
X54539360Y-81681568D01*
X54539360Y-81181568D01*
X54439360Y-81181568D01*
X54439360Y-81681568D01*
G37*
X54439360Y-81681568D02*
X54539360Y-81681568D01*
X54539360Y-81181568D01*
X54439360Y-81181568D01*
X54439360Y-81681568D01*
G36*
X54839360Y-81481568D02*
G01*
X54939360Y-81481568D01*
X54939360Y-81381568D01*
X54839360Y-81381568D01*
X54839360Y-81481568D01*
G37*
X54839360Y-81481568D02*
X54939360Y-81481568D01*
X54939360Y-81381568D01*
X54839360Y-81381568D01*
X54839360Y-81481568D01*
G36*
X54439360Y-81681568D02*
G01*
X54739360Y-81681568D01*
X54739360Y-81581568D01*
X54439360Y-81581568D01*
X54439360Y-81681568D01*
G37*
X54439360Y-81681568D02*
X54739360Y-81681568D01*
X54739360Y-81581568D01*
X54439360Y-81581568D01*
X54439360Y-81681568D01*
D13*
X51100000Y-70400000D02*
X51100000Y-67860000D01*
X48560000Y-70400000D02*
X51100000Y-70400000D01*
X79040000Y-85640000D02*
X48560000Y-85640000D01*
X79040000Y-67860000D02*
X79040000Y-85640000D01*
X48560000Y-67860000D02*
X79040000Y-67860000D01*
D12*
%TO.C,SW43*%
X133032500Y-122078750D02*
X133032500Y-121697750D01*
X141922500Y-122078750D02*
X133032500Y-122078750D01*
X144462500Y-119538750D02*
X144462500Y-119157750D01*
X144081500Y-115728750D02*
X144462500Y-115728750D01*
X140576662Y-115728750D02*
X142303500Y-115728750D01*
X133032500Y-117633750D02*
X138112500Y-117633750D01*
X133032500Y-118649750D02*
X133032500Y-117633750D01*
X144462500Y-116109750D02*
X144462500Y-115728750D01*
X140576662Y-115709790D02*
G75*
G02*
X138112500Y-117633750I-2464162J616040D01*
G01*
X144462500Y-119538750D02*
G75*
G02*
X141922500Y-122078750I-2540000J0D01*
G01*
%TO.C,SW42*%
X113982500Y-122078750D02*
X113982500Y-121697750D01*
X122872500Y-122078750D02*
X113982500Y-122078750D01*
X125412500Y-119538750D02*
X125412500Y-119157750D01*
X125031500Y-115728750D02*
X125412500Y-115728750D01*
X121526662Y-115728750D02*
X123253500Y-115728750D01*
X113982500Y-117633750D02*
X119062500Y-117633750D01*
X113982500Y-118649750D02*
X113982500Y-117633750D01*
X125412500Y-116109750D02*
X125412500Y-115728750D01*
X121526662Y-115709790D02*
G75*
G02*
X119062500Y-117633750I-2464162J616040D01*
G01*
X125412500Y-119538750D02*
G75*
G02*
X122872500Y-122078750I-2540000J0D01*
G01*
%TO.C,SW41*%
X152082500Y-122078750D02*
X152082500Y-121697750D01*
X160972500Y-122078750D02*
X152082500Y-122078750D01*
X163512500Y-119538750D02*
X163512500Y-119157750D01*
X163131500Y-115728750D02*
X163512500Y-115728750D01*
X159626662Y-115728750D02*
X161353500Y-115728750D01*
X152082500Y-117633750D02*
X157162500Y-117633750D01*
X152082500Y-118649750D02*
X152082500Y-117633750D01*
X163512500Y-116109750D02*
X163512500Y-115728750D01*
X159626662Y-115709790D02*
G75*
G02*
X157162500Y-117633750I-2464162J616040D01*
G01*
X163512500Y-119538750D02*
G75*
G02*
X160972500Y-122078750I-2540000J0D01*
G01*
%TO.C,SW40*%
X57467500Y-108108750D02*
X57467500Y-108489750D01*
X48577500Y-108108750D02*
X57467500Y-108108750D01*
X46037500Y-110648750D02*
X46037500Y-111029750D01*
X46418500Y-114458750D02*
X46037500Y-114458750D01*
X49923338Y-114458750D02*
X48196500Y-114458750D01*
X57467500Y-112553750D02*
X52387500Y-112553750D01*
X57467500Y-111537750D02*
X57467500Y-112553750D01*
X46037500Y-114077750D02*
X46037500Y-114458750D01*
X49923338Y-114477710D02*
G75*
G02*
X52387500Y-112553750I2464162J-616040D01*
G01*
X46037500Y-110648750D02*
G75*
G02*
X48577500Y-108108750I2540000J0D01*
G01*
%TO.C,SW39*%
X76517500Y-108108750D02*
X76517500Y-108489750D01*
X67627500Y-108108750D02*
X76517500Y-108108750D01*
X65087500Y-110648750D02*
X65087500Y-111029750D01*
X65468500Y-114458750D02*
X65087500Y-114458750D01*
X68973338Y-114458750D02*
X67246500Y-114458750D01*
X76517500Y-112553750D02*
X71437500Y-112553750D01*
X76517500Y-111537750D02*
X76517500Y-112553750D01*
X65087500Y-114077750D02*
X65087500Y-114458750D01*
X68973338Y-114477710D02*
G75*
G02*
X71437500Y-112553750I2464162J-616040D01*
G01*
X65087500Y-110648750D02*
G75*
G02*
X67627500Y-108108750I2540000J0D01*
G01*
%TO.C,SW38*%
X95567500Y-108108750D02*
X95567500Y-108489750D01*
X86677500Y-108108750D02*
X95567500Y-108108750D01*
X84137500Y-110648750D02*
X84137500Y-111029750D01*
X84518500Y-114458750D02*
X84137500Y-114458750D01*
X88023338Y-114458750D02*
X86296500Y-114458750D01*
X95567500Y-112553750D02*
X90487500Y-112553750D01*
X95567500Y-111537750D02*
X95567500Y-112553750D01*
X84137500Y-114077750D02*
X84137500Y-114458750D01*
X88023338Y-114477710D02*
G75*
G02*
X90487500Y-112553750I2464162J-616040D01*
G01*
X84137500Y-110648750D02*
G75*
G02*
X86677500Y-108108750I2540000J0D01*
G01*
%TO.C,SW37*%
X114617500Y-108108750D02*
X114617500Y-108489750D01*
X105727500Y-108108750D02*
X114617500Y-108108750D01*
X103187500Y-110648750D02*
X103187500Y-111029750D01*
X103568500Y-114458750D02*
X103187500Y-114458750D01*
X107073338Y-114458750D02*
X105346500Y-114458750D01*
X114617500Y-112553750D02*
X109537500Y-112553750D01*
X114617500Y-111537750D02*
X114617500Y-112553750D01*
X103187500Y-114077750D02*
X103187500Y-114458750D01*
X107073338Y-114477710D02*
G75*
G02*
X109537500Y-112553750I2464162J-616040D01*
G01*
X103187500Y-110648750D02*
G75*
G02*
X105727500Y-108108750I2540000J0D01*
G01*
%TO.C,SW36*%
X133667500Y-108108750D02*
X133667500Y-108489750D01*
X124777500Y-108108750D02*
X133667500Y-108108750D01*
X122237500Y-110648750D02*
X122237500Y-111029750D01*
X122618500Y-114458750D02*
X122237500Y-114458750D01*
X126123338Y-114458750D02*
X124396500Y-114458750D01*
X133667500Y-112553750D02*
X128587500Y-112553750D01*
X133667500Y-111537750D02*
X133667500Y-112553750D01*
X122237500Y-114077750D02*
X122237500Y-114458750D01*
X126123338Y-114477710D02*
G75*
G02*
X128587500Y-112553750I2464162J-616040D01*
G01*
X122237500Y-110648750D02*
G75*
G02*
X124777500Y-108108750I2540000J0D01*
G01*
%TO.C,SW35*%
X152717500Y-108108750D02*
X152717500Y-108489750D01*
X143827500Y-108108750D02*
X152717500Y-108108750D01*
X141287500Y-110648750D02*
X141287500Y-111029750D01*
X141668500Y-114458750D02*
X141287500Y-114458750D01*
X145173338Y-114458750D02*
X143446500Y-114458750D01*
X152717500Y-112553750D02*
X147637500Y-112553750D01*
X152717500Y-111537750D02*
X152717500Y-112553750D01*
X141287500Y-114077750D02*
X141287500Y-114458750D01*
X145173338Y-114477710D02*
G75*
G02*
X147637500Y-112553750I2464162J-616040D01*
G01*
X141287500Y-110648750D02*
G75*
G02*
X143827500Y-108108750I2540000J0D01*
G01*
%TO.C,SW34*%
X171767500Y-108108750D02*
X171767500Y-108489750D01*
X162877500Y-108108750D02*
X171767500Y-108108750D01*
X160337500Y-110648750D02*
X160337500Y-111029750D01*
X160718500Y-114458750D02*
X160337500Y-114458750D01*
X164223338Y-114458750D02*
X162496500Y-114458750D01*
X171767500Y-112553750D02*
X166687500Y-112553750D01*
X171767500Y-111537750D02*
X171767500Y-112553750D01*
X160337500Y-114077750D02*
X160337500Y-114458750D01*
X164223338Y-114477710D02*
G75*
G02*
X166687500Y-112553750I2464162J-616040D01*
G01*
X160337500Y-110648750D02*
G75*
G02*
X162877500Y-108108750I2540000J0D01*
G01*
%TO.C,SW33*%
X190817500Y-108108750D02*
X190817500Y-108489750D01*
X181927500Y-108108750D02*
X190817500Y-108108750D01*
X179387500Y-110648750D02*
X179387500Y-111029750D01*
X179768500Y-114458750D02*
X179387500Y-114458750D01*
X183273338Y-114458750D02*
X181546500Y-114458750D01*
X190817500Y-112553750D02*
X185737500Y-112553750D01*
X190817500Y-111537750D02*
X190817500Y-112553750D01*
X179387500Y-114077750D02*
X179387500Y-114458750D01*
X183273338Y-114477710D02*
G75*
G02*
X185737500Y-112553750I2464162J-616040D01*
G01*
X179387500Y-110648750D02*
G75*
G02*
X181927500Y-108108750I2540000J0D01*
G01*
%TO.C,SW32*%
X209867500Y-108108750D02*
X209867500Y-108489750D01*
X200977500Y-108108750D02*
X209867500Y-108108750D01*
X198437500Y-110648750D02*
X198437500Y-111029750D01*
X198818500Y-114458750D02*
X198437500Y-114458750D01*
X202323338Y-114458750D02*
X200596500Y-114458750D01*
X209867500Y-112553750D02*
X204787500Y-112553750D01*
X209867500Y-111537750D02*
X209867500Y-112553750D01*
X198437500Y-114077750D02*
X198437500Y-114458750D01*
X202323338Y-114477710D02*
G75*
G02*
X204787500Y-112553750I2464162J-616040D01*
G01*
X198437500Y-110648750D02*
G75*
G02*
X200977500Y-108108750I2540000J0D01*
G01*
%TO.C,SW31*%
X228917500Y-108108750D02*
X228917500Y-108489750D01*
X220027500Y-108108750D02*
X228917500Y-108108750D01*
X217487500Y-110648750D02*
X217487500Y-111029750D01*
X217868500Y-114458750D02*
X217487500Y-114458750D01*
X221373338Y-114458750D02*
X219646500Y-114458750D01*
X228917500Y-112553750D02*
X223837500Y-112553750D01*
X228917500Y-111537750D02*
X228917500Y-112553750D01*
X217487500Y-114077750D02*
X217487500Y-114458750D01*
X221373338Y-114477710D02*
G75*
G02*
X223837500Y-112553750I2464162J-616040D01*
G01*
X217487500Y-110648750D02*
G75*
G02*
X220027500Y-108108750I2540000J0D01*
G01*
%TO.C,SW30*%
X57467500Y-89058750D02*
X57467500Y-89439750D01*
X48577500Y-89058750D02*
X57467500Y-89058750D01*
X46037500Y-91598750D02*
X46037500Y-91979750D01*
X46418500Y-95408750D02*
X46037500Y-95408750D01*
X49923338Y-95408750D02*
X48196500Y-95408750D01*
X57467500Y-93503750D02*
X52387500Y-93503750D01*
X57467500Y-92487750D02*
X57467500Y-93503750D01*
X46037500Y-95027750D02*
X46037500Y-95408750D01*
X49923338Y-95427710D02*
G75*
G02*
X52387500Y-93503750I2464162J-616040D01*
G01*
X46037500Y-91598750D02*
G75*
G02*
X48577500Y-89058750I2540000J0D01*
G01*
%TO.C,SW29*%
X76517500Y-89058750D02*
X76517500Y-89439750D01*
X67627500Y-89058750D02*
X76517500Y-89058750D01*
X65087500Y-91598750D02*
X65087500Y-91979750D01*
X65468500Y-95408750D02*
X65087500Y-95408750D01*
X68973338Y-95408750D02*
X67246500Y-95408750D01*
X76517500Y-93503750D02*
X71437500Y-93503750D01*
X76517500Y-92487750D02*
X76517500Y-93503750D01*
X65087500Y-95027750D02*
X65087500Y-95408750D01*
X68973338Y-95427710D02*
G75*
G02*
X71437500Y-93503750I2464162J-616040D01*
G01*
X65087500Y-91598750D02*
G75*
G02*
X67627500Y-89058750I2540000J0D01*
G01*
%TO.C,SW28*%
X95567500Y-89058750D02*
X95567500Y-89439750D01*
X86677500Y-89058750D02*
X95567500Y-89058750D01*
X84137500Y-91598750D02*
X84137500Y-91979750D01*
X84518500Y-95408750D02*
X84137500Y-95408750D01*
X88023338Y-95408750D02*
X86296500Y-95408750D01*
X95567500Y-93503750D02*
X90487500Y-93503750D01*
X95567500Y-92487750D02*
X95567500Y-93503750D01*
X84137500Y-95027750D02*
X84137500Y-95408750D01*
X88023338Y-95427710D02*
G75*
G02*
X90487500Y-93503750I2464162J-616040D01*
G01*
X84137500Y-91598750D02*
G75*
G02*
X86677500Y-89058750I2540000J0D01*
G01*
%TO.C,SW27*%
X114617500Y-89058750D02*
X114617500Y-89439750D01*
X105727500Y-89058750D02*
X114617500Y-89058750D01*
X103187500Y-91598750D02*
X103187500Y-91979750D01*
X103568500Y-95408750D02*
X103187500Y-95408750D01*
X107073338Y-95408750D02*
X105346500Y-95408750D01*
X114617500Y-93503750D02*
X109537500Y-93503750D01*
X114617500Y-92487750D02*
X114617500Y-93503750D01*
X103187500Y-95027750D02*
X103187500Y-95408750D01*
X107073338Y-95427710D02*
G75*
G02*
X109537500Y-93503750I2464162J-616040D01*
G01*
X103187500Y-91598750D02*
G75*
G02*
X105727500Y-89058750I2540000J0D01*
G01*
%TO.C,SW26*%
X133667500Y-89058750D02*
X133667500Y-89439750D01*
X124777500Y-89058750D02*
X133667500Y-89058750D01*
X122237500Y-91598750D02*
X122237500Y-91979750D01*
X122618500Y-95408750D02*
X122237500Y-95408750D01*
X126123338Y-95408750D02*
X124396500Y-95408750D01*
X133667500Y-93503750D02*
X128587500Y-93503750D01*
X133667500Y-92487750D02*
X133667500Y-93503750D01*
X122237500Y-95027750D02*
X122237500Y-95408750D01*
X126123338Y-95427710D02*
G75*
G02*
X128587500Y-93503750I2464162J-616040D01*
G01*
X122237500Y-91598750D02*
G75*
G02*
X124777500Y-89058750I2540000J0D01*
G01*
%TO.C,SW25*%
X152717500Y-89058750D02*
X152717500Y-89439750D01*
X143827500Y-89058750D02*
X152717500Y-89058750D01*
X141287500Y-91598750D02*
X141287500Y-91979750D01*
X141668500Y-95408750D02*
X141287500Y-95408750D01*
X145173338Y-95408750D02*
X143446500Y-95408750D01*
X152717500Y-93503750D02*
X147637500Y-93503750D01*
X152717500Y-92487750D02*
X152717500Y-93503750D01*
X141287500Y-95027750D02*
X141287500Y-95408750D01*
X145173338Y-95427710D02*
G75*
G02*
X147637500Y-93503750I2464162J-616040D01*
G01*
X141287500Y-91598750D02*
G75*
G02*
X143827500Y-89058750I2540000J0D01*
G01*
%TO.C,SW24*%
X171767500Y-89058750D02*
X171767500Y-89439750D01*
X162877500Y-89058750D02*
X171767500Y-89058750D01*
X160337500Y-91598750D02*
X160337500Y-91979750D01*
X160718500Y-95408750D02*
X160337500Y-95408750D01*
X164223338Y-95408750D02*
X162496500Y-95408750D01*
X171767500Y-93503750D02*
X166687500Y-93503750D01*
X171767500Y-92487750D02*
X171767500Y-93503750D01*
X160337500Y-95027750D02*
X160337500Y-95408750D01*
X164223338Y-95427710D02*
G75*
G02*
X166687500Y-93503750I2464162J-616040D01*
G01*
X160337500Y-91598750D02*
G75*
G02*
X162877500Y-89058750I2540000J0D01*
G01*
%TO.C,SW23*%
X190817500Y-89058750D02*
X190817500Y-89439750D01*
X181927500Y-89058750D02*
X190817500Y-89058750D01*
X179387500Y-91598750D02*
X179387500Y-91979750D01*
X179768500Y-95408750D02*
X179387500Y-95408750D01*
X183273338Y-95408750D02*
X181546500Y-95408750D01*
X190817500Y-93503750D02*
X185737500Y-93503750D01*
X190817500Y-92487750D02*
X190817500Y-93503750D01*
X179387500Y-95027750D02*
X179387500Y-95408750D01*
X183273338Y-95427710D02*
G75*
G02*
X185737500Y-93503750I2464162J-616040D01*
G01*
X179387500Y-91598750D02*
G75*
G02*
X181927500Y-89058750I2540000J0D01*
G01*
%TO.C,SW22*%
X209867500Y-89058750D02*
X209867500Y-89439750D01*
X200977500Y-89058750D02*
X209867500Y-89058750D01*
X198437500Y-91598750D02*
X198437500Y-91979750D01*
X198818500Y-95408750D02*
X198437500Y-95408750D01*
X202323338Y-95408750D02*
X200596500Y-95408750D01*
X209867500Y-93503750D02*
X204787500Y-93503750D01*
X209867500Y-92487750D02*
X209867500Y-93503750D01*
X198437500Y-95027750D02*
X198437500Y-95408750D01*
X202323338Y-95427710D02*
G75*
G02*
X204787500Y-93503750I2464162J-616040D01*
G01*
X198437500Y-91598750D02*
G75*
G02*
X200977500Y-89058750I2540000J0D01*
G01*
%TO.C,SW21*%
X228917500Y-89058750D02*
X228917500Y-89439750D01*
X220027500Y-89058750D02*
X228917500Y-89058750D01*
X217487500Y-91598750D02*
X217487500Y-91979750D01*
X217868500Y-95408750D02*
X217487500Y-95408750D01*
X221373338Y-95408750D02*
X219646500Y-95408750D01*
X228917500Y-93503750D02*
X223837500Y-93503750D01*
X228917500Y-92487750D02*
X228917500Y-93503750D01*
X217487500Y-95027750D02*
X217487500Y-95408750D01*
X221373338Y-95427710D02*
G75*
G02*
X223837500Y-93503750I2464162J-616040D01*
G01*
X217487500Y-91598750D02*
G75*
G02*
X220027500Y-89058750I2540000J0D01*
G01*
%TO.C,SW20*%
X57467500Y-70008750D02*
X57467500Y-70389750D01*
X48577500Y-70008750D02*
X57467500Y-70008750D01*
X46037500Y-72548750D02*
X46037500Y-72929750D01*
X46418500Y-76358750D02*
X46037500Y-76358750D01*
X49923338Y-76358750D02*
X48196500Y-76358750D01*
X57467500Y-74453750D02*
X52387500Y-74453750D01*
X57467500Y-73437750D02*
X57467500Y-74453750D01*
X46037500Y-75977750D02*
X46037500Y-76358750D01*
X49923338Y-76377710D02*
G75*
G02*
X52387500Y-74453750I2464162J-616040D01*
G01*
X46037500Y-72548750D02*
G75*
G02*
X48577500Y-70008750I2540000J0D01*
G01*
%TO.C,SW19*%
X76517500Y-70008750D02*
X76517500Y-70389750D01*
X67627500Y-70008750D02*
X76517500Y-70008750D01*
X65087500Y-72548750D02*
X65087500Y-72929750D01*
X65468500Y-76358750D02*
X65087500Y-76358750D01*
X68973338Y-76358750D02*
X67246500Y-76358750D01*
X76517500Y-74453750D02*
X71437500Y-74453750D01*
X76517500Y-73437750D02*
X76517500Y-74453750D01*
X65087500Y-75977750D02*
X65087500Y-76358750D01*
X68973338Y-76377710D02*
G75*
G02*
X71437500Y-74453750I2464162J-616040D01*
G01*
X65087500Y-72548750D02*
G75*
G02*
X67627500Y-70008750I2540000J0D01*
G01*
%TO.C,SW18*%
X95567500Y-70008750D02*
X95567500Y-70389750D01*
X86677500Y-70008750D02*
X95567500Y-70008750D01*
X84137500Y-72548750D02*
X84137500Y-72929750D01*
X84518500Y-76358750D02*
X84137500Y-76358750D01*
X88023338Y-76358750D02*
X86296500Y-76358750D01*
X95567500Y-74453750D02*
X90487500Y-74453750D01*
X95567500Y-73437750D02*
X95567500Y-74453750D01*
X84137500Y-75977750D02*
X84137500Y-76358750D01*
X88023338Y-76377710D02*
G75*
G02*
X90487500Y-74453750I2464162J-616040D01*
G01*
X84137500Y-72548750D02*
G75*
G02*
X86677500Y-70008750I2540000J0D01*
G01*
%TO.C,SW17*%
X114617500Y-70008750D02*
X114617500Y-70389750D01*
X105727500Y-70008750D02*
X114617500Y-70008750D01*
X103187500Y-72548750D02*
X103187500Y-72929750D01*
X103568500Y-76358750D02*
X103187500Y-76358750D01*
X107073338Y-76358750D02*
X105346500Y-76358750D01*
X114617500Y-74453750D02*
X109537500Y-74453750D01*
X114617500Y-73437750D02*
X114617500Y-74453750D01*
X103187500Y-75977750D02*
X103187500Y-76358750D01*
X107073338Y-76377710D02*
G75*
G02*
X109537500Y-74453750I2464162J-616040D01*
G01*
X103187500Y-72548750D02*
G75*
G02*
X105727500Y-70008750I2540000J0D01*
G01*
%TO.C,SW16*%
X133667500Y-70008750D02*
X133667500Y-70389750D01*
X124777500Y-70008750D02*
X133667500Y-70008750D01*
X122237500Y-72548750D02*
X122237500Y-72929750D01*
X122618500Y-76358750D02*
X122237500Y-76358750D01*
X126123338Y-76358750D02*
X124396500Y-76358750D01*
X133667500Y-74453750D02*
X128587500Y-74453750D01*
X133667500Y-73437750D02*
X133667500Y-74453750D01*
X122237500Y-75977750D02*
X122237500Y-76358750D01*
X126123338Y-76377710D02*
G75*
G02*
X128587500Y-74453750I2464162J-616040D01*
G01*
X122237500Y-72548750D02*
G75*
G02*
X124777500Y-70008750I2540000J0D01*
G01*
%TO.C,SW15*%
X152717500Y-70008750D02*
X152717500Y-70389750D01*
X143827500Y-70008750D02*
X152717500Y-70008750D01*
X141287500Y-72548750D02*
X141287500Y-72929750D01*
X141668500Y-76358750D02*
X141287500Y-76358750D01*
X145173338Y-76358750D02*
X143446500Y-76358750D01*
X152717500Y-74453750D02*
X147637500Y-74453750D01*
X152717500Y-73437750D02*
X152717500Y-74453750D01*
X141287500Y-75977750D02*
X141287500Y-76358750D01*
X145173338Y-76377710D02*
G75*
G02*
X147637500Y-74453750I2464162J-616040D01*
G01*
X141287500Y-72548750D02*
G75*
G02*
X143827500Y-70008750I2540000J0D01*
G01*
%TO.C,SW14*%
X171767500Y-70008750D02*
X171767500Y-70389750D01*
X162877500Y-70008750D02*
X171767500Y-70008750D01*
X160337500Y-72548750D02*
X160337500Y-72929750D01*
X160718500Y-76358750D02*
X160337500Y-76358750D01*
X164223338Y-76358750D02*
X162496500Y-76358750D01*
X171767500Y-74453750D02*
X166687500Y-74453750D01*
X171767500Y-73437750D02*
X171767500Y-74453750D01*
X160337500Y-75977750D02*
X160337500Y-76358750D01*
X164223338Y-76377710D02*
G75*
G02*
X166687500Y-74453750I2464162J-616040D01*
G01*
X160337500Y-72548750D02*
G75*
G02*
X162877500Y-70008750I2540000J0D01*
G01*
%TO.C,SW13*%
X190817500Y-70008750D02*
X190817500Y-70389750D01*
X181927500Y-70008750D02*
X190817500Y-70008750D01*
X179387500Y-72548750D02*
X179387500Y-72929750D01*
X179768500Y-76358750D02*
X179387500Y-76358750D01*
X183273338Y-76358750D02*
X181546500Y-76358750D01*
X190817500Y-74453750D02*
X185737500Y-74453750D01*
X190817500Y-73437750D02*
X190817500Y-74453750D01*
X179387500Y-75977750D02*
X179387500Y-76358750D01*
X183273338Y-76377710D02*
G75*
G02*
X185737500Y-74453750I2464162J-616040D01*
G01*
X179387500Y-72548750D02*
G75*
G02*
X181927500Y-70008750I2540000J0D01*
G01*
%TO.C,SW12*%
X209867500Y-70008750D02*
X209867500Y-70389750D01*
X200977500Y-70008750D02*
X209867500Y-70008750D01*
X198437500Y-72548750D02*
X198437500Y-72929750D01*
X198818500Y-76358750D02*
X198437500Y-76358750D01*
X202323338Y-76358750D02*
X200596500Y-76358750D01*
X209867500Y-74453750D02*
X204787500Y-74453750D01*
X209867500Y-73437750D02*
X209867500Y-74453750D01*
X198437500Y-75977750D02*
X198437500Y-76358750D01*
X202323338Y-76377710D02*
G75*
G02*
X204787500Y-74453750I2464162J-616040D01*
G01*
X198437500Y-72548750D02*
G75*
G02*
X200977500Y-70008750I2540000J0D01*
G01*
%TO.C,SW10*%
X57467500Y-50958750D02*
X57467500Y-51339750D01*
X48577500Y-50958750D02*
X57467500Y-50958750D01*
X46037500Y-53498750D02*
X46037500Y-53879750D01*
X46418500Y-57308750D02*
X46037500Y-57308750D01*
X49923338Y-57308750D02*
X48196500Y-57308750D01*
X57467500Y-55403750D02*
X52387500Y-55403750D01*
X57467500Y-54387750D02*
X57467500Y-55403750D01*
X46037500Y-56927750D02*
X46037500Y-57308750D01*
X49923338Y-57327710D02*
G75*
G02*
X52387500Y-55403750I2464162J-616040D01*
G01*
X46037500Y-53498750D02*
G75*
G02*
X48577500Y-50958750I2540000J0D01*
G01*
%TO.C,SW9*%
X76517500Y-50958750D02*
X76517500Y-51339750D01*
X67627500Y-50958750D02*
X76517500Y-50958750D01*
X65087500Y-53498750D02*
X65087500Y-53879750D01*
X65468500Y-57308750D02*
X65087500Y-57308750D01*
X68973338Y-57308750D02*
X67246500Y-57308750D01*
X76517500Y-55403750D02*
X71437500Y-55403750D01*
X76517500Y-54387750D02*
X76517500Y-55403750D01*
X65087500Y-56927750D02*
X65087500Y-57308750D01*
X68973338Y-57327710D02*
G75*
G02*
X71437500Y-55403750I2464162J-616040D01*
G01*
X65087500Y-53498750D02*
G75*
G02*
X67627500Y-50958750I2540000J0D01*
G01*
%TO.C,SW8*%
X95567500Y-50958750D02*
X95567500Y-51339750D01*
X86677500Y-50958750D02*
X95567500Y-50958750D01*
X84137500Y-53498750D02*
X84137500Y-53879750D01*
X84518500Y-57308750D02*
X84137500Y-57308750D01*
X88023338Y-57308750D02*
X86296500Y-57308750D01*
X95567500Y-55403750D02*
X90487500Y-55403750D01*
X95567500Y-54387750D02*
X95567500Y-55403750D01*
X84137500Y-56927750D02*
X84137500Y-57308750D01*
X88023338Y-57327710D02*
G75*
G02*
X90487500Y-55403750I2464162J-616040D01*
G01*
X84137500Y-53498750D02*
G75*
G02*
X86677500Y-50958750I2540000J0D01*
G01*
%TO.C,SW7*%
X114617500Y-50958750D02*
X114617500Y-51339750D01*
X105727500Y-50958750D02*
X114617500Y-50958750D01*
X103187500Y-53498750D02*
X103187500Y-53879750D01*
X103568500Y-57308750D02*
X103187500Y-57308750D01*
X107073338Y-57308750D02*
X105346500Y-57308750D01*
X114617500Y-55403750D02*
X109537500Y-55403750D01*
X114617500Y-54387750D02*
X114617500Y-55403750D01*
X103187500Y-56927750D02*
X103187500Y-57308750D01*
X107073338Y-57327710D02*
G75*
G02*
X109537500Y-55403750I2464162J-616040D01*
G01*
X103187500Y-53498750D02*
G75*
G02*
X105727500Y-50958750I2540000J0D01*
G01*
%TO.C,SW6*%
X133667500Y-50958750D02*
X133667500Y-51339750D01*
X124777500Y-50958750D02*
X133667500Y-50958750D01*
X122237500Y-53498750D02*
X122237500Y-53879750D01*
X122618500Y-57308750D02*
X122237500Y-57308750D01*
X126123338Y-57308750D02*
X124396500Y-57308750D01*
X133667500Y-55403750D02*
X128587500Y-55403750D01*
X133667500Y-54387750D02*
X133667500Y-55403750D01*
X122237500Y-56927750D02*
X122237500Y-57308750D01*
X126123338Y-57327710D02*
G75*
G02*
X128587500Y-55403750I2464162J-616040D01*
G01*
X122237500Y-53498750D02*
G75*
G02*
X124777500Y-50958750I2540000J0D01*
G01*
%TO.C,SW5*%
X152717500Y-50958750D02*
X152717500Y-51339750D01*
X143827500Y-50958750D02*
X152717500Y-50958750D01*
X141287500Y-53498750D02*
X141287500Y-53879750D01*
X141668500Y-57308750D02*
X141287500Y-57308750D01*
X145173338Y-57308750D02*
X143446500Y-57308750D01*
X152717500Y-55403750D02*
X147637500Y-55403750D01*
X152717500Y-54387750D02*
X152717500Y-55403750D01*
X141287500Y-56927750D02*
X141287500Y-57308750D01*
X145173338Y-57327710D02*
G75*
G02*
X147637500Y-55403750I2464162J-616040D01*
G01*
X141287500Y-53498750D02*
G75*
G02*
X143827500Y-50958750I2540000J0D01*
G01*
%TO.C,SW4*%
X171767500Y-50958750D02*
X171767500Y-51339750D01*
X162877500Y-50958750D02*
X171767500Y-50958750D01*
X160337500Y-53498750D02*
X160337500Y-53879750D01*
X160718500Y-57308750D02*
X160337500Y-57308750D01*
X164223338Y-57308750D02*
X162496500Y-57308750D01*
X171767500Y-55403750D02*
X166687500Y-55403750D01*
X171767500Y-54387750D02*
X171767500Y-55403750D01*
X160337500Y-56927750D02*
X160337500Y-57308750D01*
X164223338Y-57327710D02*
G75*
G02*
X166687500Y-55403750I2464162J-616040D01*
G01*
X160337500Y-53498750D02*
G75*
G02*
X162877500Y-50958750I2540000J0D01*
G01*
%TO.C,SW1*%
X228917500Y-50958750D02*
X228917500Y-51339750D01*
X220027500Y-50958750D02*
X228917500Y-50958750D01*
X217487500Y-53498750D02*
X217487500Y-53879750D01*
X217868500Y-57308750D02*
X217487500Y-57308750D01*
X221373338Y-57308750D02*
X219646500Y-57308750D01*
X228917500Y-55403750D02*
X223837500Y-55403750D01*
X228917500Y-54387750D02*
X228917500Y-55403750D01*
X217487500Y-56927750D02*
X217487500Y-57308750D01*
X221373338Y-57327710D02*
G75*
G02*
X223837500Y-55403750I2464162J-616040D01*
G01*
X217487500Y-53498750D02*
G75*
G02*
X220027500Y-50958750I2540000J0D01*
G01*
%TO.C,SW44*%
X55422619Y-89886309D02*
X55308333Y-89924404D01*
X55117857Y-89924404D01*
X55041666Y-89886309D01*
X55003571Y-89848214D01*
X54965476Y-89772023D01*
X54965476Y-89695833D01*
X55003571Y-89619642D01*
X55041666Y-89581547D01*
X55117857Y-89543452D01*
X55270238Y-89505357D01*
X55346428Y-89467261D01*
X55384523Y-89429166D01*
X55422619Y-89352976D01*
X55422619Y-89276785D01*
X55384523Y-89200595D01*
X55346428Y-89162500D01*
X55270238Y-89124404D01*
X55079761Y-89124404D01*
X54965476Y-89162500D01*
X54698809Y-89124404D02*
X54508333Y-89924404D01*
X54355952Y-89352976D01*
X54203571Y-89924404D01*
X54013095Y-89124404D01*
X53365476Y-89391071D02*
X53365476Y-89924404D01*
X53555952Y-89086309D02*
X53746428Y-89657738D01*
X53251190Y-89657738D01*
X52603571Y-89391071D02*
X52603571Y-89924404D01*
X52794047Y-89086309D02*
X52984523Y-89657738D01*
X52489285Y-89657738D01*
%TO.C,SW2*%
X206120833Y-50093511D02*
X205977976Y-50141130D01*
X205739880Y-50141130D01*
X205644642Y-50093511D01*
X205597023Y-50045892D01*
X205549404Y-49950654D01*
X205549404Y-49855416D01*
X205597023Y-49760178D01*
X205644642Y-49712559D01*
X205739880Y-49664940D01*
X205930357Y-49617321D01*
X206025595Y-49569702D01*
X206073214Y-49522083D01*
X206120833Y-49426845D01*
X206120833Y-49331607D01*
X206073214Y-49236369D01*
X206025595Y-49188750D01*
X205930357Y-49141130D01*
X205692261Y-49141130D01*
X205549404Y-49188750D01*
X205216071Y-49141130D02*
X204977976Y-50141130D01*
X204787500Y-49426845D01*
X204597023Y-50141130D01*
X204358928Y-49141130D01*
X204025595Y-49236369D02*
X203977976Y-49188750D01*
X203882738Y-49141130D01*
X203644642Y-49141130D01*
X203549404Y-49188750D01*
X203501785Y-49236369D01*
X203454166Y-49331607D01*
X203454166Y-49426845D01*
X203501785Y-49569702D01*
X204073214Y-50141130D01*
X203454166Y-50141130D01*
%TO.C,SW3*%
X187070833Y-50093511D02*
X186927976Y-50141130D01*
X186689880Y-50141130D01*
X186594642Y-50093511D01*
X186547023Y-50045892D01*
X186499404Y-49950654D01*
X186499404Y-49855416D01*
X186547023Y-49760178D01*
X186594642Y-49712559D01*
X186689880Y-49664940D01*
X186880357Y-49617321D01*
X186975595Y-49569702D01*
X187023214Y-49522083D01*
X187070833Y-49426845D01*
X187070833Y-49331607D01*
X187023214Y-49236369D01*
X186975595Y-49188750D01*
X186880357Y-49141130D01*
X186642261Y-49141130D01*
X186499404Y-49188750D01*
X186166071Y-49141130D02*
X185927976Y-50141130D01*
X185737500Y-49426845D01*
X185547023Y-50141130D01*
X185308928Y-49141130D01*
X185023214Y-49141130D02*
X184404166Y-49141130D01*
X184737500Y-49522083D01*
X184594642Y-49522083D01*
X184499404Y-49569702D01*
X184451785Y-49617321D01*
X184404166Y-49712559D01*
X184404166Y-49950654D01*
X184451785Y-50045892D01*
X184499404Y-50093511D01*
X184594642Y-50141130D01*
X184880357Y-50141130D01*
X184975595Y-50093511D01*
X185023214Y-50045892D01*
%TO.C,REF\u002A\u002A*%
X101345833Y-64721130D02*
X101679166Y-64244940D01*
X101917261Y-64721130D02*
X101917261Y-63721130D01*
X101536309Y-63721130D01*
X101441071Y-63768750D01*
X101393452Y-63816369D01*
X101345833Y-63911607D01*
X101345833Y-64054464D01*
X101393452Y-64149702D01*
X101441071Y-64197321D01*
X101536309Y-64244940D01*
X101917261Y-64244940D01*
X100917261Y-64197321D02*
X100583928Y-64197321D01*
X100441071Y-64721130D02*
X100917261Y-64721130D01*
X100917261Y-63721130D01*
X100441071Y-63721130D01*
X99679166Y-64197321D02*
X100012500Y-64197321D01*
X100012500Y-64721130D02*
X100012500Y-63721130D01*
X99536309Y-63721130D01*
X99012500Y-63721130D02*
X99012500Y-63959226D01*
X99250595Y-63863988D02*
X99012500Y-63959226D01*
X98774404Y-63863988D01*
X99155357Y-64149702D02*
X99012500Y-63959226D01*
X98869642Y-64149702D01*
X98250595Y-63721130D02*
X98250595Y-63959226D01*
X98488690Y-63863988D02*
X98250595Y-63959226D01*
X98012500Y-63863988D01*
X98393452Y-64149702D02*
X98250595Y-63959226D01*
X98107738Y-64149702D01*
X63245833Y-83771130D02*
X63579166Y-83294940D01*
X63817261Y-83771130D02*
X63817261Y-82771130D01*
X63436309Y-82771130D01*
X63341071Y-82818750D01*
X63293452Y-82866369D01*
X63245833Y-82961607D01*
X63245833Y-83104464D01*
X63293452Y-83199702D01*
X63341071Y-83247321D01*
X63436309Y-83294940D01*
X63817261Y-83294940D01*
X62817261Y-83247321D02*
X62483928Y-83247321D01*
X62341071Y-83771130D02*
X62817261Y-83771130D01*
X62817261Y-82771130D01*
X62341071Y-82771130D01*
X61579166Y-83247321D02*
X61912500Y-83247321D01*
X61912500Y-83771130D02*
X61912500Y-82771130D01*
X61436309Y-82771130D01*
X60912500Y-82771130D02*
X60912500Y-83009226D01*
X61150595Y-82913988D02*
X60912500Y-83009226D01*
X60674404Y-82913988D01*
X61055357Y-83199702D02*
X60912500Y-83009226D01*
X60769642Y-83199702D01*
X60150595Y-82771130D02*
X60150595Y-83009226D01*
X60388690Y-82913988D02*
X60150595Y-83009226D01*
X59912500Y-82913988D01*
X60293452Y-83199702D02*
X60150595Y-83009226D01*
X60007738Y-83199702D01*
X101345833Y-102821130D02*
X101679166Y-102344940D01*
X101917261Y-102821130D02*
X101917261Y-101821130D01*
X101536309Y-101821130D01*
X101441071Y-101868750D01*
X101393452Y-101916369D01*
X101345833Y-102011607D01*
X101345833Y-102154464D01*
X101393452Y-102249702D01*
X101441071Y-102297321D01*
X101536309Y-102344940D01*
X101917261Y-102344940D01*
X100917261Y-102297321D02*
X100583928Y-102297321D01*
X100441071Y-102821130D02*
X100917261Y-102821130D01*
X100917261Y-101821130D01*
X100441071Y-101821130D01*
X99679166Y-102297321D02*
X100012500Y-102297321D01*
X100012500Y-102821130D02*
X100012500Y-101821130D01*
X99536309Y-101821130D01*
X99012500Y-101821130D02*
X99012500Y-102059226D01*
X99250595Y-101963988D02*
X99012500Y-102059226D01*
X98774404Y-101963988D01*
X99155357Y-102249702D02*
X99012500Y-102059226D01*
X98869642Y-102249702D01*
X98250595Y-101821130D02*
X98250595Y-102059226D01*
X98488690Y-101963988D02*
X98250595Y-102059226D01*
X98012500Y-101963988D01*
X98393452Y-102249702D02*
X98250595Y-102059226D01*
X98107738Y-102249702D01*
X177545833Y-64721130D02*
X177879166Y-64244940D01*
X178117261Y-64721130D02*
X178117261Y-63721130D01*
X177736309Y-63721130D01*
X177641071Y-63768750D01*
X177593452Y-63816369D01*
X177545833Y-63911607D01*
X177545833Y-64054464D01*
X177593452Y-64149702D01*
X177641071Y-64197321D01*
X177736309Y-64244940D01*
X178117261Y-64244940D01*
X177117261Y-64197321D02*
X176783928Y-64197321D01*
X176641071Y-64721130D02*
X177117261Y-64721130D01*
X177117261Y-63721130D01*
X176641071Y-63721130D01*
X175879166Y-64197321D02*
X176212500Y-64197321D01*
X176212500Y-64721130D02*
X176212500Y-63721130D01*
X175736309Y-63721130D01*
X175212500Y-63721130D02*
X175212500Y-63959226D01*
X175450595Y-63863988D02*
X175212500Y-63959226D01*
X174974404Y-63863988D01*
X175355357Y-64149702D02*
X175212500Y-63959226D01*
X175069642Y-64149702D01*
X174450595Y-63721130D02*
X174450595Y-63959226D01*
X174688690Y-63863988D02*
X174450595Y-63959226D01*
X174212500Y-63863988D01*
X174593452Y-64149702D02*
X174450595Y-63959226D01*
X174307738Y-64149702D01*
X177545833Y-102821130D02*
X177879166Y-102344940D01*
X178117261Y-102821130D02*
X178117261Y-101821130D01*
X177736309Y-101821130D01*
X177641071Y-101868750D01*
X177593452Y-101916369D01*
X177545833Y-102011607D01*
X177545833Y-102154464D01*
X177593452Y-102249702D01*
X177641071Y-102297321D01*
X177736309Y-102344940D01*
X178117261Y-102344940D01*
X177117261Y-102297321D02*
X176783928Y-102297321D01*
X176641071Y-102821130D02*
X177117261Y-102821130D01*
X177117261Y-101821130D01*
X176641071Y-101821130D01*
X175879166Y-102297321D02*
X176212500Y-102297321D01*
X176212500Y-102821130D02*
X176212500Y-101821130D01*
X175736309Y-101821130D01*
X175212500Y-101821130D02*
X175212500Y-102059226D01*
X175450595Y-101963988D02*
X175212500Y-102059226D01*
X174974404Y-101963988D01*
X175355357Y-102249702D02*
X175212500Y-102059226D01*
X175069642Y-102249702D01*
X174450595Y-101821130D02*
X174450595Y-102059226D01*
X174688690Y-101963988D02*
X174450595Y-102059226D01*
X174212500Y-101963988D01*
X174593452Y-102249702D02*
X174450595Y-102059226D01*
X174307738Y-102249702D01*
X215645833Y-83771130D02*
X215979166Y-83294940D01*
X216217261Y-83771130D02*
X216217261Y-82771130D01*
X215836309Y-82771130D01*
X215741071Y-82818750D01*
X215693452Y-82866369D01*
X215645833Y-82961607D01*
X215645833Y-83104464D01*
X215693452Y-83199702D01*
X215741071Y-83247321D01*
X215836309Y-83294940D01*
X216217261Y-83294940D01*
X215217261Y-83247321D02*
X214883928Y-83247321D01*
X214741071Y-83771130D02*
X215217261Y-83771130D01*
X215217261Y-82771130D01*
X214741071Y-82771130D01*
X213979166Y-83247321D02*
X214312500Y-83247321D01*
X214312500Y-83771130D02*
X214312500Y-82771130D01*
X213836309Y-82771130D01*
X213312500Y-82771130D02*
X213312500Y-83009226D01*
X213550595Y-82913988D02*
X213312500Y-83009226D01*
X213074404Y-82913988D01*
X213455357Y-83199702D02*
X213312500Y-83009226D01*
X213169642Y-83199702D01*
X212550595Y-82771130D02*
X212550595Y-83009226D01*
X212788690Y-82913988D02*
X212550595Y-83009226D01*
X212312500Y-82913988D01*
X212693452Y-83199702D02*
X212550595Y-83009226D01*
X212407738Y-83199702D01*
%TO.C,SW11*%
X225647023Y-69143511D02*
X225504166Y-69191130D01*
X225266071Y-69191130D01*
X225170833Y-69143511D01*
X225123214Y-69095892D01*
X225075595Y-69000654D01*
X225075595Y-68905416D01*
X225123214Y-68810178D01*
X225170833Y-68762559D01*
X225266071Y-68714940D01*
X225456547Y-68667321D01*
X225551785Y-68619702D01*
X225599404Y-68572083D01*
X225647023Y-68476845D01*
X225647023Y-68381607D01*
X225599404Y-68286369D01*
X225551785Y-68238750D01*
X225456547Y-68191130D01*
X225218452Y-68191130D01*
X225075595Y-68238750D01*
X224742261Y-68191130D02*
X224504166Y-69191130D01*
X224313690Y-68476845D01*
X224123214Y-69191130D01*
X223885119Y-68191130D01*
X222980357Y-69191130D02*
X223551785Y-69191130D01*
X223266071Y-69191130D02*
X223266071Y-68191130D01*
X223361309Y-68333988D01*
X223456547Y-68429226D01*
X223551785Y-68476845D01*
X222027976Y-69191130D02*
X222599404Y-69191130D01*
X222313690Y-69191130D02*
X222313690Y-68191130D01*
X222408928Y-68333988D01*
X222504166Y-68429226D01*
X222599404Y-68476845D01*
%TO.C,D40*%
X59286904Y-115684421D02*
X58486904Y-115684421D01*
X58486904Y-115874897D01*
X58525000Y-115989183D01*
X58601190Y-116065373D01*
X58677380Y-116103469D01*
X58829761Y-116141564D01*
X58944047Y-116141564D01*
X59096428Y-116103469D01*
X59172619Y-116065373D01*
X59248809Y-115989183D01*
X59286904Y-115874897D01*
X59286904Y-115684421D01*
X58753571Y-116827278D02*
X59286904Y-116827278D01*
X58448809Y-116636802D02*
X59020238Y-116446326D01*
X59020238Y-116941564D01*
X58486904Y-117398707D02*
X58486904Y-117474897D01*
X58525000Y-117551088D01*
X58563095Y-117589183D01*
X58639285Y-117627278D01*
X58791666Y-117665373D01*
X58982142Y-117665373D01*
X59134523Y-117627278D01*
X59210714Y-117589183D01*
X59248809Y-117551088D01*
X59286904Y-117474897D01*
X59286904Y-117398707D01*
X59248809Y-117322516D01*
X59210714Y-117284421D01*
X59134523Y-117246326D01*
X58982142Y-117208230D01*
X58791666Y-117208230D01*
X58639285Y-117246326D01*
X58563095Y-117284421D01*
X58525000Y-117322516D01*
X58486904Y-117398707D01*
%TO.C,D39*%
X78336904Y-115684421D02*
X77536904Y-115684421D01*
X77536904Y-115874897D01*
X77575000Y-115989183D01*
X77651190Y-116065373D01*
X77727380Y-116103469D01*
X77879761Y-116141564D01*
X77994047Y-116141564D01*
X78146428Y-116103469D01*
X78222619Y-116065373D01*
X78298809Y-115989183D01*
X78336904Y-115874897D01*
X78336904Y-115684421D01*
X77536904Y-116408230D02*
X77536904Y-116903469D01*
X77841666Y-116636802D01*
X77841666Y-116751088D01*
X77879761Y-116827278D01*
X77917857Y-116865373D01*
X77994047Y-116903469D01*
X78184523Y-116903469D01*
X78260714Y-116865373D01*
X78298809Y-116827278D01*
X78336904Y-116751088D01*
X78336904Y-116522516D01*
X78298809Y-116446326D01*
X78260714Y-116408230D01*
X78336904Y-117284421D02*
X78336904Y-117436802D01*
X78298809Y-117512992D01*
X78260714Y-117551088D01*
X78146428Y-117627278D01*
X77994047Y-117665373D01*
X77689285Y-117665373D01*
X77613095Y-117627278D01*
X77575000Y-117589183D01*
X77536904Y-117512992D01*
X77536904Y-117360611D01*
X77575000Y-117284421D01*
X77613095Y-117246326D01*
X77689285Y-117208230D01*
X77879761Y-117208230D01*
X77955952Y-117246326D01*
X77994047Y-117284421D01*
X78032142Y-117360611D01*
X78032142Y-117512992D01*
X77994047Y-117589183D01*
X77955952Y-117627278D01*
X77879761Y-117665373D01*
%TO.C,D38*%
X97386904Y-115684421D02*
X96586904Y-115684421D01*
X96586904Y-115874897D01*
X96625000Y-115989183D01*
X96701190Y-116065373D01*
X96777380Y-116103469D01*
X96929761Y-116141564D01*
X97044047Y-116141564D01*
X97196428Y-116103469D01*
X97272619Y-116065373D01*
X97348809Y-115989183D01*
X97386904Y-115874897D01*
X97386904Y-115684421D01*
X96586904Y-116408230D02*
X96586904Y-116903469D01*
X96891666Y-116636802D01*
X96891666Y-116751088D01*
X96929761Y-116827278D01*
X96967857Y-116865373D01*
X97044047Y-116903469D01*
X97234523Y-116903469D01*
X97310714Y-116865373D01*
X97348809Y-116827278D01*
X97386904Y-116751088D01*
X97386904Y-116522516D01*
X97348809Y-116446326D01*
X97310714Y-116408230D01*
X96929761Y-117360611D02*
X96891666Y-117284421D01*
X96853571Y-117246326D01*
X96777380Y-117208230D01*
X96739285Y-117208230D01*
X96663095Y-117246326D01*
X96625000Y-117284421D01*
X96586904Y-117360611D01*
X96586904Y-117512992D01*
X96625000Y-117589183D01*
X96663095Y-117627278D01*
X96739285Y-117665373D01*
X96777380Y-117665373D01*
X96853571Y-117627278D01*
X96891666Y-117589183D01*
X96929761Y-117512992D01*
X96929761Y-117360611D01*
X96967857Y-117284421D01*
X97005952Y-117246326D01*
X97082142Y-117208230D01*
X97234523Y-117208230D01*
X97310714Y-117246326D01*
X97348809Y-117284421D01*
X97386904Y-117360611D01*
X97386904Y-117512992D01*
X97348809Y-117589183D01*
X97310714Y-117627278D01*
X97234523Y-117665373D01*
X97082142Y-117665373D01*
X97005952Y-117627278D01*
X96967857Y-117589183D01*
X96929761Y-117512992D01*
%TO.C,D37*%
X120008528Y-105743154D02*
X120008528Y-104943154D01*
X119818052Y-104943154D01*
X119703766Y-104981250D01*
X119627576Y-105057440D01*
X119589480Y-105133630D01*
X119551385Y-105286011D01*
X119551385Y-105400297D01*
X119589480Y-105552678D01*
X119627576Y-105628869D01*
X119703766Y-105705059D01*
X119818052Y-105743154D01*
X120008528Y-105743154D01*
X119284719Y-104943154D02*
X118789480Y-104943154D01*
X119056147Y-105247916D01*
X118941861Y-105247916D01*
X118865671Y-105286011D01*
X118827576Y-105324107D01*
X118789480Y-105400297D01*
X118789480Y-105590773D01*
X118827576Y-105666964D01*
X118865671Y-105705059D01*
X118941861Y-105743154D01*
X119170433Y-105743154D01*
X119246623Y-105705059D01*
X119284719Y-105666964D01*
X118522814Y-104943154D02*
X117989480Y-104943154D01*
X118332338Y-105743154D01*
%TO.C,D36*%
X139058528Y-105743154D02*
X139058528Y-104943154D01*
X138868052Y-104943154D01*
X138753766Y-104981250D01*
X138677576Y-105057440D01*
X138639480Y-105133630D01*
X138601385Y-105286011D01*
X138601385Y-105400297D01*
X138639480Y-105552678D01*
X138677576Y-105628869D01*
X138753766Y-105705059D01*
X138868052Y-105743154D01*
X139058528Y-105743154D01*
X138334719Y-104943154D02*
X137839480Y-104943154D01*
X138106147Y-105247916D01*
X137991861Y-105247916D01*
X137915671Y-105286011D01*
X137877576Y-105324107D01*
X137839480Y-105400297D01*
X137839480Y-105590773D01*
X137877576Y-105666964D01*
X137915671Y-105705059D01*
X137991861Y-105743154D01*
X138220433Y-105743154D01*
X138296623Y-105705059D01*
X138334719Y-105666964D01*
X137153766Y-104943154D02*
X137306147Y-104943154D01*
X137382338Y-104981250D01*
X137420433Y-105019345D01*
X137496623Y-105133630D01*
X137534719Y-105286011D01*
X137534719Y-105590773D01*
X137496623Y-105666964D01*
X137458528Y-105705059D01*
X137382338Y-105743154D01*
X137229957Y-105743154D01*
X137153766Y-105705059D01*
X137115671Y-105666964D01*
X137077576Y-105590773D01*
X137077576Y-105400297D01*
X137115671Y-105324107D01*
X137153766Y-105286011D01*
X137229957Y-105247916D01*
X137382338Y-105247916D01*
X137458528Y-105286011D01*
X137496623Y-105324107D01*
X137534719Y-105400297D01*
%TO.C,D35*%
X158108528Y-105743154D02*
X158108528Y-104943154D01*
X157918052Y-104943154D01*
X157803766Y-104981250D01*
X157727576Y-105057440D01*
X157689480Y-105133630D01*
X157651385Y-105286011D01*
X157651385Y-105400297D01*
X157689480Y-105552678D01*
X157727576Y-105628869D01*
X157803766Y-105705059D01*
X157918052Y-105743154D01*
X158108528Y-105743154D01*
X157384719Y-104943154D02*
X156889480Y-104943154D01*
X157156147Y-105247916D01*
X157041861Y-105247916D01*
X156965671Y-105286011D01*
X156927576Y-105324107D01*
X156889480Y-105400297D01*
X156889480Y-105590773D01*
X156927576Y-105666964D01*
X156965671Y-105705059D01*
X157041861Y-105743154D01*
X157270433Y-105743154D01*
X157346623Y-105705059D01*
X157384719Y-105666964D01*
X156165671Y-104943154D02*
X156546623Y-104943154D01*
X156584719Y-105324107D01*
X156546623Y-105286011D01*
X156470433Y-105247916D01*
X156279957Y-105247916D01*
X156203766Y-105286011D01*
X156165671Y-105324107D01*
X156127576Y-105400297D01*
X156127576Y-105590773D01*
X156165671Y-105666964D01*
X156203766Y-105705059D01*
X156279957Y-105743154D01*
X156470433Y-105743154D01*
X156546623Y-105705059D01*
X156584719Y-105666964D01*
%TO.C,D34*%
X173586904Y-115684421D02*
X172786904Y-115684421D01*
X172786904Y-115874897D01*
X172825000Y-115989183D01*
X172901190Y-116065373D01*
X172977380Y-116103469D01*
X173129761Y-116141564D01*
X173244047Y-116141564D01*
X173396428Y-116103469D01*
X173472619Y-116065373D01*
X173548809Y-115989183D01*
X173586904Y-115874897D01*
X173586904Y-115684421D01*
X172786904Y-116408230D02*
X172786904Y-116903469D01*
X173091666Y-116636802D01*
X173091666Y-116751088D01*
X173129761Y-116827278D01*
X173167857Y-116865373D01*
X173244047Y-116903469D01*
X173434523Y-116903469D01*
X173510714Y-116865373D01*
X173548809Y-116827278D01*
X173586904Y-116751088D01*
X173586904Y-116522516D01*
X173548809Y-116446326D01*
X173510714Y-116408230D01*
X173053571Y-117589183D02*
X173586904Y-117589183D01*
X172748809Y-117398707D02*
X173320238Y-117208230D01*
X173320238Y-117703469D01*
%TO.C,D33*%
X192636904Y-115684421D02*
X191836904Y-115684421D01*
X191836904Y-115874897D01*
X191875000Y-115989183D01*
X191951190Y-116065373D01*
X192027380Y-116103469D01*
X192179761Y-116141564D01*
X192294047Y-116141564D01*
X192446428Y-116103469D01*
X192522619Y-116065373D01*
X192598809Y-115989183D01*
X192636904Y-115874897D01*
X192636904Y-115684421D01*
X191836904Y-116408230D02*
X191836904Y-116903469D01*
X192141666Y-116636802D01*
X192141666Y-116751088D01*
X192179761Y-116827278D01*
X192217857Y-116865373D01*
X192294047Y-116903469D01*
X192484523Y-116903469D01*
X192560714Y-116865373D01*
X192598809Y-116827278D01*
X192636904Y-116751088D01*
X192636904Y-116522516D01*
X192598809Y-116446326D01*
X192560714Y-116408230D01*
X191836904Y-117170135D02*
X191836904Y-117665373D01*
X192141666Y-117398707D01*
X192141666Y-117512992D01*
X192179761Y-117589183D01*
X192217857Y-117627278D01*
X192294047Y-117665373D01*
X192484523Y-117665373D01*
X192560714Y-117627278D01*
X192598809Y-117589183D01*
X192636904Y-117512992D01*
X192636904Y-117284421D01*
X192598809Y-117208230D01*
X192560714Y-117170135D01*
%TO.C,D32*%
X211686904Y-115684421D02*
X210886904Y-115684421D01*
X210886904Y-115874897D01*
X210925000Y-115989183D01*
X211001190Y-116065373D01*
X211077380Y-116103469D01*
X211229761Y-116141564D01*
X211344047Y-116141564D01*
X211496428Y-116103469D01*
X211572619Y-116065373D01*
X211648809Y-115989183D01*
X211686904Y-115874897D01*
X211686904Y-115684421D01*
X210886904Y-116408230D02*
X210886904Y-116903469D01*
X211191666Y-116636802D01*
X211191666Y-116751088D01*
X211229761Y-116827278D01*
X211267857Y-116865373D01*
X211344047Y-116903469D01*
X211534523Y-116903469D01*
X211610714Y-116865373D01*
X211648809Y-116827278D01*
X211686904Y-116751088D01*
X211686904Y-116522516D01*
X211648809Y-116446326D01*
X211610714Y-116408230D01*
X210963095Y-117208230D02*
X210925000Y-117246326D01*
X210886904Y-117322516D01*
X210886904Y-117512992D01*
X210925000Y-117589183D01*
X210963095Y-117627278D01*
X211039285Y-117665373D01*
X211115476Y-117665373D01*
X211229761Y-117627278D01*
X211686904Y-117170135D01*
X211686904Y-117665373D01*
%TO.C,D31*%
X230736904Y-115684421D02*
X229936904Y-115684421D01*
X229936904Y-115874897D01*
X229975000Y-115989183D01*
X230051190Y-116065373D01*
X230127380Y-116103469D01*
X230279761Y-116141564D01*
X230394047Y-116141564D01*
X230546428Y-116103469D01*
X230622619Y-116065373D01*
X230698809Y-115989183D01*
X230736904Y-115874897D01*
X230736904Y-115684421D01*
X229936904Y-116408230D02*
X229936904Y-116903469D01*
X230241666Y-116636802D01*
X230241666Y-116751088D01*
X230279761Y-116827278D01*
X230317857Y-116865373D01*
X230394047Y-116903469D01*
X230584523Y-116903469D01*
X230660714Y-116865373D01*
X230698809Y-116827278D01*
X230736904Y-116751088D01*
X230736904Y-116522516D01*
X230698809Y-116446326D01*
X230660714Y-116408230D01*
X230736904Y-117665373D02*
X230736904Y-117208230D01*
X230736904Y-117436802D02*
X229936904Y-117436802D01*
X230051190Y-117360611D01*
X230127380Y-117284421D01*
X230165476Y-117208230D01*
%TO.C,D30*%
X59286904Y-96634421D02*
X58486904Y-96634421D01*
X58486904Y-96824897D01*
X58525000Y-96939183D01*
X58601190Y-97015373D01*
X58677380Y-97053469D01*
X58829761Y-97091564D01*
X58944047Y-97091564D01*
X59096428Y-97053469D01*
X59172619Y-97015373D01*
X59248809Y-96939183D01*
X59286904Y-96824897D01*
X59286904Y-96634421D01*
X58486904Y-97358230D02*
X58486904Y-97853469D01*
X58791666Y-97586802D01*
X58791666Y-97701088D01*
X58829761Y-97777278D01*
X58867857Y-97815373D01*
X58944047Y-97853469D01*
X59134523Y-97853469D01*
X59210714Y-97815373D01*
X59248809Y-97777278D01*
X59286904Y-97701088D01*
X59286904Y-97472516D01*
X59248809Y-97396326D01*
X59210714Y-97358230D01*
X58486904Y-98348707D02*
X58486904Y-98424897D01*
X58525000Y-98501088D01*
X58563095Y-98539183D01*
X58639285Y-98577278D01*
X58791666Y-98615373D01*
X58982142Y-98615373D01*
X59134523Y-98577278D01*
X59210714Y-98539183D01*
X59248809Y-98501088D01*
X59286904Y-98424897D01*
X59286904Y-98348707D01*
X59248809Y-98272516D01*
X59210714Y-98234421D01*
X59134523Y-98196326D01*
X58982142Y-98158230D01*
X58791666Y-98158230D01*
X58639285Y-98196326D01*
X58563095Y-98234421D01*
X58525000Y-98272516D01*
X58486904Y-98348707D01*
%TO.C,D29*%
X78336904Y-96634421D02*
X77536904Y-96634421D01*
X77536904Y-96824897D01*
X77575000Y-96939183D01*
X77651190Y-97015373D01*
X77727380Y-97053469D01*
X77879761Y-97091564D01*
X77994047Y-97091564D01*
X78146428Y-97053469D01*
X78222619Y-97015373D01*
X78298809Y-96939183D01*
X78336904Y-96824897D01*
X78336904Y-96634421D01*
X77613095Y-97396326D02*
X77575000Y-97434421D01*
X77536904Y-97510611D01*
X77536904Y-97701088D01*
X77575000Y-97777278D01*
X77613095Y-97815373D01*
X77689285Y-97853469D01*
X77765476Y-97853469D01*
X77879761Y-97815373D01*
X78336904Y-97358230D01*
X78336904Y-97853469D01*
X78336904Y-98234421D02*
X78336904Y-98386802D01*
X78298809Y-98462992D01*
X78260714Y-98501088D01*
X78146428Y-98577278D01*
X77994047Y-98615373D01*
X77689285Y-98615373D01*
X77613095Y-98577278D01*
X77575000Y-98539183D01*
X77536904Y-98462992D01*
X77536904Y-98310611D01*
X77575000Y-98234421D01*
X77613095Y-98196326D01*
X77689285Y-98158230D01*
X77879761Y-98158230D01*
X77955952Y-98196326D01*
X77994047Y-98234421D01*
X78032142Y-98310611D01*
X78032142Y-98462992D01*
X77994047Y-98539183D01*
X77955952Y-98577278D01*
X77879761Y-98615373D01*
%TO.C,D28*%
X97386904Y-96634421D02*
X96586904Y-96634421D01*
X96586904Y-96824897D01*
X96625000Y-96939183D01*
X96701190Y-97015373D01*
X96777380Y-97053469D01*
X96929761Y-97091564D01*
X97044047Y-97091564D01*
X97196428Y-97053469D01*
X97272619Y-97015373D01*
X97348809Y-96939183D01*
X97386904Y-96824897D01*
X97386904Y-96634421D01*
X96663095Y-97396326D02*
X96625000Y-97434421D01*
X96586904Y-97510611D01*
X96586904Y-97701088D01*
X96625000Y-97777278D01*
X96663095Y-97815373D01*
X96739285Y-97853469D01*
X96815476Y-97853469D01*
X96929761Y-97815373D01*
X97386904Y-97358230D01*
X97386904Y-97853469D01*
X96929761Y-98310611D02*
X96891666Y-98234421D01*
X96853571Y-98196326D01*
X96777380Y-98158230D01*
X96739285Y-98158230D01*
X96663095Y-98196326D01*
X96625000Y-98234421D01*
X96586904Y-98310611D01*
X96586904Y-98462992D01*
X96625000Y-98539183D01*
X96663095Y-98577278D01*
X96739285Y-98615373D01*
X96777380Y-98615373D01*
X96853571Y-98577278D01*
X96891666Y-98539183D01*
X96929761Y-98462992D01*
X96929761Y-98310611D01*
X96967857Y-98234421D01*
X97005952Y-98196326D01*
X97082142Y-98158230D01*
X97234523Y-98158230D01*
X97310714Y-98196326D01*
X97348809Y-98234421D01*
X97386904Y-98310611D01*
X97386904Y-98462992D01*
X97348809Y-98539183D01*
X97310714Y-98577278D01*
X97234523Y-98615373D01*
X97082142Y-98615373D01*
X97005952Y-98577278D01*
X96967857Y-98539183D01*
X96929761Y-98462992D01*
%TO.C,D27*%
X116436904Y-96634421D02*
X115636904Y-96634421D01*
X115636904Y-96824897D01*
X115675000Y-96939183D01*
X115751190Y-97015373D01*
X115827380Y-97053469D01*
X115979761Y-97091564D01*
X116094047Y-97091564D01*
X116246428Y-97053469D01*
X116322619Y-97015373D01*
X116398809Y-96939183D01*
X116436904Y-96824897D01*
X116436904Y-96634421D01*
X115713095Y-97396326D02*
X115675000Y-97434421D01*
X115636904Y-97510611D01*
X115636904Y-97701088D01*
X115675000Y-97777278D01*
X115713095Y-97815373D01*
X115789285Y-97853469D01*
X115865476Y-97853469D01*
X115979761Y-97815373D01*
X116436904Y-97358230D01*
X116436904Y-97853469D01*
X115636904Y-98120135D02*
X115636904Y-98653469D01*
X116436904Y-98310611D01*
%TO.C,D26*%
X135486904Y-96634421D02*
X134686904Y-96634421D01*
X134686904Y-96824897D01*
X134725000Y-96939183D01*
X134801190Y-97015373D01*
X134877380Y-97053469D01*
X135029761Y-97091564D01*
X135144047Y-97091564D01*
X135296428Y-97053469D01*
X135372619Y-97015373D01*
X135448809Y-96939183D01*
X135486904Y-96824897D01*
X135486904Y-96634421D01*
X134763095Y-97396326D02*
X134725000Y-97434421D01*
X134686904Y-97510611D01*
X134686904Y-97701088D01*
X134725000Y-97777278D01*
X134763095Y-97815373D01*
X134839285Y-97853469D01*
X134915476Y-97853469D01*
X135029761Y-97815373D01*
X135486904Y-97358230D01*
X135486904Y-97853469D01*
X134686904Y-98539183D02*
X134686904Y-98386802D01*
X134725000Y-98310611D01*
X134763095Y-98272516D01*
X134877380Y-98196326D01*
X135029761Y-98158230D01*
X135334523Y-98158230D01*
X135410714Y-98196326D01*
X135448809Y-98234421D01*
X135486904Y-98310611D01*
X135486904Y-98462992D01*
X135448809Y-98539183D01*
X135410714Y-98577278D01*
X135334523Y-98615373D01*
X135144047Y-98615373D01*
X135067857Y-98577278D01*
X135029761Y-98539183D01*
X134991666Y-98462992D01*
X134991666Y-98310611D01*
X135029761Y-98234421D01*
X135067857Y-98196326D01*
X135144047Y-98158230D01*
%TO.C,D25*%
X154536904Y-96634421D02*
X153736904Y-96634421D01*
X153736904Y-96824897D01*
X153775000Y-96939183D01*
X153851190Y-97015373D01*
X153927380Y-97053469D01*
X154079761Y-97091564D01*
X154194047Y-97091564D01*
X154346428Y-97053469D01*
X154422619Y-97015373D01*
X154498809Y-96939183D01*
X154536904Y-96824897D01*
X154536904Y-96634421D01*
X153813095Y-97396326D02*
X153775000Y-97434421D01*
X153736904Y-97510611D01*
X153736904Y-97701088D01*
X153775000Y-97777278D01*
X153813095Y-97815373D01*
X153889285Y-97853469D01*
X153965476Y-97853469D01*
X154079761Y-97815373D01*
X154536904Y-97358230D01*
X154536904Y-97853469D01*
X153736904Y-98577278D02*
X153736904Y-98196326D01*
X154117857Y-98158230D01*
X154079761Y-98196326D01*
X154041666Y-98272516D01*
X154041666Y-98462992D01*
X154079761Y-98539183D01*
X154117857Y-98577278D01*
X154194047Y-98615373D01*
X154384523Y-98615373D01*
X154460714Y-98577278D01*
X154498809Y-98539183D01*
X154536904Y-98462992D01*
X154536904Y-98272516D01*
X154498809Y-98196326D01*
X154460714Y-98158230D01*
%TO.C,D24*%
X173586904Y-96634421D02*
X172786904Y-96634421D01*
X172786904Y-96824897D01*
X172825000Y-96939183D01*
X172901190Y-97015373D01*
X172977380Y-97053469D01*
X173129761Y-97091564D01*
X173244047Y-97091564D01*
X173396428Y-97053469D01*
X173472619Y-97015373D01*
X173548809Y-96939183D01*
X173586904Y-96824897D01*
X173586904Y-96634421D01*
X172863095Y-97396326D02*
X172825000Y-97434421D01*
X172786904Y-97510611D01*
X172786904Y-97701088D01*
X172825000Y-97777278D01*
X172863095Y-97815373D01*
X172939285Y-97853469D01*
X173015476Y-97853469D01*
X173129761Y-97815373D01*
X173586904Y-97358230D01*
X173586904Y-97853469D01*
X173053571Y-98539183D02*
X173586904Y-98539183D01*
X172748809Y-98348707D02*
X173320238Y-98158230D01*
X173320238Y-98653469D01*
%TO.C,D23*%
X192636904Y-96634421D02*
X191836904Y-96634421D01*
X191836904Y-96824897D01*
X191875000Y-96939183D01*
X191951190Y-97015373D01*
X192027380Y-97053469D01*
X192179761Y-97091564D01*
X192294047Y-97091564D01*
X192446428Y-97053469D01*
X192522619Y-97015373D01*
X192598809Y-96939183D01*
X192636904Y-96824897D01*
X192636904Y-96634421D01*
X191913095Y-97396326D02*
X191875000Y-97434421D01*
X191836904Y-97510611D01*
X191836904Y-97701088D01*
X191875000Y-97777278D01*
X191913095Y-97815373D01*
X191989285Y-97853469D01*
X192065476Y-97853469D01*
X192179761Y-97815373D01*
X192636904Y-97358230D01*
X192636904Y-97853469D01*
X191836904Y-98120135D02*
X191836904Y-98615373D01*
X192141666Y-98348707D01*
X192141666Y-98462992D01*
X192179761Y-98539183D01*
X192217857Y-98577278D01*
X192294047Y-98615373D01*
X192484523Y-98615373D01*
X192560714Y-98577278D01*
X192598809Y-98539183D01*
X192636904Y-98462992D01*
X192636904Y-98234421D01*
X192598809Y-98158230D01*
X192560714Y-98120135D01*
%TO.C,D22*%
X211686904Y-96634421D02*
X210886904Y-96634421D01*
X210886904Y-96824897D01*
X210925000Y-96939183D01*
X211001190Y-97015373D01*
X211077380Y-97053469D01*
X211229761Y-97091564D01*
X211344047Y-97091564D01*
X211496428Y-97053469D01*
X211572619Y-97015373D01*
X211648809Y-96939183D01*
X211686904Y-96824897D01*
X211686904Y-96634421D01*
X210963095Y-97396326D02*
X210925000Y-97434421D01*
X210886904Y-97510611D01*
X210886904Y-97701088D01*
X210925000Y-97777278D01*
X210963095Y-97815373D01*
X211039285Y-97853469D01*
X211115476Y-97853469D01*
X211229761Y-97815373D01*
X211686904Y-97358230D01*
X211686904Y-97853469D01*
X210963095Y-98158230D02*
X210925000Y-98196326D01*
X210886904Y-98272516D01*
X210886904Y-98462992D01*
X210925000Y-98539183D01*
X210963095Y-98577278D01*
X211039285Y-98615373D01*
X211115476Y-98615373D01*
X211229761Y-98577278D01*
X211686904Y-98120135D01*
X211686904Y-98615373D01*
%TO.C,D21*%
X230736904Y-96634421D02*
X229936904Y-96634421D01*
X229936904Y-96824897D01*
X229975000Y-96939183D01*
X230051190Y-97015373D01*
X230127380Y-97053469D01*
X230279761Y-97091564D01*
X230394047Y-97091564D01*
X230546428Y-97053469D01*
X230622619Y-97015373D01*
X230698809Y-96939183D01*
X230736904Y-96824897D01*
X230736904Y-96634421D01*
X230013095Y-97396326D02*
X229975000Y-97434421D01*
X229936904Y-97510611D01*
X229936904Y-97701088D01*
X229975000Y-97777278D01*
X230013095Y-97815373D01*
X230089285Y-97853469D01*
X230165476Y-97853469D01*
X230279761Y-97815373D01*
X230736904Y-97358230D01*
X230736904Y-97853469D01*
X230736904Y-98615373D02*
X230736904Y-98158230D01*
X230736904Y-98386802D02*
X229936904Y-98386802D01*
X230051190Y-98310611D01*
X230127380Y-98234421D01*
X230165476Y-98158230D01*
%TO.C,D20*%
X54127278Y-68436904D02*
X54127278Y-67636904D01*
X53936802Y-67636904D01*
X53822516Y-67675000D01*
X53746326Y-67751190D01*
X53708230Y-67827380D01*
X53670135Y-67979761D01*
X53670135Y-68094047D01*
X53708230Y-68246428D01*
X53746326Y-68322619D01*
X53822516Y-68398809D01*
X53936802Y-68436904D01*
X54127278Y-68436904D01*
X53365373Y-67713095D02*
X53327278Y-67675000D01*
X53251088Y-67636904D01*
X53060611Y-67636904D01*
X52984421Y-67675000D01*
X52946326Y-67713095D01*
X52908230Y-67789285D01*
X52908230Y-67865476D01*
X52946326Y-67979761D01*
X53403469Y-68436904D01*
X52908230Y-68436904D01*
X52412992Y-67636904D02*
X52336802Y-67636904D01*
X52260611Y-67675000D01*
X52222516Y-67713095D01*
X52184421Y-67789285D01*
X52146326Y-67941666D01*
X52146326Y-68132142D01*
X52184421Y-68284523D01*
X52222516Y-68360714D01*
X52260611Y-68398809D01*
X52336802Y-68436904D01*
X52412992Y-68436904D01*
X52489183Y-68398809D01*
X52527278Y-68360714D01*
X52565373Y-68284523D01*
X52603469Y-68132142D01*
X52603469Y-67941666D01*
X52565373Y-67789285D01*
X52527278Y-67713095D01*
X52489183Y-67675000D01*
X52412992Y-67636904D01*
%TO.C,D19*%
X78336904Y-77584421D02*
X77536904Y-77584421D01*
X77536904Y-77774897D01*
X77575000Y-77889183D01*
X77651190Y-77965373D01*
X77727380Y-78003469D01*
X77879761Y-78041564D01*
X77994047Y-78041564D01*
X78146428Y-78003469D01*
X78222619Y-77965373D01*
X78298809Y-77889183D01*
X78336904Y-77774897D01*
X78336904Y-77584421D01*
X78336904Y-78803469D02*
X78336904Y-78346326D01*
X78336904Y-78574897D02*
X77536904Y-78574897D01*
X77651190Y-78498707D01*
X77727380Y-78422516D01*
X77765476Y-78346326D01*
X78336904Y-79184421D02*
X78336904Y-79336802D01*
X78298809Y-79412992D01*
X78260714Y-79451088D01*
X78146428Y-79527278D01*
X77994047Y-79565373D01*
X77689285Y-79565373D01*
X77613095Y-79527278D01*
X77575000Y-79489183D01*
X77536904Y-79412992D01*
X77536904Y-79260611D01*
X77575000Y-79184421D01*
X77613095Y-79146326D01*
X77689285Y-79108230D01*
X77879761Y-79108230D01*
X77955952Y-79146326D01*
X77994047Y-79184421D01*
X78032142Y-79260611D01*
X78032142Y-79412992D01*
X77994047Y-79489183D01*
X77955952Y-79527278D01*
X77879761Y-79565373D01*
%TO.C,D18*%
X97386904Y-77584421D02*
X96586904Y-77584421D01*
X96586904Y-77774897D01*
X96625000Y-77889183D01*
X96701190Y-77965373D01*
X96777380Y-78003469D01*
X96929761Y-78041564D01*
X97044047Y-78041564D01*
X97196428Y-78003469D01*
X97272619Y-77965373D01*
X97348809Y-77889183D01*
X97386904Y-77774897D01*
X97386904Y-77584421D01*
X97386904Y-78803469D02*
X97386904Y-78346326D01*
X97386904Y-78574897D02*
X96586904Y-78574897D01*
X96701190Y-78498707D01*
X96777380Y-78422516D01*
X96815476Y-78346326D01*
X96929761Y-79260611D02*
X96891666Y-79184421D01*
X96853571Y-79146326D01*
X96777380Y-79108230D01*
X96739285Y-79108230D01*
X96663095Y-79146326D01*
X96625000Y-79184421D01*
X96586904Y-79260611D01*
X96586904Y-79412992D01*
X96625000Y-79489183D01*
X96663095Y-79527278D01*
X96739285Y-79565373D01*
X96777380Y-79565373D01*
X96853571Y-79527278D01*
X96891666Y-79489183D01*
X96929761Y-79412992D01*
X96929761Y-79260611D01*
X96967857Y-79184421D01*
X97005952Y-79146326D01*
X97082142Y-79108230D01*
X97234523Y-79108230D01*
X97310714Y-79146326D01*
X97348809Y-79184421D01*
X97386904Y-79260611D01*
X97386904Y-79412992D01*
X97348809Y-79489183D01*
X97310714Y-79527278D01*
X97234523Y-79565373D01*
X97082142Y-79565373D01*
X97005952Y-79527278D01*
X96967857Y-79489183D01*
X96929761Y-79412992D01*
%TO.C,D17*%
X116436904Y-77584421D02*
X115636904Y-77584421D01*
X115636904Y-77774897D01*
X115675000Y-77889183D01*
X115751190Y-77965373D01*
X115827380Y-78003469D01*
X115979761Y-78041564D01*
X116094047Y-78041564D01*
X116246428Y-78003469D01*
X116322619Y-77965373D01*
X116398809Y-77889183D01*
X116436904Y-77774897D01*
X116436904Y-77584421D01*
X116436904Y-78803469D02*
X116436904Y-78346326D01*
X116436904Y-78574897D02*
X115636904Y-78574897D01*
X115751190Y-78498707D01*
X115827380Y-78422516D01*
X115865476Y-78346326D01*
X115636904Y-79070135D02*
X115636904Y-79603469D01*
X116436904Y-79260611D01*
%TO.C,D16*%
X135486904Y-77584421D02*
X134686904Y-77584421D01*
X134686904Y-77774897D01*
X134725000Y-77889183D01*
X134801190Y-77965373D01*
X134877380Y-78003469D01*
X135029761Y-78041564D01*
X135144047Y-78041564D01*
X135296428Y-78003469D01*
X135372619Y-77965373D01*
X135448809Y-77889183D01*
X135486904Y-77774897D01*
X135486904Y-77584421D01*
X135486904Y-78803469D02*
X135486904Y-78346326D01*
X135486904Y-78574897D02*
X134686904Y-78574897D01*
X134801190Y-78498707D01*
X134877380Y-78422516D01*
X134915476Y-78346326D01*
X134686904Y-79489183D02*
X134686904Y-79336802D01*
X134725000Y-79260611D01*
X134763095Y-79222516D01*
X134877380Y-79146326D01*
X135029761Y-79108230D01*
X135334523Y-79108230D01*
X135410714Y-79146326D01*
X135448809Y-79184421D01*
X135486904Y-79260611D01*
X135486904Y-79412992D01*
X135448809Y-79489183D01*
X135410714Y-79527278D01*
X135334523Y-79565373D01*
X135144047Y-79565373D01*
X135067857Y-79527278D01*
X135029761Y-79489183D01*
X134991666Y-79412992D01*
X134991666Y-79260611D01*
X135029761Y-79184421D01*
X135067857Y-79146326D01*
X135144047Y-79108230D01*
%TO.C,D15*%
X154536904Y-77584421D02*
X153736904Y-77584421D01*
X153736904Y-77774897D01*
X153775000Y-77889183D01*
X153851190Y-77965373D01*
X153927380Y-78003469D01*
X154079761Y-78041564D01*
X154194047Y-78041564D01*
X154346428Y-78003469D01*
X154422619Y-77965373D01*
X154498809Y-77889183D01*
X154536904Y-77774897D01*
X154536904Y-77584421D01*
X154536904Y-78803469D02*
X154536904Y-78346326D01*
X154536904Y-78574897D02*
X153736904Y-78574897D01*
X153851190Y-78498707D01*
X153927380Y-78422516D01*
X153965476Y-78346326D01*
X153736904Y-79527278D02*
X153736904Y-79146326D01*
X154117857Y-79108230D01*
X154079761Y-79146326D01*
X154041666Y-79222516D01*
X154041666Y-79412992D01*
X154079761Y-79489183D01*
X154117857Y-79527278D01*
X154194047Y-79565373D01*
X154384523Y-79565373D01*
X154460714Y-79527278D01*
X154498809Y-79489183D01*
X154536904Y-79412992D01*
X154536904Y-79222516D01*
X154498809Y-79146326D01*
X154460714Y-79108230D01*
%TO.C,D14*%
X173586904Y-77584421D02*
X172786904Y-77584421D01*
X172786904Y-77774897D01*
X172825000Y-77889183D01*
X172901190Y-77965373D01*
X172977380Y-78003469D01*
X173129761Y-78041564D01*
X173244047Y-78041564D01*
X173396428Y-78003469D01*
X173472619Y-77965373D01*
X173548809Y-77889183D01*
X173586904Y-77774897D01*
X173586904Y-77584421D01*
X173586904Y-78803469D02*
X173586904Y-78346326D01*
X173586904Y-78574897D02*
X172786904Y-78574897D01*
X172901190Y-78498707D01*
X172977380Y-78422516D01*
X173015476Y-78346326D01*
X173053571Y-79489183D02*
X173586904Y-79489183D01*
X172748809Y-79298707D02*
X173320238Y-79108230D01*
X173320238Y-79603469D01*
%TO.C,D13*%
X192636904Y-77584421D02*
X191836904Y-77584421D01*
X191836904Y-77774897D01*
X191875000Y-77889183D01*
X191951190Y-77965373D01*
X192027380Y-78003469D01*
X192179761Y-78041564D01*
X192294047Y-78041564D01*
X192446428Y-78003469D01*
X192522619Y-77965373D01*
X192598809Y-77889183D01*
X192636904Y-77774897D01*
X192636904Y-77584421D01*
X192636904Y-78803469D02*
X192636904Y-78346326D01*
X192636904Y-78574897D02*
X191836904Y-78574897D01*
X191951190Y-78498707D01*
X192027380Y-78422516D01*
X192065476Y-78346326D01*
X191836904Y-79070135D02*
X191836904Y-79565373D01*
X192141666Y-79298707D01*
X192141666Y-79412992D01*
X192179761Y-79489183D01*
X192217857Y-79527278D01*
X192294047Y-79565373D01*
X192484523Y-79565373D01*
X192560714Y-79527278D01*
X192598809Y-79489183D01*
X192636904Y-79412992D01*
X192636904Y-79184421D01*
X192598809Y-79108230D01*
X192560714Y-79070135D01*
%TO.C,D12*%
X211686904Y-77465671D02*
X210886904Y-77465671D01*
X210886904Y-77656147D01*
X210925000Y-77770433D01*
X211001190Y-77846623D01*
X211077380Y-77884719D01*
X211229761Y-77922814D01*
X211344047Y-77922814D01*
X211496428Y-77884719D01*
X211572619Y-77846623D01*
X211648809Y-77770433D01*
X211686904Y-77656147D01*
X211686904Y-77465671D01*
X211686904Y-78684719D02*
X211686904Y-78227576D01*
X211686904Y-78456147D02*
X210886904Y-78456147D01*
X211001190Y-78379957D01*
X211077380Y-78303766D01*
X211115476Y-78227576D01*
X210963095Y-78989480D02*
X210925000Y-79027576D01*
X210886904Y-79103766D01*
X210886904Y-79294242D01*
X210925000Y-79370433D01*
X210963095Y-79408528D01*
X211039285Y-79446623D01*
X211115476Y-79446623D01*
X211229761Y-79408528D01*
X211686904Y-78951385D01*
X211686904Y-79446623D01*
%TO.C,D11*%
X230736904Y-77465671D02*
X229936904Y-77465671D01*
X229936904Y-77656147D01*
X229975000Y-77770433D01*
X230051190Y-77846623D01*
X230127380Y-77884719D01*
X230279761Y-77922814D01*
X230394047Y-77922814D01*
X230546428Y-77884719D01*
X230622619Y-77846623D01*
X230698809Y-77770433D01*
X230736904Y-77656147D01*
X230736904Y-77465671D01*
X230736904Y-78684719D02*
X230736904Y-78227576D01*
X230736904Y-78456147D02*
X229936904Y-78456147D01*
X230051190Y-78379957D01*
X230127380Y-78303766D01*
X230165476Y-78227576D01*
X230736904Y-79446623D02*
X230736904Y-78989480D01*
X230736904Y-79218052D02*
X229936904Y-79218052D01*
X230051190Y-79141861D01*
X230127380Y-79065671D01*
X230165476Y-78989480D01*
%TO.C,D10*%
X59286904Y-58534421D02*
X58486904Y-58534421D01*
X58486904Y-58724897D01*
X58525000Y-58839183D01*
X58601190Y-58915373D01*
X58677380Y-58953469D01*
X58829761Y-58991564D01*
X58944047Y-58991564D01*
X59096428Y-58953469D01*
X59172619Y-58915373D01*
X59248809Y-58839183D01*
X59286904Y-58724897D01*
X59286904Y-58534421D01*
X59286904Y-59753469D02*
X59286904Y-59296326D01*
X59286904Y-59524897D02*
X58486904Y-59524897D01*
X58601190Y-59448707D01*
X58677380Y-59372516D01*
X58715476Y-59296326D01*
X58486904Y-60248707D02*
X58486904Y-60324897D01*
X58525000Y-60401088D01*
X58563095Y-60439183D01*
X58639285Y-60477278D01*
X58791666Y-60515373D01*
X58982142Y-60515373D01*
X59134523Y-60477278D01*
X59210714Y-60439183D01*
X59248809Y-60401088D01*
X59286904Y-60324897D01*
X59286904Y-60248707D01*
X59248809Y-60172516D01*
X59210714Y-60134421D01*
X59134523Y-60096326D01*
X58982142Y-60058230D01*
X58791666Y-60058230D01*
X58639285Y-60096326D01*
X58563095Y-60134421D01*
X58525000Y-60172516D01*
X58486904Y-60248707D01*
%TO.C,D9*%
X78336904Y-58915373D02*
X77536904Y-58915373D01*
X77536904Y-59105850D01*
X77575000Y-59220135D01*
X77651190Y-59296326D01*
X77727380Y-59334421D01*
X77879761Y-59372516D01*
X77994047Y-59372516D01*
X78146428Y-59334421D01*
X78222619Y-59296326D01*
X78298809Y-59220135D01*
X78336904Y-59105850D01*
X78336904Y-58915373D01*
X78336904Y-59753469D02*
X78336904Y-59905850D01*
X78298809Y-59982040D01*
X78260714Y-60020135D01*
X78146428Y-60096326D01*
X77994047Y-60134421D01*
X77689285Y-60134421D01*
X77613095Y-60096326D01*
X77575000Y-60058230D01*
X77536904Y-59982040D01*
X77536904Y-59829659D01*
X77575000Y-59753469D01*
X77613095Y-59715373D01*
X77689285Y-59677278D01*
X77879761Y-59677278D01*
X77955952Y-59715373D01*
X77994047Y-59753469D01*
X78032142Y-59829659D01*
X78032142Y-59982040D01*
X77994047Y-60058230D01*
X77955952Y-60096326D01*
X77879761Y-60134421D01*
%TO.C,D8*%
X97386904Y-58915373D02*
X96586904Y-58915373D01*
X96586904Y-59105850D01*
X96625000Y-59220135D01*
X96701190Y-59296326D01*
X96777380Y-59334421D01*
X96929761Y-59372516D01*
X97044047Y-59372516D01*
X97196428Y-59334421D01*
X97272619Y-59296326D01*
X97348809Y-59220135D01*
X97386904Y-59105850D01*
X97386904Y-58915373D01*
X96929761Y-59829659D02*
X96891666Y-59753469D01*
X96853571Y-59715373D01*
X96777380Y-59677278D01*
X96739285Y-59677278D01*
X96663095Y-59715373D01*
X96625000Y-59753469D01*
X96586904Y-59829659D01*
X96586904Y-59982040D01*
X96625000Y-60058230D01*
X96663095Y-60096326D01*
X96739285Y-60134421D01*
X96777380Y-60134421D01*
X96853571Y-60096326D01*
X96891666Y-60058230D01*
X96929761Y-59982040D01*
X96929761Y-59829659D01*
X96967857Y-59753469D01*
X97005952Y-59715373D01*
X97082142Y-59677278D01*
X97234523Y-59677278D01*
X97310714Y-59715373D01*
X97348809Y-59753469D01*
X97386904Y-59829659D01*
X97386904Y-59982040D01*
X97348809Y-60058230D01*
X97310714Y-60096326D01*
X97234523Y-60134421D01*
X97082142Y-60134421D01*
X97005952Y-60096326D01*
X96967857Y-60058230D01*
X96929761Y-59982040D01*
%TO.C,D7*%
X116436904Y-58915373D02*
X115636904Y-58915373D01*
X115636904Y-59105850D01*
X115675000Y-59220135D01*
X115751190Y-59296326D01*
X115827380Y-59334421D01*
X115979761Y-59372516D01*
X116094047Y-59372516D01*
X116246428Y-59334421D01*
X116322619Y-59296326D01*
X116398809Y-59220135D01*
X116436904Y-59105850D01*
X116436904Y-58915373D01*
X115636904Y-59639183D02*
X115636904Y-60172516D01*
X116436904Y-59829659D01*
%TO.C,D6*%
X135486904Y-58915373D02*
X134686904Y-58915373D01*
X134686904Y-59105850D01*
X134725000Y-59220135D01*
X134801190Y-59296326D01*
X134877380Y-59334421D01*
X135029761Y-59372516D01*
X135144047Y-59372516D01*
X135296428Y-59334421D01*
X135372619Y-59296326D01*
X135448809Y-59220135D01*
X135486904Y-59105850D01*
X135486904Y-58915373D01*
X134686904Y-60058230D02*
X134686904Y-59905850D01*
X134725000Y-59829659D01*
X134763095Y-59791564D01*
X134877380Y-59715373D01*
X135029761Y-59677278D01*
X135334523Y-59677278D01*
X135410714Y-59715373D01*
X135448809Y-59753469D01*
X135486904Y-59829659D01*
X135486904Y-59982040D01*
X135448809Y-60058230D01*
X135410714Y-60096326D01*
X135334523Y-60134421D01*
X135144047Y-60134421D01*
X135067857Y-60096326D01*
X135029761Y-60058230D01*
X134991666Y-59982040D01*
X134991666Y-59829659D01*
X135029761Y-59753469D01*
X135067857Y-59715373D01*
X135144047Y-59677278D01*
%TO.C,D5*%
X154536904Y-58915373D02*
X153736904Y-58915373D01*
X153736904Y-59105850D01*
X153775000Y-59220135D01*
X153851190Y-59296326D01*
X153927380Y-59334421D01*
X154079761Y-59372516D01*
X154194047Y-59372516D01*
X154346428Y-59334421D01*
X154422619Y-59296326D01*
X154498809Y-59220135D01*
X154536904Y-59105850D01*
X154536904Y-58915373D01*
X153736904Y-60096326D02*
X153736904Y-59715373D01*
X154117857Y-59677278D01*
X154079761Y-59715373D01*
X154041666Y-59791564D01*
X154041666Y-59982040D01*
X154079761Y-60058230D01*
X154117857Y-60096326D01*
X154194047Y-60134421D01*
X154384523Y-60134421D01*
X154460714Y-60096326D01*
X154498809Y-60058230D01*
X154536904Y-59982040D01*
X154536904Y-59791564D01*
X154498809Y-59715373D01*
X154460714Y-59677278D01*
%TO.C,D4*%
X173586904Y-58915373D02*
X172786904Y-58915373D01*
X172786904Y-59105850D01*
X172825000Y-59220135D01*
X172901190Y-59296326D01*
X172977380Y-59334421D01*
X173129761Y-59372516D01*
X173244047Y-59372516D01*
X173396428Y-59334421D01*
X173472619Y-59296326D01*
X173548809Y-59220135D01*
X173586904Y-59105850D01*
X173586904Y-58915373D01*
X173053571Y-60058230D02*
X173586904Y-60058230D01*
X172748809Y-59867754D02*
X173320238Y-59677278D01*
X173320238Y-60172516D01*
%TO.C,D3*%
X192636904Y-58915373D02*
X191836904Y-58915373D01*
X191836904Y-59105850D01*
X191875000Y-59220135D01*
X191951190Y-59296326D01*
X192027380Y-59334421D01*
X192179761Y-59372516D01*
X192294047Y-59372516D01*
X192446428Y-59334421D01*
X192522619Y-59296326D01*
X192598809Y-59220135D01*
X192636904Y-59105850D01*
X192636904Y-58915373D01*
X191836904Y-59639183D02*
X191836904Y-60134421D01*
X192141666Y-59867754D01*
X192141666Y-59982040D01*
X192179761Y-60058230D01*
X192217857Y-60096326D01*
X192294047Y-60134421D01*
X192484523Y-60134421D01*
X192560714Y-60096326D01*
X192598809Y-60058230D01*
X192636904Y-59982040D01*
X192636904Y-59753469D01*
X192598809Y-59677278D01*
X192560714Y-59639183D01*
%TO.C,D2*%
X211686904Y-58915373D02*
X210886904Y-58915373D01*
X210886904Y-59105850D01*
X210925000Y-59220135D01*
X211001190Y-59296326D01*
X211077380Y-59334421D01*
X211229761Y-59372516D01*
X211344047Y-59372516D01*
X211496428Y-59334421D01*
X211572619Y-59296326D01*
X211648809Y-59220135D01*
X211686904Y-59105850D01*
X211686904Y-58915373D01*
X210963095Y-59677278D02*
X210925000Y-59715373D01*
X210886904Y-59791564D01*
X210886904Y-59982040D01*
X210925000Y-60058230D01*
X210963095Y-60096326D01*
X211039285Y-60134421D01*
X211115476Y-60134421D01*
X211229761Y-60096326D01*
X211686904Y-59639183D01*
X211686904Y-60134421D01*
%TO.C,D1*%
X230736904Y-58915373D02*
X229936904Y-58915373D01*
X229936904Y-59105850D01*
X229975000Y-59220135D01*
X230051190Y-59296326D01*
X230127380Y-59334421D01*
X230279761Y-59372516D01*
X230394047Y-59372516D01*
X230546428Y-59334421D01*
X230622619Y-59296326D01*
X230698809Y-59220135D01*
X230736904Y-59105850D01*
X230736904Y-58915373D01*
X230736904Y-60134421D02*
X230736904Y-59677278D01*
X230736904Y-59905850D02*
X229936904Y-59905850D01*
X230051190Y-59829659D01*
X230127380Y-59753469D01*
X230165476Y-59677278D01*
%TO.C,U1*%
X49391904Y-70987651D02*
X49391904Y-71444794D01*
X50191904Y-71216223D02*
X49391904Y-71216223D01*
X49391904Y-71635270D02*
X50191904Y-72168604D01*
X49391904Y-72168604D02*
X50191904Y-71635270D01*
X49391904Y-72625747D02*
X49391904Y-72701937D01*
X49430000Y-72778128D01*
X49468095Y-72816223D01*
X49544285Y-72854318D01*
X49696666Y-72892413D01*
X49887142Y-72892413D01*
X50039523Y-72854318D01*
X50115714Y-72816223D01*
X50153809Y-72778128D01*
X50191904Y-72701937D01*
X50191904Y-72625747D01*
X50153809Y-72549556D01*
X50115714Y-72511461D01*
X50039523Y-72473366D01*
X49887142Y-72435270D01*
X49696666Y-72435270D01*
X49544285Y-72473366D01*
X49468095Y-72511461D01*
X49430000Y-72549556D01*
X49391904Y-72625747D01*
X49353809Y-73806699D02*
X50382380Y-73120985D01*
X50191904Y-74073366D02*
X49391904Y-74073366D01*
X49391904Y-74263842D01*
X49430000Y-74378128D01*
X49506190Y-74454318D01*
X49582380Y-74492413D01*
X49734761Y-74530508D01*
X49849047Y-74530508D01*
X50001428Y-74492413D01*
X50077619Y-74454318D01*
X50153809Y-74378128D01*
X50191904Y-74263842D01*
X50191904Y-74073366D01*
X49391904Y-74797175D02*
X49391904Y-75292413D01*
X49696666Y-75025747D01*
X49696666Y-75140032D01*
X49734761Y-75216223D01*
X49772857Y-75254318D01*
X49849047Y-75292413D01*
X50039523Y-75292413D01*
X50115714Y-75254318D01*
X50153809Y-75216223D01*
X50191904Y-75140032D01*
X50191904Y-74911461D01*
X50153809Y-74835270D01*
X50115714Y-74797175D01*
X52731904Y-70698523D02*
X51931904Y-70698523D01*
X51931904Y-70889000D01*
X51970000Y-71003285D01*
X52046190Y-71079476D01*
X52122380Y-71117571D01*
X52274761Y-71155666D01*
X52389047Y-71155666D01*
X52541428Y-71117571D01*
X52617619Y-71079476D01*
X52693809Y-71003285D01*
X52731904Y-70889000D01*
X52731904Y-70698523D01*
X52008095Y-71460428D02*
X51970000Y-71498523D01*
X51931904Y-71574714D01*
X51931904Y-71765190D01*
X51970000Y-71841380D01*
X52008095Y-71879476D01*
X52084285Y-71917571D01*
X52160476Y-71917571D01*
X52274761Y-71879476D01*
X52731904Y-71422333D01*
X52731904Y-71917571D01*
X62891904Y-70698523D02*
X62091904Y-70698523D01*
X62091904Y-70889000D01*
X62130000Y-71003285D01*
X62206190Y-71079476D01*
X62282380Y-71117571D01*
X62434761Y-71155666D01*
X62549047Y-71155666D01*
X62701428Y-71117571D01*
X62777619Y-71079476D01*
X62853809Y-71003285D01*
X62891904Y-70889000D01*
X62891904Y-70698523D01*
X62091904Y-71650904D02*
X62091904Y-71727095D01*
X62130000Y-71803285D01*
X62168095Y-71841380D01*
X62244285Y-71879476D01*
X62396666Y-71917571D01*
X62587142Y-71917571D01*
X62739523Y-71879476D01*
X62815714Y-71841380D01*
X62853809Y-71803285D01*
X62891904Y-71727095D01*
X62891904Y-71650904D01*
X62853809Y-71574714D01*
X62815714Y-71536619D01*
X62739523Y-71498523D01*
X62587142Y-71460428D01*
X62396666Y-71460428D01*
X62244285Y-71498523D01*
X62168095Y-71536619D01*
X62130000Y-71574714D01*
X62091904Y-71650904D01*
X60351904Y-70698523D02*
X59551904Y-70698523D01*
X59551904Y-70889000D01*
X59590000Y-71003285D01*
X59666190Y-71079476D01*
X59742380Y-71117571D01*
X59894761Y-71155666D01*
X60009047Y-71155666D01*
X60161428Y-71117571D01*
X60237619Y-71079476D01*
X60313809Y-71003285D01*
X60351904Y-70889000D01*
X60351904Y-70698523D01*
X60351904Y-71917571D02*
X60351904Y-71460428D01*
X60351904Y-71689000D02*
X59551904Y-71689000D01*
X59666190Y-71612809D01*
X59742380Y-71536619D01*
X59780476Y-71460428D01*
X57050000Y-70679476D02*
X57011904Y-70603285D01*
X57011904Y-70489000D01*
X57050000Y-70374714D01*
X57126190Y-70298523D01*
X57202380Y-70260428D01*
X57354761Y-70222333D01*
X57469047Y-70222333D01*
X57621428Y-70260428D01*
X57697619Y-70298523D01*
X57773809Y-70374714D01*
X57811904Y-70489000D01*
X57811904Y-70565190D01*
X57773809Y-70679476D01*
X57735714Y-70717571D01*
X57469047Y-70717571D01*
X57469047Y-70565190D01*
X57811904Y-71060428D02*
X57011904Y-71060428D01*
X57811904Y-71517571D01*
X57011904Y-71517571D01*
X57811904Y-71898523D02*
X57011904Y-71898523D01*
X57011904Y-72089000D01*
X57050000Y-72203285D01*
X57126190Y-72279476D01*
X57202380Y-72317571D01*
X57354761Y-72355666D01*
X57469047Y-72355666D01*
X57621428Y-72317571D01*
X57697619Y-72279476D01*
X57773809Y-72203285D01*
X57811904Y-72089000D01*
X57811904Y-71898523D01*
X54510000Y-70679476D02*
X54471904Y-70603285D01*
X54471904Y-70489000D01*
X54510000Y-70374714D01*
X54586190Y-70298523D01*
X54662380Y-70260428D01*
X54814761Y-70222333D01*
X54929047Y-70222333D01*
X55081428Y-70260428D01*
X55157619Y-70298523D01*
X55233809Y-70374714D01*
X55271904Y-70489000D01*
X55271904Y-70565190D01*
X55233809Y-70679476D01*
X55195714Y-70717571D01*
X54929047Y-70717571D01*
X54929047Y-70565190D01*
X55271904Y-71060428D02*
X54471904Y-71060428D01*
X55271904Y-71517571D01*
X54471904Y-71517571D01*
X55271904Y-71898523D02*
X54471904Y-71898523D01*
X54471904Y-72089000D01*
X54510000Y-72203285D01*
X54586190Y-72279476D01*
X54662380Y-72317571D01*
X54814761Y-72355666D01*
X54929047Y-72355666D01*
X55081428Y-72317571D01*
X55157619Y-72279476D01*
X55233809Y-72203285D01*
X55271904Y-72089000D01*
X55271904Y-71898523D01*
X65431904Y-70698523D02*
X64631904Y-70698523D01*
X64631904Y-70889000D01*
X64670000Y-71003285D01*
X64746190Y-71079476D01*
X64822380Y-71117571D01*
X64974761Y-71155666D01*
X65089047Y-71155666D01*
X65241428Y-71117571D01*
X65317619Y-71079476D01*
X65393809Y-71003285D01*
X65431904Y-70889000D01*
X65431904Y-70698523D01*
X64898571Y-71841380D02*
X65431904Y-71841380D01*
X64593809Y-71650904D02*
X65165238Y-71460428D01*
X65165238Y-71955666D01*
X67895714Y-71155666D02*
X67933809Y-71117571D01*
X67971904Y-71003285D01*
X67971904Y-70927095D01*
X67933809Y-70812809D01*
X67857619Y-70736619D01*
X67781428Y-70698523D01*
X67629047Y-70660428D01*
X67514761Y-70660428D01*
X67362380Y-70698523D01*
X67286190Y-70736619D01*
X67210000Y-70812809D01*
X67171904Y-70927095D01*
X67171904Y-71003285D01*
X67210000Y-71117571D01*
X67248095Y-71155666D01*
X67171904Y-71841380D02*
X67171904Y-71689000D01*
X67210000Y-71612809D01*
X67248095Y-71574714D01*
X67362380Y-71498523D01*
X67514761Y-71460428D01*
X67819523Y-71460428D01*
X67895714Y-71498523D01*
X67933809Y-71536619D01*
X67971904Y-71612809D01*
X67971904Y-71765190D01*
X67933809Y-71841380D01*
X67895714Y-71879476D01*
X67819523Y-71917571D01*
X67629047Y-71917571D01*
X67552857Y-71879476D01*
X67514761Y-71841380D01*
X67476666Y-71765190D01*
X67476666Y-71612809D01*
X67514761Y-71536619D01*
X67552857Y-71498523D01*
X67629047Y-71460428D01*
X70511904Y-70698523D02*
X69711904Y-70698523D01*
X69711904Y-70889000D01*
X69750000Y-71003285D01*
X69826190Y-71079476D01*
X69902380Y-71117571D01*
X70054761Y-71155666D01*
X70169047Y-71155666D01*
X70321428Y-71117571D01*
X70397619Y-71079476D01*
X70473809Y-71003285D01*
X70511904Y-70889000D01*
X70511904Y-70698523D01*
X69711904Y-71422333D02*
X69711904Y-71955666D01*
X70511904Y-71612809D01*
X72632857Y-70736619D02*
X72632857Y-71003285D01*
X73051904Y-71117571D02*
X73051904Y-70736619D01*
X72251904Y-70736619D01*
X72251904Y-71117571D01*
X72251904Y-71803285D02*
X72251904Y-71650904D01*
X72290000Y-71574714D01*
X72328095Y-71536619D01*
X72442380Y-71460428D01*
X72594761Y-71422333D01*
X72899523Y-71422333D01*
X72975714Y-71460428D01*
X73013809Y-71498523D01*
X73051904Y-71574714D01*
X73051904Y-71727095D01*
X73013809Y-71803285D01*
X72975714Y-71841380D01*
X72899523Y-71879476D01*
X72709047Y-71879476D01*
X72632857Y-71841380D01*
X72594761Y-71803285D01*
X72556666Y-71727095D01*
X72556666Y-71574714D01*
X72594761Y-71498523D01*
X72632857Y-71460428D01*
X72709047Y-71422333D01*
X75172857Y-70965190D02*
X75210952Y-71079476D01*
X75249047Y-71117571D01*
X75325238Y-71155666D01*
X75439523Y-71155666D01*
X75515714Y-71117571D01*
X75553809Y-71079476D01*
X75591904Y-71003285D01*
X75591904Y-70698523D01*
X74791904Y-70698523D01*
X74791904Y-70965190D01*
X74830000Y-71041380D01*
X74868095Y-71079476D01*
X74944285Y-71117571D01*
X75020476Y-71117571D01*
X75096666Y-71079476D01*
X75134761Y-71041380D01*
X75172857Y-70965190D01*
X75172857Y-70698523D01*
X75058571Y-71841380D02*
X75591904Y-71841380D01*
X74753809Y-71650904D02*
X75325238Y-71460428D01*
X75325238Y-71955666D01*
X77712857Y-70965190D02*
X77750952Y-71079476D01*
X77789047Y-71117571D01*
X77865238Y-71155666D01*
X77979523Y-71155666D01*
X78055714Y-71117571D01*
X78093809Y-71079476D01*
X78131904Y-71003285D01*
X78131904Y-70698523D01*
X77331904Y-70698523D01*
X77331904Y-70965190D01*
X77370000Y-71041380D01*
X77408095Y-71079476D01*
X77484285Y-71117571D01*
X77560476Y-71117571D01*
X77636666Y-71079476D01*
X77674761Y-71041380D01*
X77712857Y-70965190D01*
X77712857Y-70698523D01*
X77331904Y-71879476D02*
X77331904Y-71498523D01*
X77712857Y-71460428D01*
X77674761Y-71498523D01*
X77636666Y-71574714D01*
X77636666Y-71765190D01*
X77674761Y-71841380D01*
X77712857Y-71879476D01*
X77789047Y-71917571D01*
X77979523Y-71917571D01*
X78055714Y-71879476D01*
X78093809Y-71841380D01*
X78131904Y-71765190D01*
X78131904Y-71574714D01*
X78093809Y-71498523D01*
X78055714Y-71460428D01*
X77712857Y-81887190D02*
X77750952Y-82001476D01*
X77789047Y-82039571D01*
X77865238Y-82077666D01*
X77979523Y-82077666D01*
X78055714Y-82039571D01*
X78093809Y-82001476D01*
X78131904Y-81925285D01*
X78131904Y-81620523D01*
X77331904Y-81620523D01*
X77331904Y-81887190D01*
X77370000Y-81963380D01*
X77408095Y-82001476D01*
X77484285Y-82039571D01*
X77560476Y-82039571D01*
X77636666Y-82001476D01*
X77674761Y-81963380D01*
X77712857Y-81887190D01*
X77712857Y-81620523D01*
X77331904Y-82763380D02*
X77331904Y-82611000D01*
X77370000Y-82534809D01*
X77408095Y-82496714D01*
X77522380Y-82420523D01*
X77674761Y-82382428D01*
X77979523Y-82382428D01*
X78055714Y-82420523D01*
X78093809Y-82458619D01*
X78131904Y-82534809D01*
X78131904Y-82687190D01*
X78093809Y-82763380D01*
X78055714Y-82801476D01*
X77979523Y-82839571D01*
X77789047Y-82839571D01*
X77712857Y-82801476D01*
X77674761Y-82763380D01*
X77636666Y-82687190D01*
X77636666Y-82534809D01*
X77674761Y-82458619D01*
X77712857Y-82420523D01*
X77789047Y-82382428D01*
X72632857Y-81887190D02*
X72670952Y-82001476D01*
X72709047Y-82039571D01*
X72785238Y-82077666D01*
X72899523Y-82077666D01*
X72975714Y-82039571D01*
X73013809Y-82001476D01*
X73051904Y-81925285D01*
X73051904Y-81620523D01*
X72251904Y-81620523D01*
X72251904Y-81887190D01*
X72290000Y-81963380D01*
X72328095Y-82001476D01*
X72404285Y-82039571D01*
X72480476Y-82039571D01*
X72556666Y-82001476D01*
X72594761Y-81963380D01*
X72632857Y-81887190D01*
X72632857Y-81620523D01*
X72251904Y-82344333D02*
X72251904Y-82839571D01*
X72556666Y-82572904D01*
X72556666Y-82687190D01*
X72594761Y-82763380D01*
X72632857Y-82801476D01*
X72709047Y-82839571D01*
X72899523Y-82839571D01*
X72975714Y-82801476D01*
X73013809Y-82763380D01*
X73051904Y-82687190D01*
X73051904Y-82458619D01*
X73013809Y-82382428D01*
X72975714Y-82344333D01*
X70092857Y-81887190D02*
X70130952Y-82001476D01*
X70169047Y-82039571D01*
X70245238Y-82077666D01*
X70359523Y-82077666D01*
X70435714Y-82039571D01*
X70473809Y-82001476D01*
X70511904Y-81925285D01*
X70511904Y-81620523D01*
X69711904Y-81620523D01*
X69711904Y-81887190D01*
X69750000Y-81963380D01*
X69788095Y-82001476D01*
X69864285Y-82039571D01*
X69940476Y-82039571D01*
X70016666Y-82001476D01*
X70054761Y-81963380D01*
X70092857Y-81887190D01*
X70092857Y-81620523D01*
X70511904Y-82839571D02*
X70511904Y-82382428D01*
X70511904Y-82611000D02*
X69711904Y-82611000D01*
X69826190Y-82534809D01*
X69902380Y-82458619D01*
X69940476Y-82382428D01*
X59932857Y-81944333D02*
X59932857Y-81677666D01*
X60351904Y-81677666D02*
X59551904Y-81677666D01*
X59551904Y-82058619D01*
X59818571Y-82706238D02*
X60351904Y-82706238D01*
X59513809Y-82515761D02*
X60085238Y-82325285D01*
X60085238Y-82820523D01*
X57011904Y-81144333D02*
X57811904Y-81411000D01*
X57011904Y-81677666D01*
X57735714Y-82401476D02*
X57773809Y-82363380D01*
X57811904Y-82249095D01*
X57811904Y-82172904D01*
X57773809Y-82058619D01*
X57697619Y-81982428D01*
X57621428Y-81944333D01*
X57469047Y-81906238D01*
X57354761Y-81906238D01*
X57202380Y-81944333D01*
X57126190Y-81982428D01*
X57050000Y-82058619D01*
X57011904Y-82172904D01*
X57011904Y-82249095D01*
X57050000Y-82363380D01*
X57088095Y-82401476D01*
X57735714Y-83201476D02*
X57773809Y-83163380D01*
X57811904Y-83049095D01*
X57811904Y-82972904D01*
X57773809Y-82858619D01*
X57697619Y-82782428D01*
X57621428Y-82744333D01*
X57469047Y-82706238D01*
X57354761Y-82706238D01*
X57202380Y-82744333D01*
X57126190Y-82782428D01*
X57050000Y-82858619D01*
X57011904Y-82972904D01*
X57011904Y-83049095D01*
X57050000Y-83163380D01*
X57088095Y-83201476D01*
X55203809Y-81949786D02*
X55241904Y-82064072D01*
X55241904Y-82254548D01*
X55203809Y-82330739D01*
X55165714Y-82368834D01*
X55089523Y-82406929D01*
X55013333Y-82406929D01*
X54937142Y-82368834D01*
X54899047Y-82330739D01*
X54860952Y-82254548D01*
X54822857Y-82102167D01*
X54784761Y-82025977D01*
X54746666Y-81987881D01*
X54670476Y-81949786D01*
X54594285Y-81949786D01*
X54518095Y-81987881D01*
X54480000Y-82025977D01*
X54441904Y-82102167D01*
X54441904Y-82292643D01*
X54480000Y-82406929D01*
X54441904Y-82635500D02*
X54441904Y-83092643D01*
X55241904Y-82864072D02*
X54441904Y-82864072D01*
X51970000Y-81601476D02*
X51931904Y-81525285D01*
X51931904Y-81411000D01*
X51970000Y-81296714D01*
X52046190Y-81220523D01*
X52122380Y-81182428D01*
X52274761Y-81144333D01*
X52389047Y-81144333D01*
X52541428Y-81182428D01*
X52617619Y-81220523D01*
X52693809Y-81296714D01*
X52731904Y-81411000D01*
X52731904Y-81487190D01*
X52693809Y-81601476D01*
X52655714Y-81639571D01*
X52389047Y-81639571D01*
X52389047Y-81487190D01*
X52731904Y-81982428D02*
X51931904Y-81982428D01*
X52731904Y-82439571D01*
X51931904Y-82439571D01*
X52731904Y-82820523D02*
X51931904Y-82820523D01*
X51931904Y-83011000D01*
X51970000Y-83125285D01*
X52046190Y-83201476D01*
X52122380Y-83239571D01*
X52274761Y-83277666D01*
X52389047Y-83277666D01*
X52541428Y-83239571D01*
X52617619Y-83201476D01*
X52693809Y-83125285D01*
X52731904Y-83011000D01*
X52731904Y-82820523D01*
X50191904Y-81658619D02*
X49810952Y-81391952D01*
X50191904Y-81201476D02*
X49391904Y-81201476D01*
X49391904Y-81506238D01*
X49430000Y-81582428D01*
X49468095Y-81620523D01*
X49544285Y-81658619D01*
X49658571Y-81658619D01*
X49734761Y-81620523D01*
X49772857Y-81582428D01*
X49810952Y-81506238D01*
X49810952Y-81201476D01*
X49963333Y-81963380D02*
X49963333Y-82344333D01*
X50191904Y-81887190D02*
X49391904Y-82153857D01*
X50191904Y-82420523D01*
X49391904Y-82611000D02*
X50191904Y-82801476D01*
X49620476Y-82953857D01*
X50191904Y-83106238D01*
X49391904Y-83296714D01*
X62477857Y-81943333D02*
X62477857Y-81676666D01*
X62896904Y-81676666D02*
X62096904Y-81676666D01*
X62096904Y-82057619D01*
X62096904Y-82743333D02*
X62096904Y-82362380D01*
X62477857Y-82324285D01*
X62439761Y-82362380D01*
X62401666Y-82438571D01*
X62401666Y-82629047D01*
X62439761Y-82705238D01*
X62477857Y-82743333D01*
X62554047Y-82781428D01*
X62744523Y-82781428D01*
X62820714Y-82743333D01*
X62858809Y-82705238D01*
X62896904Y-82629047D01*
X62896904Y-82438571D01*
X62858809Y-82362380D01*
X62820714Y-82324285D01*
X65012857Y-81944333D02*
X65012857Y-81677666D01*
X65431904Y-81677666D02*
X64631904Y-81677666D01*
X64631904Y-82058619D01*
X64631904Y-82706238D02*
X64631904Y-82553857D01*
X64670000Y-82477666D01*
X64708095Y-82439571D01*
X64822380Y-82363380D01*
X64974761Y-82325285D01*
X65279523Y-82325285D01*
X65355714Y-82363380D01*
X65393809Y-82401476D01*
X65431904Y-82477666D01*
X65431904Y-82630047D01*
X65393809Y-82706238D01*
X65355714Y-82744333D01*
X65279523Y-82782428D01*
X65089047Y-82782428D01*
X65012857Y-82744333D01*
X64974761Y-82706238D01*
X64936666Y-82630047D01*
X64936666Y-82477666D01*
X64974761Y-82401476D01*
X65012857Y-82363380D01*
X65089047Y-82325285D01*
X67552857Y-81944333D02*
X67552857Y-81677666D01*
X67971904Y-81677666D02*
X67171904Y-81677666D01*
X67171904Y-82058619D01*
X67171904Y-82287190D02*
X67171904Y-82820523D01*
X67971904Y-82477666D01*
X75172857Y-81887190D02*
X75210952Y-82001476D01*
X75249047Y-82039571D01*
X75325238Y-82077666D01*
X75439523Y-82077666D01*
X75515714Y-82039571D01*
X75553809Y-82001476D01*
X75591904Y-81925285D01*
X75591904Y-81620523D01*
X74791904Y-81620523D01*
X74791904Y-81887190D01*
X74830000Y-81963380D01*
X74868095Y-82001476D01*
X74944285Y-82039571D01*
X75020476Y-82039571D01*
X75096666Y-82001476D01*
X75134761Y-81963380D01*
X75172857Y-81887190D01*
X75172857Y-81620523D01*
X74868095Y-82382428D02*
X74830000Y-82420523D01*
X74791904Y-82496714D01*
X74791904Y-82687190D01*
X74830000Y-82763380D01*
X74868095Y-82801476D01*
X74944285Y-82839571D01*
X75020476Y-82839571D01*
X75134761Y-82801476D01*
X75591904Y-82344333D01*
X75591904Y-82839571D01*
%TO.C,SW43*%
X139922023Y-123753511D02*
X139779166Y-123801130D01*
X139541071Y-123801130D01*
X139445833Y-123753511D01*
X139398214Y-123705892D01*
X139350595Y-123610654D01*
X139350595Y-123515416D01*
X139398214Y-123420178D01*
X139445833Y-123372559D01*
X139541071Y-123324940D01*
X139731547Y-123277321D01*
X139826785Y-123229702D01*
X139874404Y-123182083D01*
X139922023Y-123086845D01*
X139922023Y-122991607D01*
X139874404Y-122896369D01*
X139826785Y-122848750D01*
X139731547Y-122801130D01*
X139493452Y-122801130D01*
X139350595Y-122848750D01*
X139017261Y-122801130D02*
X138779166Y-123801130D01*
X138588690Y-123086845D01*
X138398214Y-123801130D01*
X138160119Y-122801130D01*
X137350595Y-123134464D02*
X137350595Y-123801130D01*
X137588690Y-122753511D02*
X137826785Y-123467797D01*
X137207738Y-123467797D01*
X136922023Y-122801130D02*
X136302976Y-122801130D01*
X136636309Y-123182083D01*
X136493452Y-123182083D01*
X136398214Y-123229702D01*
X136350595Y-123277321D01*
X136302976Y-123372559D01*
X136302976Y-123610654D01*
X136350595Y-123705892D01*
X136398214Y-123753511D01*
X136493452Y-123801130D01*
X136779166Y-123801130D01*
X136874404Y-123753511D01*
X136922023Y-123705892D01*
%TO.C,SW42*%
X120872023Y-123753511D02*
X120729166Y-123801130D01*
X120491071Y-123801130D01*
X120395833Y-123753511D01*
X120348214Y-123705892D01*
X120300595Y-123610654D01*
X120300595Y-123515416D01*
X120348214Y-123420178D01*
X120395833Y-123372559D01*
X120491071Y-123324940D01*
X120681547Y-123277321D01*
X120776785Y-123229702D01*
X120824404Y-123182083D01*
X120872023Y-123086845D01*
X120872023Y-122991607D01*
X120824404Y-122896369D01*
X120776785Y-122848750D01*
X120681547Y-122801130D01*
X120443452Y-122801130D01*
X120300595Y-122848750D01*
X119967261Y-122801130D02*
X119729166Y-123801130D01*
X119538690Y-123086845D01*
X119348214Y-123801130D01*
X119110119Y-122801130D01*
X118300595Y-123134464D02*
X118300595Y-123801130D01*
X118538690Y-122753511D02*
X118776785Y-123467797D01*
X118157738Y-123467797D01*
X117824404Y-122896369D02*
X117776785Y-122848750D01*
X117681547Y-122801130D01*
X117443452Y-122801130D01*
X117348214Y-122848750D01*
X117300595Y-122896369D01*
X117252976Y-122991607D01*
X117252976Y-123086845D01*
X117300595Y-123229702D01*
X117872023Y-123801130D01*
X117252976Y-123801130D01*
%TO.C,SW41*%
X158972023Y-123753511D02*
X158829166Y-123801130D01*
X158591071Y-123801130D01*
X158495833Y-123753511D01*
X158448214Y-123705892D01*
X158400595Y-123610654D01*
X158400595Y-123515416D01*
X158448214Y-123420178D01*
X158495833Y-123372559D01*
X158591071Y-123324940D01*
X158781547Y-123277321D01*
X158876785Y-123229702D01*
X158924404Y-123182083D01*
X158972023Y-123086845D01*
X158972023Y-122991607D01*
X158924404Y-122896369D01*
X158876785Y-122848750D01*
X158781547Y-122801130D01*
X158543452Y-122801130D01*
X158400595Y-122848750D01*
X158067261Y-122801130D02*
X157829166Y-123801130D01*
X157638690Y-123086845D01*
X157448214Y-123801130D01*
X157210119Y-122801130D01*
X156400595Y-123134464D02*
X156400595Y-123801130D01*
X156638690Y-122753511D02*
X156876785Y-123467797D01*
X156257738Y-123467797D01*
X155352976Y-123801130D02*
X155924404Y-123801130D01*
X155638690Y-123801130D02*
X155638690Y-122801130D01*
X155733928Y-122943988D01*
X155829166Y-123039226D01*
X155924404Y-123086845D01*
%TO.C,SW40*%
X54197023Y-107243511D02*
X54054166Y-107291130D01*
X53816071Y-107291130D01*
X53720833Y-107243511D01*
X53673214Y-107195892D01*
X53625595Y-107100654D01*
X53625595Y-107005416D01*
X53673214Y-106910178D01*
X53720833Y-106862559D01*
X53816071Y-106814940D01*
X54006547Y-106767321D01*
X54101785Y-106719702D01*
X54149404Y-106672083D01*
X54197023Y-106576845D01*
X54197023Y-106481607D01*
X54149404Y-106386369D01*
X54101785Y-106338750D01*
X54006547Y-106291130D01*
X53768452Y-106291130D01*
X53625595Y-106338750D01*
X53292261Y-106291130D02*
X53054166Y-107291130D01*
X52863690Y-106576845D01*
X52673214Y-107291130D01*
X52435119Y-106291130D01*
X51625595Y-106624464D02*
X51625595Y-107291130D01*
X51863690Y-106243511D02*
X52101785Y-106957797D01*
X51482738Y-106957797D01*
X50911309Y-106291130D02*
X50816071Y-106291130D01*
X50720833Y-106338750D01*
X50673214Y-106386369D01*
X50625595Y-106481607D01*
X50577976Y-106672083D01*
X50577976Y-106910178D01*
X50625595Y-107100654D01*
X50673214Y-107195892D01*
X50720833Y-107243511D01*
X50816071Y-107291130D01*
X50911309Y-107291130D01*
X51006547Y-107243511D01*
X51054166Y-107195892D01*
X51101785Y-107100654D01*
X51149404Y-106910178D01*
X51149404Y-106672083D01*
X51101785Y-106481607D01*
X51054166Y-106386369D01*
X51006547Y-106338750D01*
X50911309Y-106291130D01*
%TO.C,SW39*%
X73247023Y-107243511D02*
X73104166Y-107291130D01*
X72866071Y-107291130D01*
X72770833Y-107243511D01*
X72723214Y-107195892D01*
X72675595Y-107100654D01*
X72675595Y-107005416D01*
X72723214Y-106910178D01*
X72770833Y-106862559D01*
X72866071Y-106814940D01*
X73056547Y-106767321D01*
X73151785Y-106719702D01*
X73199404Y-106672083D01*
X73247023Y-106576845D01*
X73247023Y-106481607D01*
X73199404Y-106386369D01*
X73151785Y-106338750D01*
X73056547Y-106291130D01*
X72818452Y-106291130D01*
X72675595Y-106338750D01*
X72342261Y-106291130D02*
X72104166Y-107291130D01*
X71913690Y-106576845D01*
X71723214Y-107291130D01*
X71485119Y-106291130D01*
X71199404Y-106291130D02*
X70580357Y-106291130D01*
X70913690Y-106672083D01*
X70770833Y-106672083D01*
X70675595Y-106719702D01*
X70627976Y-106767321D01*
X70580357Y-106862559D01*
X70580357Y-107100654D01*
X70627976Y-107195892D01*
X70675595Y-107243511D01*
X70770833Y-107291130D01*
X71056547Y-107291130D01*
X71151785Y-107243511D01*
X71199404Y-107195892D01*
X70104166Y-107291130D02*
X69913690Y-107291130D01*
X69818452Y-107243511D01*
X69770833Y-107195892D01*
X69675595Y-107053035D01*
X69627976Y-106862559D01*
X69627976Y-106481607D01*
X69675595Y-106386369D01*
X69723214Y-106338750D01*
X69818452Y-106291130D01*
X70008928Y-106291130D01*
X70104166Y-106338750D01*
X70151785Y-106386369D01*
X70199404Y-106481607D01*
X70199404Y-106719702D01*
X70151785Y-106814940D01*
X70104166Y-106862559D01*
X70008928Y-106910178D01*
X69818452Y-106910178D01*
X69723214Y-106862559D01*
X69675595Y-106814940D01*
X69627976Y-106719702D01*
%TO.C,SW38*%
X92297023Y-107243511D02*
X92154166Y-107291130D01*
X91916071Y-107291130D01*
X91820833Y-107243511D01*
X91773214Y-107195892D01*
X91725595Y-107100654D01*
X91725595Y-107005416D01*
X91773214Y-106910178D01*
X91820833Y-106862559D01*
X91916071Y-106814940D01*
X92106547Y-106767321D01*
X92201785Y-106719702D01*
X92249404Y-106672083D01*
X92297023Y-106576845D01*
X92297023Y-106481607D01*
X92249404Y-106386369D01*
X92201785Y-106338750D01*
X92106547Y-106291130D01*
X91868452Y-106291130D01*
X91725595Y-106338750D01*
X91392261Y-106291130D02*
X91154166Y-107291130D01*
X90963690Y-106576845D01*
X90773214Y-107291130D01*
X90535119Y-106291130D01*
X90249404Y-106291130D02*
X89630357Y-106291130D01*
X89963690Y-106672083D01*
X89820833Y-106672083D01*
X89725595Y-106719702D01*
X89677976Y-106767321D01*
X89630357Y-106862559D01*
X89630357Y-107100654D01*
X89677976Y-107195892D01*
X89725595Y-107243511D01*
X89820833Y-107291130D01*
X90106547Y-107291130D01*
X90201785Y-107243511D01*
X90249404Y-107195892D01*
X89058928Y-106719702D02*
X89154166Y-106672083D01*
X89201785Y-106624464D01*
X89249404Y-106529226D01*
X89249404Y-106481607D01*
X89201785Y-106386369D01*
X89154166Y-106338750D01*
X89058928Y-106291130D01*
X88868452Y-106291130D01*
X88773214Y-106338750D01*
X88725595Y-106386369D01*
X88677976Y-106481607D01*
X88677976Y-106529226D01*
X88725595Y-106624464D01*
X88773214Y-106672083D01*
X88868452Y-106719702D01*
X89058928Y-106719702D01*
X89154166Y-106767321D01*
X89201785Y-106814940D01*
X89249404Y-106910178D01*
X89249404Y-107100654D01*
X89201785Y-107195892D01*
X89154166Y-107243511D01*
X89058928Y-107291130D01*
X88868452Y-107291130D01*
X88773214Y-107243511D01*
X88725595Y-107195892D01*
X88677976Y-107100654D01*
X88677976Y-106910178D01*
X88725595Y-106814940D01*
X88773214Y-106767321D01*
X88868452Y-106719702D01*
%TO.C,SW37*%
X111347023Y-107243511D02*
X111204166Y-107291130D01*
X110966071Y-107291130D01*
X110870833Y-107243511D01*
X110823214Y-107195892D01*
X110775595Y-107100654D01*
X110775595Y-107005416D01*
X110823214Y-106910178D01*
X110870833Y-106862559D01*
X110966071Y-106814940D01*
X111156547Y-106767321D01*
X111251785Y-106719702D01*
X111299404Y-106672083D01*
X111347023Y-106576845D01*
X111347023Y-106481607D01*
X111299404Y-106386369D01*
X111251785Y-106338750D01*
X111156547Y-106291130D01*
X110918452Y-106291130D01*
X110775595Y-106338750D01*
X110442261Y-106291130D02*
X110204166Y-107291130D01*
X110013690Y-106576845D01*
X109823214Y-107291130D01*
X109585119Y-106291130D01*
X109299404Y-106291130D02*
X108680357Y-106291130D01*
X109013690Y-106672083D01*
X108870833Y-106672083D01*
X108775595Y-106719702D01*
X108727976Y-106767321D01*
X108680357Y-106862559D01*
X108680357Y-107100654D01*
X108727976Y-107195892D01*
X108775595Y-107243511D01*
X108870833Y-107291130D01*
X109156547Y-107291130D01*
X109251785Y-107243511D01*
X109299404Y-107195892D01*
X108347023Y-106291130D02*
X107680357Y-106291130D01*
X108108928Y-107291130D01*
%TO.C,SW36*%
X130397023Y-107243511D02*
X130254166Y-107291130D01*
X130016071Y-107291130D01*
X129920833Y-107243511D01*
X129873214Y-107195892D01*
X129825595Y-107100654D01*
X129825595Y-107005416D01*
X129873214Y-106910178D01*
X129920833Y-106862559D01*
X130016071Y-106814940D01*
X130206547Y-106767321D01*
X130301785Y-106719702D01*
X130349404Y-106672083D01*
X130397023Y-106576845D01*
X130397023Y-106481607D01*
X130349404Y-106386369D01*
X130301785Y-106338750D01*
X130206547Y-106291130D01*
X129968452Y-106291130D01*
X129825595Y-106338750D01*
X129492261Y-106291130D02*
X129254166Y-107291130D01*
X129063690Y-106576845D01*
X128873214Y-107291130D01*
X128635119Y-106291130D01*
X128349404Y-106291130D02*
X127730357Y-106291130D01*
X128063690Y-106672083D01*
X127920833Y-106672083D01*
X127825595Y-106719702D01*
X127777976Y-106767321D01*
X127730357Y-106862559D01*
X127730357Y-107100654D01*
X127777976Y-107195892D01*
X127825595Y-107243511D01*
X127920833Y-107291130D01*
X128206547Y-107291130D01*
X128301785Y-107243511D01*
X128349404Y-107195892D01*
X126873214Y-106291130D02*
X127063690Y-106291130D01*
X127158928Y-106338750D01*
X127206547Y-106386369D01*
X127301785Y-106529226D01*
X127349404Y-106719702D01*
X127349404Y-107100654D01*
X127301785Y-107195892D01*
X127254166Y-107243511D01*
X127158928Y-107291130D01*
X126968452Y-107291130D01*
X126873214Y-107243511D01*
X126825595Y-107195892D01*
X126777976Y-107100654D01*
X126777976Y-106862559D01*
X126825595Y-106767321D01*
X126873214Y-106719702D01*
X126968452Y-106672083D01*
X127158928Y-106672083D01*
X127254166Y-106719702D01*
X127301785Y-106767321D01*
X127349404Y-106862559D01*
%TO.C,SW35*%
X149447023Y-107243511D02*
X149304166Y-107291130D01*
X149066071Y-107291130D01*
X148970833Y-107243511D01*
X148923214Y-107195892D01*
X148875595Y-107100654D01*
X148875595Y-107005416D01*
X148923214Y-106910178D01*
X148970833Y-106862559D01*
X149066071Y-106814940D01*
X149256547Y-106767321D01*
X149351785Y-106719702D01*
X149399404Y-106672083D01*
X149447023Y-106576845D01*
X149447023Y-106481607D01*
X149399404Y-106386369D01*
X149351785Y-106338750D01*
X149256547Y-106291130D01*
X149018452Y-106291130D01*
X148875595Y-106338750D01*
X148542261Y-106291130D02*
X148304166Y-107291130D01*
X148113690Y-106576845D01*
X147923214Y-107291130D01*
X147685119Y-106291130D01*
X147399404Y-106291130D02*
X146780357Y-106291130D01*
X147113690Y-106672083D01*
X146970833Y-106672083D01*
X146875595Y-106719702D01*
X146827976Y-106767321D01*
X146780357Y-106862559D01*
X146780357Y-107100654D01*
X146827976Y-107195892D01*
X146875595Y-107243511D01*
X146970833Y-107291130D01*
X147256547Y-107291130D01*
X147351785Y-107243511D01*
X147399404Y-107195892D01*
X145875595Y-106291130D02*
X146351785Y-106291130D01*
X146399404Y-106767321D01*
X146351785Y-106719702D01*
X146256547Y-106672083D01*
X146018452Y-106672083D01*
X145923214Y-106719702D01*
X145875595Y-106767321D01*
X145827976Y-106862559D01*
X145827976Y-107100654D01*
X145875595Y-107195892D01*
X145923214Y-107243511D01*
X146018452Y-107291130D01*
X146256547Y-107291130D01*
X146351785Y-107243511D01*
X146399404Y-107195892D01*
%TO.C,SW34*%
X168497023Y-107243511D02*
X168354166Y-107291130D01*
X168116071Y-107291130D01*
X168020833Y-107243511D01*
X167973214Y-107195892D01*
X167925595Y-107100654D01*
X167925595Y-107005416D01*
X167973214Y-106910178D01*
X168020833Y-106862559D01*
X168116071Y-106814940D01*
X168306547Y-106767321D01*
X168401785Y-106719702D01*
X168449404Y-106672083D01*
X168497023Y-106576845D01*
X168497023Y-106481607D01*
X168449404Y-106386369D01*
X168401785Y-106338750D01*
X168306547Y-106291130D01*
X168068452Y-106291130D01*
X167925595Y-106338750D01*
X167592261Y-106291130D02*
X167354166Y-107291130D01*
X167163690Y-106576845D01*
X166973214Y-107291130D01*
X166735119Y-106291130D01*
X166449404Y-106291130D02*
X165830357Y-106291130D01*
X166163690Y-106672083D01*
X166020833Y-106672083D01*
X165925595Y-106719702D01*
X165877976Y-106767321D01*
X165830357Y-106862559D01*
X165830357Y-107100654D01*
X165877976Y-107195892D01*
X165925595Y-107243511D01*
X166020833Y-107291130D01*
X166306547Y-107291130D01*
X166401785Y-107243511D01*
X166449404Y-107195892D01*
X164973214Y-106624464D02*
X164973214Y-107291130D01*
X165211309Y-106243511D02*
X165449404Y-106957797D01*
X164830357Y-106957797D01*
%TO.C,SW33*%
X187547023Y-107243511D02*
X187404166Y-107291130D01*
X187166071Y-107291130D01*
X187070833Y-107243511D01*
X187023214Y-107195892D01*
X186975595Y-107100654D01*
X186975595Y-107005416D01*
X187023214Y-106910178D01*
X187070833Y-106862559D01*
X187166071Y-106814940D01*
X187356547Y-106767321D01*
X187451785Y-106719702D01*
X187499404Y-106672083D01*
X187547023Y-106576845D01*
X187547023Y-106481607D01*
X187499404Y-106386369D01*
X187451785Y-106338750D01*
X187356547Y-106291130D01*
X187118452Y-106291130D01*
X186975595Y-106338750D01*
X186642261Y-106291130D02*
X186404166Y-107291130D01*
X186213690Y-106576845D01*
X186023214Y-107291130D01*
X185785119Y-106291130D01*
X185499404Y-106291130D02*
X184880357Y-106291130D01*
X185213690Y-106672083D01*
X185070833Y-106672083D01*
X184975595Y-106719702D01*
X184927976Y-106767321D01*
X184880357Y-106862559D01*
X184880357Y-107100654D01*
X184927976Y-107195892D01*
X184975595Y-107243511D01*
X185070833Y-107291130D01*
X185356547Y-107291130D01*
X185451785Y-107243511D01*
X185499404Y-107195892D01*
X184547023Y-106291130D02*
X183927976Y-106291130D01*
X184261309Y-106672083D01*
X184118452Y-106672083D01*
X184023214Y-106719702D01*
X183975595Y-106767321D01*
X183927976Y-106862559D01*
X183927976Y-107100654D01*
X183975595Y-107195892D01*
X184023214Y-107243511D01*
X184118452Y-107291130D01*
X184404166Y-107291130D01*
X184499404Y-107243511D01*
X184547023Y-107195892D01*
%TO.C,SW32*%
X206597023Y-107243511D02*
X206454166Y-107291130D01*
X206216071Y-107291130D01*
X206120833Y-107243511D01*
X206073214Y-107195892D01*
X206025595Y-107100654D01*
X206025595Y-107005416D01*
X206073214Y-106910178D01*
X206120833Y-106862559D01*
X206216071Y-106814940D01*
X206406547Y-106767321D01*
X206501785Y-106719702D01*
X206549404Y-106672083D01*
X206597023Y-106576845D01*
X206597023Y-106481607D01*
X206549404Y-106386369D01*
X206501785Y-106338750D01*
X206406547Y-106291130D01*
X206168452Y-106291130D01*
X206025595Y-106338750D01*
X205692261Y-106291130D02*
X205454166Y-107291130D01*
X205263690Y-106576845D01*
X205073214Y-107291130D01*
X204835119Y-106291130D01*
X204549404Y-106291130D02*
X203930357Y-106291130D01*
X204263690Y-106672083D01*
X204120833Y-106672083D01*
X204025595Y-106719702D01*
X203977976Y-106767321D01*
X203930357Y-106862559D01*
X203930357Y-107100654D01*
X203977976Y-107195892D01*
X204025595Y-107243511D01*
X204120833Y-107291130D01*
X204406547Y-107291130D01*
X204501785Y-107243511D01*
X204549404Y-107195892D01*
X203549404Y-106386369D02*
X203501785Y-106338750D01*
X203406547Y-106291130D01*
X203168452Y-106291130D01*
X203073214Y-106338750D01*
X203025595Y-106386369D01*
X202977976Y-106481607D01*
X202977976Y-106576845D01*
X203025595Y-106719702D01*
X203597023Y-107291130D01*
X202977976Y-107291130D01*
%TO.C,SW31*%
X225647023Y-107243511D02*
X225504166Y-107291130D01*
X225266071Y-107291130D01*
X225170833Y-107243511D01*
X225123214Y-107195892D01*
X225075595Y-107100654D01*
X225075595Y-107005416D01*
X225123214Y-106910178D01*
X225170833Y-106862559D01*
X225266071Y-106814940D01*
X225456547Y-106767321D01*
X225551785Y-106719702D01*
X225599404Y-106672083D01*
X225647023Y-106576845D01*
X225647023Y-106481607D01*
X225599404Y-106386369D01*
X225551785Y-106338750D01*
X225456547Y-106291130D01*
X225218452Y-106291130D01*
X225075595Y-106338750D01*
X224742261Y-106291130D02*
X224504166Y-107291130D01*
X224313690Y-106576845D01*
X224123214Y-107291130D01*
X223885119Y-106291130D01*
X223599404Y-106291130D02*
X222980357Y-106291130D01*
X223313690Y-106672083D01*
X223170833Y-106672083D01*
X223075595Y-106719702D01*
X223027976Y-106767321D01*
X222980357Y-106862559D01*
X222980357Y-107100654D01*
X223027976Y-107195892D01*
X223075595Y-107243511D01*
X223170833Y-107291130D01*
X223456547Y-107291130D01*
X223551785Y-107243511D01*
X223599404Y-107195892D01*
X222027976Y-107291130D02*
X222599404Y-107291130D01*
X222313690Y-107291130D02*
X222313690Y-106291130D01*
X222408928Y-106433988D01*
X222504166Y-106529226D01*
X222599404Y-106576845D01*
%TO.C,SW30*%
X54197023Y-88193511D02*
X54054166Y-88241130D01*
X53816071Y-88241130D01*
X53720833Y-88193511D01*
X53673214Y-88145892D01*
X53625595Y-88050654D01*
X53625595Y-87955416D01*
X53673214Y-87860178D01*
X53720833Y-87812559D01*
X53816071Y-87764940D01*
X54006547Y-87717321D01*
X54101785Y-87669702D01*
X54149404Y-87622083D01*
X54197023Y-87526845D01*
X54197023Y-87431607D01*
X54149404Y-87336369D01*
X54101785Y-87288750D01*
X54006547Y-87241130D01*
X53768452Y-87241130D01*
X53625595Y-87288750D01*
X53292261Y-87241130D02*
X53054166Y-88241130D01*
X52863690Y-87526845D01*
X52673214Y-88241130D01*
X52435119Y-87241130D01*
X52149404Y-87241130D02*
X51530357Y-87241130D01*
X51863690Y-87622083D01*
X51720833Y-87622083D01*
X51625595Y-87669702D01*
X51577976Y-87717321D01*
X51530357Y-87812559D01*
X51530357Y-88050654D01*
X51577976Y-88145892D01*
X51625595Y-88193511D01*
X51720833Y-88241130D01*
X52006547Y-88241130D01*
X52101785Y-88193511D01*
X52149404Y-88145892D01*
X50911309Y-87241130D02*
X50816071Y-87241130D01*
X50720833Y-87288750D01*
X50673214Y-87336369D01*
X50625595Y-87431607D01*
X50577976Y-87622083D01*
X50577976Y-87860178D01*
X50625595Y-88050654D01*
X50673214Y-88145892D01*
X50720833Y-88193511D01*
X50816071Y-88241130D01*
X50911309Y-88241130D01*
X51006547Y-88193511D01*
X51054166Y-88145892D01*
X51101785Y-88050654D01*
X51149404Y-87860178D01*
X51149404Y-87622083D01*
X51101785Y-87431607D01*
X51054166Y-87336369D01*
X51006547Y-87288750D01*
X50911309Y-87241130D01*
%TO.C,SW29*%
X73247023Y-88193511D02*
X73104166Y-88241130D01*
X72866071Y-88241130D01*
X72770833Y-88193511D01*
X72723214Y-88145892D01*
X72675595Y-88050654D01*
X72675595Y-87955416D01*
X72723214Y-87860178D01*
X72770833Y-87812559D01*
X72866071Y-87764940D01*
X73056547Y-87717321D01*
X73151785Y-87669702D01*
X73199404Y-87622083D01*
X73247023Y-87526845D01*
X73247023Y-87431607D01*
X73199404Y-87336369D01*
X73151785Y-87288750D01*
X73056547Y-87241130D01*
X72818452Y-87241130D01*
X72675595Y-87288750D01*
X72342261Y-87241130D02*
X72104166Y-88241130D01*
X71913690Y-87526845D01*
X71723214Y-88241130D01*
X71485119Y-87241130D01*
X71151785Y-87336369D02*
X71104166Y-87288750D01*
X71008928Y-87241130D01*
X70770833Y-87241130D01*
X70675595Y-87288750D01*
X70627976Y-87336369D01*
X70580357Y-87431607D01*
X70580357Y-87526845D01*
X70627976Y-87669702D01*
X71199404Y-88241130D01*
X70580357Y-88241130D01*
X70104166Y-88241130D02*
X69913690Y-88241130D01*
X69818452Y-88193511D01*
X69770833Y-88145892D01*
X69675595Y-88003035D01*
X69627976Y-87812559D01*
X69627976Y-87431607D01*
X69675595Y-87336369D01*
X69723214Y-87288750D01*
X69818452Y-87241130D01*
X70008928Y-87241130D01*
X70104166Y-87288750D01*
X70151785Y-87336369D01*
X70199404Y-87431607D01*
X70199404Y-87669702D01*
X70151785Y-87764940D01*
X70104166Y-87812559D01*
X70008928Y-87860178D01*
X69818452Y-87860178D01*
X69723214Y-87812559D01*
X69675595Y-87764940D01*
X69627976Y-87669702D01*
%TO.C,SW28*%
X92297023Y-88193511D02*
X92154166Y-88241130D01*
X91916071Y-88241130D01*
X91820833Y-88193511D01*
X91773214Y-88145892D01*
X91725595Y-88050654D01*
X91725595Y-87955416D01*
X91773214Y-87860178D01*
X91820833Y-87812559D01*
X91916071Y-87764940D01*
X92106547Y-87717321D01*
X92201785Y-87669702D01*
X92249404Y-87622083D01*
X92297023Y-87526845D01*
X92297023Y-87431607D01*
X92249404Y-87336369D01*
X92201785Y-87288750D01*
X92106547Y-87241130D01*
X91868452Y-87241130D01*
X91725595Y-87288750D01*
X91392261Y-87241130D02*
X91154166Y-88241130D01*
X90963690Y-87526845D01*
X90773214Y-88241130D01*
X90535119Y-87241130D01*
X90201785Y-87336369D02*
X90154166Y-87288750D01*
X90058928Y-87241130D01*
X89820833Y-87241130D01*
X89725595Y-87288750D01*
X89677976Y-87336369D01*
X89630357Y-87431607D01*
X89630357Y-87526845D01*
X89677976Y-87669702D01*
X90249404Y-88241130D01*
X89630357Y-88241130D01*
X89058928Y-87669702D02*
X89154166Y-87622083D01*
X89201785Y-87574464D01*
X89249404Y-87479226D01*
X89249404Y-87431607D01*
X89201785Y-87336369D01*
X89154166Y-87288750D01*
X89058928Y-87241130D01*
X88868452Y-87241130D01*
X88773214Y-87288750D01*
X88725595Y-87336369D01*
X88677976Y-87431607D01*
X88677976Y-87479226D01*
X88725595Y-87574464D01*
X88773214Y-87622083D01*
X88868452Y-87669702D01*
X89058928Y-87669702D01*
X89154166Y-87717321D01*
X89201785Y-87764940D01*
X89249404Y-87860178D01*
X89249404Y-88050654D01*
X89201785Y-88145892D01*
X89154166Y-88193511D01*
X89058928Y-88241130D01*
X88868452Y-88241130D01*
X88773214Y-88193511D01*
X88725595Y-88145892D01*
X88677976Y-88050654D01*
X88677976Y-87860178D01*
X88725595Y-87764940D01*
X88773214Y-87717321D01*
X88868452Y-87669702D01*
%TO.C,SW27*%
X111347023Y-88193511D02*
X111204166Y-88241130D01*
X110966071Y-88241130D01*
X110870833Y-88193511D01*
X110823214Y-88145892D01*
X110775595Y-88050654D01*
X110775595Y-87955416D01*
X110823214Y-87860178D01*
X110870833Y-87812559D01*
X110966071Y-87764940D01*
X111156547Y-87717321D01*
X111251785Y-87669702D01*
X111299404Y-87622083D01*
X111347023Y-87526845D01*
X111347023Y-87431607D01*
X111299404Y-87336369D01*
X111251785Y-87288750D01*
X111156547Y-87241130D01*
X110918452Y-87241130D01*
X110775595Y-87288750D01*
X110442261Y-87241130D02*
X110204166Y-88241130D01*
X110013690Y-87526845D01*
X109823214Y-88241130D01*
X109585119Y-87241130D01*
X109251785Y-87336369D02*
X109204166Y-87288750D01*
X109108928Y-87241130D01*
X108870833Y-87241130D01*
X108775595Y-87288750D01*
X108727976Y-87336369D01*
X108680357Y-87431607D01*
X108680357Y-87526845D01*
X108727976Y-87669702D01*
X109299404Y-88241130D01*
X108680357Y-88241130D01*
X108347023Y-87241130D02*
X107680357Y-87241130D01*
X108108928Y-88241130D01*
%TO.C,SW26*%
X130397023Y-88193511D02*
X130254166Y-88241130D01*
X130016071Y-88241130D01*
X129920833Y-88193511D01*
X129873214Y-88145892D01*
X129825595Y-88050654D01*
X129825595Y-87955416D01*
X129873214Y-87860178D01*
X129920833Y-87812559D01*
X130016071Y-87764940D01*
X130206547Y-87717321D01*
X130301785Y-87669702D01*
X130349404Y-87622083D01*
X130397023Y-87526845D01*
X130397023Y-87431607D01*
X130349404Y-87336369D01*
X130301785Y-87288750D01*
X130206547Y-87241130D01*
X129968452Y-87241130D01*
X129825595Y-87288750D01*
X129492261Y-87241130D02*
X129254166Y-88241130D01*
X129063690Y-87526845D01*
X128873214Y-88241130D01*
X128635119Y-87241130D01*
X128301785Y-87336369D02*
X128254166Y-87288750D01*
X128158928Y-87241130D01*
X127920833Y-87241130D01*
X127825595Y-87288750D01*
X127777976Y-87336369D01*
X127730357Y-87431607D01*
X127730357Y-87526845D01*
X127777976Y-87669702D01*
X128349404Y-88241130D01*
X127730357Y-88241130D01*
X126873214Y-87241130D02*
X127063690Y-87241130D01*
X127158928Y-87288750D01*
X127206547Y-87336369D01*
X127301785Y-87479226D01*
X127349404Y-87669702D01*
X127349404Y-88050654D01*
X127301785Y-88145892D01*
X127254166Y-88193511D01*
X127158928Y-88241130D01*
X126968452Y-88241130D01*
X126873214Y-88193511D01*
X126825595Y-88145892D01*
X126777976Y-88050654D01*
X126777976Y-87812559D01*
X126825595Y-87717321D01*
X126873214Y-87669702D01*
X126968452Y-87622083D01*
X127158928Y-87622083D01*
X127254166Y-87669702D01*
X127301785Y-87717321D01*
X127349404Y-87812559D01*
%TO.C,SW25*%
X149447023Y-88193511D02*
X149304166Y-88241130D01*
X149066071Y-88241130D01*
X148970833Y-88193511D01*
X148923214Y-88145892D01*
X148875595Y-88050654D01*
X148875595Y-87955416D01*
X148923214Y-87860178D01*
X148970833Y-87812559D01*
X149066071Y-87764940D01*
X149256547Y-87717321D01*
X149351785Y-87669702D01*
X149399404Y-87622083D01*
X149447023Y-87526845D01*
X149447023Y-87431607D01*
X149399404Y-87336369D01*
X149351785Y-87288750D01*
X149256547Y-87241130D01*
X149018452Y-87241130D01*
X148875595Y-87288750D01*
X148542261Y-87241130D02*
X148304166Y-88241130D01*
X148113690Y-87526845D01*
X147923214Y-88241130D01*
X147685119Y-87241130D01*
X147351785Y-87336369D02*
X147304166Y-87288750D01*
X147208928Y-87241130D01*
X146970833Y-87241130D01*
X146875595Y-87288750D01*
X146827976Y-87336369D01*
X146780357Y-87431607D01*
X146780357Y-87526845D01*
X146827976Y-87669702D01*
X147399404Y-88241130D01*
X146780357Y-88241130D01*
X145875595Y-87241130D02*
X146351785Y-87241130D01*
X146399404Y-87717321D01*
X146351785Y-87669702D01*
X146256547Y-87622083D01*
X146018452Y-87622083D01*
X145923214Y-87669702D01*
X145875595Y-87717321D01*
X145827976Y-87812559D01*
X145827976Y-88050654D01*
X145875595Y-88145892D01*
X145923214Y-88193511D01*
X146018452Y-88241130D01*
X146256547Y-88241130D01*
X146351785Y-88193511D01*
X146399404Y-88145892D01*
%TO.C,SW24*%
X168497023Y-88193511D02*
X168354166Y-88241130D01*
X168116071Y-88241130D01*
X168020833Y-88193511D01*
X167973214Y-88145892D01*
X167925595Y-88050654D01*
X167925595Y-87955416D01*
X167973214Y-87860178D01*
X168020833Y-87812559D01*
X168116071Y-87764940D01*
X168306547Y-87717321D01*
X168401785Y-87669702D01*
X168449404Y-87622083D01*
X168497023Y-87526845D01*
X168497023Y-87431607D01*
X168449404Y-87336369D01*
X168401785Y-87288750D01*
X168306547Y-87241130D01*
X168068452Y-87241130D01*
X167925595Y-87288750D01*
X167592261Y-87241130D02*
X167354166Y-88241130D01*
X167163690Y-87526845D01*
X166973214Y-88241130D01*
X166735119Y-87241130D01*
X166401785Y-87336369D02*
X166354166Y-87288750D01*
X166258928Y-87241130D01*
X166020833Y-87241130D01*
X165925595Y-87288750D01*
X165877976Y-87336369D01*
X165830357Y-87431607D01*
X165830357Y-87526845D01*
X165877976Y-87669702D01*
X166449404Y-88241130D01*
X165830357Y-88241130D01*
X164973214Y-87574464D02*
X164973214Y-88241130D01*
X165211309Y-87193511D02*
X165449404Y-87907797D01*
X164830357Y-87907797D01*
%TO.C,SW23*%
X187547023Y-88193511D02*
X187404166Y-88241130D01*
X187166071Y-88241130D01*
X187070833Y-88193511D01*
X187023214Y-88145892D01*
X186975595Y-88050654D01*
X186975595Y-87955416D01*
X187023214Y-87860178D01*
X187070833Y-87812559D01*
X187166071Y-87764940D01*
X187356547Y-87717321D01*
X187451785Y-87669702D01*
X187499404Y-87622083D01*
X187547023Y-87526845D01*
X187547023Y-87431607D01*
X187499404Y-87336369D01*
X187451785Y-87288750D01*
X187356547Y-87241130D01*
X187118452Y-87241130D01*
X186975595Y-87288750D01*
X186642261Y-87241130D02*
X186404166Y-88241130D01*
X186213690Y-87526845D01*
X186023214Y-88241130D01*
X185785119Y-87241130D01*
X185451785Y-87336369D02*
X185404166Y-87288750D01*
X185308928Y-87241130D01*
X185070833Y-87241130D01*
X184975595Y-87288750D01*
X184927976Y-87336369D01*
X184880357Y-87431607D01*
X184880357Y-87526845D01*
X184927976Y-87669702D01*
X185499404Y-88241130D01*
X184880357Y-88241130D01*
X184547023Y-87241130D02*
X183927976Y-87241130D01*
X184261309Y-87622083D01*
X184118452Y-87622083D01*
X184023214Y-87669702D01*
X183975595Y-87717321D01*
X183927976Y-87812559D01*
X183927976Y-88050654D01*
X183975595Y-88145892D01*
X184023214Y-88193511D01*
X184118452Y-88241130D01*
X184404166Y-88241130D01*
X184499404Y-88193511D01*
X184547023Y-88145892D01*
%TO.C,SW22*%
X206597023Y-88193511D02*
X206454166Y-88241130D01*
X206216071Y-88241130D01*
X206120833Y-88193511D01*
X206073214Y-88145892D01*
X206025595Y-88050654D01*
X206025595Y-87955416D01*
X206073214Y-87860178D01*
X206120833Y-87812559D01*
X206216071Y-87764940D01*
X206406547Y-87717321D01*
X206501785Y-87669702D01*
X206549404Y-87622083D01*
X206597023Y-87526845D01*
X206597023Y-87431607D01*
X206549404Y-87336369D01*
X206501785Y-87288750D01*
X206406547Y-87241130D01*
X206168452Y-87241130D01*
X206025595Y-87288750D01*
X205692261Y-87241130D02*
X205454166Y-88241130D01*
X205263690Y-87526845D01*
X205073214Y-88241130D01*
X204835119Y-87241130D01*
X204501785Y-87336369D02*
X204454166Y-87288750D01*
X204358928Y-87241130D01*
X204120833Y-87241130D01*
X204025595Y-87288750D01*
X203977976Y-87336369D01*
X203930357Y-87431607D01*
X203930357Y-87526845D01*
X203977976Y-87669702D01*
X204549404Y-88241130D01*
X203930357Y-88241130D01*
X203549404Y-87336369D02*
X203501785Y-87288750D01*
X203406547Y-87241130D01*
X203168452Y-87241130D01*
X203073214Y-87288750D01*
X203025595Y-87336369D01*
X202977976Y-87431607D01*
X202977976Y-87526845D01*
X203025595Y-87669702D01*
X203597023Y-88241130D01*
X202977976Y-88241130D01*
%TO.C,SW21*%
X225647023Y-88193511D02*
X225504166Y-88241130D01*
X225266071Y-88241130D01*
X225170833Y-88193511D01*
X225123214Y-88145892D01*
X225075595Y-88050654D01*
X225075595Y-87955416D01*
X225123214Y-87860178D01*
X225170833Y-87812559D01*
X225266071Y-87764940D01*
X225456547Y-87717321D01*
X225551785Y-87669702D01*
X225599404Y-87622083D01*
X225647023Y-87526845D01*
X225647023Y-87431607D01*
X225599404Y-87336369D01*
X225551785Y-87288750D01*
X225456547Y-87241130D01*
X225218452Y-87241130D01*
X225075595Y-87288750D01*
X224742261Y-87241130D02*
X224504166Y-88241130D01*
X224313690Y-87526845D01*
X224123214Y-88241130D01*
X223885119Y-87241130D01*
X223551785Y-87336369D02*
X223504166Y-87288750D01*
X223408928Y-87241130D01*
X223170833Y-87241130D01*
X223075595Y-87288750D01*
X223027976Y-87336369D01*
X222980357Y-87431607D01*
X222980357Y-87526845D01*
X223027976Y-87669702D01*
X223599404Y-88241130D01*
X222980357Y-88241130D01*
X222027976Y-88241130D02*
X222599404Y-88241130D01*
X222313690Y-88241130D02*
X222313690Y-87241130D01*
X222408928Y-87383988D01*
X222504166Y-87479226D01*
X222599404Y-87526845D01*
%TO.C,SW20*%
X54197023Y-69143511D02*
X54054166Y-69191130D01*
X53816071Y-69191130D01*
X53720833Y-69143511D01*
X53673214Y-69095892D01*
X53625595Y-69000654D01*
X53625595Y-68905416D01*
X53673214Y-68810178D01*
X53720833Y-68762559D01*
X53816071Y-68714940D01*
X54006547Y-68667321D01*
X54101785Y-68619702D01*
X54149404Y-68572083D01*
X54197023Y-68476845D01*
X54197023Y-68381607D01*
X54149404Y-68286369D01*
X54101785Y-68238750D01*
X54006547Y-68191130D01*
X53768452Y-68191130D01*
X53625595Y-68238750D01*
X53292261Y-68191130D02*
X53054166Y-69191130D01*
X52863690Y-68476845D01*
X52673214Y-69191130D01*
X52435119Y-68191130D01*
X52101785Y-68286369D02*
X52054166Y-68238750D01*
X51958928Y-68191130D01*
X51720833Y-68191130D01*
X51625595Y-68238750D01*
X51577976Y-68286369D01*
X51530357Y-68381607D01*
X51530357Y-68476845D01*
X51577976Y-68619702D01*
X52149404Y-69191130D01*
X51530357Y-69191130D01*
X50911309Y-68191130D02*
X50816071Y-68191130D01*
X50720833Y-68238750D01*
X50673214Y-68286369D01*
X50625595Y-68381607D01*
X50577976Y-68572083D01*
X50577976Y-68810178D01*
X50625595Y-69000654D01*
X50673214Y-69095892D01*
X50720833Y-69143511D01*
X50816071Y-69191130D01*
X50911309Y-69191130D01*
X51006547Y-69143511D01*
X51054166Y-69095892D01*
X51101785Y-69000654D01*
X51149404Y-68810178D01*
X51149404Y-68572083D01*
X51101785Y-68381607D01*
X51054166Y-68286369D01*
X51006547Y-68238750D01*
X50911309Y-68191130D01*
%TO.C,SW19*%
X73247023Y-69143511D02*
X73104166Y-69191130D01*
X72866071Y-69191130D01*
X72770833Y-69143511D01*
X72723214Y-69095892D01*
X72675595Y-69000654D01*
X72675595Y-68905416D01*
X72723214Y-68810178D01*
X72770833Y-68762559D01*
X72866071Y-68714940D01*
X73056547Y-68667321D01*
X73151785Y-68619702D01*
X73199404Y-68572083D01*
X73247023Y-68476845D01*
X73247023Y-68381607D01*
X73199404Y-68286369D01*
X73151785Y-68238750D01*
X73056547Y-68191130D01*
X72818452Y-68191130D01*
X72675595Y-68238750D01*
X72342261Y-68191130D02*
X72104166Y-69191130D01*
X71913690Y-68476845D01*
X71723214Y-69191130D01*
X71485119Y-68191130D01*
X70580357Y-69191130D02*
X71151785Y-69191130D01*
X70866071Y-69191130D02*
X70866071Y-68191130D01*
X70961309Y-68333988D01*
X71056547Y-68429226D01*
X71151785Y-68476845D01*
X70104166Y-69191130D02*
X69913690Y-69191130D01*
X69818452Y-69143511D01*
X69770833Y-69095892D01*
X69675595Y-68953035D01*
X69627976Y-68762559D01*
X69627976Y-68381607D01*
X69675595Y-68286369D01*
X69723214Y-68238750D01*
X69818452Y-68191130D01*
X70008928Y-68191130D01*
X70104166Y-68238750D01*
X70151785Y-68286369D01*
X70199404Y-68381607D01*
X70199404Y-68619702D01*
X70151785Y-68714940D01*
X70104166Y-68762559D01*
X70008928Y-68810178D01*
X69818452Y-68810178D01*
X69723214Y-68762559D01*
X69675595Y-68714940D01*
X69627976Y-68619702D01*
%TO.C,SW18*%
X92297023Y-69143511D02*
X92154166Y-69191130D01*
X91916071Y-69191130D01*
X91820833Y-69143511D01*
X91773214Y-69095892D01*
X91725595Y-69000654D01*
X91725595Y-68905416D01*
X91773214Y-68810178D01*
X91820833Y-68762559D01*
X91916071Y-68714940D01*
X92106547Y-68667321D01*
X92201785Y-68619702D01*
X92249404Y-68572083D01*
X92297023Y-68476845D01*
X92297023Y-68381607D01*
X92249404Y-68286369D01*
X92201785Y-68238750D01*
X92106547Y-68191130D01*
X91868452Y-68191130D01*
X91725595Y-68238750D01*
X91392261Y-68191130D02*
X91154166Y-69191130D01*
X90963690Y-68476845D01*
X90773214Y-69191130D01*
X90535119Y-68191130D01*
X89630357Y-69191130D02*
X90201785Y-69191130D01*
X89916071Y-69191130D02*
X89916071Y-68191130D01*
X90011309Y-68333988D01*
X90106547Y-68429226D01*
X90201785Y-68476845D01*
X89058928Y-68619702D02*
X89154166Y-68572083D01*
X89201785Y-68524464D01*
X89249404Y-68429226D01*
X89249404Y-68381607D01*
X89201785Y-68286369D01*
X89154166Y-68238750D01*
X89058928Y-68191130D01*
X88868452Y-68191130D01*
X88773214Y-68238750D01*
X88725595Y-68286369D01*
X88677976Y-68381607D01*
X88677976Y-68429226D01*
X88725595Y-68524464D01*
X88773214Y-68572083D01*
X88868452Y-68619702D01*
X89058928Y-68619702D01*
X89154166Y-68667321D01*
X89201785Y-68714940D01*
X89249404Y-68810178D01*
X89249404Y-69000654D01*
X89201785Y-69095892D01*
X89154166Y-69143511D01*
X89058928Y-69191130D01*
X88868452Y-69191130D01*
X88773214Y-69143511D01*
X88725595Y-69095892D01*
X88677976Y-69000654D01*
X88677976Y-68810178D01*
X88725595Y-68714940D01*
X88773214Y-68667321D01*
X88868452Y-68619702D01*
%TO.C,SW17*%
X111347023Y-69143511D02*
X111204166Y-69191130D01*
X110966071Y-69191130D01*
X110870833Y-69143511D01*
X110823214Y-69095892D01*
X110775595Y-69000654D01*
X110775595Y-68905416D01*
X110823214Y-68810178D01*
X110870833Y-68762559D01*
X110966071Y-68714940D01*
X111156547Y-68667321D01*
X111251785Y-68619702D01*
X111299404Y-68572083D01*
X111347023Y-68476845D01*
X111347023Y-68381607D01*
X111299404Y-68286369D01*
X111251785Y-68238750D01*
X111156547Y-68191130D01*
X110918452Y-68191130D01*
X110775595Y-68238750D01*
X110442261Y-68191130D02*
X110204166Y-69191130D01*
X110013690Y-68476845D01*
X109823214Y-69191130D01*
X109585119Y-68191130D01*
X108680357Y-69191130D02*
X109251785Y-69191130D01*
X108966071Y-69191130D02*
X108966071Y-68191130D01*
X109061309Y-68333988D01*
X109156547Y-68429226D01*
X109251785Y-68476845D01*
X108347023Y-68191130D02*
X107680357Y-68191130D01*
X108108928Y-69191130D01*
%TO.C,SW16*%
X130397023Y-69143511D02*
X130254166Y-69191130D01*
X130016071Y-69191130D01*
X129920833Y-69143511D01*
X129873214Y-69095892D01*
X129825595Y-69000654D01*
X129825595Y-68905416D01*
X129873214Y-68810178D01*
X129920833Y-68762559D01*
X130016071Y-68714940D01*
X130206547Y-68667321D01*
X130301785Y-68619702D01*
X130349404Y-68572083D01*
X130397023Y-68476845D01*
X130397023Y-68381607D01*
X130349404Y-68286369D01*
X130301785Y-68238750D01*
X130206547Y-68191130D01*
X129968452Y-68191130D01*
X129825595Y-68238750D01*
X129492261Y-68191130D02*
X129254166Y-69191130D01*
X129063690Y-68476845D01*
X128873214Y-69191130D01*
X128635119Y-68191130D01*
X127730357Y-69191130D02*
X128301785Y-69191130D01*
X128016071Y-69191130D02*
X128016071Y-68191130D01*
X128111309Y-68333988D01*
X128206547Y-68429226D01*
X128301785Y-68476845D01*
X126873214Y-68191130D02*
X127063690Y-68191130D01*
X127158928Y-68238750D01*
X127206547Y-68286369D01*
X127301785Y-68429226D01*
X127349404Y-68619702D01*
X127349404Y-69000654D01*
X127301785Y-69095892D01*
X127254166Y-69143511D01*
X127158928Y-69191130D01*
X126968452Y-69191130D01*
X126873214Y-69143511D01*
X126825595Y-69095892D01*
X126777976Y-69000654D01*
X126777976Y-68762559D01*
X126825595Y-68667321D01*
X126873214Y-68619702D01*
X126968452Y-68572083D01*
X127158928Y-68572083D01*
X127254166Y-68619702D01*
X127301785Y-68667321D01*
X127349404Y-68762559D01*
%TO.C,SW15*%
X149447023Y-69143511D02*
X149304166Y-69191130D01*
X149066071Y-69191130D01*
X148970833Y-69143511D01*
X148923214Y-69095892D01*
X148875595Y-69000654D01*
X148875595Y-68905416D01*
X148923214Y-68810178D01*
X148970833Y-68762559D01*
X149066071Y-68714940D01*
X149256547Y-68667321D01*
X149351785Y-68619702D01*
X149399404Y-68572083D01*
X149447023Y-68476845D01*
X149447023Y-68381607D01*
X149399404Y-68286369D01*
X149351785Y-68238750D01*
X149256547Y-68191130D01*
X149018452Y-68191130D01*
X148875595Y-68238750D01*
X148542261Y-68191130D02*
X148304166Y-69191130D01*
X148113690Y-68476845D01*
X147923214Y-69191130D01*
X147685119Y-68191130D01*
X146780357Y-69191130D02*
X147351785Y-69191130D01*
X147066071Y-69191130D02*
X147066071Y-68191130D01*
X147161309Y-68333988D01*
X147256547Y-68429226D01*
X147351785Y-68476845D01*
X145875595Y-68191130D02*
X146351785Y-68191130D01*
X146399404Y-68667321D01*
X146351785Y-68619702D01*
X146256547Y-68572083D01*
X146018452Y-68572083D01*
X145923214Y-68619702D01*
X145875595Y-68667321D01*
X145827976Y-68762559D01*
X145827976Y-69000654D01*
X145875595Y-69095892D01*
X145923214Y-69143511D01*
X146018452Y-69191130D01*
X146256547Y-69191130D01*
X146351785Y-69143511D01*
X146399404Y-69095892D01*
%TO.C,SW14*%
X168497023Y-69143511D02*
X168354166Y-69191130D01*
X168116071Y-69191130D01*
X168020833Y-69143511D01*
X167973214Y-69095892D01*
X167925595Y-69000654D01*
X167925595Y-68905416D01*
X167973214Y-68810178D01*
X168020833Y-68762559D01*
X168116071Y-68714940D01*
X168306547Y-68667321D01*
X168401785Y-68619702D01*
X168449404Y-68572083D01*
X168497023Y-68476845D01*
X168497023Y-68381607D01*
X168449404Y-68286369D01*
X168401785Y-68238750D01*
X168306547Y-68191130D01*
X168068452Y-68191130D01*
X167925595Y-68238750D01*
X167592261Y-68191130D02*
X167354166Y-69191130D01*
X167163690Y-68476845D01*
X166973214Y-69191130D01*
X166735119Y-68191130D01*
X165830357Y-69191130D02*
X166401785Y-69191130D01*
X166116071Y-69191130D02*
X166116071Y-68191130D01*
X166211309Y-68333988D01*
X166306547Y-68429226D01*
X166401785Y-68476845D01*
X164973214Y-68524464D02*
X164973214Y-69191130D01*
X165211309Y-68143511D02*
X165449404Y-68857797D01*
X164830357Y-68857797D01*
%TO.C,SW13*%
X187547023Y-69143511D02*
X187404166Y-69191130D01*
X187166071Y-69191130D01*
X187070833Y-69143511D01*
X187023214Y-69095892D01*
X186975595Y-69000654D01*
X186975595Y-68905416D01*
X187023214Y-68810178D01*
X187070833Y-68762559D01*
X187166071Y-68714940D01*
X187356547Y-68667321D01*
X187451785Y-68619702D01*
X187499404Y-68572083D01*
X187547023Y-68476845D01*
X187547023Y-68381607D01*
X187499404Y-68286369D01*
X187451785Y-68238750D01*
X187356547Y-68191130D01*
X187118452Y-68191130D01*
X186975595Y-68238750D01*
X186642261Y-68191130D02*
X186404166Y-69191130D01*
X186213690Y-68476845D01*
X186023214Y-69191130D01*
X185785119Y-68191130D01*
X184880357Y-69191130D02*
X185451785Y-69191130D01*
X185166071Y-69191130D02*
X185166071Y-68191130D01*
X185261309Y-68333988D01*
X185356547Y-68429226D01*
X185451785Y-68476845D01*
X184547023Y-68191130D02*
X183927976Y-68191130D01*
X184261309Y-68572083D01*
X184118452Y-68572083D01*
X184023214Y-68619702D01*
X183975595Y-68667321D01*
X183927976Y-68762559D01*
X183927976Y-69000654D01*
X183975595Y-69095892D01*
X184023214Y-69143511D01*
X184118452Y-69191130D01*
X184404166Y-69191130D01*
X184499404Y-69143511D01*
X184547023Y-69095892D01*
%TO.C,SW12*%
X206597023Y-69143511D02*
X206454166Y-69191130D01*
X206216071Y-69191130D01*
X206120833Y-69143511D01*
X206073214Y-69095892D01*
X206025595Y-69000654D01*
X206025595Y-68905416D01*
X206073214Y-68810178D01*
X206120833Y-68762559D01*
X206216071Y-68714940D01*
X206406547Y-68667321D01*
X206501785Y-68619702D01*
X206549404Y-68572083D01*
X206597023Y-68476845D01*
X206597023Y-68381607D01*
X206549404Y-68286369D01*
X206501785Y-68238750D01*
X206406547Y-68191130D01*
X206168452Y-68191130D01*
X206025595Y-68238750D01*
X205692261Y-68191130D02*
X205454166Y-69191130D01*
X205263690Y-68476845D01*
X205073214Y-69191130D01*
X204835119Y-68191130D01*
X203930357Y-69191130D02*
X204501785Y-69191130D01*
X204216071Y-69191130D02*
X204216071Y-68191130D01*
X204311309Y-68333988D01*
X204406547Y-68429226D01*
X204501785Y-68476845D01*
X203549404Y-68286369D02*
X203501785Y-68238750D01*
X203406547Y-68191130D01*
X203168452Y-68191130D01*
X203073214Y-68238750D01*
X203025595Y-68286369D01*
X202977976Y-68381607D01*
X202977976Y-68476845D01*
X203025595Y-68619702D01*
X203597023Y-69191130D01*
X202977976Y-69191130D01*
%TO.C,SW10*%
X54197023Y-50093511D02*
X54054166Y-50141130D01*
X53816071Y-50141130D01*
X53720833Y-50093511D01*
X53673214Y-50045892D01*
X53625595Y-49950654D01*
X53625595Y-49855416D01*
X53673214Y-49760178D01*
X53720833Y-49712559D01*
X53816071Y-49664940D01*
X54006547Y-49617321D01*
X54101785Y-49569702D01*
X54149404Y-49522083D01*
X54197023Y-49426845D01*
X54197023Y-49331607D01*
X54149404Y-49236369D01*
X54101785Y-49188750D01*
X54006547Y-49141130D01*
X53768452Y-49141130D01*
X53625595Y-49188750D01*
X53292261Y-49141130D02*
X53054166Y-50141130D01*
X52863690Y-49426845D01*
X52673214Y-50141130D01*
X52435119Y-49141130D01*
X51530357Y-50141130D02*
X52101785Y-50141130D01*
X51816071Y-50141130D02*
X51816071Y-49141130D01*
X51911309Y-49283988D01*
X52006547Y-49379226D01*
X52101785Y-49426845D01*
X50911309Y-49141130D02*
X50816071Y-49141130D01*
X50720833Y-49188750D01*
X50673214Y-49236369D01*
X50625595Y-49331607D01*
X50577976Y-49522083D01*
X50577976Y-49760178D01*
X50625595Y-49950654D01*
X50673214Y-50045892D01*
X50720833Y-50093511D01*
X50816071Y-50141130D01*
X50911309Y-50141130D01*
X51006547Y-50093511D01*
X51054166Y-50045892D01*
X51101785Y-49950654D01*
X51149404Y-49760178D01*
X51149404Y-49522083D01*
X51101785Y-49331607D01*
X51054166Y-49236369D01*
X51006547Y-49188750D01*
X50911309Y-49141130D01*
%TO.C,SW9*%
X72770833Y-50093511D02*
X72627976Y-50141130D01*
X72389880Y-50141130D01*
X72294642Y-50093511D01*
X72247023Y-50045892D01*
X72199404Y-49950654D01*
X72199404Y-49855416D01*
X72247023Y-49760178D01*
X72294642Y-49712559D01*
X72389880Y-49664940D01*
X72580357Y-49617321D01*
X72675595Y-49569702D01*
X72723214Y-49522083D01*
X72770833Y-49426845D01*
X72770833Y-49331607D01*
X72723214Y-49236369D01*
X72675595Y-49188750D01*
X72580357Y-49141130D01*
X72342261Y-49141130D01*
X72199404Y-49188750D01*
X71866071Y-49141130D02*
X71627976Y-50141130D01*
X71437500Y-49426845D01*
X71247023Y-50141130D01*
X71008928Y-49141130D01*
X70580357Y-50141130D02*
X70389880Y-50141130D01*
X70294642Y-50093511D01*
X70247023Y-50045892D01*
X70151785Y-49903035D01*
X70104166Y-49712559D01*
X70104166Y-49331607D01*
X70151785Y-49236369D01*
X70199404Y-49188750D01*
X70294642Y-49141130D01*
X70485119Y-49141130D01*
X70580357Y-49188750D01*
X70627976Y-49236369D01*
X70675595Y-49331607D01*
X70675595Y-49569702D01*
X70627976Y-49664940D01*
X70580357Y-49712559D01*
X70485119Y-49760178D01*
X70294642Y-49760178D01*
X70199404Y-49712559D01*
X70151785Y-49664940D01*
X70104166Y-49569702D01*
%TO.C,SW8*%
X91820833Y-50093511D02*
X91677976Y-50141130D01*
X91439880Y-50141130D01*
X91344642Y-50093511D01*
X91297023Y-50045892D01*
X91249404Y-49950654D01*
X91249404Y-49855416D01*
X91297023Y-49760178D01*
X91344642Y-49712559D01*
X91439880Y-49664940D01*
X91630357Y-49617321D01*
X91725595Y-49569702D01*
X91773214Y-49522083D01*
X91820833Y-49426845D01*
X91820833Y-49331607D01*
X91773214Y-49236369D01*
X91725595Y-49188750D01*
X91630357Y-49141130D01*
X91392261Y-49141130D01*
X91249404Y-49188750D01*
X90916071Y-49141130D02*
X90677976Y-50141130D01*
X90487500Y-49426845D01*
X90297023Y-50141130D01*
X90058928Y-49141130D01*
X89535119Y-49569702D02*
X89630357Y-49522083D01*
X89677976Y-49474464D01*
X89725595Y-49379226D01*
X89725595Y-49331607D01*
X89677976Y-49236369D01*
X89630357Y-49188750D01*
X89535119Y-49141130D01*
X89344642Y-49141130D01*
X89249404Y-49188750D01*
X89201785Y-49236369D01*
X89154166Y-49331607D01*
X89154166Y-49379226D01*
X89201785Y-49474464D01*
X89249404Y-49522083D01*
X89344642Y-49569702D01*
X89535119Y-49569702D01*
X89630357Y-49617321D01*
X89677976Y-49664940D01*
X89725595Y-49760178D01*
X89725595Y-49950654D01*
X89677976Y-50045892D01*
X89630357Y-50093511D01*
X89535119Y-50141130D01*
X89344642Y-50141130D01*
X89249404Y-50093511D01*
X89201785Y-50045892D01*
X89154166Y-49950654D01*
X89154166Y-49760178D01*
X89201785Y-49664940D01*
X89249404Y-49617321D01*
X89344642Y-49569702D01*
%TO.C,SW7*%
X110870833Y-50093511D02*
X110727976Y-50141130D01*
X110489880Y-50141130D01*
X110394642Y-50093511D01*
X110347023Y-50045892D01*
X110299404Y-49950654D01*
X110299404Y-49855416D01*
X110347023Y-49760178D01*
X110394642Y-49712559D01*
X110489880Y-49664940D01*
X110680357Y-49617321D01*
X110775595Y-49569702D01*
X110823214Y-49522083D01*
X110870833Y-49426845D01*
X110870833Y-49331607D01*
X110823214Y-49236369D01*
X110775595Y-49188750D01*
X110680357Y-49141130D01*
X110442261Y-49141130D01*
X110299404Y-49188750D01*
X109966071Y-49141130D02*
X109727976Y-50141130D01*
X109537500Y-49426845D01*
X109347023Y-50141130D01*
X109108928Y-49141130D01*
X108823214Y-49141130D02*
X108156547Y-49141130D01*
X108585119Y-50141130D01*
%TO.C,SW6*%
X129920833Y-50093511D02*
X129777976Y-50141130D01*
X129539880Y-50141130D01*
X129444642Y-50093511D01*
X129397023Y-50045892D01*
X129349404Y-49950654D01*
X129349404Y-49855416D01*
X129397023Y-49760178D01*
X129444642Y-49712559D01*
X129539880Y-49664940D01*
X129730357Y-49617321D01*
X129825595Y-49569702D01*
X129873214Y-49522083D01*
X129920833Y-49426845D01*
X129920833Y-49331607D01*
X129873214Y-49236369D01*
X129825595Y-49188750D01*
X129730357Y-49141130D01*
X129492261Y-49141130D01*
X129349404Y-49188750D01*
X129016071Y-49141130D02*
X128777976Y-50141130D01*
X128587500Y-49426845D01*
X128397023Y-50141130D01*
X128158928Y-49141130D01*
X127349404Y-49141130D02*
X127539880Y-49141130D01*
X127635119Y-49188750D01*
X127682738Y-49236369D01*
X127777976Y-49379226D01*
X127825595Y-49569702D01*
X127825595Y-49950654D01*
X127777976Y-50045892D01*
X127730357Y-50093511D01*
X127635119Y-50141130D01*
X127444642Y-50141130D01*
X127349404Y-50093511D01*
X127301785Y-50045892D01*
X127254166Y-49950654D01*
X127254166Y-49712559D01*
X127301785Y-49617321D01*
X127349404Y-49569702D01*
X127444642Y-49522083D01*
X127635119Y-49522083D01*
X127730357Y-49569702D01*
X127777976Y-49617321D01*
X127825595Y-49712559D01*
%TO.C,SW5*%
X148970833Y-50093511D02*
X148827976Y-50141130D01*
X148589880Y-50141130D01*
X148494642Y-50093511D01*
X148447023Y-50045892D01*
X148399404Y-49950654D01*
X148399404Y-49855416D01*
X148447023Y-49760178D01*
X148494642Y-49712559D01*
X148589880Y-49664940D01*
X148780357Y-49617321D01*
X148875595Y-49569702D01*
X148923214Y-49522083D01*
X148970833Y-49426845D01*
X148970833Y-49331607D01*
X148923214Y-49236369D01*
X148875595Y-49188750D01*
X148780357Y-49141130D01*
X148542261Y-49141130D01*
X148399404Y-49188750D01*
X148066071Y-49141130D02*
X147827976Y-50141130D01*
X147637500Y-49426845D01*
X147447023Y-50141130D01*
X147208928Y-49141130D01*
X146351785Y-49141130D02*
X146827976Y-49141130D01*
X146875595Y-49617321D01*
X146827976Y-49569702D01*
X146732738Y-49522083D01*
X146494642Y-49522083D01*
X146399404Y-49569702D01*
X146351785Y-49617321D01*
X146304166Y-49712559D01*
X146304166Y-49950654D01*
X146351785Y-50045892D01*
X146399404Y-50093511D01*
X146494642Y-50141130D01*
X146732738Y-50141130D01*
X146827976Y-50093511D01*
X146875595Y-50045892D01*
%TO.C,SW4*%
X168020833Y-50093511D02*
X167877976Y-50141130D01*
X167639880Y-50141130D01*
X167544642Y-50093511D01*
X167497023Y-50045892D01*
X167449404Y-49950654D01*
X167449404Y-49855416D01*
X167497023Y-49760178D01*
X167544642Y-49712559D01*
X167639880Y-49664940D01*
X167830357Y-49617321D01*
X167925595Y-49569702D01*
X167973214Y-49522083D01*
X168020833Y-49426845D01*
X168020833Y-49331607D01*
X167973214Y-49236369D01*
X167925595Y-49188750D01*
X167830357Y-49141130D01*
X167592261Y-49141130D01*
X167449404Y-49188750D01*
X167116071Y-49141130D02*
X166877976Y-50141130D01*
X166687500Y-49426845D01*
X166497023Y-50141130D01*
X166258928Y-49141130D01*
X165449404Y-49474464D02*
X165449404Y-50141130D01*
X165687500Y-49093511D02*
X165925595Y-49807797D01*
X165306547Y-49807797D01*
%TO.C,SW1*%
X225170833Y-50093511D02*
X225027976Y-50141130D01*
X224789880Y-50141130D01*
X224694642Y-50093511D01*
X224647023Y-50045892D01*
X224599404Y-49950654D01*
X224599404Y-49855416D01*
X224647023Y-49760178D01*
X224694642Y-49712559D01*
X224789880Y-49664940D01*
X224980357Y-49617321D01*
X225075595Y-49569702D01*
X225123214Y-49522083D01*
X225170833Y-49426845D01*
X225170833Y-49331607D01*
X225123214Y-49236369D01*
X225075595Y-49188750D01*
X224980357Y-49141130D01*
X224742261Y-49141130D01*
X224599404Y-49188750D01*
X224266071Y-49141130D02*
X224027976Y-50141130D01*
X223837500Y-49426845D01*
X223647023Y-50141130D01*
X223408928Y-49141130D01*
X222504166Y-50141130D02*
X223075595Y-50141130D01*
X222789880Y-50141130D02*
X222789880Y-49141130D01*
X222885119Y-49283988D01*
X222980357Y-49379226D01*
X223075595Y-49426845D01*
%TD*%
%LPC*%
D14*
%TO.C,SW44*%
X55775000Y-86212500D03*
X52175000Y-86212500D03*
X55775000Y-88412500D03*
X52175000Y-88412500D03*
%TD*%
D15*
%TO.C,SW2*%
X197227500Y-55403750D03*
D16*
X199707500Y-57943750D03*
X209867500Y-57943750D03*
D17*
X204787500Y-57943750D03*
D18*
X200977500Y-55403750D03*
X207327500Y-52863750D03*
D15*
X211077500Y-52863750D03*
%TD*%
D17*
%TO.C,REF\u002A\u002A*%
X88112500Y-106868750D03*
X188112500Y-106868750D03*
D19*
X88112500Y-122078750D03*
X188112500Y-122078750D03*
%TD*%
D17*
%TO.C,REF\u002A\u002A*%
X90487500Y-106868750D03*
X185737500Y-106868750D03*
D19*
X90487500Y-122078750D03*
X185737500Y-122078750D03*
%TD*%
D15*
%TO.C,SW3*%
X178177500Y-55403750D03*
D16*
X180657500Y-57943750D03*
X190817500Y-57943750D03*
D17*
X185737500Y-57943750D03*
D18*
X181927500Y-55403750D03*
X188277500Y-52863750D03*
D15*
X192027500Y-52863750D03*
%TD*%
D20*
%TO.C,REF\u002A\u002A*%
X100012500Y-67468750D03*
%TD*%
%TO.C,REF\u002A\u002A*%
X61912500Y-86518750D03*
%TD*%
%TO.C,REF\u002A\u002A*%
X100012500Y-105568750D03*
%TD*%
%TO.C,REF\u002A\u002A*%
X176212500Y-67468750D03*
%TD*%
%TO.C,REF\u002A\u002A*%
X176212500Y-105568750D03*
%TD*%
%TO.C,REF\u002A\u002A*%
X214312500Y-86518750D03*
%TD*%
D15*
%TO.C,SW11*%
X216277500Y-74453750D03*
D16*
X218757500Y-76993750D03*
X228917500Y-76993750D03*
D17*
X223837500Y-76993750D03*
D18*
X220027500Y-74453750D03*
X226377500Y-71913750D03*
D15*
X230127500Y-71913750D03*
%TD*%
D21*
%TO.C,D40*%
X60325000Y-120581250D03*
D22*
X60325000Y-112781250D03*
D23*
X60325000Y-118081250D03*
X60325000Y-115281250D03*
%TD*%
D21*
%TO.C,D39*%
X79375000Y-120581250D03*
D22*
X79375000Y-112781250D03*
D23*
X79375000Y-118081250D03*
X79375000Y-115281250D03*
%TD*%
D21*
%TO.C,D38*%
X98425000Y-120581250D03*
D22*
X98425000Y-112781250D03*
D23*
X98425000Y-118081250D03*
X98425000Y-115281250D03*
%TD*%
D21*
%TO.C,D37*%
X122962500Y-103981250D03*
D22*
X115162500Y-103981250D03*
D24*
X120462500Y-103981250D03*
X117662500Y-103981250D03*
%TD*%
D21*
%TO.C,D36*%
X142012500Y-103981250D03*
D22*
X134212500Y-103981250D03*
D24*
X139512500Y-103981250D03*
X136712500Y-103981250D03*
%TD*%
D21*
%TO.C,D35*%
X161062500Y-103981250D03*
D22*
X153262500Y-103981250D03*
D24*
X158562500Y-103981250D03*
X155762500Y-103981250D03*
%TD*%
D21*
%TO.C,D34*%
X174625000Y-120581250D03*
D22*
X174625000Y-112781250D03*
D23*
X174625000Y-118081250D03*
X174625000Y-115281250D03*
%TD*%
D21*
%TO.C,D33*%
X193675000Y-120581250D03*
D22*
X193675000Y-112781250D03*
D23*
X193675000Y-118081250D03*
X193675000Y-115281250D03*
%TD*%
D21*
%TO.C,D32*%
X212725000Y-120581250D03*
D22*
X212725000Y-112781250D03*
D23*
X212725000Y-118081250D03*
X212725000Y-115281250D03*
%TD*%
D21*
%TO.C,D31*%
X231775000Y-120581250D03*
D22*
X231775000Y-112781250D03*
D23*
X231775000Y-118081250D03*
X231775000Y-115281250D03*
%TD*%
D21*
%TO.C,D30*%
X60325000Y-101531250D03*
D22*
X60325000Y-93731250D03*
D23*
X60325000Y-99031250D03*
X60325000Y-96231250D03*
%TD*%
D21*
%TO.C,D29*%
X79375000Y-101531250D03*
D22*
X79375000Y-93731250D03*
D23*
X79375000Y-99031250D03*
X79375000Y-96231250D03*
%TD*%
D21*
%TO.C,D28*%
X98425000Y-101531250D03*
D22*
X98425000Y-93731250D03*
D23*
X98425000Y-99031250D03*
X98425000Y-96231250D03*
%TD*%
D21*
%TO.C,D27*%
X117475000Y-101531250D03*
D22*
X117475000Y-93731250D03*
D23*
X117475000Y-99031250D03*
X117475000Y-96231250D03*
%TD*%
D21*
%TO.C,D26*%
X136525000Y-101531250D03*
D22*
X136525000Y-93731250D03*
D23*
X136525000Y-99031250D03*
X136525000Y-96231250D03*
%TD*%
D21*
%TO.C,D25*%
X155575000Y-101531250D03*
D22*
X155575000Y-93731250D03*
D23*
X155575000Y-99031250D03*
X155575000Y-96231250D03*
%TD*%
D21*
%TO.C,D24*%
X174625000Y-101531250D03*
D22*
X174625000Y-93731250D03*
D23*
X174625000Y-99031250D03*
X174625000Y-96231250D03*
%TD*%
D21*
%TO.C,D23*%
X193675000Y-101531250D03*
D22*
X193675000Y-93731250D03*
D23*
X193675000Y-99031250D03*
X193675000Y-96231250D03*
%TD*%
D21*
%TO.C,D22*%
X212725000Y-101531250D03*
D22*
X212725000Y-93731250D03*
D23*
X212725000Y-99031250D03*
X212725000Y-96231250D03*
%TD*%
D21*
%TO.C,D21*%
X231775000Y-101531250D03*
D22*
X231775000Y-93731250D03*
D23*
X231775000Y-99031250D03*
X231775000Y-96231250D03*
%TD*%
D21*
%TO.C,D20*%
X57081250Y-66675000D03*
D22*
X49281250Y-66675000D03*
D24*
X54581250Y-66675000D03*
X51781250Y-66675000D03*
%TD*%
D21*
%TO.C,D19*%
X79375000Y-82481250D03*
D22*
X79375000Y-74681250D03*
D23*
X79375000Y-79981250D03*
X79375000Y-77181250D03*
%TD*%
D21*
%TO.C,D18*%
X98425000Y-82481250D03*
D22*
X98425000Y-74681250D03*
D23*
X98425000Y-79981250D03*
X98425000Y-77181250D03*
%TD*%
D21*
%TO.C,D17*%
X117475000Y-82481250D03*
D22*
X117475000Y-74681250D03*
D23*
X117475000Y-79981250D03*
X117475000Y-77181250D03*
%TD*%
D21*
%TO.C,D16*%
X136525000Y-82481250D03*
D22*
X136525000Y-74681250D03*
D23*
X136525000Y-79981250D03*
X136525000Y-77181250D03*
%TD*%
D21*
%TO.C,D15*%
X155575000Y-82481250D03*
D22*
X155575000Y-74681250D03*
D23*
X155575000Y-79981250D03*
X155575000Y-77181250D03*
%TD*%
D21*
%TO.C,D14*%
X174625000Y-82481250D03*
D22*
X174625000Y-74681250D03*
D23*
X174625000Y-79981250D03*
X174625000Y-77181250D03*
%TD*%
D21*
%TO.C,D13*%
X193675000Y-82481250D03*
D22*
X193675000Y-74681250D03*
D23*
X193675000Y-79981250D03*
X193675000Y-77181250D03*
%TD*%
D21*
%TO.C,D12*%
X212725000Y-82362500D03*
D22*
X212725000Y-74562500D03*
D23*
X212725000Y-79862500D03*
X212725000Y-77062500D03*
%TD*%
D21*
%TO.C,D11*%
X231775000Y-82362500D03*
D22*
X231775000Y-74562500D03*
D23*
X231775000Y-79862500D03*
X231775000Y-77062500D03*
%TD*%
D21*
%TO.C,D10*%
X60325000Y-63431250D03*
D22*
X60325000Y-55631250D03*
D23*
X60325000Y-60931250D03*
X60325000Y-58131250D03*
%TD*%
D21*
%TO.C,D9*%
X79375000Y-63431250D03*
D22*
X79375000Y-55631250D03*
D23*
X79375000Y-60931250D03*
X79375000Y-58131250D03*
%TD*%
D21*
%TO.C,D8*%
X98425000Y-63431250D03*
D22*
X98425000Y-55631250D03*
D23*
X98425000Y-60931250D03*
X98425000Y-58131250D03*
%TD*%
D21*
%TO.C,D7*%
X117475000Y-63431250D03*
D22*
X117475000Y-55631250D03*
D23*
X117475000Y-60931250D03*
X117475000Y-58131250D03*
%TD*%
D21*
%TO.C,D6*%
X136525000Y-63431250D03*
D22*
X136525000Y-55631250D03*
D23*
X136525000Y-60931250D03*
X136525000Y-58131250D03*
%TD*%
D21*
%TO.C,D5*%
X155575000Y-63431250D03*
D22*
X155575000Y-55631250D03*
D23*
X155575000Y-60931250D03*
X155575000Y-58131250D03*
%TD*%
D21*
%TO.C,D4*%
X174625000Y-63431250D03*
D22*
X174625000Y-55631250D03*
D23*
X174625000Y-60931250D03*
X174625000Y-58131250D03*
%TD*%
D21*
%TO.C,D3*%
X193675000Y-63431250D03*
D22*
X193675000Y-55631250D03*
D23*
X193675000Y-60931250D03*
X193675000Y-58131250D03*
%TD*%
D21*
%TO.C,D2*%
X212725000Y-63431250D03*
D22*
X212725000Y-55631250D03*
D23*
X212725000Y-60931250D03*
X212725000Y-58131250D03*
%TD*%
D21*
%TO.C,D1*%
X231775000Y-63431250D03*
D22*
X231775000Y-55631250D03*
D23*
X231775000Y-60931250D03*
X231775000Y-58131250D03*
%TD*%
D25*
%TO.C,U1*%
X49830000Y-84370000D03*
X77770000Y-69130000D03*
X52370000Y-84370000D03*
X54910000Y-84370000D03*
X57450000Y-84370000D03*
X59990000Y-84370000D03*
X62530000Y-84370000D03*
X65070000Y-84370000D03*
X67610000Y-84370000D03*
X70150000Y-84370000D03*
X72690000Y-84370000D03*
X75230000Y-84370000D03*
X77770000Y-84370000D03*
X75230000Y-69130000D03*
X72690000Y-69130000D03*
X70150000Y-69130000D03*
X67610000Y-69130000D03*
X65070000Y-69130000D03*
X62530000Y-69130000D03*
X59990000Y-69130000D03*
X57450000Y-69130000D03*
X54910000Y-69130000D03*
X52370000Y-69130000D03*
D26*
X49830000Y-69130000D03*
%TD*%
D19*
%TO.C,REF\u002A\u002A*%
X169062500Y-122078750D03*
X145262500Y-122078750D03*
D17*
X169062500Y-106838750D03*
X145262500Y-106838750D03*
%TD*%
D19*
%TO.C,REF\u002A\u002A*%
X130962500Y-122078750D03*
X107162500Y-122078750D03*
D17*
X130962500Y-106838750D03*
X107162500Y-106838750D03*
%TD*%
D19*
%TO.C,REF\u002A\u002A*%
X126212500Y-122078750D03*
X150012500Y-122078750D03*
D17*
X126212500Y-106838750D03*
X150012500Y-106838750D03*
%TD*%
D15*
%TO.C,SW43*%
X145672500Y-117633750D03*
D16*
X143192500Y-115093750D03*
X133032500Y-115093750D03*
D17*
X138112500Y-115093750D03*
D18*
X141922500Y-117633750D03*
X135572500Y-120173750D03*
D15*
X131822500Y-120173750D03*
%TD*%
%TO.C,SW42*%
X126622500Y-117633750D03*
D16*
X124142500Y-115093750D03*
X113982500Y-115093750D03*
D17*
X119062500Y-115093750D03*
D18*
X122872500Y-117633750D03*
X116522500Y-120173750D03*
D15*
X112772500Y-120173750D03*
%TD*%
%TO.C,SW41*%
X164722500Y-117633750D03*
D16*
X162242500Y-115093750D03*
X152082500Y-115093750D03*
D17*
X157162500Y-115093750D03*
D18*
X160972500Y-117633750D03*
X154622500Y-120173750D03*
D15*
X150872500Y-120173750D03*
%TD*%
%TO.C,SW40*%
X44827500Y-112553750D03*
D16*
X47307500Y-115093750D03*
X57467500Y-115093750D03*
D17*
X52387500Y-115093750D03*
D18*
X48577500Y-112553750D03*
X54927500Y-110013750D03*
D15*
X58677500Y-110013750D03*
%TD*%
%TO.C,SW39*%
X63877500Y-112553750D03*
D16*
X66357500Y-115093750D03*
X76517500Y-115093750D03*
D17*
X71437500Y-115093750D03*
D18*
X67627500Y-112553750D03*
X73977500Y-110013750D03*
D15*
X77727500Y-110013750D03*
%TD*%
%TO.C,SW38*%
X82927500Y-112553750D03*
D16*
X85407500Y-115093750D03*
X95567500Y-115093750D03*
D17*
X90487500Y-115093750D03*
D18*
X86677500Y-112553750D03*
X93027500Y-110013750D03*
D15*
X96777500Y-110013750D03*
%TD*%
%TO.C,SW37*%
X101977500Y-112553750D03*
D16*
X104457500Y-115093750D03*
X114617500Y-115093750D03*
D17*
X109537500Y-115093750D03*
D18*
X105727500Y-112553750D03*
X112077500Y-110013750D03*
D15*
X115827500Y-110013750D03*
%TD*%
%TO.C,SW36*%
X121027500Y-112553750D03*
D16*
X123507500Y-115093750D03*
X133667500Y-115093750D03*
D17*
X128587500Y-115093750D03*
D18*
X124777500Y-112553750D03*
X131127500Y-110013750D03*
D15*
X134877500Y-110013750D03*
%TD*%
%TO.C,SW35*%
X140077500Y-112553750D03*
D16*
X142557500Y-115093750D03*
X152717500Y-115093750D03*
D17*
X147637500Y-115093750D03*
D18*
X143827500Y-112553750D03*
X150177500Y-110013750D03*
D15*
X153927500Y-110013750D03*
%TD*%
%TO.C,SW34*%
X159127500Y-112553750D03*
D16*
X161607500Y-115093750D03*
X171767500Y-115093750D03*
D17*
X166687500Y-115093750D03*
D18*
X162877500Y-112553750D03*
X169227500Y-110013750D03*
D15*
X172977500Y-110013750D03*
%TD*%
%TO.C,SW33*%
X178177500Y-112553750D03*
D16*
X180657500Y-115093750D03*
X190817500Y-115093750D03*
D17*
X185737500Y-115093750D03*
D18*
X181927500Y-112553750D03*
X188277500Y-110013750D03*
D15*
X192027500Y-110013750D03*
%TD*%
%TO.C,SW32*%
X197227500Y-112553750D03*
D16*
X199707500Y-115093750D03*
X209867500Y-115093750D03*
D17*
X204787500Y-115093750D03*
D18*
X200977500Y-112553750D03*
X207327500Y-110013750D03*
D15*
X211077500Y-110013750D03*
%TD*%
%TO.C,SW31*%
X216277500Y-112553750D03*
D16*
X218757500Y-115093750D03*
X228917500Y-115093750D03*
D17*
X223837500Y-115093750D03*
D18*
X220027500Y-112553750D03*
X226377500Y-110013750D03*
D15*
X230127500Y-110013750D03*
%TD*%
%TO.C,SW30*%
X44827500Y-93503750D03*
D16*
X47307500Y-96043750D03*
X57467500Y-96043750D03*
D17*
X52387500Y-96043750D03*
D18*
X48577500Y-93503750D03*
X54927500Y-90963750D03*
D15*
X58677500Y-90963750D03*
%TD*%
%TO.C,SW29*%
X63877500Y-93503750D03*
D16*
X66357500Y-96043750D03*
X76517500Y-96043750D03*
D17*
X71437500Y-96043750D03*
D18*
X67627500Y-93503750D03*
X73977500Y-90963750D03*
D15*
X77727500Y-90963750D03*
%TD*%
%TO.C,SW28*%
X82927500Y-93503750D03*
D16*
X85407500Y-96043750D03*
X95567500Y-96043750D03*
D17*
X90487500Y-96043750D03*
D18*
X86677500Y-93503750D03*
X93027500Y-90963750D03*
D15*
X96777500Y-90963750D03*
%TD*%
%TO.C,SW27*%
X101977500Y-93503750D03*
D16*
X104457500Y-96043750D03*
X114617500Y-96043750D03*
D17*
X109537500Y-96043750D03*
D18*
X105727500Y-93503750D03*
X112077500Y-90963750D03*
D15*
X115827500Y-90963750D03*
%TD*%
%TO.C,SW26*%
X121027500Y-93503750D03*
D16*
X123507500Y-96043750D03*
X133667500Y-96043750D03*
D17*
X128587500Y-96043750D03*
D18*
X124777500Y-93503750D03*
X131127500Y-90963750D03*
D15*
X134877500Y-90963750D03*
%TD*%
%TO.C,SW25*%
X140077500Y-93503750D03*
D16*
X142557500Y-96043750D03*
X152717500Y-96043750D03*
D17*
X147637500Y-96043750D03*
D18*
X143827500Y-93503750D03*
X150177500Y-90963750D03*
D15*
X153927500Y-90963750D03*
%TD*%
%TO.C,SW24*%
X159127500Y-93503750D03*
D16*
X161607500Y-96043750D03*
X171767500Y-96043750D03*
D17*
X166687500Y-96043750D03*
D18*
X162877500Y-93503750D03*
X169227500Y-90963750D03*
D15*
X172977500Y-90963750D03*
%TD*%
%TO.C,SW23*%
X178177500Y-93503750D03*
D16*
X180657500Y-96043750D03*
X190817500Y-96043750D03*
D17*
X185737500Y-96043750D03*
D18*
X181927500Y-93503750D03*
X188277500Y-90963750D03*
D15*
X192027500Y-90963750D03*
%TD*%
%TO.C,SW22*%
X197227500Y-93503750D03*
D16*
X199707500Y-96043750D03*
X209867500Y-96043750D03*
D17*
X204787500Y-96043750D03*
D18*
X200977500Y-93503750D03*
X207327500Y-90963750D03*
D15*
X211077500Y-90963750D03*
%TD*%
%TO.C,SW21*%
X216277500Y-93503750D03*
D16*
X218757500Y-96043750D03*
X228917500Y-96043750D03*
D17*
X223837500Y-96043750D03*
D18*
X220027500Y-93503750D03*
X226377500Y-90963750D03*
D15*
X230127500Y-90963750D03*
%TD*%
%TO.C,SW20*%
X44827500Y-74453750D03*
D16*
X47307500Y-76993750D03*
X57467500Y-76993750D03*
D17*
X52387500Y-76993750D03*
D18*
X48577500Y-74453750D03*
X54927500Y-71913750D03*
D15*
X58677500Y-71913750D03*
%TD*%
%TO.C,SW19*%
X63877500Y-74453750D03*
D16*
X66357500Y-76993750D03*
X76517500Y-76993750D03*
D17*
X71437500Y-76993750D03*
D18*
X67627500Y-74453750D03*
X73977500Y-71913750D03*
D15*
X77727500Y-71913750D03*
%TD*%
%TO.C,SW18*%
X82927500Y-74453750D03*
D16*
X85407500Y-76993750D03*
X95567500Y-76993750D03*
D17*
X90487500Y-76993750D03*
D18*
X86677500Y-74453750D03*
X93027500Y-71913750D03*
D15*
X96777500Y-71913750D03*
%TD*%
%TO.C,SW17*%
X101977500Y-74453750D03*
D16*
X104457500Y-76993750D03*
X114617500Y-76993750D03*
D17*
X109537500Y-76993750D03*
D18*
X105727500Y-74453750D03*
X112077500Y-71913750D03*
D15*
X115827500Y-71913750D03*
%TD*%
%TO.C,SW16*%
X121027500Y-74453750D03*
D16*
X123507500Y-76993750D03*
X133667500Y-76993750D03*
D17*
X128587500Y-76993750D03*
D18*
X124777500Y-74453750D03*
X131127500Y-71913750D03*
D15*
X134877500Y-71913750D03*
%TD*%
%TO.C,SW15*%
X140077500Y-74453750D03*
D16*
X142557500Y-76993750D03*
X152717500Y-76993750D03*
D17*
X147637500Y-76993750D03*
D18*
X143827500Y-74453750D03*
X150177500Y-71913750D03*
D15*
X153927500Y-71913750D03*
%TD*%
%TO.C,SW14*%
X159127500Y-74453750D03*
D16*
X161607500Y-76993750D03*
X171767500Y-76993750D03*
D17*
X166687500Y-76993750D03*
D18*
X162877500Y-74453750D03*
X169227500Y-71913750D03*
D15*
X172977500Y-71913750D03*
%TD*%
%TO.C,SW13*%
X178177500Y-74453750D03*
D16*
X180657500Y-76993750D03*
X190817500Y-76993750D03*
D17*
X185737500Y-76993750D03*
D18*
X181927500Y-74453750D03*
X188277500Y-71913750D03*
D15*
X192027500Y-71913750D03*
%TD*%
%TO.C,SW12*%
X197227500Y-74453750D03*
D16*
X199707500Y-76993750D03*
X209867500Y-76993750D03*
D17*
X204787500Y-76993750D03*
D18*
X200977500Y-74453750D03*
X207327500Y-71913750D03*
D15*
X211077500Y-71913750D03*
%TD*%
%TO.C,SW10*%
X44827500Y-55403750D03*
D16*
X47307500Y-57943750D03*
X57467500Y-57943750D03*
D17*
X52387500Y-57943750D03*
D18*
X48577500Y-55403750D03*
X54927500Y-52863750D03*
D15*
X58677500Y-52863750D03*
%TD*%
%TO.C,SW9*%
X63877500Y-55403750D03*
D16*
X66357500Y-57943750D03*
X76517500Y-57943750D03*
D17*
X71437500Y-57943750D03*
D18*
X67627500Y-55403750D03*
X73977500Y-52863750D03*
D15*
X77727500Y-52863750D03*
%TD*%
%TO.C,SW8*%
X82927500Y-55403750D03*
D16*
X85407500Y-57943750D03*
X95567500Y-57943750D03*
D17*
X90487500Y-57943750D03*
D18*
X86677500Y-55403750D03*
X93027500Y-52863750D03*
D15*
X96777500Y-52863750D03*
%TD*%
%TO.C,SW7*%
X101977500Y-55403750D03*
D16*
X104457500Y-57943750D03*
X114617500Y-57943750D03*
D17*
X109537500Y-57943750D03*
D18*
X105727500Y-55403750D03*
X112077500Y-52863750D03*
D15*
X115827500Y-52863750D03*
%TD*%
%TO.C,SW6*%
X121027500Y-55403750D03*
D16*
X123507500Y-57943750D03*
X133667500Y-57943750D03*
D17*
X128587500Y-57943750D03*
D18*
X124777500Y-55403750D03*
X131127500Y-52863750D03*
D15*
X134877500Y-52863750D03*
%TD*%
%TO.C,SW5*%
X140077500Y-55403750D03*
D16*
X142557500Y-57943750D03*
X152717500Y-57943750D03*
D17*
X147637500Y-57943750D03*
D18*
X143827500Y-55403750D03*
X150177500Y-52863750D03*
D15*
X153927500Y-52863750D03*
%TD*%
%TO.C,SW4*%
X159127500Y-55403750D03*
D16*
X161607500Y-57943750D03*
X171767500Y-57943750D03*
D17*
X166687500Y-57943750D03*
D18*
X162877500Y-55403750D03*
X169227500Y-52863750D03*
D15*
X172977500Y-52863750D03*
%TD*%
%TO.C,SW1*%
X216277500Y-55403750D03*
D16*
X218757500Y-57943750D03*
X228917500Y-57943750D03*
D17*
X223837500Y-57943750D03*
D18*
X220027500Y-55403750D03*
X226377500Y-52863750D03*
D15*
X230127500Y-52863750D03*
%TD*%
M02*
