G04 #@! TF.GenerationSoftware,KiCad,Pcbnew,(6.0.4-0)*
G04 #@! TF.CreationDate,2022-05-09T20:33:25-05:00*
G04 #@! TF.ProjectId,banime40,62616e69-6d65-4343-902e-6b696361645f,rev?*
G04 #@! TF.SameCoordinates,Original*
G04 #@! TF.FileFunction,Copper,L1,Top*
G04 #@! TF.FilePolarity,Positive*
%FSLAX46Y46*%
G04 Gerber Fmt 4.6, Leading zero omitted, Abs format (unit mm)*
G04 Created by KiCad (PCBNEW (6.0.4-0)) date 2022-05-09 20:33:25*
%MOMM*%
%LPD*%
G01*
G04 APERTURE LIST*
G04 #@! TA.AperFunction,ComponentPad*
%ADD10C,2.000000*%
G04 #@! TD*
G04 #@! TA.AperFunction,ComponentPad*
%ADD11R,2.000000X2.000000*%
G04 #@! TD*
G04 #@! TA.AperFunction,WasherPad*
%ADD12O,2.000000X3.200000*%
G04 #@! TD*
G04 #@! TA.AperFunction,ComponentPad*
%ADD13R,1.600000X1.600000*%
G04 #@! TD*
G04 #@! TA.AperFunction,ComponentPad*
%ADD14C,1.600000*%
G04 #@! TD*
G04 #@! TA.AperFunction,ComponentPad*
%ADD15R,1.752600X1.752600*%
G04 #@! TD*
G04 #@! TA.AperFunction,ComponentPad*
%ADD16C,1.752600*%
G04 #@! TD*
G04 #@! TA.AperFunction,ViaPad*
%ADD17C,0.800000*%
G04 #@! TD*
G04 #@! TA.AperFunction,Conductor*
%ADD18C,0.250000*%
G04 #@! TD*
G04 APERTURE END LIST*
D10*
G04 #@! TO.P,SW47,S2,S2*
G04 #@! TO.N,/col_9*
X49887500Y-108093750D03*
G04 #@! TO.P,SW47,S1,S1*
G04 #@! TO.N,Net-(D40-Pad2)*
X54887500Y-108093750D03*
G04 #@! TO.P,SW47,C,C*
G04 #@! TO.N,gnd*
X52387500Y-122593750D03*
G04 #@! TO.P,SW47,B,B*
G04 #@! TO.N,pad_b2*
X54887500Y-122593750D03*
D11*
G04 #@! TO.P,SW47,A,A*
G04 #@! TO.N,pad_a1*
X49887500Y-122593750D03*
D12*
G04 #@! TO.P,SW47,*
G04 #@! TO.N,*
X46787500Y-115093750D03*
X57987500Y-115093750D03*
G04 #@! TD*
D10*
G04 #@! TO.P,SW46,S2,S2*
G04 #@! TO.N,/col_0*
X221337500Y-108093750D03*
G04 #@! TO.P,SW46,S1,S1*
G04 #@! TO.N,Net-(D31-Pad2)*
X226337500Y-108093750D03*
G04 #@! TO.P,SW46,C,C*
G04 #@! TO.N,gnd*
X223837500Y-122593750D03*
G04 #@! TO.P,SW46,B,B*
G04 #@! TO.N,pad_b1*
X226337500Y-122593750D03*
D11*
G04 #@! TO.P,SW46,A,A*
G04 #@! TO.N,pad_a1*
X221337500Y-122593750D03*
D12*
G04 #@! TO.P,SW46,*
G04 #@! TO.N,*
X218237500Y-115093750D03*
X229437500Y-115093750D03*
G04 #@! TD*
D13*
G04 #@! TO.P,D1,1,K*
G04 #@! TO.N,/row_0*
X231775000Y-63431250D03*
D14*
G04 #@! TO.P,D1,2,A*
G04 #@! TO.N,Net-(D1-Pad2)*
X231775000Y-55631250D03*
G04 #@! TD*
D13*
G04 #@! TO.P,D2,1,K*
G04 #@! TO.N,/row_0*
X212725000Y-63431250D03*
D14*
G04 #@! TO.P,D2,2,A*
G04 #@! TO.N,Net-(D2-Pad2)*
X212725000Y-55631250D03*
G04 #@! TD*
D13*
G04 #@! TO.P,D3,1,K*
G04 #@! TO.N,/row_0*
X193675000Y-63431250D03*
D14*
G04 #@! TO.P,D3,2,A*
G04 #@! TO.N,Net-(D3-Pad2)*
X193675000Y-55631250D03*
G04 #@! TD*
D13*
G04 #@! TO.P,D4,1,K*
G04 #@! TO.N,/row_0*
X174625000Y-63431250D03*
D14*
G04 #@! TO.P,D4,2,A*
G04 #@! TO.N,Net-(D4-Pad2)*
X174625000Y-55631250D03*
G04 #@! TD*
D13*
G04 #@! TO.P,D5,1,K*
G04 #@! TO.N,/row_0*
X155575000Y-63431250D03*
D14*
G04 #@! TO.P,D5,2,A*
G04 #@! TO.N,Net-(D5-Pad2)*
X155575000Y-55631250D03*
G04 #@! TD*
D13*
G04 #@! TO.P,D6,1,K*
G04 #@! TO.N,/row_0*
X136525000Y-63431250D03*
D14*
G04 #@! TO.P,D6,2,A*
G04 #@! TO.N,Net-(D6-Pad2)*
X136525000Y-55631250D03*
G04 #@! TD*
D13*
G04 #@! TO.P,D7,1,K*
G04 #@! TO.N,/row_0*
X117475000Y-63431250D03*
D14*
G04 #@! TO.P,D7,2,A*
G04 #@! TO.N,Net-(D7-Pad2)*
X117475000Y-55631250D03*
G04 #@! TD*
D13*
G04 #@! TO.P,D8,1,K*
G04 #@! TO.N,/row_0*
X98425000Y-63431250D03*
D14*
G04 #@! TO.P,D8,2,A*
G04 #@! TO.N,Net-(D8-Pad2)*
X98425000Y-55631250D03*
G04 #@! TD*
D13*
G04 #@! TO.P,D9,1,K*
G04 #@! TO.N,/row_0*
X79375000Y-63431250D03*
D14*
G04 #@! TO.P,D9,2,A*
G04 #@! TO.N,Net-(D9-Pad2)*
X79375000Y-55631250D03*
G04 #@! TD*
D13*
G04 #@! TO.P,D10,1,K*
G04 #@! TO.N,/row_0*
X60325000Y-63431250D03*
D14*
G04 #@! TO.P,D10,2,A*
G04 #@! TO.N,Net-(D10-Pad2)*
X60325000Y-55631250D03*
G04 #@! TD*
D13*
G04 #@! TO.P,D11,1,K*
G04 #@! TO.N,/row_1*
X231775000Y-82362500D03*
D14*
G04 #@! TO.P,D11,2,A*
G04 #@! TO.N,Net-(D11-Pad2)*
X231775000Y-74562500D03*
G04 #@! TD*
D13*
G04 #@! TO.P,D12,1,K*
G04 #@! TO.N,/row_1*
X212725000Y-82362500D03*
D14*
G04 #@! TO.P,D12,2,A*
G04 #@! TO.N,Net-(D12-Pad2)*
X212725000Y-74562500D03*
G04 #@! TD*
D13*
G04 #@! TO.P,D13,1,K*
G04 #@! TO.N,/row_1*
X193675000Y-82481250D03*
D14*
G04 #@! TO.P,D13,2,A*
G04 #@! TO.N,Net-(D13-Pad2)*
X193675000Y-74681250D03*
G04 #@! TD*
D13*
G04 #@! TO.P,D14,1,K*
G04 #@! TO.N,/row_1*
X174625000Y-82481250D03*
D14*
G04 #@! TO.P,D14,2,A*
G04 #@! TO.N,Net-(D14-Pad2)*
X174625000Y-74681250D03*
G04 #@! TD*
D13*
G04 #@! TO.P,D15,1,K*
G04 #@! TO.N,/row_1*
X155575000Y-82481250D03*
D14*
G04 #@! TO.P,D15,2,A*
G04 #@! TO.N,Net-(D15-Pad2)*
X155575000Y-74681250D03*
G04 #@! TD*
D13*
G04 #@! TO.P,D16,1,K*
G04 #@! TO.N,/row_1*
X136525000Y-82481250D03*
D14*
G04 #@! TO.P,D16,2,A*
G04 #@! TO.N,Net-(D16-Pad2)*
X136525000Y-74681250D03*
G04 #@! TD*
D13*
G04 #@! TO.P,D17,1,K*
G04 #@! TO.N,/row_1*
X117475000Y-82481250D03*
D14*
G04 #@! TO.P,D17,2,A*
G04 #@! TO.N,Net-(D17-Pad2)*
X117475000Y-74681250D03*
G04 #@! TD*
D13*
G04 #@! TO.P,D18,1,K*
G04 #@! TO.N,/row_1*
X98425000Y-82481250D03*
D14*
G04 #@! TO.P,D18,2,A*
G04 #@! TO.N,Net-(D18-Pad2)*
X98425000Y-74681250D03*
G04 #@! TD*
D13*
G04 #@! TO.P,D19,1,K*
G04 #@! TO.N,/row_1*
X79375000Y-82481250D03*
D14*
G04 #@! TO.P,D19,2,A*
G04 #@! TO.N,Net-(D19-Pad2)*
X79375000Y-74681250D03*
G04 #@! TD*
D13*
G04 #@! TO.P,D20,1,K*
G04 #@! TO.N,/row_1*
X57081250Y-66675000D03*
D14*
G04 #@! TO.P,D20,2,A*
G04 #@! TO.N,Net-(D20-Pad2)*
X49281250Y-66675000D03*
G04 #@! TD*
D13*
G04 #@! TO.P,D21,1,K*
G04 #@! TO.N,/row_2*
X231775000Y-101531250D03*
D14*
G04 #@! TO.P,D21,2,A*
G04 #@! TO.N,Net-(D21-Pad2)*
X231775000Y-93731250D03*
G04 #@! TD*
D13*
G04 #@! TO.P,D22,1,K*
G04 #@! TO.N,/row_2*
X212725000Y-101531250D03*
D14*
G04 #@! TO.P,D22,2,A*
G04 #@! TO.N,Net-(D22-Pad2)*
X212725000Y-93731250D03*
G04 #@! TD*
D13*
G04 #@! TO.P,D23,1,K*
G04 #@! TO.N,/row_2*
X193675000Y-101531250D03*
D14*
G04 #@! TO.P,D23,2,A*
G04 #@! TO.N,Net-(D23-Pad2)*
X193675000Y-93731250D03*
G04 #@! TD*
D13*
G04 #@! TO.P,D24,1,K*
G04 #@! TO.N,/row_2*
X174625000Y-101531250D03*
D14*
G04 #@! TO.P,D24,2,A*
G04 #@! TO.N,Net-(D24-Pad2)*
X174625000Y-93731250D03*
G04 #@! TD*
D13*
G04 #@! TO.P,D25,1,K*
G04 #@! TO.N,/row_2*
X155575000Y-101531250D03*
D14*
G04 #@! TO.P,D25,2,A*
G04 #@! TO.N,Net-(D25-Pad2)*
X155575000Y-93731250D03*
G04 #@! TD*
D13*
G04 #@! TO.P,D26,1,K*
G04 #@! TO.N,/row_2*
X136525000Y-101531250D03*
D14*
G04 #@! TO.P,D26,2,A*
G04 #@! TO.N,Net-(D26-Pad2)*
X136525000Y-93731250D03*
G04 #@! TD*
D13*
G04 #@! TO.P,D27,1,K*
G04 #@! TO.N,/row_2*
X117475000Y-101531250D03*
D14*
G04 #@! TO.P,D27,2,A*
G04 #@! TO.N,Net-(D27-Pad2)*
X117475000Y-93731250D03*
G04 #@! TD*
D13*
G04 #@! TO.P,D28,1,K*
G04 #@! TO.N,/row_2*
X98425000Y-101531250D03*
D14*
G04 #@! TO.P,D28,2,A*
G04 #@! TO.N,Net-(D28-Pad2)*
X98425000Y-93731250D03*
G04 #@! TD*
D13*
G04 #@! TO.P,D29,1,K*
G04 #@! TO.N,/row_2*
X79375000Y-101531250D03*
D14*
G04 #@! TO.P,D29,2,A*
G04 #@! TO.N,Net-(D29-Pad2)*
X79375000Y-93731250D03*
G04 #@! TD*
D13*
G04 #@! TO.P,D30,1,K*
G04 #@! TO.N,/row_2*
X60325000Y-101531250D03*
D14*
G04 #@! TO.P,D30,2,A*
G04 #@! TO.N,Net-(D30-Pad2)*
X60325000Y-93731250D03*
G04 #@! TD*
D13*
G04 #@! TO.P,D31,1,K*
G04 #@! TO.N,/row_3*
X231775000Y-120581250D03*
D14*
G04 #@! TO.P,D31,2,A*
G04 #@! TO.N,Net-(D31-Pad2)*
X231775000Y-112781250D03*
G04 #@! TD*
D13*
G04 #@! TO.P,D32,1,K*
G04 #@! TO.N,/row_3*
X212725000Y-120581250D03*
D14*
G04 #@! TO.P,D32,2,A*
G04 #@! TO.N,Net-(D32-Pad2)*
X212725000Y-112781250D03*
G04 #@! TD*
D13*
G04 #@! TO.P,D33,1,K*
G04 #@! TO.N,/row_3*
X193675000Y-120581250D03*
D14*
G04 #@! TO.P,D33,2,A*
G04 #@! TO.N,Net-(D33-Pad2)*
X193675000Y-112781250D03*
G04 #@! TD*
D13*
G04 #@! TO.P,D34,1,K*
G04 #@! TO.N,/row_3*
X174625000Y-120581250D03*
D14*
G04 #@! TO.P,D34,2,A*
G04 #@! TO.N,Net-(D34-Pad2)*
X174625000Y-112781250D03*
G04 #@! TD*
D13*
G04 #@! TO.P,D35,1,K*
G04 #@! TO.N,/row_3*
X161062500Y-103981250D03*
D14*
G04 #@! TO.P,D35,2,A*
G04 #@! TO.N,Net-(D35-Pad2)*
X153262500Y-103981250D03*
G04 #@! TD*
D13*
G04 #@! TO.P,D36,1,K*
G04 #@! TO.N,/row_3*
X142012500Y-103981250D03*
D14*
G04 #@! TO.P,D36,2,A*
G04 #@! TO.N,Net-(D36-Pad2)*
X134212500Y-103981250D03*
G04 #@! TD*
D13*
G04 #@! TO.P,D37,1,K*
G04 #@! TO.N,/row_3*
X122962500Y-103981250D03*
D14*
G04 #@! TO.P,D37,2,A*
G04 #@! TO.N,Net-(D37-Pad2)*
X115162500Y-103981250D03*
G04 #@! TD*
D13*
G04 #@! TO.P,D38,1,K*
G04 #@! TO.N,/row_3*
X98425000Y-120581250D03*
D14*
G04 #@! TO.P,D38,2,A*
G04 #@! TO.N,Net-(D38-Pad2)*
X98425000Y-112781250D03*
G04 #@! TD*
D13*
G04 #@! TO.P,D39,1,K*
G04 #@! TO.N,/row_3*
X79375000Y-120581250D03*
D14*
G04 #@! TO.P,D39,2,A*
G04 #@! TO.N,Net-(D39-Pad2)*
X79375000Y-112781250D03*
G04 #@! TD*
D13*
G04 #@! TO.P,D40,1,K*
G04 #@! TO.N,/row_3*
X60325000Y-120581250D03*
D14*
G04 #@! TO.P,D40,2,A*
G04 #@! TO.N,Net-(D40-Pad2)*
X60325000Y-112781250D03*
G04 #@! TD*
D15*
G04 #@! TO.P,U1,1,TX0/PD3*
G04 #@! TO.N,unconnected-(U1-Pad1)*
X49830000Y-69130000D03*
D16*
G04 #@! TO.P,U1,2,RX1/PD2*
G04 #@! TO.N,pad_b2*
X52370000Y-69130000D03*
G04 #@! TO.P,U1,3,GND*
G04 #@! TO.N,unconnected-(U1-Pad3)*
X54910000Y-69130000D03*
G04 #@! TO.P,U1,4,GND*
G04 #@! TO.N,unconnected-(U1-Pad4)*
X57450000Y-69130000D03*
G04 #@! TO.P,U1,5,2/PD1*
G04 #@! TO.N,pad_b1*
X59990000Y-69130000D03*
G04 #@! TO.P,U1,6,3/PD0*
G04 #@! TO.N,pad_a1*
X62530000Y-69130000D03*
G04 #@! TO.P,U1,7,4/PD4*
G04 #@! TO.N,/row_3*
X65070000Y-69130000D03*
G04 #@! TO.P,U1,8,5/PC6*
G04 #@! TO.N,/row_2*
X67610000Y-69130000D03*
G04 #@! TO.P,U1,9,6/PD7*
G04 #@! TO.N,/row_1*
X70150000Y-69130000D03*
G04 #@! TO.P,U1,10,7/PE6*
G04 #@! TO.N,/row_0*
X72690000Y-69130000D03*
G04 #@! TO.P,U1,11,8/PB4*
G04 #@! TO.N,/col_9*
X75230000Y-69130000D03*
G04 #@! TO.P,U1,12,9/PB5*
G04 #@! TO.N,/col_8*
X77770000Y-69130000D03*
G04 #@! TO.P,U1,13,10/PB6*
G04 #@! TO.N,/col_7*
X77770000Y-84370000D03*
G04 #@! TO.P,U1,14,16/PB2*
G04 #@! TO.N,/col_6*
X75230000Y-84370000D03*
G04 #@! TO.P,U1,15,14/PB3*
G04 #@! TO.N,/col_5*
X72690000Y-84370000D03*
G04 #@! TO.P,U1,16,15/PB1*
G04 #@! TO.N,/col_4*
X70150000Y-84370000D03*
G04 #@! TO.P,U1,17,A0/PF7*
G04 #@! TO.N,/col_3*
X67610000Y-84370000D03*
G04 #@! TO.P,U1,18,A1/PF6*
G04 #@! TO.N,/col_2*
X65070000Y-84370000D03*
G04 #@! TO.P,U1,19,A2/PF5*
G04 #@! TO.N,/col_1*
X62530000Y-84370000D03*
G04 #@! TO.P,U1,20,A3/PF4*
G04 #@! TO.N,/col_0*
X59990000Y-84370000D03*
G04 #@! TO.P,U1,21,VCC*
G04 #@! TO.N,unconnected-(U1-Pad21)*
X57450000Y-84370000D03*
G04 #@! TO.P,U1,22,RST*
G04 #@! TO.N,gnd*
X54910000Y-84370000D03*
G04 #@! TO.P,U1,23,GND*
G04 #@! TO.N,Net-(SW44-Pad1)*
X52370000Y-84370000D03*
G04 #@! TO.P,U1,24,RAW*
G04 #@! TO.N,unconnected-(U1-Pad24)*
X49830000Y-84370000D03*
G04 #@! TD*
D17*
G04 #@! TO.N,pad_a1*
X202406250Y-116681250D03*
X107156250Y-117475000D03*
X104659576Y-117359576D03*
X202406250Y-123031250D03*
X170623159Y-116714341D03*
X173239763Y-115878373D03*
X80962500Y-117475000D03*
X70925201Y-67187299D03*
X80962500Y-122237500D03*
X72300500Y-66367381D03*
X69850000Y-67468750D03*
X67466450Y-67471050D03*
X63153000Y-67468750D03*
X80962500Y-66675000D03*
G04 #@! TO.N,gnd*
X173004409Y-119095591D03*
X103072076Y-118947076D03*
X52387500Y-119062500D03*
X173235257Y-117277243D03*
X104890424Y-119177924D03*
X223837500Y-119856250D03*
X52387500Y-103187500D03*
X55562500Y-103187500D03*
G04 #@! TO.N,pad_b1*
X61912500Y-64293750D03*
X225425000Y-64293750D03*
G04 #@! TO.N,pad_b2*
X51303018Y-73965219D03*
X52394374Y-73007377D03*
G04 #@! TO.N,/row_0*
X73025000Y-63500000D03*
G04 #@! TO.N,/row_2*
X65087500Y-101600000D03*
G04 #@! TO.N,/row_3*
X61912500Y-120650000D03*
X61912500Y-71437500D03*
X65077499Y-71437500D03*
G04 #@! TO.N,/col_0*
X216277500Y-106778750D03*
X61118750Y-102931252D03*
G04 #@! TO.N,/col_1*
X62706250Y-95353752D03*
X197227500Y-100390000D03*
X62706250Y-100012500D03*
X62706250Y-91653748D03*
G04 #@! TO.N,/col_2*
X64593699Y-96043750D03*
X178177500Y-99635000D03*
X64593699Y-91653748D03*
X64593699Y-99218750D03*
G04 #@! TO.N,/col_3*
X157162500Y-98910000D03*
X73818750Y-98910000D03*
G04 #@! TO.N,/col_4*
X74672067Y-98185000D03*
X162946068Y-118351411D03*
X138112500Y-98185000D03*
X147637500Y-117687653D03*
G04 #@! TO.N,/col_5*
X120650000Y-88106250D03*
X73025000Y-88106250D03*
G04 #@! TO.N,/col_6*
X75406250Y-87312500D03*
X101600000Y-87312500D03*
G04 #@! TO.N,/col_7*
X77787500Y-86518750D03*
X82550000Y-86518750D03*
G04 #@! TO.N,/col_8*
X64293750Y-70643750D03*
G04 #@! TO.N,/col_9*
X44827500Y-65465000D03*
G04 #@! TO.N,/row_1*
X69056250Y-82550000D03*
G04 #@! TO.N,gnd*
X50800000Y-100806250D03*
X53975000Y-100806250D03*
G04 #@! TO.N,Net-(SW44-Pad1)*
X53975000Y-105568750D03*
X50800000Y-105568750D03*
G04 #@! TD*
D18*
G04 #@! TO.N,pad_a1*
X125553953Y-114428271D02*
X125553953Y-115409657D01*
X164306250Y-114080967D02*
X164306250Y-116061954D01*
X173239763Y-115878373D02*
X173680561Y-116319171D01*
X148192005Y-110679229D02*
X150238105Y-112725329D01*
X150238105Y-112725329D02*
X152284205Y-110679229D01*
X120380276Y-117475000D02*
X122096047Y-115759229D01*
X122096047Y-115759229D02*
X122096047Y-112584229D01*
X80962500Y-117475000D02*
X104544152Y-117475000D01*
X143051047Y-110679229D02*
X148192005Y-110679229D01*
X122096047Y-112584229D02*
X124001047Y-110679229D01*
X107156250Y-117475000D02*
X120380276Y-117475000D01*
X104544152Y-117475000D02*
X104659576Y-117359576D01*
X124001047Y-110679229D02*
X125553953Y-110679229D01*
X165100000Y-113287217D02*
X164306250Y-114080967D01*
X126652021Y-113330203D02*
X125553953Y-114428271D01*
X126652021Y-111777297D02*
X126652021Y-113330203D01*
X202406250Y-123031250D02*
X202843750Y-122593750D01*
X125553953Y-110679229D02*
X126652021Y-111777297D01*
X183369079Y-114112717D02*
X184756467Y-112725329D01*
X127619296Y-117475000D02*
X139430276Y-117475000D01*
X165100000Y-112118862D02*
X165100000Y-113287217D01*
X188105921Y-114112717D02*
X188105921Y-114287171D01*
X188105921Y-114287171D02*
X190500000Y-116681250D01*
X164306250Y-116061954D02*
X165719296Y-117475000D01*
X125553953Y-115409657D02*
X127619296Y-117475000D01*
X141146047Y-115759229D02*
X141146047Y-112584229D01*
X141146047Y-112584229D02*
X143051047Y-110679229D01*
X183124691Y-116319171D02*
X183369079Y-116074783D01*
X202843750Y-122593750D02*
X221337500Y-122593750D01*
X186718533Y-112725329D02*
X188105921Y-114112717D01*
X152284205Y-110679229D02*
X163660367Y-110679229D01*
X163660367Y-110679229D02*
X165100000Y-112118862D01*
X173680561Y-116319171D02*
X183124691Y-116319171D01*
X139430276Y-117475000D02*
X141146047Y-115759229D01*
X183369079Y-116074783D02*
X183369079Y-114112717D01*
X190500000Y-116681250D02*
X202406250Y-116681250D01*
X165719296Y-117475000D02*
X169862500Y-117475000D01*
X169862500Y-117475000D02*
X170623159Y-116714341D01*
X184756467Y-112725329D02*
X186718533Y-112725329D01*
X63153000Y-67468750D02*
X67464150Y-67468750D01*
X69850000Y-67468750D02*
X70643750Y-67468750D01*
X80654881Y-66367381D02*
X80962500Y-66675000D01*
X67464150Y-67468750D02*
X67466450Y-67471050D01*
X72300500Y-66367381D02*
X80654881Y-66367381D01*
X70643750Y-67468750D02*
X70925201Y-67187299D01*
X56404393Y-122237500D02*
X55436132Y-121269239D01*
X80962500Y-122237500D02*
X56404393Y-122237500D01*
X55436132Y-121269239D02*
X51212011Y-121269239D01*
X51212011Y-121269239D02*
X49887500Y-122593750D01*
G04 #@! TO.N,gnd*
X172191729Y-119908271D02*
X173004409Y-119095591D01*
X139937005Y-118299229D02*
X141146047Y-119508271D01*
X152637005Y-119508271D02*
X153846047Y-118299229D01*
X132904229Y-119508271D02*
X134113271Y-118299229D01*
X153846047Y-118299229D02*
X158301259Y-118299229D01*
X173235257Y-117277243D02*
X173420185Y-117462171D01*
X141146047Y-119508271D02*
X152637005Y-119508271D01*
X105769119Y-118299229D02*
X120887005Y-118299229D01*
X122096047Y-119508271D02*
X132904229Y-119508271D01*
X221443421Y-117462171D02*
X223837500Y-119856250D01*
X104890424Y-119177924D02*
X105769119Y-118299229D01*
X158301259Y-118299229D02*
X159910302Y-119908271D01*
X102956652Y-119062500D02*
X103072076Y-118947076D01*
X159910302Y-119908271D02*
X172191729Y-119908271D01*
X52387500Y-119062500D02*
X102956652Y-119062500D01*
X173420185Y-117462171D02*
X221443421Y-117462171D01*
X120887005Y-118299229D02*
X122096047Y-119508271D01*
X134113271Y-118299229D02*
X139937005Y-118299229D01*
X55562500Y-103187500D02*
X52387500Y-103187500D01*
G04 #@! TO.N,pad_b1*
X61912500Y-64293750D02*
X62174511Y-64555761D01*
X225162989Y-64555761D02*
X225425000Y-64293750D01*
X62174511Y-64555761D02*
X225162989Y-64555761D01*
G04 #@! TO.N,pad_b2*
X51303018Y-73965219D02*
X51436532Y-73965219D01*
X51436532Y-73965219D02*
X52394374Y-73007377D01*
G04 #@! TO.N,/row_0*
X60325000Y-63431250D02*
X72956250Y-63431250D01*
X72956250Y-63431250D02*
X231775000Y-63431250D01*
X72956250Y-63431250D02*
X73025000Y-63500000D01*
G04 #@! TO.N,/row_2*
X65018750Y-101531250D02*
X114377502Y-101531250D01*
X114377502Y-101531250D02*
X231775000Y-101531250D01*
X60325000Y-101531250D02*
X65018750Y-101531250D01*
X65018750Y-101531250D02*
X65087500Y-101600000D01*
G04 #@! TO.N,/row_3*
X98425000Y-120581250D02*
X102462500Y-120581250D01*
X98073499Y-120229749D02*
X98425000Y-120581250D01*
X86873478Y-120581250D02*
X87224979Y-120229749D01*
X142012500Y-103981250D02*
X151597498Y-103981250D01*
X60325000Y-120581250D02*
X61981250Y-120581250D01*
X159937499Y-105106251D02*
X161062500Y-103981250D01*
X174976501Y-120229749D02*
X174625000Y-120581250D01*
X61981250Y-120581250D02*
X61912500Y-120650000D01*
X231775000Y-120581250D02*
X189351522Y-120581250D01*
X152722499Y-105106251D02*
X159937499Y-105106251D01*
X140887499Y-105106251D02*
X142012500Y-103981250D01*
X107218599Y-115825151D02*
X107218599Y-113980677D01*
X151597498Y-103981250D02*
X152722499Y-105106251D01*
X107218599Y-113980677D02*
X110252499Y-110946777D01*
X161062500Y-106129084D02*
X174625000Y-119691584D01*
X189000021Y-120229749D02*
X174976501Y-120229749D01*
X133672499Y-105106251D02*
X140887499Y-105106251D01*
X65077499Y-71437500D02*
X61912500Y-71437500D01*
X132547498Y-103981250D02*
X133672499Y-105106251D01*
X122962500Y-103981250D02*
X132547498Y-103981250D01*
X174625000Y-119691584D02*
X174625000Y-120581250D01*
X61981250Y-120581250D02*
X86873478Y-120581250D01*
X121837499Y-105106251D02*
X122962500Y-103981250D01*
X110252499Y-109137749D02*
X114283997Y-105106251D01*
X102462500Y-120581250D02*
X107218599Y-115825151D01*
X161062500Y-103981250D02*
X161062500Y-106129084D01*
X87224979Y-120229749D02*
X98073499Y-120229749D01*
X189351522Y-120581250D02*
X189000021Y-120229749D01*
X114283997Y-105106251D02*
X121837499Y-105106251D01*
X110252499Y-110946777D02*
X110252499Y-109137749D01*
G04 #@! TO.N,/col_0*
X61193753Y-102856249D02*
X61118750Y-102931252D01*
X216277500Y-106778750D02*
X212354999Y-102856249D01*
X212354999Y-102856249D02*
X61193753Y-102856249D01*
G04 #@! TO.N,/col_1*
X62706250Y-95353752D02*
X62706250Y-91653748D01*
X63083750Y-100390000D02*
X62706250Y-100012500D01*
X197227500Y-100390000D02*
X63083750Y-100390000D01*
G04 #@! TO.N,/col_2*
X64593699Y-96043750D02*
X64593699Y-91653748D01*
X65009949Y-99635000D02*
X64593699Y-99218750D01*
X178177500Y-99635000D02*
X65009949Y-99635000D01*
G04 #@! TO.N,/col_3*
X157162500Y-98910000D02*
X73818750Y-98910000D01*
G04 #@! TO.N,/col_4*
X160096499Y-119458751D02*
X161838728Y-119458751D01*
X137934849Y-98362651D02*
X74849718Y-98362651D01*
X161838728Y-119458751D02*
X162946068Y-118351411D01*
X74849718Y-98362651D02*
X74672067Y-98185000D01*
X147637500Y-117687653D02*
X158325401Y-117687653D01*
X138112500Y-98185000D02*
X137934849Y-98362651D01*
X158325401Y-117687653D02*
X160096499Y-119458751D01*
G04 #@! TO.N,/col_5*
X120650000Y-88106250D02*
X73025000Y-88106250D01*
G04 #@! TO.N,/col_6*
X101600000Y-87312500D02*
X75406250Y-87312500D01*
G04 #@! TO.N,/col_7*
X82550000Y-86518750D02*
X77787500Y-86518750D01*
G04 #@! TO.N,/col_8*
X70006498Y-70643750D02*
X73101499Y-73738751D01*
X64293750Y-70643750D02*
X70006498Y-70643750D01*
X73101499Y-73738751D02*
X74853501Y-73738751D01*
X77770000Y-70822252D02*
X77770000Y-69130000D01*
X74853501Y-73738751D02*
X77770000Y-70822252D01*
G04 #@! TO.N,/col_9*
X70227500Y-65465000D02*
X72691199Y-67928699D01*
X44827500Y-65465000D02*
X70227500Y-65465000D01*
X74028699Y-67928699D02*
X75230000Y-69130000D01*
X72691199Y-67928699D02*
X74028699Y-67928699D01*
G04 #@! TO.N,/row_1*
X79375000Y-82481250D02*
X69125000Y-82481250D01*
X67695000Y-66675000D02*
X70150000Y-69130000D01*
X231775000Y-82362500D02*
X212725000Y-82362500D01*
X212725000Y-82362500D02*
X193793750Y-82362500D01*
X193675000Y-82481250D02*
X79375000Y-82481250D01*
X193793750Y-82362500D02*
X193675000Y-82481250D01*
X69125000Y-82481250D02*
X69056250Y-82550000D01*
X57081250Y-66675000D02*
X67695000Y-66675000D01*
G04 #@! TO.N,gnd*
X50800000Y-100806250D02*
X53975000Y-100806250D01*
G04 #@! TO.N,Net-(SW44-Pad1)*
X50800000Y-105568750D02*
X53975000Y-105568750D01*
G04 #@! TD*
M02*
