G04 #@! TF.GenerationSoftware,KiCad,Pcbnew,(6.0.4-0)*
G04 #@! TF.CreationDate,2022-07-18T19:19:47-05:00*
G04 #@! TF.ProjectId,banime40,62616e69-6d65-4343-902e-6b696361645f,rev?*
G04 #@! TF.SameCoordinates,Original*
G04 #@! TF.FileFunction,Paste,Bot*
G04 #@! TF.FilePolarity,Positive*
%FSLAX46Y46*%
G04 Gerber Fmt 4.6, Leading zero omitted, Abs format (unit mm)*
G04 Created by KiCad (PCBNEW (6.0.4-0)) date 2022-07-18 19:19:47*
%MOMM*%
%LPD*%
G01*
G04 APERTURE LIST*
%ADD10R,1.200000X1.600000*%
%ADD11R,1.600000X1.200000*%
%ADD12R,2.550000X2.500000*%
%ADD13R,1.700000X1.000000*%
%ADD14R,2.180000X1.600000*%
G04 APERTURE END LIST*
D10*
G04 #@! TO.C,D1*
X231775000Y-60931250D03*
X231775000Y-58131250D03*
G04 #@! TD*
G04 #@! TO.C,D2*
X212725000Y-60931250D03*
X212725000Y-58131250D03*
G04 #@! TD*
G04 #@! TO.C,D3*
X193675000Y-60931250D03*
X193675000Y-58131250D03*
G04 #@! TD*
G04 #@! TO.C,D4*
X174625000Y-60931250D03*
X174625000Y-58131250D03*
G04 #@! TD*
G04 #@! TO.C,D5*
X155575000Y-60931250D03*
X155575000Y-58131250D03*
G04 #@! TD*
G04 #@! TO.C,D6*
X136525000Y-60931250D03*
X136525000Y-58131250D03*
G04 #@! TD*
G04 #@! TO.C,D7*
X117475000Y-60931250D03*
X117475000Y-58131250D03*
G04 #@! TD*
G04 #@! TO.C,D8*
X98425000Y-60931250D03*
X98425000Y-58131250D03*
G04 #@! TD*
G04 #@! TO.C,D9*
X79375000Y-60931250D03*
X79375000Y-58131250D03*
G04 #@! TD*
G04 #@! TO.C,D10*
X60325000Y-60931250D03*
X60325000Y-58131250D03*
G04 #@! TD*
G04 #@! TO.C,D11*
X231775000Y-79862500D03*
X231775000Y-77062500D03*
G04 #@! TD*
G04 #@! TO.C,D12*
X212725000Y-79862500D03*
X212725000Y-77062500D03*
G04 #@! TD*
G04 #@! TO.C,D13*
X193675000Y-79981250D03*
X193675000Y-77181250D03*
G04 #@! TD*
G04 #@! TO.C,D14*
X174625000Y-79981250D03*
X174625000Y-77181250D03*
G04 #@! TD*
G04 #@! TO.C,D15*
X155575000Y-79981250D03*
X155575000Y-77181250D03*
G04 #@! TD*
G04 #@! TO.C,D16*
X136525000Y-79981250D03*
X136525000Y-77181250D03*
G04 #@! TD*
G04 #@! TO.C,D17*
X117475000Y-79981250D03*
X117475000Y-77181250D03*
G04 #@! TD*
G04 #@! TO.C,D18*
X98425000Y-79981250D03*
X98425000Y-77181250D03*
G04 #@! TD*
G04 #@! TO.C,D19*
X79375000Y-79981250D03*
X79375000Y-77181250D03*
G04 #@! TD*
D11*
G04 #@! TO.C,D20*
X54581250Y-66675000D03*
X51781250Y-66675000D03*
G04 #@! TD*
D10*
G04 #@! TO.C,D21*
X231775000Y-99031250D03*
X231775000Y-96231250D03*
G04 #@! TD*
G04 #@! TO.C,D22*
X212725000Y-99031250D03*
X212725000Y-96231250D03*
G04 #@! TD*
G04 #@! TO.C,D23*
X193675000Y-99031250D03*
X193675000Y-96231250D03*
G04 #@! TD*
G04 #@! TO.C,D24*
X174625000Y-99031250D03*
X174625000Y-96231250D03*
G04 #@! TD*
G04 #@! TO.C,D25*
X155575000Y-99031250D03*
X155575000Y-96231250D03*
G04 #@! TD*
G04 #@! TO.C,D26*
X136525000Y-99031250D03*
X136525000Y-96231250D03*
G04 #@! TD*
G04 #@! TO.C,D27*
X117475000Y-99031250D03*
X117475000Y-96231250D03*
G04 #@! TD*
G04 #@! TO.C,D28*
X98425000Y-99031250D03*
X98425000Y-96231250D03*
G04 #@! TD*
G04 #@! TO.C,D29*
X79375000Y-99031250D03*
X79375000Y-96231250D03*
G04 #@! TD*
G04 #@! TO.C,D30*
X60325000Y-99031250D03*
X60325000Y-96231250D03*
G04 #@! TD*
G04 #@! TO.C,D31*
X231775000Y-118081250D03*
X231775000Y-115281250D03*
G04 #@! TD*
G04 #@! TO.C,D32*
X212725000Y-118081250D03*
X212725000Y-115281250D03*
G04 #@! TD*
G04 #@! TO.C,D33*
X193675000Y-118081250D03*
X193675000Y-115281250D03*
G04 #@! TD*
G04 #@! TO.C,D34*
X174625000Y-118081250D03*
X174625000Y-115281250D03*
G04 #@! TD*
D11*
G04 #@! TO.C,D35*
X158562500Y-103981250D03*
X155762500Y-103981250D03*
G04 #@! TD*
G04 #@! TO.C,D36*
X139512500Y-103981250D03*
X136712500Y-103981250D03*
G04 #@! TD*
G04 #@! TO.C,D37*
X120462500Y-103981250D03*
X117662500Y-103981250D03*
G04 #@! TD*
D10*
G04 #@! TO.C,D38*
X98425000Y-118081250D03*
X98425000Y-115281250D03*
G04 #@! TD*
G04 #@! TO.C,D39*
X79375000Y-118081250D03*
X79375000Y-115281250D03*
G04 #@! TD*
G04 #@! TO.C,D40*
X60325000Y-118081250D03*
X60325000Y-115281250D03*
G04 #@! TD*
D12*
G04 #@! TO.C,SW1*
X230127500Y-52863750D03*
X216277500Y-55403750D03*
G04 #@! TD*
G04 #@! TO.C,SW2*
X211077500Y-52863750D03*
X197227500Y-55403750D03*
G04 #@! TD*
G04 #@! TO.C,SW3*
X192027500Y-52863750D03*
X178177500Y-55403750D03*
G04 #@! TD*
G04 #@! TO.C,SW4*
X172977500Y-52863750D03*
X159127500Y-55403750D03*
G04 #@! TD*
G04 #@! TO.C,SW5*
X153927500Y-52863750D03*
X140077500Y-55403750D03*
G04 #@! TD*
G04 #@! TO.C,SW6*
X134877500Y-52863750D03*
X121027500Y-55403750D03*
G04 #@! TD*
G04 #@! TO.C,SW7*
X115827500Y-52863750D03*
X101977500Y-55403750D03*
G04 #@! TD*
G04 #@! TO.C,SW8*
X96777500Y-52863750D03*
X82927500Y-55403750D03*
G04 #@! TD*
G04 #@! TO.C,SW9*
X77727500Y-52863750D03*
X63877500Y-55403750D03*
G04 #@! TD*
G04 #@! TO.C,SW10*
X58677500Y-52863750D03*
X44827500Y-55403750D03*
G04 #@! TD*
G04 #@! TO.C,SW11*
X230127500Y-71913750D03*
X216277500Y-74453750D03*
G04 #@! TD*
G04 #@! TO.C,SW12*
X211077500Y-71913750D03*
X197227500Y-74453750D03*
G04 #@! TD*
G04 #@! TO.C,SW13*
X192027500Y-71913750D03*
X178177500Y-74453750D03*
G04 #@! TD*
G04 #@! TO.C,SW14*
X172977500Y-71913750D03*
X159127500Y-74453750D03*
G04 #@! TD*
G04 #@! TO.C,SW15*
X153927500Y-71913750D03*
X140077500Y-74453750D03*
G04 #@! TD*
G04 #@! TO.C,SW16*
X134877500Y-71913750D03*
X121027500Y-74453750D03*
G04 #@! TD*
G04 #@! TO.C,SW17*
X115827500Y-71913750D03*
X101977500Y-74453750D03*
G04 #@! TD*
G04 #@! TO.C,SW18*
X96777500Y-71913750D03*
X82927500Y-74453750D03*
G04 #@! TD*
G04 #@! TO.C,SW19*
X77727500Y-71913750D03*
X63877500Y-74453750D03*
G04 #@! TD*
G04 #@! TO.C,SW20*
X58677500Y-71913750D03*
X44827500Y-74453750D03*
G04 #@! TD*
G04 #@! TO.C,SW21*
X230127500Y-90963750D03*
X216277500Y-93503750D03*
G04 #@! TD*
G04 #@! TO.C,SW22*
X211077500Y-90963750D03*
X197227500Y-93503750D03*
G04 #@! TD*
G04 #@! TO.C,SW23*
X192027500Y-90963750D03*
X178177500Y-93503750D03*
G04 #@! TD*
G04 #@! TO.C,SW24*
X172977500Y-90963750D03*
X159127500Y-93503750D03*
G04 #@! TD*
G04 #@! TO.C,SW25*
X153927500Y-90963750D03*
X140077500Y-93503750D03*
G04 #@! TD*
G04 #@! TO.C,SW26*
X134877500Y-90963750D03*
X121027500Y-93503750D03*
G04 #@! TD*
G04 #@! TO.C,SW27*
X115827500Y-90963750D03*
X101977500Y-93503750D03*
G04 #@! TD*
G04 #@! TO.C,SW28*
X96777500Y-90963750D03*
X82927500Y-93503750D03*
G04 #@! TD*
G04 #@! TO.C,SW29*
X77727500Y-90963750D03*
X63877500Y-93503750D03*
G04 #@! TD*
G04 #@! TO.C,SW30*
X58677500Y-90963750D03*
X44827500Y-93503750D03*
G04 #@! TD*
G04 #@! TO.C,SW31*
X230127500Y-110013750D03*
X216277500Y-112553750D03*
G04 #@! TD*
G04 #@! TO.C,SW32*
X211077500Y-110013750D03*
X197227500Y-112553750D03*
G04 #@! TD*
G04 #@! TO.C,SW33*
X192027500Y-110013750D03*
X178177500Y-112553750D03*
G04 #@! TD*
G04 #@! TO.C,SW34*
X172977500Y-110013750D03*
X159127500Y-112553750D03*
G04 #@! TD*
G04 #@! TO.C,SW35*
X153927500Y-110013750D03*
X140077500Y-112553750D03*
G04 #@! TD*
G04 #@! TO.C,SW36*
X134877500Y-110013750D03*
X121027500Y-112553750D03*
G04 #@! TD*
G04 #@! TO.C,SW37*
X115827500Y-110013750D03*
X101977500Y-112553750D03*
G04 #@! TD*
G04 #@! TO.C,SW38*
X96777500Y-110013750D03*
X82927500Y-112553750D03*
G04 #@! TD*
G04 #@! TO.C,SW39*
X77727500Y-110013750D03*
X63877500Y-112553750D03*
G04 #@! TD*
G04 #@! TO.C,SW40*
X58677500Y-110013750D03*
X44827500Y-112553750D03*
G04 #@! TD*
G04 #@! TO.C,SW41*
X150872500Y-120173750D03*
X164722500Y-117633750D03*
G04 #@! TD*
G04 #@! TO.C,SW42*
X112772500Y-120173750D03*
X126622500Y-117633750D03*
G04 #@! TD*
G04 #@! TO.C,SW43*
X131822500Y-120173750D03*
X145672500Y-117633750D03*
G04 #@! TD*
D13*
G04 #@! TO.C,SW44*
X55537500Y-105087500D03*
X49237500Y-105087500D03*
X49237500Y-101287500D03*
X55537500Y-101287500D03*
G04 #@! TD*
D14*
G04 #@! TO.C,SW45*
X47797500Y-103187500D03*
X56977500Y-103187500D03*
G04 #@! TD*
M02*
