G04 #@! TF.GenerationSoftware,KiCad,Pcbnew,(6.0.4-0)*
G04 #@! TF.CreationDate,2022-07-18T19:19:47-05:00*
G04 #@! TF.ProjectId,banime40,62616e69-6d65-4343-902e-6b696361645f,rev?*
G04 #@! TF.SameCoordinates,Original*
G04 #@! TF.FileFunction,Soldermask,Bot*
G04 #@! TF.FilePolarity,Negative*
%FSLAX46Y46*%
G04 Gerber Fmt 4.6, Leading zero omitted, Abs format (unit mm)*
G04 Created by KiCad (PCBNEW (6.0.4-0)) date 2022-07-18 19:19:47*
%MOMM*%
%LPD*%
G01*
G04 APERTURE LIST*
%ADD10R,1.600000X1.600000*%
%ADD11R,1.200000X1.600000*%
%ADD12C,1.600000*%
%ADD13R,1.600000X1.200000*%
%ADD14C,1.701800*%
%ADD15C,3.000000*%
%ADD16C,3.987800*%
%ADD17R,2.550000X2.500000*%
%ADD18C,3.048000*%
%ADD19O,2.000000X3.200000*%
%ADD20R,2.000000X2.000000*%
%ADD21C,2.000000*%
%ADD22R,1.752600X1.752600*%
%ADD23C,1.752600*%
%ADD24C,2.200000*%
%ADD25R,1.700000X1.000000*%
%ADD26R,2.180000X1.600000*%
G04 APERTURE END LIST*
D10*
G04 #@! TO.C,D1*
X231775000Y-63431250D03*
D11*
X231775000Y-60931250D03*
D12*
X231775000Y-55631250D03*
D11*
X231775000Y-58131250D03*
G04 #@! TD*
G04 #@! TO.C,D2*
X212725000Y-60931250D03*
D10*
X212725000Y-63431250D03*
D12*
X212725000Y-55631250D03*
D11*
X212725000Y-58131250D03*
G04 #@! TD*
D10*
G04 #@! TO.C,D3*
X193675000Y-63431250D03*
D11*
X193675000Y-60931250D03*
D12*
X193675000Y-55631250D03*
D11*
X193675000Y-58131250D03*
G04 #@! TD*
D10*
G04 #@! TO.C,D4*
X174625000Y-63431250D03*
D11*
X174625000Y-60931250D03*
D12*
X174625000Y-55631250D03*
D11*
X174625000Y-58131250D03*
G04 #@! TD*
D10*
G04 #@! TO.C,D5*
X155575000Y-63431250D03*
D11*
X155575000Y-60931250D03*
D12*
X155575000Y-55631250D03*
D11*
X155575000Y-58131250D03*
G04 #@! TD*
D10*
G04 #@! TO.C,D6*
X136525000Y-63431250D03*
D11*
X136525000Y-60931250D03*
D12*
X136525000Y-55631250D03*
D11*
X136525000Y-58131250D03*
G04 #@! TD*
D10*
G04 #@! TO.C,D7*
X117475000Y-63431250D03*
D11*
X117475000Y-60931250D03*
X117475000Y-58131250D03*
D12*
X117475000Y-55631250D03*
G04 #@! TD*
D10*
G04 #@! TO.C,D8*
X98425000Y-63431250D03*
D11*
X98425000Y-60931250D03*
D12*
X98425000Y-55631250D03*
D11*
X98425000Y-58131250D03*
G04 #@! TD*
G04 #@! TO.C,D9*
X79375000Y-60931250D03*
D10*
X79375000Y-63431250D03*
D11*
X79375000Y-58131250D03*
D12*
X79375000Y-55631250D03*
G04 #@! TD*
D11*
G04 #@! TO.C,D10*
X60325000Y-60931250D03*
D10*
X60325000Y-63431250D03*
D11*
X60325000Y-58131250D03*
D12*
X60325000Y-55631250D03*
G04 #@! TD*
D10*
G04 #@! TO.C,D11*
X231775000Y-82362500D03*
D11*
X231775000Y-79862500D03*
D12*
X231775000Y-74562500D03*
D11*
X231775000Y-77062500D03*
G04 #@! TD*
D10*
G04 #@! TO.C,D12*
X212725000Y-82362500D03*
D11*
X212725000Y-79862500D03*
X212725000Y-77062500D03*
D12*
X212725000Y-74562500D03*
G04 #@! TD*
D10*
G04 #@! TO.C,D13*
X193675000Y-82481250D03*
D11*
X193675000Y-79981250D03*
D12*
X193675000Y-74681250D03*
D11*
X193675000Y-77181250D03*
G04 #@! TD*
D10*
G04 #@! TO.C,D14*
X174625000Y-82481250D03*
D11*
X174625000Y-79981250D03*
D12*
X174625000Y-74681250D03*
D11*
X174625000Y-77181250D03*
G04 #@! TD*
G04 #@! TO.C,D15*
X155575000Y-79981250D03*
D10*
X155575000Y-82481250D03*
D11*
X155575000Y-77181250D03*
D12*
X155575000Y-74681250D03*
G04 #@! TD*
D11*
G04 #@! TO.C,D16*
X136525000Y-79981250D03*
D10*
X136525000Y-82481250D03*
D12*
X136525000Y-74681250D03*
D11*
X136525000Y-77181250D03*
G04 #@! TD*
G04 #@! TO.C,D17*
X117475000Y-79981250D03*
D10*
X117475000Y-82481250D03*
D12*
X117475000Y-74681250D03*
D11*
X117475000Y-77181250D03*
G04 #@! TD*
G04 #@! TO.C,D18*
X98425000Y-79981250D03*
D10*
X98425000Y-82481250D03*
D12*
X98425000Y-74681250D03*
D11*
X98425000Y-77181250D03*
G04 #@! TD*
D10*
G04 #@! TO.C,D19*
X79375000Y-82481250D03*
D11*
X79375000Y-79981250D03*
D12*
X79375000Y-74681250D03*
D11*
X79375000Y-77181250D03*
G04 #@! TD*
D13*
G04 #@! TO.C,D20*
X54581250Y-66675000D03*
D10*
X57081250Y-66675000D03*
D13*
X51781250Y-66675000D03*
D12*
X49281250Y-66675000D03*
G04 #@! TD*
D11*
G04 #@! TO.C,D21*
X231775000Y-99031250D03*
D10*
X231775000Y-101531250D03*
D11*
X231775000Y-96231250D03*
D12*
X231775000Y-93731250D03*
G04 #@! TD*
D11*
G04 #@! TO.C,D22*
X212725000Y-99031250D03*
D10*
X212725000Y-101531250D03*
D12*
X212725000Y-93731250D03*
D11*
X212725000Y-96231250D03*
G04 #@! TD*
D10*
G04 #@! TO.C,D23*
X193675000Y-101531250D03*
D11*
X193675000Y-99031250D03*
D12*
X193675000Y-93731250D03*
D11*
X193675000Y-96231250D03*
G04 #@! TD*
G04 #@! TO.C,D24*
X174625000Y-99031250D03*
D10*
X174625000Y-101531250D03*
D11*
X174625000Y-96231250D03*
D12*
X174625000Y-93731250D03*
G04 #@! TD*
D11*
G04 #@! TO.C,D25*
X155575000Y-99031250D03*
D10*
X155575000Y-101531250D03*
D12*
X155575000Y-93731250D03*
D11*
X155575000Y-96231250D03*
G04 #@! TD*
D10*
G04 #@! TO.C,D26*
X136525000Y-101531250D03*
D11*
X136525000Y-99031250D03*
X136525000Y-96231250D03*
D12*
X136525000Y-93731250D03*
G04 #@! TD*
D10*
G04 #@! TO.C,D27*
X117475000Y-101531250D03*
D11*
X117475000Y-99031250D03*
D12*
X117475000Y-93731250D03*
D11*
X117475000Y-96231250D03*
G04 #@! TD*
G04 #@! TO.C,D28*
X98425000Y-99031250D03*
D10*
X98425000Y-101531250D03*
D12*
X98425000Y-93731250D03*
D11*
X98425000Y-96231250D03*
G04 #@! TD*
D10*
G04 #@! TO.C,D29*
X79375000Y-101531250D03*
D11*
X79375000Y-99031250D03*
X79375000Y-96231250D03*
D12*
X79375000Y-93731250D03*
G04 #@! TD*
D10*
G04 #@! TO.C,D30*
X60325000Y-101531250D03*
D11*
X60325000Y-99031250D03*
X60325000Y-96231250D03*
D12*
X60325000Y-93731250D03*
G04 #@! TD*
D11*
G04 #@! TO.C,D31*
X231775000Y-118081250D03*
D10*
X231775000Y-120581250D03*
D11*
X231775000Y-115281250D03*
D12*
X231775000Y-112781250D03*
G04 #@! TD*
D10*
G04 #@! TO.C,D32*
X212725000Y-120581250D03*
D11*
X212725000Y-118081250D03*
X212725000Y-115281250D03*
D12*
X212725000Y-112781250D03*
G04 #@! TD*
D11*
G04 #@! TO.C,D33*
X193675000Y-118081250D03*
D10*
X193675000Y-120581250D03*
D12*
X193675000Y-112781250D03*
D11*
X193675000Y-115281250D03*
G04 #@! TD*
D10*
G04 #@! TO.C,D34*
X174625000Y-120581250D03*
D11*
X174625000Y-118081250D03*
D12*
X174625000Y-112781250D03*
D11*
X174625000Y-115281250D03*
G04 #@! TD*
D13*
G04 #@! TO.C,D35*
X158562500Y-103981250D03*
D10*
X161062500Y-103981250D03*
D12*
X153262500Y-103981250D03*
D13*
X155762500Y-103981250D03*
G04 #@! TD*
D10*
G04 #@! TO.C,D36*
X142012500Y-103981250D03*
D13*
X139512500Y-103981250D03*
D12*
X134212500Y-103981250D03*
D13*
X136712500Y-103981250D03*
G04 #@! TD*
G04 #@! TO.C,D37*
X120462500Y-103981250D03*
D10*
X122962500Y-103981250D03*
D12*
X115162500Y-103981250D03*
D13*
X117662500Y-103981250D03*
G04 #@! TD*
D11*
G04 #@! TO.C,D38*
X98425000Y-118081250D03*
D10*
X98425000Y-120581250D03*
D11*
X98425000Y-115281250D03*
D12*
X98425000Y-112781250D03*
G04 #@! TD*
D10*
G04 #@! TO.C,D39*
X79375000Y-120581250D03*
D11*
X79375000Y-118081250D03*
D12*
X79375000Y-112781250D03*
D11*
X79375000Y-115281250D03*
G04 #@! TD*
G04 #@! TO.C,D40*
X60325000Y-118081250D03*
D10*
X60325000Y-120581250D03*
D11*
X60325000Y-115281250D03*
D12*
X60325000Y-112781250D03*
G04 #@! TD*
D14*
G04 #@! TO.C,SW1*
X228917500Y-57943750D03*
D15*
X226377500Y-52863750D03*
X220027500Y-55403750D03*
D14*
X218757500Y-57943750D03*
D16*
X223837500Y-57943750D03*
D17*
X230127500Y-52863750D03*
X216277500Y-55403750D03*
G04 #@! TD*
D15*
G04 #@! TO.C,SW2*
X207327500Y-52863750D03*
X200977500Y-55403750D03*
D14*
X199707500Y-57943750D03*
X209867500Y-57943750D03*
D16*
X204787500Y-57943750D03*
D17*
X211077500Y-52863750D03*
X197227500Y-55403750D03*
G04 #@! TD*
D14*
G04 #@! TO.C,SW3*
X190817500Y-57943750D03*
X180657500Y-57943750D03*
D15*
X188277500Y-52863750D03*
X181927500Y-55403750D03*
D16*
X185737500Y-57943750D03*
D17*
X192027500Y-52863750D03*
X178177500Y-55403750D03*
G04 #@! TD*
D15*
G04 #@! TO.C,SW4*
X169227500Y-52863750D03*
X162877500Y-55403750D03*
D16*
X166687500Y-57943750D03*
D14*
X171767500Y-57943750D03*
X161607500Y-57943750D03*
D17*
X172977500Y-52863750D03*
X159127500Y-55403750D03*
G04 #@! TD*
D16*
G04 #@! TO.C,SW5*
X147637500Y-57943750D03*
D15*
X150177500Y-52863750D03*
D14*
X142557500Y-57943750D03*
X152717500Y-57943750D03*
D15*
X143827500Y-55403750D03*
D17*
X153927500Y-52863750D03*
X140077500Y-55403750D03*
G04 #@! TD*
D14*
G04 #@! TO.C,SW6*
X133667500Y-57943750D03*
D15*
X124777500Y-55403750D03*
D14*
X123507500Y-57943750D03*
D15*
X131127500Y-52863750D03*
D16*
X128587500Y-57943750D03*
D17*
X134877500Y-52863750D03*
X121027500Y-55403750D03*
G04 #@! TD*
D16*
G04 #@! TO.C,SW7*
X109537500Y-57943750D03*
D14*
X104457500Y-57943750D03*
D15*
X112077500Y-52863750D03*
X105727500Y-55403750D03*
D14*
X114617500Y-57943750D03*
D17*
X115827500Y-52863750D03*
X101977500Y-55403750D03*
G04 #@! TD*
D15*
G04 #@! TO.C,SW8*
X93027500Y-52863750D03*
D16*
X90487500Y-57943750D03*
D14*
X95567500Y-57943750D03*
D15*
X86677500Y-55403750D03*
D14*
X85407500Y-57943750D03*
D17*
X96777500Y-52863750D03*
X82927500Y-55403750D03*
G04 #@! TD*
D14*
G04 #@! TO.C,SW9*
X76517500Y-57943750D03*
D16*
X71437500Y-57943750D03*
D15*
X73977500Y-52863750D03*
D14*
X66357500Y-57943750D03*
D15*
X67627500Y-55403750D03*
D17*
X77727500Y-52863750D03*
X63877500Y-55403750D03*
G04 #@! TD*
D14*
G04 #@! TO.C,SW10*
X47307500Y-57943750D03*
D15*
X48577500Y-55403750D03*
D16*
X52387500Y-57943750D03*
D15*
X54927500Y-52863750D03*
D14*
X57467500Y-57943750D03*
D17*
X58677500Y-52863750D03*
X44827500Y-55403750D03*
G04 #@! TD*
D16*
G04 #@! TO.C,SW11*
X223837500Y-76993750D03*
D14*
X218757500Y-76993750D03*
X228917500Y-76993750D03*
D15*
X226377500Y-71913750D03*
X220027500Y-74453750D03*
D17*
X230127500Y-71913750D03*
X216277500Y-74453750D03*
G04 #@! TD*
D16*
G04 #@! TO.C,SW12*
X204787500Y-76993750D03*
D15*
X207327500Y-71913750D03*
X200977500Y-74453750D03*
D14*
X199707500Y-76993750D03*
X209867500Y-76993750D03*
D17*
X211077500Y-71913750D03*
X197227500Y-74453750D03*
G04 #@! TD*
D14*
G04 #@! TO.C,SW13*
X180657500Y-76993750D03*
X190817500Y-76993750D03*
D16*
X185737500Y-76993750D03*
D15*
X188277500Y-71913750D03*
X181927500Y-74453750D03*
D17*
X192027500Y-71913750D03*
X178177500Y-74453750D03*
G04 #@! TD*
D15*
G04 #@! TO.C,SW14*
X162877500Y-74453750D03*
D14*
X161607500Y-76993750D03*
D16*
X166687500Y-76993750D03*
D14*
X171767500Y-76993750D03*
D15*
X169227500Y-71913750D03*
D17*
X172977500Y-71913750D03*
X159127500Y-74453750D03*
G04 #@! TD*
D15*
G04 #@! TO.C,SW15*
X150177500Y-71913750D03*
D14*
X152717500Y-76993750D03*
D15*
X143827500Y-74453750D03*
D16*
X147637500Y-76993750D03*
D14*
X142557500Y-76993750D03*
D17*
X153927500Y-71913750D03*
X140077500Y-74453750D03*
G04 #@! TD*
D15*
G04 #@! TO.C,SW16*
X131127500Y-71913750D03*
D14*
X123507500Y-76993750D03*
D16*
X128587500Y-76993750D03*
D14*
X133667500Y-76993750D03*
D15*
X124777500Y-74453750D03*
D17*
X134877500Y-71913750D03*
X121027500Y-74453750D03*
G04 #@! TD*
D14*
G04 #@! TO.C,SW17*
X114617500Y-76993750D03*
D15*
X112077500Y-71913750D03*
D16*
X109537500Y-76993750D03*
D14*
X104457500Y-76993750D03*
D15*
X105727500Y-74453750D03*
D17*
X115827500Y-71913750D03*
X101977500Y-74453750D03*
G04 #@! TD*
D14*
G04 #@! TO.C,SW18*
X95567500Y-76993750D03*
D16*
X90487500Y-76993750D03*
D15*
X86677500Y-74453750D03*
X93027500Y-71913750D03*
D14*
X85407500Y-76993750D03*
D17*
X96777500Y-71913750D03*
X82927500Y-74453750D03*
G04 #@! TD*
D16*
G04 #@! TO.C,SW19*
X71437500Y-76993750D03*
D14*
X66357500Y-76993750D03*
X76517500Y-76993750D03*
D15*
X73977500Y-71913750D03*
X67627500Y-74453750D03*
D17*
X77727500Y-71913750D03*
X63877500Y-74453750D03*
G04 #@! TD*
D14*
G04 #@! TO.C,SW20*
X57467500Y-76993750D03*
D15*
X54927500Y-71913750D03*
D16*
X52387500Y-76993750D03*
D14*
X47307500Y-76993750D03*
D15*
X48577500Y-74453750D03*
D17*
X58677500Y-71913750D03*
X44827500Y-74453750D03*
G04 #@! TD*
D15*
G04 #@! TO.C,SW21*
X220027500Y-93503750D03*
D14*
X228917500Y-96043750D03*
D16*
X223837500Y-96043750D03*
D14*
X218757500Y-96043750D03*
D15*
X226377500Y-90963750D03*
D17*
X230127500Y-90963750D03*
X216277500Y-93503750D03*
G04 #@! TD*
D14*
G04 #@! TO.C,SW22*
X199707500Y-96043750D03*
D15*
X207327500Y-90963750D03*
D16*
X204787500Y-96043750D03*
D15*
X200977500Y-93503750D03*
D14*
X209867500Y-96043750D03*
D17*
X211077500Y-90963750D03*
X197227500Y-93503750D03*
G04 #@! TD*
D15*
G04 #@! TO.C,SW23*
X188277500Y-90963750D03*
D14*
X190817500Y-96043750D03*
D16*
X185737500Y-96043750D03*
D15*
X181927500Y-93503750D03*
D14*
X180657500Y-96043750D03*
D17*
X192027500Y-90963750D03*
X178177500Y-93503750D03*
G04 #@! TD*
D14*
G04 #@! TO.C,SW24*
X161607500Y-96043750D03*
D15*
X162877500Y-93503750D03*
D14*
X171767500Y-96043750D03*
D16*
X166687500Y-96043750D03*
D15*
X169227500Y-90963750D03*
D17*
X172977500Y-90963750D03*
X159127500Y-93503750D03*
G04 #@! TD*
D15*
G04 #@! TO.C,SW25*
X143827500Y-93503750D03*
D14*
X142557500Y-96043750D03*
D16*
X147637500Y-96043750D03*
D14*
X152717500Y-96043750D03*
D15*
X150177500Y-90963750D03*
D17*
X153927500Y-90963750D03*
X140077500Y-93503750D03*
G04 #@! TD*
D15*
G04 #@! TO.C,SW26*
X124777500Y-93503750D03*
D16*
X128587500Y-96043750D03*
D14*
X133667500Y-96043750D03*
D15*
X131127500Y-90963750D03*
D14*
X123507500Y-96043750D03*
D17*
X134877500Y-90963750D03*
X121027500Y-93503750D03*
G04 #@! TD*
D15*
G04 #@! TO.C,SW27*
X105727500Y-93503750D03*
D14*
X104457500Y-96043750D03*
D15*
X112077500Y-90963750D03*
D16*
X109537500Y-96043750D03*
D14*
X114617500Y-96043750D03*
D17*
X115827500Y-90963750D03*
X101977500Y-93503750D03*
G04 #@! TD*
D14*
G04 #@! TO.C,SW28*
X95567500Y-96043750D03*
X85407500Y-96043750D03*
D15*
X86677500Y-93503750D03*
D16*
X90487500Y-96043750D03*
D15*
X93027500Y-90963750D03*
D17*
X96777500Y-90963750D03*
X82927500Y-93503750D03*
G04 #@! TD*
D15*
G04 #@! TO.C,SW29*
X73977500Y-90963750D03*
X67627500Y-93503750D03*
D16*
X71437500Y-96043750D03*
D14*
X66357500Y-96043750D03*
X76517500Y-96043750D03*
D17*
X77727500Y-90963750D03*
X63877500Y-93503750D03*
G04 #@! TD*
D16*
G04 #@! TO.C,SW30*
X52387500Y-96043750D03*
D15*
X54927500Y-90963750D03*
D14*
X57467500Y-96043750D03*
X47307500Y-96043750D03*
D15*
X48577500Y-93503750D03*
D17*
X58677500Y-90963750D03*
X44827500Y-93503750D03*
G04 #@! TD*
D14*
G04 #@! TO.C,SW31*
X218757500Y-115093750D03*
D15*
X226377500Y-110013750D03*
D16*
X223837500Y-115093750D03*
D14*
X228917500Y-115093750D03*
D15*
X220027500Y-112553750D03*
D17*
X230127500Y-110013750D03*
X216277500Y-112553750D03*
G04 #@! TD*
D14*
G04 #@! TO.C,SW32*
X199707500Y-115093750D03*
D15*
X207327500Y-110013750D03*
D14*
X209867500Y-115093750D03*
D16*
X204787500Y-115093750D03*
D15*
X200977500Y-112553750D03*
D17*
X211077500Y-110013750D03*
X197227500Y-112553750D03*
G04 #@! TD*
D15*
G04 #@! TO.C,SW33*
X181927500Y-112553750D03*
D14*
X180657500Y-115093750D03*
X190817500Y-115093750D03*
D16*
X185737500Y-115093750D03*
D15*
X188277500Y-110013750D03*
D17*
X192027500Y-110013750D03*
X178177500Y-112553750D03*
G04 #@! TD*
D16*
G04 #@! TO.C,SW34*
X166687500Y-115093750D03*
D14*
X171767500Y-115093750D03*
D15*
X169227500Y-110013750D03*
X162877500Y-112553750D03*
D14*
X161607500Y-115093750D03*
D17*
X172977500Y-110013750D03*
X159127500Y-112553750D03*
G04 #@! TD*
D14*
G04 #@! TO.C,SW35*
X152717500Y-115093750D03*
D15*
X150177500Y-110013750D03*
D16*
X147637500Y-115093750D03*
D14*
X142557500Y-115093750D03*
D15*
X143827500Y-112553750D03*
D17*
X153927500Y-110013750D03*
X140077500Y-112553750D03*
G04 #@! TD*
D16*
G04 #@! TO.C,SW36*
X128587500Y-115093750D03*
D15*
X131127500Y-110013750D03*
D14*
X123507500Y-115093750D03*
X133667500Y-115093750D03*
D15*
X124777500Y-112553750D03*
D17*
X134877500Y-110013750D03*
X121027500Y-112553750D03*
G04 #@! TD*
D14*
G04 #@! TO.C,SW37*
X104457500Y-115093750D03*
D15*
X112077500Y-110013750D03*
D16*
X109537500Y-115093750D03*
D14*
X114617500Y-115093750D03*
D15*
X105727500Y-112553750D03*
D17*
X115827500Y-110013750D03*
X101977500Y-112553750D03*
G04 #@! TD*
D15*
G04 #@! TO.C,SW38*
X86677500Y-112553750D03*
X93027500Y-110013750D03*
D16*
X90487500Y-115093750D03*
D14*
X95567500Y-115093750D03*
X85407500Y-115093750D03*
D17*
X96777500Y-110013750D03*
X82927500Y-112553750D03*
G04 #@! TD*
D15*
G04 #@! TO.C,SW39*
X73977500Y-110013750D03*
D14*
X66357500Y-115093750D03*
X76517500Y-115093750D03*
D15*
X67627500Y-112553750D03*
D16*
X71437500Y-115093750D03*
D17*
X77727500Y-110013750D03*
X63877500Y-112553750D03*
G04 #@! TD*
D15*
G04 #@! TO.C,SW40*
X54927500Y-110013750D03*
D14*
X47307500Y-115093750D03*
D16*
X52387500Y-115093750D03*
D15*
X48577500Y-112553750D03*
D14*
X57467500Y-115093750D03*
D17*
X58677500Y-110013750D03*
X44827500Y-112553750D03*
G04 #@! TD*
D14*
G04 #@! TO.C,SW41*
X162242500Y-115093750D03*
D15*
X154622500Y-120173750D03*
D14*
X152082500Y-115093750D03*
D16*
X157162500Y-115093750D03*
D15*
X160972500Y-117633750D03*
D17*
X150872500Y-120173750D03*
X164722500Y-117633750D03*
G04 #@! TD*
D14*
G04 #@! TO.C,SW42*
X124142500Y-115093750D03*
D16*
X119062500Y-115093750D03*
D14*
X113982500Y-115093750D03*
D15*
X122872500Y-117633750D03*
X116522500Y-120173750D03*
D17*
X112772500Y-120173750D03*
X126622500Y-117633750D03*
G04 #@! TD*
D15*
G04 #@! TO.C,SW43*
X135572500Y-120173750D03*
D16*
X138112500Y-115093750D03*
D14*
X133032500Y-115093750D03*
X143192500Y-115093750D03*
D15*
X141922500Y-117633750D03*
D17*
X131822500Y-120173750D03*
X145672500Y-117633750D03*
G04 #@! TD*
D18*
G04 #@! TO.C,REF\u002A\u002A*
X130962500Y-122078750D03*
D16*
X107162500Y-106838750D03*
D18*
X107162500Y-122078750D03*
D16*
X130962500Y-106838750D03*
G04 #@! TD*
G04 #@! TO.C,REF\u002A\u002A*
X169062500Y-106838750D03*
X145262500Y-106838750D03*
D18*
X169062500Y-122078750D03*
X145262500Y-122078750D03*
G04 #@! TD*
G04 #@! TO.C,REF\u002A\u002A*
X90487500Y-122078750D03*
D16*
X90487500Y-106868750D03*
X185737500Y-106868750D03*
D18*
X185737500Y-122078750D03*
G04 #@! TD*
D16*
G04 #@! TO.C,REF\u002A\u002A*
X188112500Y-106868750D03*
D18*
X188112500Y-122078750D03*
X88112500Y-122078750D03*
D16*
X88112500Y-106868750D03*
G04 #@! TD*
D19*
G04 #@! TO.C,SW46*
X218237500Y-115093750D03*
X229437500Y-115093750D03*
D20*
X221337500Y-122593750D03*
D21*
X226337500Y-122593750D03*
X223837500Y-122593750D03*
X226337500Y-108093750D03*
X221337500Y-108093750D03*
G04 #@! TD*
D19*
G04 #@! TO.C,SW47*
X46787500Y-115093750D03*
X57987500Y-115093750D03*
D20*
X49887500Y-122593750D03*
D21*
X54887500Y-122593750D03*
X52387500Y-122593750D03*
X54887500Y-108093750D03*
X49887500Y-108093750D03*
G04 #@! TD*
D22*
G04 #@! TO.C,U1*
X49830000Y-69130000D03*
D23*
X52370000Y-69130000D03*
X54910000Y-69130000D03*
X57450000Y-69130000D03*
X59990000Y-69130000D03*
X62530000Y-69130000D03*
X65070000Y-69130000D03*
X67610000Y-69130000D03*
X70150000Y-69130000D03*
X72690000Y-69130000D03*
X75230000Y-69130000D03*
X77770000Y-69130000D03*
X77770000Y-84370000D03*
X75230000Y-84370000D03*
X72690000Y-84370000D03*
X70150000Y-84370000D03*
X67610000Y-84370000D03*
X65070000Y-84370000D03*
X62530000Y-84370000D03*
X59990000Y-84370000D03*
X57450000Y-84370000D03*
X54910000Y-84370000D03*
X52370000Y-84370000D03*
X49830000Y-84370000D03*
G04 #@! TD*
D18*
G04 #@! TO.C,REF\u002A\u002A*
X150012500Y-122078750D03*
D16*
X150012500Y-106838750D03*
D18*
X126212500Y-122078750D03*
D16*
X126212500Y-106838750D03*
G04 #@! TD*
D24*
G04 #@! TO.C,REF\u002A\u002A*
X214312500Y-86518750D03*
G04 #@! TD*
G04 #@! TO.C,REF\u002A\u002A*
X176212500Y-105568750D03*
G04 #@! TD*
G04 #@! TO.C,REF\u002A\u002A*
X176212500Y-67468750D03*
G04 #@! TD*
G04 #@! TO.C,REF\u002A\u002A*
X100012500Y-105568750D03*
G04 #@! TD*
G04 #@! TO.C,REF\u002A\u002A*
X61912500Y-105568750D03*
G04 #@! TD*
G04 #@! TO.C,REF\u002A\u002A*
X100012500Y-67468750D03*
G04 #@! TD*
D25*
G04 #@! TO.C,SW44*
X55537500Y-105087500D03*
X49237500Y-105087500D03*
X49237500Y-101287500D03*
X55537500Y-101287500D03*
G04 #@! TD*
D26*
G04 #@! TO.C,SW45*
X47797500Y-103187500D03*
X56977500Y-103187500D03*
G04 #@! TD*
M02*
