M48
; DRILL file {KiCad (5.1.12-1-10_14)} date Monday, February 28, 2022 at 09:29:07 PM
; FORMAT={-:-/ absolute / metric / decimal}
; #@! TF.CreationDate,2022-02-28T21:29:07-07:00
; #@! TF.GenerationSoftware,Kicad,Pcbnew,(5.1.12-1-10_14)
; #@! TF.FileFunction,NonPlated,1,2,NPTH
FMAT,2
METRIC
T1C1.702
T2C2.200
T3C3.000
T4C3.048
T5C3.988
%
G90
G05
T1
X47.307Y-57.944
X47.307Y-76.994
X47.307Y-96.044
X47.307Y-115.094
X57.467Y-57.944
X57.467Y-76.994
X57.467Y-96.044
X57.467Y-115.094
X66.358Y-57.944
X66.358Y-76.994
X66.358Y-96.044
X66.358Y-115.094
X76.517Y-57.944
X76.517Y-76.994
X76.517Y-96.044
X76.517Y-115.094
X85.407Y-57.944
X85.407Y-76.994
X85.407Y-96.044
X85.407Y-115.094
X95.567Y-57.944
X95.567Y-76.994
X95.567Y-96.044
X95.567Y-115.094
X104.457Y-57.944
X104.457Y-76.994
X104.457Y-96.044
X104.457Y-115.094
X113.983Y-115.094
X114.617Y-57.944
X114.617Y-76.994
X114.617Y-96.044
X114.617Y-115.094
X123.507Y-57.944
X123.507Y-76.994
X123.507Y-96.044
X123.507Y-115.094
X124.142Y-115.094
X133.032Y-115.094
X133.667Y-57.944
X133.667Y-76.994
X133.667Y-96.044
X133.667Y-115.094
X142.558Y-57.944
X142.558Y-76.994
X142.558Y-96.044
X142.558Y-115.094
X143.192Y-115.094
X152.082Y-115.094
X152.718Y-57.944
X152.718Y-76.994
X152.718Y-96.044
X152.718Y-115.094
X161.607Y-57.944
X161.607Y-76.994
X161.607Y-96.044
X161.607Y-115.094
X162.243Y-115.094
X171.767Y-57.944
X171.767Y-76.994
X171.767Y-96.044
X171.767Y-115.094
X180.657Y-57.944
X180.657Y-76.994
X180.657Y-96.044
X180.657Y-115.094
X190.817Y-57.944
X190.817Y-76.994
X190.817Y-96.044
X190.817Y-115.094
X199.707Y-57.944
X199.707Y-76.994
X199.707Y-96.044
X199.707Y-115.094
X209.867Y-57.944
X209.867Y-76.994
X209.867Y-96.044
X209.867Y-115.094
X218.757Y-57.944
X218.757Y-76.994
X218.757Y-96.044
X218.757Y-115.094
X228.917Y-57.944
X228.917Y-76.994
X228.917Y-96.044
X228.917Y-115.094
T2
X61.912Y-86.519
X100.012Y-67.469
X100.012Y-105.569
X176.213Y-67.469
X176.213Y-105.569
X214.312Y-86.519
T3
X48.578Y-55.404
X48.578Y-74.454
X48.578Y-93.504
X48.578Y-112.554
X54.927Y-52.864
X54.927Y-71.914
X54.927Y-90.964
X54.927Y-110.014
X67.627Y-55.404
X67.627Y-74.454
X67.627Y-93.504
X67.627Y-112.554
X73.977Y-52.864
X73.977Y-71.914
X73.977Y-90.964
X73.977Y-110.014
X86.677Y-55.404
X86.677Y-74.454
X86.677Y-93.504
X86.677Y-112.554
X93.027Y-52.864
X93.027Y-71.914
X93.027Y-90.964
X93.027Y-110.014
X105.727Y-55.404
X105.727Y-74.454
X105.727Y-93.504
X105.727Y-112.554
X112.078Y-52.864
X112.078Y-71.914
X112.078Y-90.964
X112.078Y-110.014
X116.522Y-120.174
X122.872Y-117.634
X124.777Y-55.404
X124.777Y-74.454
X124.777Y-93.504
X124.777Y-112.554
X131.127Y-52.864
X131.127Y-71.914
X131.127Y-90.964
X131.127Y-110.014
X135.572Y-120.174
X141.922Y-117.634
X143.827Y-55.404
X143.827Y-74.454
X143.827Y-93.504
X143.827Y-112.554
X150.177Y-52.864
X150.177Y-71.914
X150.177Y-90.964
X150.177Y-110.014
X154.623Y-120.174
X160.972Y-117.634
X162.877Y-55.404
X162.877Y-74.454
X162.877Y-93.504
X162.877Y-112.554
X169.227Y-52.864
X169.227Y-71.914
X169.227Y-90.964
X169.227Y-110.014
X181.927Y-55.404
X181.927Y-74.454
X181.927Y-93.504
X181.927Y-112.554
X188.278Y-52.864
X188.278Y-71.914
X188.278Y-90.964
X188.278Y-110.014
X200.977Y-55.404
X200.977Y-74.454
X200.977Y-93.504
X200.977Y-112.554
X207.327Y-52.864
X207.327Y-71.914
X207.327Y-90.964
X207.327Y-110.014
X220.028Y-55.404
X220.028Y-74.454
X220.028Y-93.504
X220.028Y-112.554
X226.377Y-52.864
X226.377Y-71.914
X226.377Y-90.964
X226.377Y-110.014
T4
X88.112Y-122.079
X90.487Y-122.079
X107.162Y-122.079
X126.212Y-122.079
X130.963Y-122.079
X145.262Y-122.079
X150.012Y-122.079
X169.062Y-122.079
X185.737Y-122.079
X188.112Y-122.079
T5
X52.387Y-57.944
X52.387Y-76.994
X52.387Y-96.044
X52.387Y-115.094
X71.438Y-57.944
X71.438Y-76.994
X71.438Y-96.044
X71.438Y-115.094
X88.112Y-106.869
X90.487Y-57.944
X90.487Y-76.994
X90.487Y-96.044
X90.487Y-106.869
X90.487Y-115.094
X107.162Y-106.839
X109.537Y-57.944
X109.537Y-76.994
X109.537Y-96.044
X109.537Y-115.094
X119.062Y-115.094
X126.212Y-106.839
X128.588Y-57.944
X128.588Y-76.994
X128.588Y-96.044
X128.588Y-115.094
X130.963Y-106.839
X138.112Y-115.094
X145.262Y-106.839
X147.637Y-57.944
X147.637Y-76.994
X147.637Y-96.044
X147.637Y-115.094
X150.012Y-106.839
X157.162Y-115.094
X166.688Y-57.944
X166.688Y-76.994
X166.688Y-96.044
X166.688Y-115.094
X169.062Y-106.839
X185.737Y-57.944
X185.737Y-76.994
X185.737Y-96.044
X185.737Y-106.869
X185.737Y-115.094
X188.112Y-106.869
X204.787Y-57.944
X204.787Y-76.994
X204.787Y-96.044
X204.787Y-115.094
X223.837Y-57.944
X223.837Y-76.994
X223.837Y-96.044
X223.837Y-115.094
T0
M30
