%TF.GenerationSoftware,KiCad,Pcbnew,(5.1.12-1-10_14)*%
%TF.CreationDate,2022-02-28T21:29:04-07:00*%
%TF.ProjectId,banime40,62616e69-6d65-4343-902e-6b696361645f,rev?*%
%TF.SameCoordinates,Original*%
%TF.FileFunction,Paste,Bot*%
%TF.FilePolarity,Positive*%
%FSLAX46Y46*%
G04 Gerber Fmt 4.6, Leading zero omitted, Abs format (unit mm)*
G04 Created by KiCad (PCBNEW (5.1.12-1-10_14)) date 2022-02-28 21:29:04*
%MOMM*%
%LPD*%
G01*
G04 APERTURE LIST*
%ADD10R,0.700000X0.500000*%
%ADD11R,2.550000X2.500000*%
%ADD12R,1.200000X1.600000*%
%ADD13R,1.600000X1.200000*%
G04 APERTURE END LIST*
D10*
%TO.C,SW44*%
X55775000Y-86212500D03*
X52175000Y-86212500D03*
X55775000Y-88412500D03*
X52175000Y-88412500D03*
%TD*%
D11*
%TO.C,SW2*%
X197227500Y-55403750D03*
X211077500Y-52863750D03*
%TD*%
%TO.C,SW3*%
X178177500Y-55403750D03*
X192027500Y-52863750D03*
%TD*%
%TO.C,SW11*%
X216277500Y-74453750D03*
X230127500Y-71913750D03*
%TD*%
D12*
%TO.C,D40*%
X60325000Y-118081250D03*
X60325000Y-115281250D03*
%TD*%
%TO.C,D39*%
X79375000Y-118081250D03*
X79375000Y-115281250D03*
%TD*%
%TO.C,D38*%
X98425000Y-118081250D03*
X98425000Y-115281250D03*
%TD*%
D13*
%TO.C,D37*%
X120462500Y-103981250D03*
X117662500Y-103981250D03*
%TD*%
%TO.C,D36*%
X139512500Y-103981250D03*
X136712500Y-103981250D03*
%TD*%
%TO.C,D35*%
X158562500Y-103981250D03*
X155762500Y-103981250D03*
%TD*%
D12*
%TO.C,D34*%
X174625000Y-118081250D03*
X174625000Y-115281250D03*
%TD*%
%TO.C,D33*%
X193675000Y-118081250D03*
X193675000Y-115281250D03*
%TD*%
%TO.C,D32*%
X212725000Y-118081250D03*
X212725000Y-115281250D03*
%TD*%
%TO.C,D31*%
X231775000Y-118081250D03*
X231775000Y-115281250D03*
%TD*%
%TO.C,D30*%
X60325000Y-99031250D03*
X60325000Y-96231250D03*
%TD*%
%TO.C,D29*%
X79375000Y-99031250D03*
X79375000Y-96231250D03*
%TD*%
%TO.C,D28*%
X98425000Y-99031250D03*
X98425000Y-96231250D03*
%TD*%
%TO.C,D27*%
X117475000Y-99031250D03*
X117475000Y-96231250D03*
%TD*%
%TO.C,D26*%
X136525000Y-99031250D03*
X136525000Y-96231250D03*
%TD*%
%TO.C,D25*%
X155575000Y-99031250D03*
X155575000Y-96231250D03*
%TD*%
%TO.C,D24*%
X174625000Y-99031250D03*
X174625000Y-96231250D03*
%TD*%
%TO.C,D23*%
X193675000Y-99031250D03*
X193675000Y-96231250D03*
%TD*%
%TO.C,D22*%
X212725000Y-99031250D03*
X212725000Y-96231250D03*
%TD*%
%TO.C,D21*%
X231775000Y-99031250D03*
X231775000Y-96231250D03*
%TD*%
D13*
%TO.C,D20*%
X54581250Y-66675000D03*
X51781250Y-66675000D03*
%TD*%
D12*
%TO.C,D19*%
X79375000Y-79981250D03*
X79375000Y-77181250D03*
%TD*%
%TO.C,D18*%
X98425000Y-79981250D03*
X98425000Y-77181250D03*
%TD*%
%TO.C,D17*%
X117475000Y-79981250D03*
X117475000Y-77181250D03*
%TD*%
%TO.C,D16*%
X136525000Y-79981250D03*
X136525000Y-77181250D03*
%TD*%
%TO.C,D15*%
X155575000Y-79981250D03*
X155575000Y-77181250D03*
%TD*%
%TO.C,D14*%
X174625000Y-79981250D03*
X174625000Y-77181250D03*
%TD*%
%TO.C,D13*%
X193675000Y-79981250D03*
X193675000Y-77181250D03*
%TD*%
%TO.C,D12*%
X212725000Y-79862500D03*
X212725000Y-77062500D03*
%TD*%
%TO.C,D11*%
X231775000Y-79862500D03*
X231775000Y-77062500D03*
%TD*%
%TO.C,D10*%
X60325000Y-60931250D03*
X60325000Y-58131250D03*
%TD*%
%TO.C,D9*%
X79375000Y-60931250D03*
X79375000Y-58131250D03*
%TD*%
%TO.C,D8*%
X98425000Y-60931250D03*
X98425000Y-58131250D03*
%TD*%
%TO.C,D7*%
X117475000Y-60931250D03*
X117475000Y-58131250D03*
%TD*%
%TO.C,D6*%
X136525000Y-60931250D03*
X136525000Y-58131250D03*
%TD*%
%TO.C,D5*%
X155575000Y-60931250D03*
X155575000Y-58131250D03*
%TD*%
%TO.C,D4*%
X174625000Y-60931250D03*
X174625000Y-58131250D03*
%TD*%
%TO.C,D3*%
X193675000Y-60931250D03*
X193675000Y-58131250D03*
%TD*%
%TO.C,D2*%
X212725000Y-60931250D03*
X212725000Y-58131250D03*
%TD*%
%TO.C,D1*%
X231775000Y-60931250D03*
X231775000Y-58131250D03*
%TD*%
D11*
%TO.C,SW43*%
X145672500Y-117633750D03*
X131822500Y-120173750D03*
%TD*%
%TO.C,SW42*%
X126622500Y-117633750D03*
X112772500Y-120173750D03*
%TD*%
%TO.C,SW41*%
X164722500Y-117633750D03*
X150872500Y-120173750D03*
%TD*%
%TO.C,SW40*%
X44827500Y-112553750D03*
X58677500Y-110013750D03*
%TD*%
%TO.C,SW39*%
X63877500Y-112553750D03*
X77727500Y-110013750D03*
%TD*%
%TO.C,SW38*%
X82927500Y-112553750D03*
X96777500Y-110013750D03*
%TD*%
%TO.C,SW37*%
X101977500Y-112553750D03*
X115827500Y-110013750D03*
%TD*%
%TO.C,SW36*%
X121027500Y-112553750D03*
X134877500Y-110013750D03*
%TD*%
%TO.C,SW35*%
X140077500Y-112553750D03*
X153927500Y-110013750D03*
%TD*%
%TO.C,SW34*%
X159127500Y-112553750D03*
X172977500Y-110013750D03*
%TD*%
%TO.C,SW33*%
X178177500Y-112553750D03*
X192027500Y-110013750D03*
%TD*%
%TO.C,SW32*%
X197227500Y-112553750D03*
X211077500Y-110013750D03*
%TD*%
%TO.C,SW31*%
X216277500Y-112553750D03*
X230127500Y-110013750D03*
%TD*%
%TO.C,SW30*%
X44827500Y-93503750D03*
X58677500Y-90963750D03*
%TD*%
%TO.C,SW29*%
X63877500Y-93503750D03*
X77727500Y-90963750D03*
%TD*%
%TO.C,SW28*%
X82927500Y-93503750D03*
X96777500Y-90963750D03*
%TD*%
%TO.C,SW27*%
X101977500Y-93503750D03*
X115827500Y-90963750D03*
%TD*%
%TO.C,SW26*%
X121027500Y-93503750D03*
X134877500Y-90963750D03*
%TD*%
%TO.C,SW25*%
X140077500Y-93503750D03*
X153927500Y-90963750D03*
%TD*%
%TO.C,SW24*%
X159127500Y-93503750D03*
X172977500Y-90963750D03*
%TD*%
%TO.C,SW23*%
X178177500Y-93503750D03*
X192027500Y-90963750D03*
%TD*%
%TO.C,SW22*%
X197227500Y-93503750D03*
X211077500Y-90963750D03*
%TD*%
%TO.C,SW21*%
X216277500Y-93503750D03*
X230127500Y-90963750D03*
%TD*%
%TO.C,SW20*%
X44827500Y-74453750D03*
X58677500Y-71913750D03*
%TD*%
%TO.C,SW19*%
X63877500Y-74453750D03*
X77727500Y-71913750D03*
%TD*%
%TO.C,SW18*%
X82927500Y-74453750D03*
X96777500Y-71913750D03*
%TD*%
%TO.C,SW17*%
X101977500Y-74453750D03*
X115827500Y-71913750D03*
%TD*%
%TO.C,SW16*%
X121027500Y-74453750D03*
X134877500Y-71913750D03*
%TD*%
%TO.C,SW15*%
X140077500Y-74453750D03*
X153927500Y-71913750D03*
%TD*%
%TO.C,SW14*%
X159127500Y-74453750D03*
X172977500Y-71913750D03*
%TD*%
%TO.C,SW13*%
X178177500Y-74453750D03*
X192027500Y-71913750D03*
%TD*%
%TO.C,SW12*%
X197227500Y-74453750D03*
X211077500Y-71913750D03*
%TD*%
%TO.C,SW10*%
X44827500Y-55403750D03*
X58677500Y-52863750D03*
%TD*%
%TO.C,SW9*%
X63877500Y-55403750D03*
X77727500Y-52863750D03*
%TD*%
%TO.C,SW8*%
X82927500Y-55403750D03*
X96777500Y-52863750D03*
%TD*%
%TO.C,SW7*%
X101977500Y-55403750D03*
X115827500Y-52863750D03*
%TD*%
%TO.C,SW6*%
X121027500Y-55403750D03*
X134877500Y-52863750D03*
%TD*%
%TO.C,SW5*%
X140077500Y-55403750D03*
X153927500Y-52863750D03*
%TD*%
%TO.C,SW4*%
X159127500Y-55403750D03*
X172977500Y-52863750D03*
%TD*%
%TO.C,SW1*%
X216277500Y-55403750D03*
X230127500Y-52863750D03*
%TD*%
M02*
