M48
METRIC,TZ
T1C0.400
T2C1.000
T3C1.092
%
G90
G05
T1
X44828Y-65465
X50800Y-100806
X50800Y-105569
X51303Y-73965
X52388Y-103188
X52388Y-119063
X52394Y-73007
X53975Y-100806
X53975Y-105569
X55563Y-103188
X61119Y-102931
X61913Y-64294
X61913Y-71438
X61913Y-120650
X62706Y-91654
X62706Y-95354
X62706Y-100012
X63153Y-67469
X64294Y-70644
X64594Y-91654
X64594Y-96044
X64594Y-99219
X65077Y-71438
X65087Y-101600
X67466Y-67471
X69056Y-82550
X69850Y-67469
X70925Y-67187
X72301Y-66367
X73025Y-63500
X73025Y-88106
X73819Y-98910
X74672Y-98185
X75406Y-87313
X77788Y-86519
X80962Y-66675
X80962Y-117475
X80962Y-122238
X82550Y-86519
X101600Y-87313
X103072Y-118947
X104660Y-117360
X104890Y-119178
X107156Y-117475
X120650Y-88106
X138112Y-98185
X147638Y-117688
X157163Y-98910
X162946Y-118351
X170623Y-116714
X173004Y-119096
X173235Y-117277
X173240Y-115878
X178178Y-99635
X197228Y-100390
X202406Y-116681
X202406Y-123031
X216278Y-106779
X223838Y-119856
X225425Y-64294
T2
X49281Y-66675
X49887Y-108094
X49887Y-122594
X52388Y-122594
X54888Y-108094
X54888Y-122594
X57081Y-66675
X60325Y-55631
X60325Y-63431
X60325Y-93731
X60325Y-101531
X60325Y-112781
X60325Y-120581
X79375Y-55631
X79375Y-63431
X79375Y-74681
X79375Y-82481
X79375Y-93731
X79375Y-101531
X79375Y-112781
X79375Y-120581
X98425Y-55631
X98425Y-63431
X98425Y-74681
X98425Y-82481
X98425Y-93731
X98425Y-101531
X98425Y-112781
X98425Y-120581
X115163Y-103981
X117475Y-55631
X117475Y-63431
X117475Y-74681
X117475Y-82481
X117475Y-93731
X117475Y-101531
X122963Y-103981
X134213Y-103981
X136525Y-55631
X136525Y-63431
X136525Y-74681
X136525Y-82481
X136525Y-93731
X136525Y-101531
X142013Y-103981
X153263Y-103981
X155575Y-55631
X155575Y-63431
X155575Y-74681
X155575Y-82481
X155575Y-93731
X155575Y-101531
X161063Y-103981
X174625Y-55631
X174625Y-63431
X174625Y-74681
X174625Y-82481
X174625Y-93731
X174625Y-101531
X174625Y-112781
X174625Y-120581
X193675Y-55631
X193675Y-63431
X193675Y-74681
X193675Y-82481
X193675Y-93731
X193675Y-101531
X193675Y-112781
X193675Y-120581
X212725Y-55631
X212725Y-63431
X212725Y-74563
X212725Y-82363
X212725Y-93731
X212725Y-101531
X212725Y-112781
X212725Y-120581
X221338Y-108094
X221338Y-122594
X223838Y-122594
X226338Y-108094
X226338Y-122594
X231775Y-55631
X231775Y-63431
X231775Y-74563
X231775Y-82363
X231775Y-93731
X231775Y-101531
X231775Y-112781
X231775Y-120581
T3
X49830Y-69130
X49830Y-84370
X52370Y-69130
X52370Y-84370
X54910Y-69130
X54910Y-84370
X57450Y-69130
X57450Y-84370
X59990Y-69130
X59990Y-84370
X62530Y-69130
X62530Y-84370
X65070Y-69130
X65070Y-84370
X67610Y-69130
X67610Y-84370
X70150Y-69130
X70150Y-84370
X72690Y-69130
X72690Y-84370
X75230Y-69130
X75230Y-84370
X77770Y-69130
X77770Y-84370
T0
M30
